M48
;Layer_Color=9474304
;FILE_FORMAT=4:4
METRIC,LZ
;TYPE=PLATED
T1F00S00C0.2030
T2F00S00C0.3810
T3F00S00C0.5000
T4F00S00C0.5080
T5F00S00C1.0000
T6F00S00C1.0160
T7F00S00C1.0200
T8F00S00C1.1100
T9F00S00C1.1500
T10F00S00C1.3500
T11F00S00C1.5000
T12F00S00C3.6000
T13F00S00C4.0000
%
T01
X0014605Y0028829
X0018796Y0027305
X0021717Y0030099
X0033374Y0032709
X0033774Y0033109
X0034174
Y0033509
Y0034709
Y0035109
X0033774
Y0035509
X0034174
X0034574Y00351176
X0034974Y0034709
Y0034309
X0035374
Y0033909
X0035774
Y0034309
X0034974Y0033909
X0035374Y0032709
Y0035509
X0035774
X0033374
X0032974Y0035109
X0033374Y0033909
T02
X0019304Y0013208
X0022225Y0013081
X001905Y0018669
X0021082Y00269494
X0021717Y00310552
X0019431Y003185
X0018669Y0034163
X001651Y0033782
X0018034Y00361216
X0013081Y0038735
X0008001Y0037338
X0007086Y0029083
X0015113Y0030099
X0024892Y0035052
X0025527Y0035941
X0026416Y0036576
X0025527Y00381
X0028702Y0036322
X0029718Y0033782
X0030226Y0032264
X0030734Y0032766
Y00315932
X0031623Y0027432
X00360092Y00296508
X00361569Y00309475
X0036068Y0022987
X0046228Y0013716
X00450055Y0047879
X0043688
X0047117Y0054102
X0047498Y0062865
X0046609
X0043688Y0062357
X0050165Y0062611
X0060071Y0057277
X0034417Y0062611
X003175Y0066675
X0030754Y0066655
X0027432Y0062611
X0021717Y0065024
Y0068961
X002159Y00465544
T03
X0006096Y0011708
T04
X0038862Y0044196
T05
X00297942Y00113538
X003429Y0028448
X0023241Y0039497
X00410972Y0035179
X00439166Y00261874
X00635Y00158999
X006604
X006858
X007112
Y00082799
X006858
X006604
X00635
X00598932Y00441198
X006096Y0052959
X00410972Y00573163
T06
X0026797Y0021717
T07
X0032893Y0057277
X0035433
Y0059817
X0032893
T08
X001651Y0006858
X001905
X002159
X002413
X002667
X002921
X003175
X003429
X003683
X003937
X004191
X004445
X004699
X004953
X005207
X005461
T09
X0049657Y0042291
X0052197
X00518922Y00674612
X00493522
X0043314
X0040774
X00102108Y00467624
Y00442224
T10
X0031114Y00174612
X0033654
X0036194
X0038734
X0041274
X0043814
T11
X0026954Y00647612
Y00685612
X0035594
Y00647612
T12
X00045466Y00047508
X0085725
X01387602
Y0067565
X0085725
X00045466
T13
X0068143Y0030814
Y0040814
M30
