%TF.GenerationSoftware,Altium Limited,Altium Designer,19.0.15 (446)*%
G04 Layer_Color=8421504*
%FSLAX45Y45*%
%MOMM*%
%TF.FileFunction,Paste,Top*%
%TF.Part,Single*%
G01*
G75*
%TA.AperFunction,SMDPad,CuDef*%
%ADD10R,0.70000X1.30000*%
%ADD11R,0.50000X0.45000*%
%ADD12R,0.50000X0.50000*%
%ADD13R,0.70000X0.40000*%
%ADD14R,0.62000X0.56000*%
%ADD15R,0.60000X0.55000*%
%ADD16R,1.45000X2.10000*%
%ADD17R,0.80000X0.80000*%
%TA.AperFunction,BGAPad,CuDef*%
%ADD18C,0.21600*%
%TA.AperFunction,SMDPad,CuDef*%
%ADD19R,0.40000X0.70000*%
%ADD20R,0.50000X0.50000*%
%ADD21R,1.26213X1.00776*%
%ADD22R,0.60000X0.75000*%
%ADD23R,1.00776X1.26213*%
%ADD24R,1.40000X1.20000*%
%ADD25R,0.70000X1.15000*%
%ADD26R,0.80000X1.15000*%
%ADD27R,0.90000X1.15000*%
%ADD28R,0.75000X0.60000*%
%ADD29R,0.55000X0.60000*%
%ADD30R,0.65000X0.70000*%
%ADD31R,1.10000X1.60000*%
%ADD32R,0.61535X0.57247*%
%ADD33R,0.51535X0.47247*%
%ADD34R,1.35464X1.80620*%
%ADD35R,1.68000X1.07000*%
%ADD36R,0.47247X0.51535*%
%ADD37R,3.81000X2.08000*%
%ADD38R,8.89000X11.43000*%
%ADD39R,1.00000X0.80000*%
D10*
X3509794Y4530600D02*
D03*
X3699794D02*
D03*
X3509794Y4330600D02*
D03*
X3699794D02*
D03*
X3509794Y4155600D02*
D03*
X3699794D02*
D03*
X3301846Y4537200D02*
D03*
X3111845D02*
D03*
X3310846Y4330600D02*
D03*
X3120846D02*
D03*
X3310846Y4155600D02*
D03*
X3120846D02*
D03*
D11*
X4902800Y4914900D02*
D03*
X4977800D02*
D03*
X5049859Y5778500D02*
D03*
X4974863D02*
D03*
X5049859Y5610818D02*
D03*
X4974858D02*
D03*
D12*
X2082792Y3098006D02*
D03*
Y2998006D02*
D03*
X2349500Y6834200D02*
D03*
Y6934200D02*
D03*
X2525495Y2998001D02*
D03*
Y3098001D02*
D03*
D13*
X4272619Y5791199D02*
D03*
Y5871399D02*
D03*
D14*
X5562589Y4729204D02*
D03*
Y4825204D02*
D03*
X5137251Y4914899D02*
D03*
Y4818900D02*
D03*
D15*
X1451957Y1092199D02*
D03*
X1366957D02*
D03*
X5431699Y5778500D02*
D03*
X5346700D02*
D03*
D16*
X2159000Y5023900D02*
D03*
Y5313900D02*
D03*
X6248402Y6037800D02*
D03*
Y5747798D02*
D03*
D17*
X1117599Y880100D02*
D03*
Y720100D02*
D03*
X1249401Y3401119D02*
D03*
Y3241120D02*
D03*
X4495799Y5091501D02*
D03*
Y4941499D02*
D03*
D18*
X3257403Y3270900D02*
D03*
Y3310900D02*
D03*
Y3350900D02*
D03*
Y3390900D02*
D03*
Y3430900D02*
D03*
Y3470900D02*
D03*
Y3510900D02*
D03*
Y3550900D02*
D03*
X3297403Y3270900D02*
D03*
Y3310900D02*
D03*
Y3350900D02*
D03*
Y3390900D02*
D03*
Y3430900D02*
D03*
Y3470900D02*
D03*
Y3510900D02*
D03*
Y3550900D02*
D03*
X3337403Y3270900D02*
D03*
Y3310900D02*
D03*
Y3350900D02*
D03*
Y3430900D02*
D03*
Y3470900D02*
D03*
Y3510900D02*
D03*
Y3550900D02*
D03*
X3377403Y3270900D02*
D03*
Y3310900D02*
D03*
Y3350900D02*
D03*
Y3390900D02*
D03*
Y3430900D02*
D03*
Y3470900D02*
D03*
Y3510900D02*
D03*
Y3550900D02*
D03*
X3417403Y3270900D02*
D03*
Y3310900D02*
D03*
Y3350900D02*
D03*
Y3390900D02*
D03*
Y3430900D02*
D03*
Y3470900D02*
D03*
Y3510900D02*
D03*
Y3550900D02*
D03*
X3457403Y3270900D02*
D03*
Y3310900D02*
D03*
Y3350900D02*
D03*
Y3390900D02*
D03*
Y3430900D02*
D03*
Y3470900D02*
D03*
Y3510900D02*
D03*
Y3550900D02*
D03*
X3497403Y3270900D02*
D03*
Y3310900D02*
D03*
Y3350900D02*
D03*
Y3390900D02*
D03*
Y3430900D02*
D03*
Y3470900D02*
D03*
Y3510900D02*
D03*
Y3550900D02*
D03*
X3537403Y3270900D02*
D03*
Y3310900D02*
D03*
Y3350900D02*
D03*
Y3390900D02*
D03*
Y3430900D02*
D03*
Y3470900D02*
D03*
Y3510900D02*
D03*
Y3550900D02*
D03*
X3577403Y3270900D02*
D03*
Y3310900D02*
D03*
Y3350900D02*
D03*
Y3390900D02*
D03*
Y3430900D02*
D03*
Y3470900D02*
D03*
Y3510900D02*
D03*
Y3550900D02*
D03*
X3337403Y3390900D02*
D03*
D19*
X5887670Y5778498D02*
D03*
X5817668D02*
D03*
D20*
X4567499Y5778500D02*
D03*
X4667499D02*
D03*
X5862359Y5610818D02*
D03*
X5762360D02*
D03*
X5437361D02*
D03*
X5337362D02*
D03*
D21*
X2743200Y3105518D02*
D03*
Y2965081D02*
D03*
X2298700Y3105518D02*
D03*
Y2965081D02*
D03*
D22*
X2362198Y6460101D02*
D03*
Y6570098D02*
D03*
D23*
X3536581Y4737100D02*
D03*
X3677018D02*
D03*
X3281283D02*
D03*
X3140846D02*
D03*
D24*
X2895598Y5164998D02*
D03*
Y4995001D02*
D03*
D25*
X3177400Y6475620D02*
D03*
X3077400D02*
D03*
D26*
X2975400D02*
D03*
X3279400D02*
D03*
D27*
X2852400D02*
D03*
X3402400D02*
D03*
D28*
X5401702Y4914901D02*
D03*
X5291700D02*
D03*
X5740798Y4833896D02*
D03*
X5850800D02*
D03*
D29*
X4711699Y4932002D02*
D03*
Y4846999D02*
D03*
D30*
X4533898Y6283199D02*
D03*
Y6188198D02*
D03*
X4864101Y6283199D02*
D03*
Y6188198D02*
D03*
D31*
X1018600Y3149601D02*
D03*
X708598D02*
D03*
X1018601Y3479799D02*
D03*
X708599D02*
D03*
D32*
X4706951Y5620156D02*
D03*
X4621241D02*
D03*
D33*
X3670056Y3784600D02*
D03*
X3594343D02*
D03*
X3701023Y2941318D02*
D03*
X3776735D02*
D03*
D34*
X4858004Y3158280D02*
D03*
X5133157D02*
D03*
X4858004Y2858281D02*
D03*
X5133157D02*
D03*
X4858004Y2558281D02*
D03*
X5133157D02*
D03*
X4856805Y2254980D02*
D03*
X5131958D02*
D03*
D35*
X2628900Y5441701D02*
D03*
Y5727700D02*
D03*
D36*
X1943102Y3019032D02*
D03*
Y3094745D02*
D03*
D37*
X2283460Y2169260D02*
D03*
Y1661260D02*
D03*
D38*
X1140460Y1915260D02*
D03*
D39*
X3022600Y2631298D02*
D03*
Y2781300D02*
D03*
%TF.MD5,9ba99fdee4a738d790e32215ccc800f7*%
M02*
