%TF.GenerationSoftware,Altium Limited,Altium Designer,19.0.15 (446)*%
G04 Layer_Physical_Order=3*
G04 Layer_Color=16440176*
%FSLAX45Y45*%
%MOMM*%
%TF.FileFunction,Copper,L3,Inr,Signal*%
%TF.Part,Single*%
G01*
G75*
%TA.AperFunction,Conductor*%
%ADD40C,0.20320*%
%ADD41C,0.38100*%
%ADD42C,0.50800*%
%ADD45C,0.25400*%
%TA.AperFunction,ComponentPad*%
%ADD49C,1.65000*%
%TA.AperFunction,TestPad*%
%ADD50C,1.10000*%
%TA.AperFunction,ViaPad*%
%ADD51C,4.50000*%
%TA.AperFunction,ComponentPad*%
%ADD52R,1.50000X1.50000*%
%ADD53C,1.50000*%
%ADD54C,1.53000*%
%ADD55R,1.53000X1.53000*%
%ADD56C,1.90000*%
%ADD57C,2.25000*%
%ADD58C,6.00000*%
%ADD59C,1.72500*%
%ADD60R,1.72500X1.72500*%
%ADD61R,1.72500X1.72500*%
%ADD62R,2.02500X2.02500*%
%ADD63C,2.02500*%
%TA.AperFunction,ViaPad*%
%ADD64C,0.43180*%
%ADD65C,0.25000*%
%ADD66C,0.55880*%
%ADD67C,1.06680*%
%ADD68C,0.45720*%
G36*
X8102600Y6210300D02*
Y990600D01*
X7264400Y152400D01*
X1206500D01*
X368300Y990600D01*
Y6210300D01*
X1320800Y7162800D01*
X7150100D01*
X8102600Y6210300D01*
D02*
G37*
%LPC*%
G36*
X2171700Y6928472D02*
X2159312Y6926008D01*
X2148810Y6918990D01*
X2141792Y6908488D01*
X2139328Y6896100D01*
X2141792Y6883712D01*
X2148810Y6873210D01*
X2159312Y6866192D01*
X2171700Y6863728D01*
X2184088Y6866192D01*
X2194590Y6873210D01*
X2201608Y6883712D01*
X2204072Y6896100D01*
X2201608Y6908488D01*
X2194590Y6918990D01*
X2184088Y6926008D01*
X2171700Y6928472D01*
D02*
G37*
G36*
X3559400Y6979838D02*
X3527379Y6975623D01*
X3497541Y6963263D01*
X3471918Y6943602D01*
X3452257Y6917979D01*
X3439897Y6888141D01*
X3435682Y6856120D01*
X3439897Y6824099D01*
X3452257Y6794261D01*
X3471918Y6768638D01*
X3497541Y6748977D01*
X3527379Y6736617D01*
X3559400Y6732402D01*
X3591421Y6736617D01*
X3621259Y6748977D01*
X3646882Y6768638D01*
X3666543Y6794261D01*
X3678903Y6824099D01*
X3683118Y6856120D01*
X3678903Y6888141D01*
X3666543Y6917979D01*
X3646882Y6943602D01*
X3621259Y6963263D01*
X3591421Y6975623D01*
X3559400Y6979838D01*
D02*
G37*
G36*
X2695400D02*
X2663379Y6975623D01*
X2633541Y6963263D01*
X2607918Y6943602D01*
X2588257Y6917979D01*
X2575898Y6888141D01*
X2571682Y6856120D01*
X2575898Y6824099D01*
X2588257Y6794261D01*
X2607918Y6768638D01*
X2633541Y6748977D01*
X2663379Y6736617D01*
X2695400Y6732402D01*
X2727421Y6736617D01*
X2757259Y6748977D01*
X2782882Y6768638D01*
X2802544Y6794261D01*
X2814903Y6824099D01*
X2819119Y6856120D01*
X2814903Y6888141D01*
X2802544Y6917979D01*
X2782882Y6943602D01*
X2757259Y6963263D01*
X2727421Y6975623D01*
X2695400Y6979838D01*
D02*
G37*
G36*
X5285630Y6842532D02*
X5092810D01*
Y6649712D01*
X5285630D01*
Y6842532D01*
D02*
G37*
G36*
X4427811D02*
X4234991D01*
Y6649712D01*
X4427811D01*
Y6842532D01*
D02*
G37*
G36*
X4935220Y6843364D02*
X4910052Y6840050D01*
X4886599Y6830336D01*
X4866460Y6814882D01*
X4851006Y6794743D01*
X4841292Y6771290D01*
X4837978Y6746122D01*
X4841292Y6720954D01*
X4851006Y6697501D01*
X4866460Y6677361D01*
X4886599Y6661908D01*
X4910052Y6652193D01*
X4935220Y6648880D01*
X4960388Y6652193D01*
X4983841Y6661908D01*
X5003980Y6677361D01*
X5019434Y6697501D01*
X5029148Y6720954D01*
X5032462Y6746122D01*
X5029148Y6771290D01*
X5019434Y6794743D01*
X5003980Y6814882D01*
X4983841Y6830336D01*
X4960388Y6840050D01*
X4935220Y6843364D01*
D02*
G37*
G36*
X4077401D02*
X4052233Y6840050D01*
X4028780Y6830336D01*
X4008641Y6814882D01*
X3993187Y6794743D01*
X3983473Y6771290D01*
X3980159Y6746122D01*
X3983473Y6720954D01*
X3993187Y6697501D01*
X4008641Y6677361D01*
X4028780Y6661908D01*
X4052233Y6652193D01*
X4077401Y6648880D01*
X4102569Y6652193D01*
X4126022Y6661908D01*
X4146162Y6677361D01*
X4161615Y6697501D01*
X4171330Y6720954D01*
X4174643Y6746122D01*
X4171330Y6771290D01*
X4161615Y6794743D01*
X4146162Y6814882D01*
X4126022Y6830336D01*
X4102569Y6840050D01*
X4077401Y6843364D01*
D02*
G37*
G36*
X3175000Y6699872D02*
X3162612Y6697408D01*
X3152110Y6690390D01*
X3145092Y6679888D01*
X3142628Y6667500D01*
X3145092Y6655112D01*
X3152110Y6644610D01*
X3162612Y6637592D01*
X3175000Y6635128D01*
X3187388Y6637592D01*
X3197890Y6644610D01*
X3204908Y6655112D01*
X3207372Y6667500D01*
X3204908Y6679888D01*
X3197890Y6690390D01*
X3187388Y6697408D01*
X3175000Y6699872D01*
D02*
G37*
G36*
X3075400Y6699167D02*
X3062516Y6696604D01*
X3051594Y6689306D01*
X3044296Y6678384D01*
X3041733Y6665500D01*
X3044296Y6652616D01*
X3051594Y6641694D01*
X3062516Y6634396D01*
X3075400Y6631833D01*
X3088284Y6634396D01*
X3099206Y6641694D01*
X3106504Y6652616D01*
X3109067Y6665500D01*
X3106504Y6678384D01*
X3099206Y6689306D01*
X3088284Y6696604D01*
X3075400Y6699167D01*
D02*
G37*
G36*
X2171700Y6534772D02*
X2159312Y6532308D01*
X2148810Y6525290D01*
X2141792Y6514788D01*
X2139328Y6502400D01*
X2141792Y6490012D01*
X2148810Y6479510D01*
X2159312Y6472492D01*
X2171700Y6470028D01*
X2184088Y6472492D01*
X2194590Y6479510D01*
X2201608Y6490012D01*
X2204072Y6502400D01*
X2201608Y6514788D01*
X2194590Y6525290D01*
X2184088Y6532308D01*
X2171700Y6534772D01*
D02*
G37*
G36*
X3559400Y6582187D02*
X3531948Y6578573D01*
X3506366Y6567977D01*
X3484399Y6551121D01*
X3467543Y6529154D01*
X3456947Y6503572D01*
X3453333Y6476120D01*
X3456947Y6448668D01*
X3467543Y6423086D01*
X3484399Y6401119D01*
X3506366Y6384263D01*
X3531948Y6373667D01*
X3559400Y6370053D01*
X3586852Y6373667D01*
X3612434Y6384263D01*
X3634401Y6401119D01*
X3651257Y6423086D01*
X3661853Y6448668D01*
X3665467Y6476120D01*
X3661853Y6503572D01*
X3651257Y6529154D01*
X3634401Y6551121D01*
X3612434Y6567977D01*
X3586852Y6578573D01*
X3559400Y6582187D01*
D02*
G37*
G36*
X2695400D02*
X2667948Y6578573D01*
X2642367Y6567977D01*
X2620399Y6551121D01*
X2603543Y6529154D01*
X2592947Y6503572D01*
X2589333Y6476120D01*
X2592947Y6448668D01*
X2603543Y6423086D01*
X2620399Y6401119D01*
X2642367Y6384263D01*
X2667948Y6373667D01*
X2695400Y6370053D01*
X2722853Y6373667D01*
X2748434Y6384263D01*
X2770401Y6401119D01*
X2787257Y6423086D01*
X2797853Y6448668D01*
X2801468Y6476120D01*
X2797853Y6503572D01*
X2787257Y6529154D01*
X2770401Y6551121D01*
X2748434Y6567977D01*
X2722853Y6578573D01*
X2695400Y6582187D01*
D02*
G37*
G36*
X4749800Y6318872D02*
X4737412Y6316408D01*
X4726910Y6309390D01*
X4719892Y6298888D01*
X4717428Y6286500D01*
X4719892Y6274112D01*
X4726910Y6263610D01*
X4737412Y6256592D01*
X4749800Y6254128D01*
X4762188Y6256592D01*
X4772690Y6263610D01*
X4779708Y6274112D01*
X4782172Y6286500D01*
X4779708Y6298888D01*
X4772690Y6309390D01*
X4762188Y6316408D01*
X4749800Y6318872D01*
D02*
G37*
G36*
X4660900D02*
X4648512Y6316408D01*
X4638010Y6309390D01*
X4630992Y6298888D01*
X4628528Y6286500D01*
X4630992Y6274112D01*
X4638010Y6263610D01*
X4648512Y6256592D01*
X4660900Y6254128D01*
X4673288Y6256592D01*
X4683790Y6263610D01*
X4690808Y6274112D01*
X4693272Y6286500D01*
X4690808Y6298888D01*
X4683790Y6309390D01*
X4673288Y6316408D01*
X4660900Y6318872D01*
D02*
G37*
G36*
X5016500Y6293472D02*
X5004112Y6291008D01*
X4993610Y6283990D01*
X4986592Y6273488D01*
X4984128Y6261100D01*
X4986592Y6248712D01*
X4993610Y6238210D01*
X5004112Y6231192D01*
X5016500Y6228728D01*
X5028888Y6231192D01*
X5039390Y6238210D01*
X5046408Y6248712D01*
X5048872Y6261100D01*
X5046408Y6273488D01*
X5039390Y6283990D01*
X5028888Y6291008D01*
X5016500Y6293472D01*
D02*
G37*
G36*
X3441700D02*
X3429312Y6291008D01*
X3418810Y6283990D01*
X3411792Y6273488D01*
X3409328Y6261100D01*
X3411792Y6248712D01*
X3418810Y6238210D01*
X3429312Y6231192D01*
X3441700Y6228728D01*
X3454088Y6231192D01*
X3464590Y6238210D01*
X3471608Y6248712D01*
X3474072Y6261100D01*
X3471608Y6273488D01*
X3464590Y6283990D01*
X3454088Y6291008D01*
X3441700Y6293472D01*
D02*
G37*
G36*
X2743200D02*
X2730812Y6291008D01*
X2720310Y6283990D01*
X2713292Y6273488D01*
X2710828Y6261100D01*
X2713292Y6248712D01*
X2720310Y6238210D01*
X2730812Y6231192D01*
X2743200Y6228728D01*
X2755588Y6231192D01*
X2766090Y6238210D01*
X2773108Y6248712D01*
X2775572Y6261100D01*
X2773108Y6273488D01*
X2766090Y6283990D01*
X2755588Y6291008D01*
X2743200Y6293472D01*
D02*
G37*
G36*
X4368800Y6268072D02*
X4356412Y6265608D01*
X4345910Y6258590D01*
X4338892Y6248088D01*
X4336428Y6235700D01*
X4338892Y6223312D01*
X4345910Y6212810D01*
X4356412Y6205792D01*
X4368800Y6203328D01*
X4381188Y6205792D01*
X4391690Y6212810D01*
X4398708Y6223312D01*
X4401172Y6235700D01*
X4398708Y6248088D01*
X4391690Y6258590D01*
X4381188Y6265608D01*
X4368800Y6268072D01*
D02*
G37*
G36*
X3543300Y6069108D02*
X3520677Y6066129D01*
X3499596Y6057397D01*
X3481493Y6043507D01*
X3467603Y6025404D01*
X3458871Y6004323D01*
X3455892Y5981700D01*
X3458871Y5959077D01*
X3467603Y5937996D01*
X3481493Y5919893D01*
X3499596Y5906003D01*
X3520677Y5897271D01*
X3543300Y5894292D01*
X3565923Y5897271D01*
X3587004Y5906003D01*
X3605107Y5919893D01*
X3618997Y5937996D01*
X3627729Y5959077D01*
X3630708Y5981700D01*
X3627729Y6004323D01*
X3618997Y6025404D01*
X3605107Y6043507D01*
X3587004Y6057397D01*
X3565923Y6066129D01*
X3543300Y6069108D01*
D02*
G37*
G36*
X3289300D02*
X3266677Y6066129D01*
X3245596Y6057397D01*
X3227493Y6043507D01*
X3213603Y6025404D01*
X3204871Y6004323D01*
X3201892Y5981700D01*
X3204871Y5959077D01*
X3213603Y5937996D01*
X3227493Y5919893D01*
X3245596Y5906003D01*
X3266677Y5897271D01*
X3289300Y5894292D01*
X3311923Y5897271D01*
X3333004Y5906003D01*
X3351107Y5919893D01*
X3364997Y5937996D01*
X3373729Y5959077D01*
X3376708Y5981700D01*
X3373729Y6004323D01*
X3364997Y6025404D01*
X3351107Y6043507D01*
X3333004Y6057397D01*
X3311923Y6066129D01*
X3289300Y6069108D01*
D02*
G37*
G36*
X6007100Y5760072D02*
X5994712Y5757608D01*
X5984210Y5750590D01*
X5977192Y5740088D01*
X5974728Y5727700D01*
X5977192Y5715312D01*
X5984210Y5704810D01*
X5994712Y5697792D01*
X6007100Y5695328D01*
X6019488Y5697792D01*
X6029990Y5704810D01*
X6037008Y5715312D01*
X6039472Y5727700D01*
X6037008Y5740088D01*
X6029990Y5750590D01*
X6019488Y5757608D01*
X6007100Y5760072D01*
D02*
G37*
G36*
X4109720Y5797354D02*
X4092710Y5795115D01*
X4076859Y5788549D01*
X4063247Y5778105D01*
X4052803Y5764493D01*
X4046237Y5748642D01*
X4043998Y5731632D01*
X4046237Y5714622D01*
X4052803Y5698771D01*
X4063247Y5685160D01*
X4076859Y5674715D01*
X4092710Y5668149D01*
X4109720Y5665910D01*
X4126730Y5668149D01*
X4142581Y5674715D01*
X4156193Y5685160D01*
X4166637Y5698771D01*
X4173203Y5714622D01*
X4175442Y5731632D01*
X4173203Y5748642D01*
X4166637Y5764493D01*
X4156193Y5778105D01*
X4142581Y5788549D01*
X4126730Y5795115D01*
X4109720Y5797354D01*
D02*
G37*
G36*
X3629960Y5814360D02*
X3456640D01*
Y5641040D01*
X3629960D01*
Y5814360D01*
D02*
G37*
G36*
X3375960D02*
X3202640D01*
Y5641040D01*
X3375960D01*
Y5814360D01*
D02*
G37*
G36*
X6096000Y5361622D02*
X6078990Y5359383D01*
X6063139Y5352817D01*
X6049527Y5342373D01*
X6039083Y5328761D01*
X6032517Y5312910D01*
X6030278Y5295900D01*
X6032517Y5278890D01*
X6039083Y5263039D01*
X6049527Y5249427D01*
X6063139Y5238983D01*
X6078990Y5232417D01*
X6096000Y5230178D01*
X6113010Y5232417D01*
X6128861Y5238983D01*
X6142473Y5249427D01*
X6152917Y5263039D01*
X6159483Y5278890D01*
X6161722Y5295900D01*
X6159483Y5312910D01*
X6152917Y5328761D01*
X6142473Y5342373D01*
X6128861Y5352817D01*
X6113010Y5359383D01*
X6096000Y5361622D01*
D02*
G37*
G36*
X4711700Y5442572D02*
X4699312Y5440108D01*
X4688810Y5433090D01*
X4681792Y5422588D01*
X4679328Y5410200D01*
X4681792Y5397812D01*
X4681918Y5397623D01*
Y5336718D01*
X4652541Y5307341D01*
X4646085Y5297679D01*
X4643818Y5286282D01*
Y4896913D01*
X4544033Y4797128D01*
X4530856Y4800195D01*
X4529966Y4801022D01*
X4523438Y4810790D01*
X4512936Y4817808D01*
X4500548Y4820272D01*
X4488159Y4817808D01*
X4477657Y4810790D01*
X4470640Y4800288D01*
X4468176Y4787900D01*
X4470640Y4775512D01*
X4477657Y4765010D01*
X4487426Y4758482D01*
X4488252Y4757592D01*
X4491319Y4744415D01*
X3994214Y4247309D01*
X3977188D01*
X3975294Y4249514D01*
X3971171Y4259252D01*
X4275559Y4563641D01*
X4282015Y4573303D01*
X4284282Y4584700D01*
Y4758118D01*
X4356223D01*
X4356412Y4757992D01*
X4368800Y4755528D01*
X4381188Y4757992D01*
X4391690Y4765010D01*
X4398708Y4775512D01*
X4401172Y4787900D01*
X4398708Y4800288D01*
X4391690Y4810790D01*
X4381188Y4817808D01*
X4368800Y4820272D01*
X4356412Y4817808D01*
X4356223Y4817682D01*
X4269379D01*
X4257982Y4815415D01*
X4248320Y4808959D01*
X4233441Y4794080D01*
X4226985Y4784418D01*
X4224718Y4773021D01*
Y4597036D01*
X3316343Y3688662D01*
X3309887Y3679000D01*
X3307621Y3667603D01*
X3309887Y3656205D01*
X3316343Y3646543D01*
X3316685Y3646316D01*
Y3560680D01*
X3316057Y3559741D01*
X3314299Y3550900D01*
X3316057Y3542058D01*
X3317381Y3540078D01*
X3308225Y3530922D01*
X3306244Y3532245D01*
X3297403Y3534004D01*
X3288561Y3532245D01*
X3281066Y3527237D01*
X3276057Y3519741D01*
X3274299Y3510900D01*
X3276057Y3502059D01*
X3281066Y3494563D01*
X3288561Y3489555D01*
X3297403Y3487796D01*
X3306244Y3489555D01*
X3313739Y3494563D01*
X3318748Y3502059D01*
X3320506Y3510900D01*
X3318748Y3519741D01*
X3317424Y3521722D01*
X3326581Y3530878D01*
X3328561Y3529555D01*
X3337403Y3527796D01*
X3346244Y3529555D01*
X3348225Y3530878D01*
X3357381Y3521722D01*
X3356058Y3519741D01*
X3354299Y3510900D01*
X3356058Y3502059D01*
X3361066Y3494563D01*
X3368561Y3489555D01*
X3377403Y3487796D01*
X3386244Y3489555D01*
X3388225Y3490878D01*
X3397381Y3481722D01*
X3396057Y3479741D01*
X3394299Y3470900D01*
X3396057Y3462058D01*
X3401066Y3454563D01*
X3408561Y3449555D01*
X3417403Y3447796D01*
X3426244Y3449555D01*
X3433739Y3454563D01*
X3438748Y3462058D01*
X3440506Y3470900D01*
X3438748Y3479741D01*
X3436385Y3483277D01*
X3445541Y3492433D01*
X3448561Y3490415D01*
X3457403Y3488657D01*
X3466244Y3490415D01*
X3469264Y3492433D01*
X3478420Y3483277D01*
X3476058Y3479741D01*
X3474299Y3470900D01*
X3476058Y3462058D01*
X3481066Y3454563D01*
X3488561Y3449555D01*
X3497403Y3447796D01*
X3506244Y3449555D01*
X3508225Y3450878D01*
X3517381Y3441722D01*
X3516057Y3439741D01*
X3514299Y3430900D01*
X3516057Y3422058D01*
X3517394Y3420058D01*
X3520017Y3410900D01*
X3517394Y3401742D01*
X3516057Y3399741D01*
X3514299Y3390900D01*
X3516057Y3382059D01*
X3521066Y3374563D01*
X3528561Y3369555D01*
X3537403Y3367796D01*
X3546244Y3369555D01*
X3548245Y3370892D01*
X3557403Y3373514D01*
X3566561Y3370892D01*
X3568561Y3369555D01*
X3577403Y3367796D01*
X3586244Y3369555D01*
X3593739Y3374563D01*
X3598748Y3382059D01*
X3600506Y3390900D01*
X3598748Y3399741D01*
X3597411Y3401742D01*
X3594788Y3410900D01*
X3597411Y3420058D01*
X3598748Y3422058D01*
X3600506Y3430900D01*
X3598748Y3439741D01*
X3593739Y3447237D01*
X3586244Y3452245D01*
X3577403Y3454004D01*
X3568561Y3452245D01*
X3566561Y3450908D01*
X3557403Y3448286D01*
X3548245Y3450908D01*
X3546244Y3452245D01*
X3537403Y3454004D01*
X3528561Y3452245D01*
X3526581Y3450922D01*
X3517425Y3460078D01*
X3518748Y3462058D01*
X3520507Y3470900D01*
X3518748Y3479741D01*
X3513739Y3487237D01*
X3506244Y3492245D01*
X3497403Y3494004D01*
X3488561Y3492245D01*
X3485541Y3490227D01*
X3476385Y3499383D01*
X3478748Y3502919D01*
X3480506Y3511761D01*
X3478748Y3520602D01*
X3473739Y3528097D01*
X3466244Y3533106D01*
X3457403Y3534864D01*
X3448561Y3533106D01*
X3447619Y3532477D01*
X3438463Y3541633D01*
X3438748Y3542058D01*
X3440506Y3550900D01*
X3438748Y3559741D01*
X3433739Y3567237D01*
X3426244Y3572245D01*
X3417403Y3574004D01*
X3410821Y3572695D01*
X3402453Y3577100D01*
X3398121Y3580543D01*
Y3610121D01*
X3428598Y3640598D01*
X3429000Y3640518D01*
X3440397Y3642785D01*
X3450059Y3649241D01*
X3988563Y4187745D01*
X4006550D01*
X4017948Y4190012D01*
X4027609Y4196468D01*
X4694659Y4863517D01*
X4701115Y4873179D01*
X4703382Y4884577D01*
Y5273946D01*
X4732759Y5303322D01*
X4739215Y5312984D01*
X4741482Y5324382D01*
Y5397623D01*
X4741608Y5397812D01*
X4744072Y5410200D01*
X4741608Y5422588D01*
X4734590Y5433090D01*
X4724088Y5440108D01*
X4711700Y5442572D01*
D02*
G37*
G36*
X2159000Y4687809D02*
X2146612Y4685345D01*
X2136110Y4678327D01*
X2129092Y4667825D01*
X2126628Y4655437D01*
X2129092Y4643048D01*
X2136110Y4632546D01*
X2146612Y4625529D01*
X2159000Y4623065D01*
X2171388Y4625529D01*
X2181890Y4632546D01*
X2188908Y4643048D01*
X2191372Y4655437D01*
X2188908Y4667825D01*
X2181890Y4678327D01*
X2171388Y4685345D01*
X2159000Y4687809D01*
D02*
G37*
G36*
X3886200Y4458447D02*
X3871334Y4455489D01*
X3858731Y4447069D01*
X3850311Y4434466D01*
X3847353Y4419600D01*
X3850311Y4404734D01*
X3858731Y4392131D01*
X3871334Y4383711D01*
X3886200Y4380753D01*
X3901066Y4383711D01*
X3913669Y4392131D01*
X3922089Y4404734D01*
X3925047Y4419600D01*
X3922089Y4434466D01*
X3913669Y4447069D01*
X3901066Y4455489D01*
X3886200Y4458447D01*
D02*
G37*
G36*
X5989320Y4477702D02*
X5972310Y4475463D01*
X5956459Y4468897D01*
X5942847Y4458453D01*
X5932403Y4444841D01*
X5925837Y4428990D01*
X5923598Y4411980D01*
X5925837Y4394970D01*
X5932403Y4379119D01*
X5942847Y4365507D01*
X5956459Y4355063D01*
X5972310Y4348497D01*
X5989320Y4346258D01*
X6006330Y4348497D01*
X6022181Y4355063D01*
X6035793Y4365507D01*
X6046237Y4379119D01*
X6052803Y4394970D01*
X6055042Y4411980D01*
X6052803Y4428990D01*
X6046237Y4444841D01*
X6035793Y4458453D01*
X6022181Y4468897D01*
X6006330Y4475463D01*
X5989320Y4477702D01*
D02*
G37*
G36*
X1117490Y4518650D02*
X924670D01*
Y4325830D01*
X1117490D01*
Y4518650D01*
D02*
G37*
G36*
X4965700Y4326342D02*
X4940532Y4323028D01*
X4917079Y4313314D01*
X4896940Y4297860D01*
X4881486Y4277721D01*
X4871772Y4254268D01*
X4868458Y4229100D01*
X4871772Y4203932D01*
X4881486Y4180479D01*
X4896940Y4160340D01*
X4917079Y4144886D01*
X4940532Y4135172D01*
X4965700Y4131858D01*
X4990868Y4135172D01*
X5014321Y4144886D01*
X5034460Y4160340D01*
X5049914Y4180479D01*
X5059628Y4203932D01*
X5062942Y4229100D01*
X5059628Y4254268D01*
X5049914Y4277721D01*
X5034460Y4297860D01*
X5014321Y4313314D01*
X4990868Y4323028D01*
X4965700Y4326342D01*
D02*
G37*
G36*
X2324100Y4015422D02*
X2307090Y4013183D01*
X2291239Y4006617D01*
X2277627Y3996173D01*
X2267183Y3982561D01*
X2260617Y3966710D01*
X2258378Y3949700D01*
X2260617Y3932690D01*
X2267183Y3916839D01*
X2277627Y3903227D01*
X2291239Y3892783D01*
X2307090Y3886217D01*
X2324100Y3883978D01*
X2341110Y3886217D01*
X2356961Y3892783D01*
X2370573Y3903227D01*
X2381017Y3916839D01*
X2387583Y3932690D01*
X2389822Y3949700D01*
X2387583Y3966710D01*
X2381017Y3982561D01*
X2370573Y3996173D01*
X2356961Y4006617D01*
X2341110Y4013183D01*
X2324100Y4015422D01*
D02*
G37*
G36*
X1308100Y3905872D02*
X1295712Y3903408D01*
X1285210Y3896390D01*
X1278192Y3885888D01*
X1275728Y3873500D01*
X1278192Y3861112D01*
X1285210Y3850610D01*
X1295712Y3843592D01*
X1308100Y3841128D01*
X1320488Y3843592D01*
X1330990Y3850610D01*
X1338008Y3861112D01*
X1340472Y3873500D01*
X1338008Y3885888D01*
X1330990Y3896390D01*
X1320488Y3903408D01*
X1308100Y3905872D01*
D02*
G37*
G36*
X2552700Y3842372D02*
X2540312Y3839908D01*
X2529810Y3832890D01*
X2522792Y3822388D01*
X2520328Y3810000D01*
X2522792Y3797612D01*
X2529810Y3787110D01*
X2540312Y3780092D01*
X2552700Y3777628D01*
X2565088Y3780092D01*
X2575590Y3787110D01*
X2582608Y3797612D01*
X2585072Y3810000D01*
X2582608Y3822388D01*
X2575590Y3832890D01*
X2565088Y3839908D01*
X2552700Y3842372D01*
D02*
G37*
G36*
X6814299Y4392517D02*
X6765629Y4388686D01*
X6718158Y4377289D01*
X6673053Y4358607D01*
X6631427Y4333098D01*
X6594304Y4301392D01*
X6562598Y4264269D01*
X6537090Y4222643D01*
X6518407Y4177539D01*
X6507010Y4130067D01*
X6503180Y4081398D01*
X6507010Y4032728D01*
X6518407Y3985257D01*
X6537090Y3940153D01*
X6562598Y3898527D01*
X6594304Y3861403D01*
X6631427Y3829697D01*
X6673053Y3804189D01*
X6718158Y3785506D01*
X6765629Y3774109D01*
X6814299Y3770279D01*
X6862968Y3774109D01*
X6910440Y3785506D01*
X6955544Y3804189D01*
X6997170Y3829697D01*
X7034293Y3861403D01*
X7065999Y3898527D01*
X7091508Y3940153D01*
X7110190Y3985257D01*
X7121587Y4032728D01*
X7125418Y4081398D01*
X7121587Y4130067D01*
X7110190Y4177539D01*
X7091508Y4222643D01*
X7065999Y4264269D01*
X7034293Y4301392D01*
X6997170Y4333098D01*
X6955544Y4358607D01*
X6910440Y4377289D01*
X6862968Y4388686D01*
X6814299Y4392517D01*
D02*
G37*
G36*
X800100Y3766172D02*
X787712Y3763708D01*
X777210Y3756690D01*
X770192Y3746188D01*
X767728Y3733800D01*
X770192Y3721412D01*
X777210Y3710910D01*
X787712Y3703892D01*
X800100Y3701428D01*
X812488Y3703892D01*
X822990Y3710910D01*
X830008Y3721412D01*
X832472Y3733800D01*
X830008Y3746188D01*
X822990Y3756690D01*
X812488Y3763708D01*
X800100Y3766172D01*
D02*
G37*
G36*
X2641600Y3689972D02*
X2629212Y3687508D01*
X2618710Y3680490D01*
X2611692Y3669988D01*
X2609228Y3657600D01*
X2611692Y3645212D01*
X2618710Y3634710D01*
X2629212Y3627692D01*
X2641600Y3625228D01*
X2653988Y3627692D01*
X2664490Y3634710D01*
X2671508Y3645212D01*
X2673972Y3657600D01*
X2671508Y3669988D01*
X2664490Y3680490D01*
X2653988Y3687508D01*
X2641600Y3689972D01*
D02*
G37*
G36*
X2870200Y3664572D02*
X2857812Y3662108D01*
X2847310Y3655090D01*
X2840292Y3644588D01*
X2837828Y3632200D01*
X2840292Y3619812D01*
X2847310Y3609310D01*
X2857812Y3602292D01*
X2870200Y3599828D01*
X2882588Y3602292D01*
X2893090Y3609310D01*
X2900108Y3619812D01*
X2902572Y3632200D01*
X2900108Y3644588D01*
X2893090Y3655090D01*
X2882588Y3662108D01*
X2870200Y3664572D01*
D02*
G37*
G36*
X1803400Y3644535D02*
X1791012Y3642071D01*
X1780510Y3635053D01*
X1773492Y3624551D01*
X1771028Y3612163D01*
X1773492Y3599775D01*
X1780510Y3589272D01*
X1791012Y3582255D01*
X1803400Y3579791D01*
X1815788Y3582255D01*
X1826290Y3589272D01*
X1833308Y3599775D01*
X1835772Y3612163D01*
X1833308Y3624551D01*
X1826290Y3635053D01*
X1815788Y3642071D01*
X1803400Y3644535D01*
D02*
G37*
G36*
X2552700Y3626472D02*
X2540312Y3624008D01*
X2529810Y3616990D01*
X2522792Y3606488D01*
X2520328Y3594100D01*
X2522792Y3581712D01*
X2529810Y3571210D01*
X2540312Y3564192D01*
X2552700Y3561728D01*
X2565088Y3564192D01*
X2575590Y3571210D01*
X2582608Y3581712D01*
X2585072Y3594100D01*
X2582608Y3606488D01*
X2575590Y3616990D01*
X2565088Y3624008D01*
X2552700Y3626472D01*
D02*
G37*
G36*
X2489200Y3537572D02*
X2476812Y3535108D01*
X2466310Y3528090D01*
X2459292Y3517588D01*
X2456828Y3505200D01*
X2459292Y3492812D01*
X2466310Y3482310D01*
X2476812Y3475292D01*
X2489200Y3472828D01*
X2501588Y3475292D01*
X2512090Y3482310D01*
X2519108Y3492812D01*
X2521572Y3505200D01*
X2519108Y3517588D01*
X2512090Y3528090D01*
X2501588Y3535108D01*
X2489200Y3537572D01*
D02*
G37*
G36*
X4109720Y3583622D02*
X4092710Y3581383D01*
X4076859Y3574817D01*
X4063247Y3564373D01*
X4052803Y3550761D01*
X4046237Y3534910D01*
X4043998Y3517900D01*
X4046237Y3500890D01*
X4052803Y3485039D01*
X4063247Y3471427D01*
X4076859Y3460983D01*
X4092710Y3454417D01*
X4109720Y3452178D01*
X4126730Y3454417D01*
X4142581Y3460983D01*
X4156193Y3471427D01*
X4166637Y3485039D01*
X4173203Y3500890D01*
X4175442Y3517900D01*
X4173203Y3534910D01*
X4166637Y3550761D01*
X4156193Y3564373D01*
X4142581Y3574817D01*
X4126730Y3581383D01*
X4109720Y3583622D01*
D02*
G37*
G36*
X1866900Y3448672D02*
X1854512Y3446208D01*
X1844010Y3439190D01*
X1836992Y3428688D01*
X1834528Y3416300D01*
X1836992Y3403912D01*
X1844010Y3393410D01*
X1854512Y3386392D01*
X1866900Y3383928D01*
X1879288Y3386392D01*
X1889790Y3393410D01*
X1896808Y3403912D01*
X1899272Y3416300D01*
X1896808Y3428688D01*
X1889790Y3439190D01*
X1879288Y3446208D01*
X1866900Y3448672D01*
D02*
G37*
G36*
X2971800Y3410572D02*
X2959412Y3408108D01*
X2948910Y3401090D01*
X2941892Y3390588D01*
X2939428Y3378200D01*
X2941892Y3365812D01*
X2948910Y3355310D01*
X2959412Y3348292D01*
X2971800Y3345828D01*
X2984188Y3348292D01*
X2994690Y3355310D01*
X3001708Y3365812D01*
X3004172Y3378200D01*
X3001708Y3390588D01*
X2994690Y3401090D01*
X2984188Y3408108D01*
X2971800Y3410572D01*
D02*
G37*
G36*
X1651000D02*
X1638612Y3408108D01*
X1628110Y3401090D01*
X1621092Y3390588D01*
X1618628Y3378200D01*
X1621092Y3365812D01*
X1628110Y3355310D01*
X1638612Y3348292D01*
X1651000Y3345828D01*
X1663388Y3348292D01*
X1673890Y3355310D01*
X1680908Y3365812D01*
X1683372Y3378200D01*
X1680908Y3390588D01*
X1673890Y3401090D01*
X1663388Y3408108D01*
X1651000Y3410572D01*
D02*
G37*
G36*
X3073400Y3308972D02*
X3061012Y3306508D01*
X3050510Y3299490D01*
X3043492Y3288988D01*
X3041028Y3276600D01*
X3043104Y3266160D01*
X3038390Y3260438D01*
X3033270Y3256651D01*
X3022600Y3258773D01*
X3010212Y3256309D01*
X2999710Y3249291D01*
X2992692Y3238789D01*
X2990228Y3226401D01*
X2992692Y3214013D01*
X2999710Y3203510D01*
X3010212Y3196493D01*
X3022600Y3194029D01*
X3034988Y3196493D01*
X3045490Y3203510D01*
X3052508Y3214013D01*
X3054972Y3226401D01*
X3052896Y3236841D01*
X3057610Y3242563D01*
X3062730Y3246350D01*
X3073400Y3244228D01*
X3085788Y3246692D01*
X3096290Y3253710D01*
X3103308Y3264212D01*
X3105772Y3276600D01*
X3103308Y3288988D01*
X3096290Y3299490D01*
X3085788Y3306508D01*
X3073400Y3308972D01*
D02*
G37*
G36*
X1943100Y3217375D02*
X1930712Y3214911D01*
X1920210Y3207893D01*
X1913192Y3197391D01*
X1910728Y3185003D01*
X1913192Y3172614D01*
X1920210Y3162112D01*
X1930712Y3155095D01*
X1943100Y3152630D01*
X1955488Y3155095D01*
X1965990Y3162112D01*
X1973008Y3172614D01*
X1975472Y3185003D01*
X1973008Y3197391D01*
X1965990Y3207893D01*
X1955488Y3214911D01*
X1943100Y3217375D01*
D02*
G37*
G36*
X3337403Y3414004D02*
X3328561Y3412245D01*
X3321066Y3407237D01*
X3316057Y3399741D01*
X3314299Y3390900D01*
X3316057Y3382059D01*
X3316685Y3381120D01*
Y3280680D01*
X3316057Y3279741D01*
X3314299Y3270900D01*
X3316057Y3262058D01*
X3321066Y3254563D01*
X3328561Y3249555D01*
X3337403Y3247796D01*
X3343984Y3249106D01*
X3352352Y3244701D01*
X3356685Y3241257D01*
Y3196803D01*
X3351625Y3195797D01*
X3339863Y3187937D01*
X3286982Y3135057D01*
X3110650D01*
X3103500Y3146619D01*
X3103473Y3147757D01*
X3105772Y3159316D01*
X3103308Y3171705D01*
X3096290Y3182207D01*
X3085788Y3189224D01*
X3073400Y3191688D01*
X3061012Y3189224D01*
X3050510Y3182207D01*
X3043492Y3171705D01*
X3041028Y3159316D01*
X3043327Y3147757D01*
X3043300Y3146619D01*
X3036150Y3135057D01*
X2286000D01*
X2272125Y3132297D01*
X2260363Y3124437D01*
X2252503Y3112675D01*
X2251199Y3106117D01*
X2184764Y3039682D01*
X2171700D01*
X2160303Y3037415D01*
X2150641Y3030959D01*
X2144185Y3021297D01*
X2141918Y3009900D01*
X2144185Y2998503D01*
X2150641Y2988841D01*
X2160303Y2982385D01*
X2171700Y2980118D01*
X2197100D01*
X2208497Y2982385D01*
X2218159Y2988841D01*
X2291862Y3062543D01*
X3301999D01*
X3302000Y3062543D01*
X3315875Y3065303D01*
X3327637Y3073163D01*
X3391137Y3136663D01*
X3398997Y3148425D01*
X3401757Y3162300D01*
X3398997Y3176174D01*
X3401633Y3180799D01*
X3416527Y3183573D01*
X3432580Y3167520D01*
X3432866Y3166081D01*
X3437919Y3158519D01*
X3518174Y3078264D01*
X3525736Y3073211D01*
X3534655Y3071437D01*
X3593424D01*
X3603302Y3064837D01*
X3615690Y3062373D01*
X3628078Y3064837D01*
X3638580Y3071854D01*
X3645598Y3082356D01*
X3648062Y3094745D01*
X3645598Y3107133D01*
X3638580Y3117635D01*
X3628078Y3124653D01*
X3615690Y3127117D01*
X3603302Y3124653D01*
X3593424Y3118052D01*
X3544310D01*
X3470881Y3191481D01*
X3463319Y3196534D01*
X3461880Y3196820D01*
X3438121Y3220579D01*
Y3301120D01*
X3438748Y3302058D01*
X3440506Y3310900D01*
X3438748Y3319741D01*
X3433739Y3327236D01*
Y3334564D01*
X3438748Y3342059D01*
X3440506Y3350900D01*
X3438748Y3359742D01*
X3433739Y3367237D01*
X3426244Y3372245D01*
X3417403Y3374004D01*
X3408561Y3372245D01*
X3401066Y3367237D01*
X3401026Y3367178D01*
X3390901D01*
X3390900Y3367178D01*
X3382972Y3365601D01*
X3376250Y3361110D01*
X3370821Y3355680D01*
X3358121Y3360941D01*
Y3381120D01*
X3358748Y3382059D01*
X3360506Y3390900D01*
X3358748Y3399741D01*
X3353739Y3407237D01*
X3346244Y3412245D01*
X3337403Y3414004D01*
D02*
G37*
G36*
X2171700Y3137890D02*
X2159312Y3135426D01*
X2148810Y3128409D01*
X2141792Y3117907D01*
X2139328Y3105518D01*
X2141792Y3093130D01*
X2148810Y3082628D01*
X2159312Y3075610D01*
X2171700Y3073146D01*
X2184088Y3075610D01*
X2194590Y3082628D01*
X2201608Y3093130D01*
X2204072Y3105518D01*
X2201608Y3117907D01*
X2194590Y3128409D01*
X2184088Y3135426D01*
X2171700Y3137890D01*
D02*
G37*
G36*
X1511300Y3042272D02*
X1498912Y3039808D01*
X1488410Y3032790D01*
X1481392Y3022288D01*
X1478928Y3009900D01*
X1481392Y2997512D01*
X1488410Y2987010D01*
X1498912Y2979992D01*
X1511300Y2977528D01*
X1523688Y2979992D01*
X1534190Y2987010D01*
X1541208Y2997512D01*
X1543672Y3009900D01*
X1541208Y3022288D01*
X1534190Y3032790D01*
X1523688Y3039808D01*
X1511300Y3042272D01*
D02*
G37*
G36*
X3600920Y2997453D02*
X3588532Y2994989D01*
X3578029Y2987972D01*
X3571012Y2977470D01*
X3568548Y2965081D01*
X3571012Y2952693D01*
X3578029Y2942191D01*
X3588532Y2935173D01*
X3600920Y2932709D01*
X3613308Y2935173D01*
X3623810Y2942191D01*
X3630828Y2952693D01*
X3633292Y2965081D01*
X3630828Y2977470D01*
X3623810Y2987972D01*
X3613308Y2994989D01*
X3600920Y2997453D01*
D02*
G37*
G36*
X708599Y2940672D02*
X696211Y2938208D01*
X685709Y2931190D01*
X678691Y2920688D01*
X676227Y2908300D01*
X678691Y2895912D01*
X685709Y2885410D01*
X696211Y2878392D01*
X708599Y2875928D01*
X720988Y2878392D01*
X731490Y2885410D01*
X738507Y2895912D01*
X740971Y2908300D01*
X738507Y2920688D01*
X731490Y2931190D01*
X720988Y2938208D01*
X708599Y2940672D01*
D02*
G37*
G36*
X1460500Y2906004D02*
X1451659Y2904245D01*
X1444163Y2899237D01*
X1439155Y2891741D01*
X1437396Y2882900D01*
X1439155Y2874059D01*
X1444163Y2866563D01*
X1451659Y2861555D01*
X1460500Y2859796D01*
X1469341Y2861555D01*
X1476837Y2866563D01*
X1481845Y2874059D01*
X1483604Y2882900D01*
X1481845Y2891741D01*
X1476837Y2899237D01*
X1469341Y2904245D01*
X1460500Y2906004D01*
D02*
G37*
G36*
X3429000Y2910522D02*
X3411990Y2908283D01*
X3396139Y2901717D01*
X3382527Y2891273D01*
X3372083Y2877661D01*
X3365517Y2861810D01*
X3363278Y2844800D01*
X3365517Y2827790D01*
X3372083Y2811939D01*
X3382527Y2798327D01*
X3396139Y2787883D01*
X3411990Y2781317D01*
X3429000Y2779078D01*
X3446010Y2781317D01*
X3461861Y2787883D01*
X3475473Y2798327D01*
X3485917Y2811939D01*
X3492483Y2827790D01*
X3494722Y2844800D01*
X3492483Y2861810D01*
X3485917Y2877661D01*
X3475473Y2891273D01*
X3461861Y2901717D01*
X3446010Y2908283D01*
X3429000Y2910522D01*
D02*
G37*
G36*
X6814299Y3392519D02*
X6765629Y3388688D01*
X6718158Y3377291D01*
X6673053Y3358609D01*
X6631427Y3333100D01*
X6594304Y3301394D01*
X6562598Y3264271D01*
X6537090Y3222645D01*
X6518407Y3177541D01*
X6507010Y3130069D01*
X6503180Y3081400D01*
X6507010Y3032730D01*
X6518407Y2985259D01*
X6537090Y2940155D01*
X6562598Y2898529D01*
X6594304Y2861405D01*
X6631427Y2829699D01*
X6673053Y2804191D01*
X6718158Y2785508D01*
X6765629Y2774111D01*
X6814299Y2770281D01*
X6862968Y2774111D01*
X6910440Y2785508D01*
X6955544Y2804191D01*
X6997170Y2829699D01*
X7034293Y2861405D01*
X7065999Y2898529D01*
X7091508Y2940155D01*
X7110190Y2985259D01*
X7121587Y3032730D01*
X7125418Y3081400D01*
X7121587Y3130069D01*
X7110190Y3177541D01*
X7091508Y3222645D01*
X7065999Y3264271D01*
X7034293Y3301394D01*
X6997170Y3333100D01*
X6955544Y3358609D01*
X6910440Y3377291D01*
X6862968Y3388688D01*
X6814299Y3392519D01*
D02*
G37*
G36*
X3162300Y2775572D02*
X3149912Y2773108D01*
X3139410Y2766090D01*
X3132392Y2755588D01*
X3129928Y2743200D01*
X3132392Y2730812D01*
X3139410Y2720310D01*
X3149912Y2713292D01*
X3162300Y2710828D01*
X3174688Y2713292D01*
X3185190Y2720310D01*
X3192208Y2730812D01*
X3194672Y2743200D01*
X3192208Y2755588D01*
X3185190Y2766090D01*
X3174688Y2773108D01*
X3162300Y2775572D01*
D02*
G37*
G36*
X1879600Y2753604D02*
X1870759Y2751845D01*
X1863263Y2746837D01*
X1858255Y2739341D01*
X1856496Y2730500D01*
X1858255Y2721659D01*
X1863263Y2714163D01*
X1870759Y2709155D01*
X1879600Y2707396D01*
X1888441Y2709155D01*
X1895937Y2714163D01*
X1900945Y2721659D01*
X1902704Y2730500D01*
X1900945Y2739341D01*
X1895937Y2746837D01*
X1888441Y2751845D01*
X1879600Y2753604D01*
D02*
G37*
G36*
X2108200Y2727312D02*
X2095812Y2724848D01*
X2085310Y2717830D01*
X2078292Y2707328D01*
X2075828Y2694940D01*
X2078292Y2682552D01*
X2085310Y2672050D01*
X2095812Y2665032D01*
X2108200Y2662568D01*
X2120588Y2665032D01*
X2131090Y2672050D01*
X2138108Y2682552D01*
X2140572Y2694940D01*
X2138108Y2707328D01*
X2131090Y2717830D01*
X2120588Y2724848D01*
X2108200Y2727312D01*
D02*
G37*
G36*
X4391660Y2684462D02*
X4374650Y2682223D01*
X4358799Y2675657D01*
X4345187Y2665213D01*
X4334743Y2651601D01*
X4328177Y2635750D01*
X4325938Y2618740D01*
X4328177Y2601730D01*
X4334743Y2585879D01*
X4345187Y2572267D01*
X4358799Y2561823D01*
X4374650Y2555257D01*
X4391660Y2553018D01*
X4408670Y2555257D01*
X4424521Y2561823D01*
X4438133Y2572267D01*
X4448577Y2585879D01*
X4455143Y2601730D01*
X4457382Y2618740D01*
X4455143Y2635750D01*
X4448577Y2651601D01*
X4438133Y2665213D01*
X4424521Y2675657D01*
X4408670Y2682223D01*
X4391660Y2684462D01*
D02*
G37*
G36*
X5717490Y2512757D02*
X5717488Y2512757D01*
X2044701D01*
X2044700Y2512757D01*
X2030825Y2509997D01*
X2019063Y2502137D01*
X2019062Y2502137D01*
X1930163Y2413237D01*
X1922303Y2401475D01*
X1919543Y2387600D01*
X1919543Y2387599D01*
Y1932718D01*
X1879363Y1892537D01*
X1871503Y1880775D01*
X1868743Y1866900D01*
X1871503Y1853025D01*
X1879363Y1841263D01*
X1891125Y1833403D01*
X1905000Y1830643D01*
X1918875Y1833403D01*
X1930637Y1841263D01*
X1981437Y1892062D01*
X1981437Y1892063D01*
X1989297Y1903825D01*
X1992057Y1917700D01*
X1992057Y1917701D01*
Y2372582D01*
X2059718Y2440243D01*
X5702471D01*
X6523804Y1618911D01*
X6521032Y1612221D01*
X6518105Y1589990D01*
X6521032Y1567759D01*
X6529613Y1547042D01*
X6543263Y1529253D01*
X6551013Y1523306D01*
X6546702Y1510606D01*
X6407298D01*
X6402987Y1523306D01*
X6410737Y1529253D01*
X6424387Y1547042D01*
X6432968Y1567759D01*
X6435895Y1589990D01*
X6432968Y1612221D01*
X6424387Y1632937D01*
X6410737Y1650726D01*
X6392947Y1664377D01*
X6372231Y1672958D01*
X6350000Y1675884D01*
X6327769Y1672958D01*
X6307053Y1664377D01*
X6289263Y1650726D01*
X6275613Y1632937D01*
X6267032Y1612221D01*
X6264105Y1589990D01*
X6267032Y1567759D01*
X6275613Y1547042D01*
X6289263Y1529253D01*
X6297013Y1523306D01*
X6292702Y1510606D01*
X4992268D01*
X4684457Y1818418D01*
Y1964142D01*
X4681697Y1978017D01*
X4673837Y1989779D01*
X4673837Y1989780D01*
X4644079Y2019537D01*
X4632317Y2027397D01*
X4618442Y2030157D01*
X4618441Y2030157D01*
X3867178D01*
X3867177Y2030157D01*
X3853302Y2027397D01*
X3841540Y2019537D01*
X3841539Y2019537D01*
X3668411Y1846409D01*
X3648482Y1854664D01*
X3619399Y1858493D01*
X3590315Y1854664D01*
X3563213Y1843438D01*
X3539940Y1825580D01*
X3522082Y1802307D01*
X3510856Y1775205D01*
X3507027Y1746121D01*
X3510856Y1717038D01*
X3522082Y1689936D01*
X3539940Y1666663D01*
X3563213Y1648805D01*
X3590315Y1637579D01*
X3619399Y1633750D01*
X3648482Y1637579D01*
X3675584Y1648805D01*
X3698857Y1666663D01*
X3716715Y1689936D01*
X3727941Y1717038D01*
X3731770Y1746121D01*
X3727941Y1775205D01*
X3719686Y1795134D01*
X3882195Y1957643D01*
X4603424D01*
X4611943Y1949124D01*
Y1803401D01*
X4611943Y1803400D01*
X4614703Y1789525D01*
X4622563Y1777763D01*
X4951612Y1448713D01*
X4951613Y1448712D01*
X4963376Y1440853D01*
X4977250Y1438093D01*
X4977252Y1438093D01*
X6742359D01*
X6742360Y1438093D01*
X6756235Y1440853D01*
X6767997Y1448712D01*
X6829078Y1509793D01*
X6835769Y1507022D01*
X6858000Y1504095D01*
X6880231Y1507022D01*
X6900947Y1515603D01*
X6918737Y1529253D01*
X6932387Y1547042D01*
X6940968Y1567759D01*
X6943895Y1589990D01*
X6940968Y1612221D01*
X6932387Y1632937D01*
X6918737Y1650726D01*
X6900947Y1664377D01*
X6880231Y1672958D01*
X6858000Y1675884D01*
X6835769Y1672958D01*
X6815053Y1664377D01*
X6797263Y1650726D01*
X6783613Y1632937D01*
X6775032Y1612221D01*
X6772105Y1589990D01*
X6775032Y1567759D01*
X6777804Y1561068D01*
X6727342Y1510606D01*
X6661298D01*
X6656987Y1523306D01*
X6664737Y1529253D01*
X6678387Y1547042D01*
X6686968Y1567759D01*
X6689895Y1589990D01*
X6686968Y1612221D01*
X6678387Y1632937D01*
X6664737Y1650726D01*
X6646947Y1664377D01*
X6626231Y1672958D01*
X6604000Y1675884D01*
X6581769Y1672958D01*
X6575078Y1670186D01*
X5743127Y2502137D01*
X5731364Y2509997D01*
X5717490Y2512757D01*
D02*
G37*
G36*
X3606800Y2331072D02*
X3594412Y2328608D01*
X3583910Y2321590D01*
X3576892Y2311088D01*
X3574428Y2298700D01*
X3576892Y2286312D01*
X3583910Y2275810D01*
X3594412Y2268792D01*
X3606800Y2266328D01*
X3619188Y2268792D01*
X3629690Y2275810D01*
X3636708Y2286312D01*
X3639172Y2298700D01*
X3636708Y2311088D01*
X3629690Y2321590D01*
X3619188Y2328608D01*
X3606800Y2331072D01*
D02*
G37*
G36*
X2679700Y2236444D02*
X2654924Y2231516D01*
X2633919Y2217481D01*
X2619884Y2196476D01*
X2614956Y2171700D01*
X2619884Y2146924D01*
X2633919Y2125919D01*
X2654924Y2111884D01*
X2679700Y2106956D01*
X2704476Y2111884D01*
X2725481Y2125919D01*
X2739516Y2146924D01*
X2744444Y2171700D01*
X2739516Y2196476D01*
X2725481Y2217481D01*
X2704476Y2231516D01*
X2679700Y2236444D01*
D02*
G37*
G36*
X3111399Y1858493D02*
X3082315Y1854664D01*
X3055213Y1843438D01*
X3031940Y1825580D01*
X3014082Y1802307D01*
X3002856Y1775205D01*
X2999027Y1746121D01*
X3002856Y1717038D01*
X3014082Y1689936D01*
X3031940Y1666663D01*
X3055213Y1648805D01*
X3082315Y1637579D01*
X3111399Y1633750D01*
X3140482Y1637579D01*
X3167584Y1648805D01*
X3190857Y1666663D01*
X3208715Y1689936D01*
X3219941Y1717038D01*
X3223770Y1746121D01*
X3219941Y1775205D01*
X3208715Y1802307D01*
X3190857Y1825580D01*
X3167584Y1843438D01*
X3140482Y1854664D01*
X3111399Y1858493D01*
D02*
G37*
G36*
X7197160Y1675150D02*
X7026840D01*
Y1504830D01*
X7197160D01*
Y1675150D01*
D02*
G37*
G36*
X4622800Y1403972D02*
X4610412Y1401508D01*
X4599910Y1394490D01*
X4592892Y1383988D01*
X4590428Y1371600D01*
X4592892Y1359212D01*
X4599910Y1348710D01*
X4610412Y1341692D01*
X4622800Y1339228D01*
X4635188Y1341692D01*
X4645690Y1348710D01*
X4652708Y1359212D01*
X4655172Y1371600D01*
X4652708Y1383988D01*
X4645690Y1394490D01*
X4635188Y1401508D01*
X4622800Y1403972D01*
D02*
G37*
G36*
X1930400Y1353172D02*
X1918012Y1350708D01*
X1907510Y1343690D01*
X1900492Y1333188D01*
X1898028Y1320800D01*
X1900492Y1308412D01*
X1907510Y1297910D01*
X1918012Y1290892D01*
X1930400Y1288428D01*
X1942788Y1290892D01*
X1953290Y1297910D01*
X1960308Y1308412D01*
X1962772Y1320800D01*
X1960308Y1333188D01*
X1953290Y1343690D01*
X1942788Y1350708D01*
X1930400Y1353172D01*
D02*
G37*
G36*
X2222500Y1340472D02*
X2210112Y1338008D01*
X2199610Y1330990D01*
X2192592Y1320488D01*
X2190128Y1308100D01*
X2192592Y1295712D01*
X2199610Y1285210D01*
X2210112Y1278192D01*
X2222500Y1275728D01*
X2234888Y1278192D01*
X2245390Y1285210D01*
X2252408Y1295712D01*
X2254872Y1308100D01*
X2252408Y1320488D01*
X2245390Y1330990D01*
X2234888Y1338008D01*
X2222500Y1340472D01*
D02*
G37*
G36*
X2979420Y1201102D02*
X2962410Y1198863D01*
X2946559Y1192297D01*
X2932947Y1181853D01*
X2922503Y1168241D01*
X2915937Y1152390D01*
X2913698Y1135380D01*
X2915937Y1118370D01*
X2922503Y1102519D01*
X2932947Y1088907D01*
X2946559Y1078463D01*
X2962410Y1071897D01*
X2979420Y1069658D01*
X2996430Y1071897D01*
X3012281Y1078463D01*
X3025893Y1088907D01*
X3036337Y1102519D01*
X3042903Y1118370D01*
X3045142Y1135380D01*
X3042903Y1152390D01*
X3036337Y1168241D01*
X3025893Y1181853D01*
X3012281Y1192297D01*
X2996430Y1198863D01*
X2979420Y1201102D01*
D02*
G37*
G36*
X4127399Y1858493D02*
X4098315Y1854664D01*
X4071213Y1843438D01*
X4047940Y1825580D01*
X4030082Y1802307D01*
X4018856Y1775205D01*
X4015027Y1746121D01*
X4018856Y1717038D01*
X4030082Y1689936D01*
X4047940Y1666663D01*
X4071213Y1648805D01*
X4091142Y1640550D01*
Y1447903D01*
X4091142Y1447901D01*
X4093902Y1434027D01*
X4101761Y1422264D01*
X4393962Y1130063D01*
X4393963Y1130063D01*
X4405725Y1122203D01*
X4419600Y1119443D01*
X4419601Y1119443D01*
X6195282D01*
X6407531Y907195D01*
X6399139Y897626D01*
X6392947Y902377D01*
X6372231Y910958D01*
X6350000Y913884D01*
X6327769Y910958D01*
X6307053Y902377D01*
X6289263Y888726D01*
X6275613Y870937D01*
X6272842Y864246D01*
X5897123D01*
X5694332Y1067037D01*
X5682569Y1074897D01*
X5668695Y1077657D01*
X5668693Y1077657D01*
X4124738D01*
X3909655Y1292740D01*
Y1640550D01*
X3929584Y1648805D01*
X3952857Y1666663D01*
X3970715Y1689936D01*
X3981941Y1717038D01*
X3985770Y1746121D01*
X3981941Y1775205D01*
X3970715Y1802307D01*
X3952857Y1825580D01*
X3929584Y1843438D01*
X3902482Y1854664D01*
X3873399Y1858493D01*
X3844315Y1854664D01*
X3817213Y1843438D01*
X3793940Y1825580D01*
X3776082Y1802307D01*
X3764856Y1775205D01*
X3761027Y1746121D01*
X3764856Y1717038D01*
X3776082Y1689936D01*
X3793940Y1666663D01*
X3817213Y1648805D01*
X3837142Y1640550D01*
Y1277723D01*
X3837142Y1277721D01*
X3839902Y1263847D01*
X3847761Y1252084D01*
X4084082Y1015763D01*
X4084083Y1015763D01*
X4095845Y1007903D01*
X4109720Y1005143D01*
X4109721Y1005143D01*
X5653676D01*
X5682763Y976057D01*
X5677502Y963357D01*
X3647218D01*
X3401655Y1208920D01*
Y1640550D01*
X3421584Y1648805D01*
X3444857Y1666663D01*
X3462715Y1689936D01*
X3473941Y1717038D01*
X3477770Y1746121D01*
X3473941Y1775205D01*
X3462715Y1802307D01*
X3444857Y1825580D01*
X3421584Y1843438D01*
X3394482Y1854664D01*
X3365399Y1858493D01*
X3336315Y1854664D01*
X3309213Y1843438D01*
X3285940Y1825580D01*
X3268082Y1802307D01*
X3256856Y1775205D01*
X3253027Y1746121D01*
X3256856Y1717038D01*
X3268082Y1689936D01*
X3285940Y1666663D01*
X3309213Y1648805D01*
X3329142Y1640550D01*
Y1193903D01*
X3329142Y1193901D01*
X3331902Y1180027D01*
X3339761Y1168264D01*
X3606562Y901463D01*
X3606563Y901463D01*
X3618325Y893603D01*
X3632200Y890843D01*
X3632201Y890843D01*
X5674582D01*
X6019563Y545863D01*
X6031325Y538003D01*
X6045200Y535243D01*
X6045201Y535243D01*
X6855509D01*
X6855510Y535243D01*
X6869385Y538003D01*
X6881148Y545863D01*
X7083078Y747793D01*
X7089769Y745022D01*
X7112000Y742095D01*
X7134231Y745022D01*
X7154947Y753603D01*
X7172737Y767253D01*
X7186387Y785042D01*
X7194968Y805759D01*
X7197895Y827990D01*
X7194968Y850221D01*
X7186387Y870937D01*
X7172737Y888726D01*
X7154947Y902377D01*
X7134231Y910958D01*
X7112000Y913884D01*
X7089769Y910958D01*
X7069053Y902377D01*
X7051263Y888726D01*
X7037613Y870937D01*
X7029032Y850221D01*
X7026105Y827990D01*
X7029032Y805759D01*
X7031804Y799068D01*
X6840492Y607757D01*
X6060218D01*
X5888942Y779033D01*
X5894203Y791733D01*
X6272842D01*
X6275613Y785042D01*
X6289263Y767253D01*
X6307053Y753603D01*
X6327769Y745022D01*
X6350000Y742095D01*
X6372231Y745022D01*
X6392947Y753603D01*
X6410737Y767253D01*
X6424387Y785042D01*
X6432968Y805759D01*
X6435895Y827990D01*
X6432968Y850221D01*
X6424387Y870937D01*
X6419636Y877129D01*
X6429205Y885520D01*
X6512372Y802353D01*
X6512373Y802352D01*
X6524136Y794493D01*
X6525839Y794154D01*
X6529613Y785042D01*
X6543263Y767253D01*
X6561053Y753603D01*
X6581769Y745022D01*
X6604000Y742095D01*
X6626231Y745022D01*
X6646947Y753603D01*
X6664737Y767253D01*
X6678387Y785042D01*
X6686968Y805759D01*
X6689895Y827990D01*
X6686968Y850221D01*
X6678387Y870937D01*
X6664737Y888726D01*
X6646947Y902377D01*
X6626231Y910958D01*
X6604000Y913884D01*
X6581769Y910958D01*
X6561053Y902377D01*
X6543263Y888726D01*
X6542737Y888041D01*
X6530064Y887210D01*
X6235937Y1181337D01*
X6224175Y1189197D01*
X6210300Y1191957D01*
X6210299Y1191957D01*
X4434618D01*
X4163655Y1462920D01*
Y1640550D01*
X4183584Y1648805D01*
X4206857Y1666663D01*
X4224715Y1689936D01*
X4235941Y1717038D01*
X4239770Y1746121D01*
X4235941Y1775205D01*
X4224715Y1802307D01*
X4206857Y1825580D01*
X4183584Y1843438D01*
X4156482Y1854664D01*
X4127399Y1858493D01*
D02*
G37*
G36*
X4492809Y1857531D02*
X4269989D01*
Y1634711D01*
X4441534D01*
X4793782Y1282463D01*
X4793783Y1282463D01*
X4805545Y1274603D01*
X4819420Y1271843D01*
X4819421Y1271843D01*
X6362871D01*
X6777804Y856911D01*
X6775032Y850221D01*
X6772105Y827990D01*
X6775032Y805759D01*
X6783613Y785042D01*
X6797263Y767253D01*
X6815053Y753603D01*
X6835769Y745022D01*
X6858000Y742095D01*
X6880231Y745022D01*
X6900947Y753603D01*
X6918737Y767253D01*
X6932387Y785042D01*
X6940968Y805759D01*
X6943895Y827990D01*
X6940968Y850221D01*
X6932387Y870937D01*
X6918737Y888726D01*
X6900947Y902377D01*
X6880231Y910958D01*
X6858000Y913884D01*
X6835769Y910958D01*
X6829078Y908186D01*
X6403527Y1333737D01*
X6391764Y1341597D01*
X6377890Y1344357D01*
X6377888Y1344357D01*
X4834438D01*
X4492809Y1685986D01*
Y1857531D01*
D02*
G37*
G36*
X5461000Y779261D02*
X5436811Y776076D01*
X5414270Y766739D01*
X5394914Y751887D01*
X5380061Y732531D01*
X5370725Y709990D01*
X5367540Y685801D01*
X5370725Y661612D01*
X5380061Y639071D01*
X5394914Y619715D01*
X5414270Y604863D01*
X5436811Y595526D01*
X5461000Y592341D01*
X5485189Y595526D01*
X5507729Y604863D01*
X5527086Y619715D01*
X5541938Y639071D01*
X5551275Y661612D01*
X5554459Y685801D01*
X5551275Y709990D01*
X5541938Y732531D01*
X5527086Y751887D01*
X5507729Y766739D01*
X5485189Y776076D01*
X5461000Y779261D01*
D02*
G37*
G36*
X5207000D02*
X5182811Y776076D01*
X5160270Y766739D01*
X5140914Y751887D01*
X5126061Y732531D01*
X5116725Y709990D01*
X5113540Y685801D01*
X5116725Y661612D01*
X5126061Y639071D01*
X5140914Y619715D01*
X5160270Y604863D01*
X5182811Y595526D01*
X5207000Y592341D01*
X5231189Y595526D01*
X5253729Y604863D01*
X5273086Y619715D01*
X5287938Y639071D01*
X5297275Y661612D01*
X5300459Y685801D01*
X5297275Y709990D01*
X5287938Y732531D01*
X5273086Y751887D01*
X5253729Y766739D01*
X5231189Y776076D01*
X5207000Y779261D01*
D02*
G37*
G36*
X4953000D02*
X4928811Y776076D01*
X4906270Y766739D01*
X4886914Y751887D01*
X4872061Y732531D01*
X4862725Y709990D01*
X4859540Y685801D01*
X4862725Y661612D01*
X4872061Y639071D01*
X4886914Y619715D01*
X4906270Y604863D01*
X4928811Y595526D01*
X4953000Y592341D01*
X4977189Y595526D01*
X4999729Y604863D01*
X5019086Y619715D01*
X5033938Y639071D01*
X5043275Y661612D01*
X5046459Y685801D01*
X5043275Y709990D01*
X5033938Y732531D01*
X5019086Y751887D01*
X4999729Y766739D01*
X4977189Y776076D01*
X4953000Y779261D01*
D02*
G37*
G36*
X4699000D02*
X4674811Y776076D01*
X4652270Y766739D01*
X4632914Y751887D01*
X4618061Y732531D01*
X4608725Y709990D01*
X4605540Y685801D01*
X4608725Y661612D01*
X4618061Y639071D01*
X4632914Y619715D01*
X4652270Y604863D01*
X4674811Y595526D01*
X4699000Y592341D01*
X4723189Y595526D01*
X4745729Y604863D01*
X4765086Y619715D01*
X4779938Y639071D01*
X4789275Y661612D01*
X4792459Y685801D01*
X4789275Y709990D01*
X4779938Y732531D01*
X4765086Y751887D01*
X4745729Y766739D01*
X4723189Y776076D01*
X4699000Y779261D01*
D02*
G37*
G36*
X4445000D02*
X4420811Y776076D01*
X4398270Y766739D01*
X4378914Y751887D01*
X4364061Y732531D01*
X4354725Y709990D01*
X4351540Y685801D01*
X4354725Y661612D01*
X4364061Y639071D01*
X4378914Y619715D01*
X4398270Y604863D01*
X4420811Y595526D01*
X4445000Y592341D01*
X4469189Y595526D01*
X4491729Y604863D01*
X4511086Y619715D01*
X4525938Y639071D01*
X4535275Y661612D01*
X4538459Y685801D01*
X4535275Y709990D01*
X4525938Y732531D01*
X4511086Y751887D01*
X4491729Y766739D01*
X4469189Y776076D01*
X4445000Y779261D01*
D02*
G37*
G36*
X4191000D02*
X4166811Y776076D01*
X4144270Y766739D01*
X4124914Y751887D01*
X4110061Y732531D01*
X4100725Y709990D01*
X4097540Y685801D01*
X4100725Y661612D01*
X4110061Y639071D01*
X4124914Y619715D01*
X4144270Y604863D01*
X4166811Y595526D01*
X4191000Y592341D01*
X4215189Y595526D01*
X4237729Y604863D01*
X4257086Y619715D01*
X4271938Y639071D01*
X4281275Y661612D01*
X4284459Y685801D01*
X4281275Y709990D01*
X4271938Y732531D01*
X4257086Y751887D01*
X4237729Y766739D01*
X4215189Y776076D01*
X4191000Y779261D01*
D02*
G37*
G36*
X3937000D02*
X3912811Y776076D01*
X3890270Y766739D01*
X3870914Y751887D01*
X3856061Y732531D01*
X3846725Y709990D01*
X3843540Y685801D01*
X3846725Y661612D01*
X3856061Y639071D01*
X3870914Y619715D01*
X3890270Y604863D01*
X3912811Y595526D01*
X3937000Y592341D01*
X3961189Y595526D01*
X3983729Y604863D01*
X4003086Y619715D01*
X4017938Y639071D01*
X4027275Y661612D01*
X4030459Y685801D01*
X4027275Y709990D01*
X4017938Y732531D01*
X4003086Y751887D01*
X3983729Y766739D01*
X3961189Y776076D01*
X3937000Y779261D01*
D02*
G37*
G36*
X3683000D02*
X3658811Y776076D01*
X3636270Y766739D01*
X3616914Y751887D01*
X3602061Y732531D01*
X3592725Y709990D01*
X3589540Y685801D01*
X3592725Y661612D01*
X3602061Y639071D01*
X3616914Y619715D01*
X3636270Y604863D01*
X3658811Y595526D01*
X3683000Y592341D01*
X3707189Y595526D01*
X3729729Y604863D01*
X3749086Y619715D01*
X3763938Y639071D01*
X3773275Y661612D01*
X3776459Y685801D01*
X3773275Y709990D01*
X3763938Y732531D01*
X3749086Y751887D01*
X3729729Y766739D01*
X3707189Y776076D01*
X3683000Y779261D01*
D02*
G37*
G36*
X3429000D02*
X3404811Y776076D01*
X3382270Y766739D01*
X3362914Y751887D01*
X3348061Y732531D01*
X3338725Y709990D01*
X3335540Y685801D01*
X3338725Y661612D01*
X3348061Y639071D01*
X3362914Y619715D01*
X3382270Y604863D01*
X3404811Y595526D01*
X3429000Y592341D01*
X3453189Y595526D01*
X3475729Y604863D01*
X3495086Y619715D01*
X3509938Y639071D01*
X3519275Y661612D01*
X3522459Y685801D01*
X3519275Y709990D01*
X3509938Y732531D01*
X3495086Y751887D01*
X3475729Y766739D01*
X3453189Y776076D01*
X3429000Y779261D01*
D02*
G37*
G36*
X3175000D02*
X3150811Y776076D01*
X3128270Y766739D01*
X3108914Y751887D01*
X3094061Y732531D01*
X3084725Y709990D01*
X3081540Y685801D01*
X3084725Y661612D01*
X3094061Y639071D01*
X3108914Y619715D01*
X3128270Y604863D01*
X3150811Y595526D01*
X3175000Y592341D01*
X3199189Y595526D01*
X3221729Y604863D01*
X3241086Y619715D01*
X3255938Y639071D01*
X3265275Y661612D01*
X3268459Y685801D01*
X3265275Y709990D01*
X3255938Y732531D01*
X3241086Y751887D01*
X3221729Y766739D01*
X3199189Y776076D01*
X3175000Y779261D01*
D02*
G37*
G36*
X2921000D02*
X2896811Y776076D01*
X2874270Y766739D01*
X2854914Y751887D01*
X2840061Y732531D01*
X2830725Y709990D01*
X2827540Y685801D01*
X2830725Y661612D01*
X2840061Y639071D01*
X2854914Y619715D01*
X2874270Y604863D01*
X2896811Y595526D01*
X2921000Y592341D01*
X2945189Y595526D01*
X2967729Y604863D01*
X2987086Y619715D01*
X3001938Y639071D01*
X3011275Y661612D01*
X3014459Y685801D01*
X3011275Y709990D01*
X3001938Y732531D01*
X2987086Y751887D01*
X2967729Y766739D01*
X2945189Y776076D01*
X2921000Y779261D01*
D02*
G37*
G36*
X2667000D02*
X2642811Y776076D01*
X2620270Y766739D01*
X2600914Y751887D01*
X2586061Y732531D01*
X2576725Y709990D01*
X2573540Y685801D01*
X2576725Y661612D01*
X2586061Y639071D01*
X2600914Y619715D01*
X2620270Y604863D01*
X2642811Y595526D01*
X2667000Y592341D01*
X2691189Y595526D01*
X2713729Y604863D01*
X2733086Y619715D01*
X2747938Y639071D01*
X2757275Y661612D01*
X2760459Y685801D01*
X2757275Y709990D01*
X2747938Y732531D01*
X2733086Y751887D01*
X2713729Y766739D01*
X2691189Y776076D01*
X2667000Y779261D01*
D02*
G37*
G36*
X2413000D02*
X2388811Y776076D01*
X2366270Y766739D01*
X2346914Y751887D01*
X2332061Y732531D01*
X2322725Y709990D01*
X2319540Y685801D01*
X2322725Y661612D01*
X2332061Y639071D01*
X2346914Y619715D01*
X2366270Y604863D01*
X2388811Y595526D01*
X2413000Y592341D01*
X2437189Y595526D01*
X2459729Y604863D01*
X2479086Y619715D01*
X2493938Y639071D01*
X2503275Y661612D01*
X2506459Y685801D01*
X2503275Y709990D01*
X2493938Y732531D01*
X2479086Y751887D01*
X2459729Y766739D01*
X2437189Y776076D01*
X2413000Y779261D01*
D02*
G37*
G36*
X2159000D02*
X2134811Y776076D01*
X2112270Y766739D01*
X2092914Y751887D01*
X2078061Y732531D01*
X2068725Y709990D01*
X2065540Y685801D01*
X2068725Y661612D01*
X2078061Y639071D01*
X2092914Y619715D01*
X2112270Y604863D01*
X2134811Y595526D01*
X2159000Y592341D01*
X2183189Y595526D01*
X2205729Y604863D01*
X2225086Y619715D01*
X2239938Y639071D01*
X2249275Y661612D01*
X2252459Y685801D01*
X2249275Y709990D01*
X2239938Y732531D01*
X2225086Y751887D01*
X2205729Y766739D01*
X2183189Y776076D01*
X2159000Y779261D01*
D02*
G37*
G36*
X1905000D02*
X1880811Y776076D01*
X1858270Y766739D01*
X1838914Y751887D01*
X1824061Y732531D01*
X1814725Y709990D01*
X1811540Y685801D01*
X1814725Y661612D01*
X1824061Y639071D01*
X1838914Y619715D01*
X1858270Y604863D01*
X1880811Y595526D01*
X1905000Y592341D01*
X1929189Y595526D01*
X1951729Y604863D01*
X1971086Y619715D01*
X1985938Y639071D01*
X1995275Y661612D01*
X1998459Y685801D01*
X1995275Y709990D01*
X1985938Y732531D01*
X1971086Y751887D01*
X1951729Y766739D01*
X1929189Y776076D01*
X1905000Y779261D01*
D02*
G37*
G36*
X1651000D02*
X1626811Y776076D01*
X1604270Y766739D01*
X1584914Y751887D01*
X1570061Y732531D01*
X1560725Y709990D01*
X1557540Y685801D01*
X1560725Y661612D01*
X1570061Y639071D01*
X1584914Y619715D01*
X1604270Y604863D01*
X1626811Y595526D01*
X1651000Y592341D01*
X1675189Y595526D01*
X1697729Y604863D01*
X1717086Y619715D01*
X1731938Y639071D01*
X1741275Y661612D01*
X1744459Y685801D01*
X1741275Y709990D01*
X1731938Y732531D01*
X1717086Y751887D01*
X1697729Y766739D01*
X1675189Y776076D01*
X1651000Y779261D01*
D02*
G37*
%LPD*%
D40*
X3377403Y3310900D02*
Y3332963D01*
Y3174203D02*
Y3310900D01*
X3337403Y3270900D02*
Y3390900D01*
X3365500Y3162300D02*
X3377403Y3174203D01*
X3390900Y3346460D02*
X3412962D01*
X3377403Y3332963D02*
X3390900Y3346460D01*
X3412962D02*
X3417403Y3350900D01*
Y3211997D02*
Y3310900D01*
Y3211997D02*
X3454400Y3175000D01*
X3377403Y3618703D02*
X3429000Y3670300D01*
X3377403Y3550900D02*
Y3618703D01*
X3337403Y3550900D02*
Y3667603D01*
D41*
X2197100Y3009900D02*
X2286000Y3098800D01*
X4673600Y4884577D02*
Y5286282D01*
X4006550Y4217527D02*
X4673600Y4884577D01*
X3976227Y4217527D02*
X4006550D01*
X2171700Y3009900D02*
X2197100D01*
X4673600Y5286282D02*
X4711700Y5324382D01*
Y5410200D01*
X3429000Y3670300D02*
X3976227Y4217527D01*
X4254500Y4584700D02*
Y4773021D01*
X3337403Y3667603D02*
X4254500Y4584700D01*
X4269379Y4787900D02*
X4368800D01*
X4254500Y4773021D02*
X4269379Y4787900D01*
D42*
X2286000Y3098800D02*
X3302000D01*
X3365500Y3162300D01*
X1955800Y2387600D02*
X2044700Y2476500D01*
X1955800Y1917700D02*
Y2387600D01*
X1905000Y1866900D02*
X1955800Y1917700D01*
X2044700Y2476500D02*
X5717490D01*
X6604000Y1589990D01*
X4648200Y1803400D02*
Y1964142D01*
Y1803400D02*
X4977250Y1474350D01*
X6742360D01*
X3867177Y1993900D02*
X4618442D01*
X4648200Y1964142D01*
X6742360Y1474350D02*
X6858000Y1589990D01*
X3619399Y1746121D02*
X3867177Y1993900D01*
X6377890Y1308100D02*
X6858000Y827990D01*
X4819420Y1308100D02*
X6377890D01*
X4381399Y1746121D02*
X4819420Y1308100D01*
X6210300Y1155700D02*
X6538010Y827990D01*
X4419600Y1155700D02*
X6210300D01*
X4127399Y1447901D02*
X4419600Y1155700D01*
X6538010Y827990D02*
X6604000D01*
X4127399Y1447901D02*
Y1746121D01*
X3873399Y1277721D02*
X4109720Y1041400D01*
X3873399Y1277721D02*
Y1746121D01*
X4109720Y1041400D02*
X5668695D01*
X5882105Y827990D01*
X6350000D01*
X3365399Y1193901D02*
X3632200Y927100D01*
X3365399Y1193901D02*
Y1746121D01*
X3632200Y927100D02*
X5689600D01*
X6045200Y571500D01*
X6855510D01*
X7112000Y827990D01*
D45*
X3534655Y3094745D02*
X3615690D01*
X3454400Y3175000D02*
X3534655Y3094745D01*
D49*
X1651000Y685801D02*
D03*
X1905000D02*
D03*
X2159000D02*
D03*
X2413000D02*
D03*
X2667000D02*
D03*
X2921000D02*
D03*
X3175000D02*
D03*
X3429000D02*
D03*
X3683000D02*
D03*
X3937000D02*
D03*
X4191000D02*
D03*
X4445000D02*
D03*
X4699000D02*
D03*
X4953000D02*
D03*
X5207000D02*
D03*
X5461000D02*
D03*
D50*
X609600Y1170803D02*
D03*
X2324100Y3949700D02*
D03*
X2979420Y1135380D02*
D03*
X4109720Y5731632D02*
D03*
X3429000Y2844800D02*
D03*
X4109720Y3517900D02*
D03*
X6096000Y5295900D02*
D03*
X4391660Y2618740D02*
D03*
X5989320Y4411980D02*
D03*
D51*
X8572500Y475080D02*
D03*
Y6756500D02*
D03*
X13876019D02*
D03*
Y475080D02*
D03*
X454660D02*
D03*
Y6756500D02*
D03*
D52*
X7112000Y1589990D02*
D03*
D53*
X6858000D02*
D03*
X6604000D02*
D03*
X6350000D02*
D03*
Y827990D02*
D03*
X6604000D02*
D03*
X6858000D02*
D03*
X7112000D02*
D03*
D54*
X3543300Y5981700D02*
D03*
X3289300D02*
D03*
D55*
X3543300Y5727700D02*
D03*
X3289300D02*
D03*
D56*
X3559400Y6476120D02*
D03*
X2695400D02*
D03*
D57*
X3559400Y6856120D02*
D03*
X2695400D02*
D03*
D58*
X6814299Y3081400D02*
D03*
Y4081398D02*
D03*
D59*
X1021080Y4676240D02*
D03*
X4965700Y4229100D02*
D03*
X4935220Y6746122D02*
D03*
X4077401D02*
D03*
D60*
X1021080Y4422240D02*
D03*
D61*
X5219700Y4229100D02*
D03*
X5189220Y6746122D02*
D03*
X4331401D02*
D03*
D62*
X4381399Y1746121D02*
D03*
D63*
X4127399D02*
D03*
X3873399D02*
D03*
X3619399D02*
D03*
X3365399D02*
D03*
X3111399D02*
D03*
D64*
X3073400Y3159316D02*
D03*
X2171700Y3105518D02*
D03*
X4368800Y6235700D02*
D03*
X5016500Y6261100D02*
D03*
X1511300Y3009900D02*
D03*
X2159000Y4655437D02*
D03*
X2743200Y6261100D02*
D03*
X3441700D02*
D03*
X2171700Y6502400D02*
D03*
Y6896100D02*
D03*
X800100Y3733800D02*
D03*
X708599Y2908300D02*
D03*
X1651000Y3378200D02*
D03*
X1803400Y3612163D02*
D03*
X4368800Y4787900D02*
D03*
X1930400Y1320800D02*
D03*
X3162300Y2743200D02*
D03*
X1905000Y1866900D02*
D03*
X1866900Y3416300D02*
D03*
X3615690Y3094745D02*
D03*
X3600920Y2965081D02*
D03*
X2222500Y1308100D02*
D03*
X3073400Y3276600D02*
D03*
X4711700Y5410200D02*
D03*
X3022600Y3226401D02*
D03*
X2971800Y3378200D02*
D03*
X1308100Y3873500D02*
D03*
X6007100Y5727700D02*
D03*
X4622800Y1371600D02*
D03*
X4500548Y4787900D02*
D03*
X3606800Y2298700D02*
D03*
X2108200Y2694940D02*
D03*
X1943100Y3185003D02*
D03*
X2489200Y3505200D02*
D03*
X2552700Y3594100D02*
D03*
X2641600Y3657600D02*
D03*
X2870200Y3632200D02*
D03*
X2552700Y3810000D02*
D03*
X4749800Y6286500D02*
D03*
X3175000Y6667500D02*
D03*
X4660900Y6286500D02*
D03*
D65*
X3377403Y3310900D02*
D03*
X1879600Y2730500D02*
D03*
X3577403Y3550900D02*
D03*
X1460500Y2882900D02*
D03*
X3417403Y3470900D02*
D03*
X3457403Y3511761D02*
D03*
X3417403Y3510900D02*
D03*
X3377403D02*
D03*
X3417403Y3550900D02*
D03*
X3577403Y3390900D02*
D03*
X3537403D02*
D03*
X3577403Y3430900D02*
D03*
X3537403D02*
D03*
X3497403Y3470900D02*
D03*
Y3430900D02*
D03*
X3537403Y3550900D02*
D03*
Y3270900D02*
D03*
X3497403Y3390900D02*
D03*
X2171700Y3009900D02*
D03*
X3337403Y3270900D02*
D03*
Y3390900D02*
D03*
X3297403Y3510900D02*
D03*
X3417403Y3310900D02*
D03*
Y3350900D02*
D03*
X3337403Y3550900D02*
D03*
X3377403D02*
D03*
D66*
X3886200Y4419600D02*
D03*
D67*
X2679700Y2171700D02*
D03*
D68*
X3075400Y6665500D02*
D03*
%TF.MD5,46d7ccd5ed7d11ff0d4c23bc88d301ad*%
M02*
