%TF.GenerationSoftware,Altium Limited,Altium Designer,19.0.15 (446)*%
G04 Layer_Color=32768*
%FSLAX45Y45*%
%MOMM*%
%TF.FileFunction,Other,Top_Designator*%
%TF.Part,Single*%
G01*
G75*
%TA.AperFunction,NonConductor*%
%ADD122C,0.05000*%
%ADD124C,0.15000*%
D122*
X2057808Y2831404D02*
X2049477Y2823073D01*
Y2806412D01*
X2057808Y2798082D01*
X2091130D01*
X2099461Y2806412D01*
Y2823073D01*
X2091130Y2831404D01*
X2049477Y2848065D02*
Y2881388D01*
X2057808D01*
X2091130Y2848065D01*
X2099461D01*
X1084277Y550182D02*
X1134261D01*
Y575173D01*
X1125930Y583504D01*
X1092608D01*
X1084277Y575173D01*
Y550182D01*
X1092608Y600165D02*
X1084277Y608496D01*
Y625157D01*
X1092608Y633488D01*
X1100939D01*
X1109269Y625157D01*
Y616826D01*
Y625157D01*
X1117600Y633488D01*
X1125930D01*
X1134261Y625157D01*
Y608496D01*
X1125930Y600165D01*
X4834098Y5753520D02*
X4842428Y5745189D01*
X4859090D01*
X4867420Y5753520D01*
Y5786842D01*
X4859090Y5795173D01*
X4842428D01*
X4834098Y5786842D01*
X4792445Y5795173D02*
Y5745189D01*
X4817437Y5770181D01*
X4784114D01*
X2374483Y7100800D02*
X2382814Y7109131D01*
Y7125792D01*
X2374483Y7134122D01*
X2341161D01*
X2332830Y7125792D01*
Y7109131D01*
X2341161Y7100800D01*
X2332830Y7084139D02*
Y7067478D01*
Y7075808D01*
X2382814D01*
X2374483Y7084139D01*
X2382814Y7009163D02*
Y7042486D01*
X2357822D01*
X2366152Y7025824D01*
Y7017494D01*
X2357822Y7009163D01*
X2341161D01*
X2332830Y7017494D01*
Y7034155D01*
X2341161Y7042486D01*
X1216078Y3071202D02*
X1266062D01*
Y3096193D01*
X1257731Y3104524D01*
X1224409D01*
X1216078Y3096193D01*
Y3071202D01*
X1266062Y3146177D02*
X1216078D01*
X1241070Y3121185D01*
Y3154508D01*
X6028960Y5585838D02*
X6037291Y5577508D01*
X6053952D01*
X6062283Y5585838D01*
Y5619160D01*
X6053952Y5627491D01*
X6037291D01*
X6028960Y5619160D01*
X6012299Y5585838D02*
X6003968Y5577508D01*
X5987307D01*
X5978976Y5585838D01*
Y5594169D01*
X5987307Y5602499D01*
X5995638D01*
X5987307D01*
X5978976Y5610830D01*
Y5619160D01*
X5987307Y5627491D01*
X6003968D01*
X6012299Y5619160D01*
X5603960Y5585838D02*
X5612291Y5577508D01*
X5628952D01*
X5637283Y5585838D01*
Y5619160D01*
X5628952Y5627491D01*
X5612291D01*
X5603960Y5619160D01*
X5587299Y5627491D02*
X5570638D01*
X5578968D01*
Y5577508D01*
X5587299Y5585838D01*
X4520792Y5233096D02*
X4529123Y5241427D01*
Y5258088D01*
X4520792Y5266418D01*
X4487470D01*
X4479139Y5258088D01*
Y5241427D01*
X4487470Y5233096D01*
X4479139Y5216435D02*
Y5199774D01*
Y5208104D01*
X4529123D01*
X4520792Y5216435D01*
X4487470Y5174782D02*
X4479139Y5166451D01*
Y5149790D01*
X4487470Y5141459D01*
X4520792D01*
X4529123Y5149790D01*
Y5166451D01*
X4520792Y5174782D01*
X4512461D01*
X4504131Y5166451D01*
Y5141459D01*
D124*
X11368132Y2818943D02*
X11493092D01*
X11518084Y2843935D01*
Y2893919D01*
X11493092Y2918910D01*
X11368132D01*
X11518084Y2968894D02*
Y3018878D01*
Y2993886D01*
X11368132D01*
X11393124Y2968894D01*
%TF.MD5,e6c3ca5548b80f0afabdcb9d96993024*%
M02*
