%TF.GenerationSoftware,Altium Limited,Altium Designer,19.0.15 (446)*%
G04 Layer_Color=32768*
%FSLAX45Y45*%
%MOMM*%
%TF.FileFunction,Other,Top_Courtyard*%
%TF.Part,Single*%
G01*
G75*
%TA.AperFunction,NonConductor*%
%ADD90C,0.20000*%
%ADD92C,0.10000*%
%ADD122C,0.05000*%
D90*
X3744794Y4448100D02*
Y4613100D01*
X3464794D02*
X3744794D01*
X3464794Y4448100D02*
Y4613100D01*
Y4448100D02*
X3744794D01*
Y4248100D02*
Y4413100D01*
X3464794D02*
X3744794D01*
X3464794Y4248100D02*
Y4413100D01*
Y4248100D02*
X3744794D01*
Y4073100D02*
Y4238100D01*
X3464794D02*
X3744794D01*
X3464794Y4073100D02*
Y4238100D01*
Y4073100D02*
X3744794D01*
X3066846Y4454700D02*
Y4619700D01*
Y4454700D02*
X3346845D01*
Y4619700D01*
X3066846D02*
X3346845D01*
X3075846Y4248100D02*
Y4413100D01*
Y4248100D02*
X3355846D01*
Y4413100D01*
X3075846D02*
X3355846D01*
X3075846Y4073100D02*
Y4238100D01*
Y4073100D02*
X3355846D01*
Y4238100D01*
X3075846D02*
X3355846D01*
X2820700Y2904693D02*
Y3165907D01*
X2665700Y2904693D02*
X2820700D01*
X2665700D02*
Y3165907D01*
X2820700D01*
X2376200Y2904693D02*
Y3165907D01*
X2221200Y2904693D02*
X2376200D01*
X2221200D02*
Y3165907D01*
X2376200D01*
X3737407Y4659600D02*
Y4814600D01*
X3476193D02*
X3737407D01*
X3476193Y4659600D02*
Y4814600D01*
Y4659600D02*
X3737407D01*
X3080458D02*
Y4814600D01*
Y4659600D02*
X3341671D01*
Y4814600D01*
X3080458D02*
X3341671D01*
X643599Y3054600D02*
X1083599D01*
X643599D02*
Y3244602D01*
X1083599D01*
Y3054600D02*
Y3244602D01*
X643601Y3384798D02*
X1083600D01*
X643601D02*
Y3574801D01*
X1083600D01*
Y3384798D02*
Y3574801D01*
X4575470Y5576529D02*
X4752722D01*
X4575470D02*
Y5663778D01*
X4752722D01*
Y5576529D02*
Y5663778D01*
X3558575Y3747100D02*
X3705824D01*
X3558575D02*
Y3822101D01*
X3705824D01*
Y3747100D02*
Y3822101D01*
X3665255Y2978819D02*
X3812503D01*
Y2903818D02*
Y2978819D01*
X3665255Y2903818D02*
X3812503D01*
X3665255D02*
Y2978819D01*
X4765269Y3273591D02*
X5225893D01*
Y3042969D02*
Y3273591D01*
X4765269Y3042969D02*
X5225893D01*
X4765269D02*
Y3273591D01*
Y2973592D02*
X5225893D01*
Y2742970D02*
Y2973592D01*
X4765269Y2742970D02*
X5225893D01*
X4765269D02*
Y2973592D01*
Y2673587D02*
X5225893D01*
Y2442970D02*
Y2673587D01*
X4765269Y2442970D02*
X5225893D01*
X4765269D02*
Y2673587D01*
X4764070Y2370291D02*
X5224689D01*
Y2139669D02*
Y2370291D01*
X4764070Y2139669D02*
X5224689D01*
X4764070D02*
Y2370291D01*
X1905601Y3130513D02*
X1980602D01*
X1905601Y2983264D02*
Y3130513D01*
Y2983264D02*
X1980602D01*
Y3130513D01*
X2487995Y3133002D02*
X2562996D01*
X2487995Y2963000D02*
Y3133002D01*
Y2963000D02*
X2562996D01*
Y3133002D01*
D92*
X4912800Y4914900D02*
X4967800D01*
X4940300Y4887400D02*
Y4942400D01*
X4217619Y5696399D02*
Y5911399D01*
X4327619D01*
Y5696399D02*
Y5911399D01*
X4217619Y5696399D02*
X4327619D01*
X5537589Y4727204D02*
Y4827204D01*
X5587589D01*
Y4727204D02*
Y4827204D01*
X5537589Y4727204D02*
X5587589D01*
X5112251Y4816900D02*
X5162251D01*
Y4916899D01*
X5112251D02*
X5162251D01*
X5112251Y4816900D02*
Y4916899D01*
X1381957Y1092199D02*
X1436957D01*
X1409457Y1064699D02*
Y1119699D01*
X2109000Y5168900D02*
X2209000D01*
X2159000Y5118900D02*
Y5218900D01*
X5712670Y5723502D02*
Y5833499D01*
Y5723502D02*
X5927670D01*
Y5833499D01*
X5712670D02*
X5927670D01*
X5389199Y5751002D02*
Y5806003D01*
X5361701Y5778500D02*
X5416702D01*
X5012364Y5751002D02*
Y5806003D01*
X4984860Y5778500D02*
X5039862D01*
X2482900Y6271120D02*
X3771900D01*
X2482900D02*
Y7216120D01*
X3771900D01*
Y6271120D02*
Y7216120D01*
X4684201Y4889498D02*
X4739202D01*
X4711699Y4862000D02*
Y4917001D01*
X4506400Y6235701D02*
X4561401D01*
X4533898Y6208198D02*
Y6263199D01*
X4836598Y6235701D02*
X4891599D01*
X4864101Y6208198D02*
Y6263199D01*
X5012359Y5583320D02*
Y5638321D01*
X4984860Y5610818D02*
X5039862D01*
X6198399Y5892801D02*
X6298399D01*
X6248402Y5842799D02*
Y5942799D01*
X595960Y1243760D02*
X2623957D01*
Y2586760D01*
X595960D02*
X2623957D01*
X595960Y1243760D02*
Y2586760D01*
X3022600Y2661295D02*
Y2751298D01*
X2977601Y2706299D02*
X3067604D01*
D122*
X4865300Y4874900D02*
Y4954900D01*
X5015300Y4874900D02*
Y4954900D01*
X4865300D02*
X5015300D01*
X4865300Y4874900D02*
X5015300D01*
X1277000Y932801D02*
X5835000D01*
Y438801D02*
Y932801D01*
X1277000Y438801D02*
X5835000D01*
X1277000D02*
Y932801D01*
X2057789Y3048004D02*
X2107791D01*
X2082792Y3023005D02*
Y3073002D01*
X2130301Y2952997D02*
Y3143000D01*
X2035299Y2952997D02*
Y3143000D01*
X2130301D01*
X2035299Y2952997D02*
X2130301D01*
X1499457Y1047199D02*
Y1137199D01*
X1319457Y1047199D02*
Y1137199D01*
Y1047199D02*
X1499457D01*
X1319457Y1137199D02*
X1499457D01*
X2009000Y4908900D02*
Y5428900D01*
X2309000Y4908900D02*
Y5428900D01*
X2009000Y4908900D02*
X2309000D01*
X2009000Y5428900D02*
X2309000D01*
X1057600Y660101D02*
Y940100D01*
X1177599D01*
Y660101D02*
Y940100D01*
X1057600Y660101D02*
X1177599D01*
X3132703Y3675100D02*
X3702003D01*
X3132703Y3146700D02*
Y3675100D01*
Y3146700D02*
X3702003D01*
Y3675100D01*
X5299202Y5733501D02*
X5479202D01*
X5299202Y5823504D02*
X5479202D01*
Y5733501D02*
Y5823504D01*
X5299202Y5733501D02*
Y5823504D01*
X4937362Y5738500D02*
X5087360D01*
X4937362Y5818500D02*
X5087360D01*
Y5738500D02*
Y5818500D01*
X4937362Y5738500D02*
Y5818500D01*
X4617497Y5753501D02*
Y5803504D01*
X4592498Y5778500D02*
X4642495D01*
X4522501Y5826013D02*
X4712503D01*
X4522501Y5731012D02*
X4712503D01*
X4522501D02*
Y5826013D01*
X4712503Y5731012D02*
Y5826013D01*
X7274000Y665990D02*
Y1751990D01*
X6188000Y665990D02*
X7274000D01*
X6188000D02*
Y1751990D01*
X7274000D01*
X2307202Y6397601D02*
Y6632602D01*
X2417199D01*
Y6397601D02*
Y6632602D01*
X2307202Y6397601D02*
X2417199D01*
X2990599Y4910002D02*
Y5250002D01*
X2800602Y4910002D02*
X2990599D01*
X2800602D02*
Y5250002D01*
X2990599D01*
X3112300Y5575700D02*
X3720300D01*
Y6133700D01*
X3112300D02*
X3720300D01*
X3112300Y5575700D02*
Y6133700D01*
X8728102Y828699D02*
X14208101D01*
X8728102D02*
Y6308698D01*
X14208101D01*
Y828699D02*
Y6308698D01*
X1178083Y4245243D02*
Y4853243D01*
X864083D02*
X1178083D01*
X864083Y4245243D02*
Y4853243D01*
Y4245243D02*
X1178083D01*
X4788698Y4386102D02*
X5396697D01*
X4788698Y4072103D02*
Y4386102D01*
Y4072103D02*
X5396697D01*
Y4386102D01*
X4758218Y6903119D02*
X5366217D01*
X4758218Y6589119D02*
Y6903119D01*
Y6589119D02*
X5366217D01*
Y6903119D01*
X5229200Y4859900D02*
X5464201D01*
X5229200D02*
Y4969902D01*
X5464201D01*
Y4859900D02*
Y4969902D01*
X4756702Y4799501D02*
Y4979500D01*
X4666700Y4799501D02*
Y4979500D01*
X4756702D01*
X4666700Y4799501D02*
X4756702D01*
X4588899Y6130698D02*
Y6340700D01*
X4478902Y6130698D02*
Y6340700D01*
X4588899D01*
X4478902Y6130698D02*
X4588899D01*
X4919102Y6130702D02*
Y6340699D01*
X4809100Y6130702D02*
Y6340699D01*
X4919102D01*
X4809100Y6130702D02*
X4919102D01*
X2324501Y6884198D02*
X2374499D01*
X2349500Y6859199D02*
Y6909201D01*
X2301992Y6789202D02*
Y6979204D01*
X2396993Y6789202D02*
Y6979204D01*
X2301992Y6789202D02*
X2396993D01*
X2301992Y6979204D02*
X2396993D01*
X1189401Y3181120D02*
Y3461119D01*
X1309401D01*
Y3181120D02*
Y3461119D01*
X1189401Y3181120D02*
X1309401D01*
X5907363Y5563330D02*
Y5658331D01*
X5717366Y5563330D02*
Y5658331D01*
Y5563330D02*
X5907363D01*
X5717366Y5658331D02*
X5907363D01*
X5787358Y5610818D02*
X5837361D01*
X5812362Y5585819D02*
Y5635822D01*
X5482365Y5563330D02*
Y5658331D01*
X5292363Y5563330D02*
Y5658331D01*
Y5563330D02*
X5482365D01*
X5292363Y5658331D02*
X5482365D01*
X5362360Y5610818D02*
X5412358D01*
X5387359Y5585819D02*
Y5635822D01*
X4937357Y5570818D02*
X5087360D01*
X4937357Y5650823D02*
X5087360D01*
Y5570818D02*
Y5650823D01*
X4937357Y5570818D02*
Y5650823D01*
X4430801Y5151501D02*
X4560798D01*
X4430801Y4881499D02*
Y5151501D01*
Y4881499D02*
X4560798D01*
Y5151501D01*
X4445802Y5016500D02*
X4545802D01*
X4495799Y4966502D02*
Y5066502D01*
X5913299Y4778900D02*
Y4888897D01*
X5678299D02*
X5913299D01*
X5678299Y4778900D02*
Y4888897D01*
Y4778900D02*
X5913299D01*
X3900399Y6903119D02*
X4508399D01*
X3900399Y6589119D02*
Y6903119D01*
Y6589119D02*
X4508399D01*
Y6903119D01*
X6398399Y5632802D02*
Y6152801D01*
X6098399Y5632802D02*
Y6152801D01*
X6398399D01*
X6098399Y5632802D02*
X6398399D01*
X2519898Y5806201D02*
X2737902D01*
X2519898Y5363200D02*
Y5806201D01*
Y5363200D02*
X2737902D01*
Y5806201D01*
X4558401Y1574118D02*
Y1898120D01*
X2899400Y1574118D02*
X4558401D01*
X2899400D02*
Y1898120D01*
X4558401D01*
X2922600Y2541295D02*
X3122605D01*
X2922600Y2871297D02*
X3122605D01*
X2922600Y2541295D02*
Y2871297D01*
X3122605Y2541295D02*
Y2871297D01*
%TF.MD5,654d44c37d9ec03f4ed60b87c8a018b4*%
M02*
