%TF.GenerationSoftware,Altium Limited,Altium Designer,19.0.15 (446)*%
G04 Layer_Color=65535*
%FSLAX45Y45*%
%MOMM*%
%TF.FileFunction,Legend,Top*%
%TF.Part,Single*%
G01*
G75*
%TA.AperFunction,NonConductor*%
%ADD90C,0.20000*%
%ADD91C,0.30000*%
%ADD92C,0.10000*%
%ADD93C,0.40000*%
%ADD94C,0.12700*%
%ADD95C,0.25400*%
%ADD96R,0.80000X0.15001*%
G36*
X1723239Y6969690D02*
X1738695D01*
Y6966599D01*
X1744877D01*
Y6963508D01*
X1751059D01*
Y6960417D01*
X1757242D01*
Y6957326D01*
X1760333D01*
Y6954234D01*
X1763424D01*
Y6951143D01*
X1766515D01*
Y6948052D01*
X1769607D01*
Y6944961D01*
X1772697D01*
Y6941870D01*
X1775789D01*
Y6938779D01*
Y6935687D01*
X1778880D01*
Y6932596D01*
Y6929505D01*
X1781971D01*
Y6926413D01*
Y6923322D01*
Y6920231D01*
X1785062D01*
Y6917140D01*
Y6914049D01*
Y6910957D01*
Y6907866D01*
Y6904775D01*
Y6901684D01*
Y6898593D01*
Y6895502D01*
Y6892410D01*
Y6889319D01*
Y6886228D01*
Y6883137D01*
Y6880046D01*
Y6876954D01*
Y6873863D01*
Y6870772D01*
Y6867681D01*
Y6864590D01*
Y6861498D01*
Y6858407D01*
Y6855316D01*
Y6852225D01*
Y6849134D01*
Y6846042D01*
Y6842952D01*
Y6839860D01*
Y6836769D01*
Y6833678D01*
Y6830587D01*
Y6827495D01*
Y6824404D01*
Y6821313D01*
Y6818221D01*
Y6815130D01*
Y6812039D01*
Y6808948D01*
Y6805857D01*
Y6802766D01*
Y6799675D01*
Y6796583D01*
Y6793492D01*
Y6790401D01*
Y6787310D01*
Y6784219D01*
Y6781127D01*
Y6778036D01*
Y6774945D01*
Y6771854D01*
Y6768763D01*
Y6765671D01*
Y6762581D01*
Y6759489D01*
Y6756398D01*
Y6753307D01*
Y6750216D01*
Y6747124D01*
Y6744033D01*
Y6740942D01*
Y6737851D01*
Y6734759D01*
Y6731668D01*
Y6728577D01*
Y6725486D01*
Y6722395D01*
Y6719304D01*
Y6716212D01*
Y6713121D01*
Y6710030D01*
Y6706939D01*
Y6703847D01*
Y6700756D01*
Y6697665D01*
Y6694574D01*
Y6691482D01*
Y6688392D01*
Y6685300D01*
Y6682209D01*
Y6679118D01*
Y6676027D01*
Y6672936D01*
Y6669844D01*
Y6666753D01*
Y6663662D01*
Y6660570D01*
Y6657479D01*
Y6654388D01*
Y6651297D01*
Y6648206D01*
Y6645115D01*
Y6642023D01*
Y6638932D01*
Y6635841D01*
Y6632750D01*
Y6629659D01*
Y6626568D01*
Y6623476D01*
Y6620385D01*
Y6617294D01*
Y6614203D01*
Y6611112D01*
Y6608021D01*
Y6604929D01*
Y6601838D01*
Y6598747D01*
Y6595655D01*
Y6592564D01*
Y6589473D01*
Y6586382D01*
Y6583291D01*
Y6580200D01*
Y6577109D01*
Y6574017D01*
Y6570926D01*
Y6567835D01*
Y6564744D01*
Y6561653D01*
Y6558561D01*
Y6555470D01*
Y6552379D01*
Y6549287D01*
Y6546196D01*
Y6543105D01*
Y6540014D01*
Y6536923D01*
Y6533831D01*
Y6530741D01*
Y6527649D01*
Y6524558D01*
Y6521467D01*
Y6518376D01*
Y6515284D01*
Y6512193D01*
Y6509102D01*
Y6506011D01*
Y6502919D01*
Y6499829D01*
Y6496737D01*
Y6493646D01*
Y6490555D01*
Y6487464D01*
Y6484372D01*
Y6481281D01*
Y6478190D01*
Y6475099D01*
Y6472008D01*
Y6468917D01*
Y6465825D01*
Y6462734D01*
Y6459643D01*
Y6456552D01*
Y6453461D01*
Y6450370D01*
Y6447278D01*
Y6444187D01*
Y6441096D01*
Y6438005D01*
Y6434913D01*
Y6431822D01*
Y6428731D01*
Y6425640D01*
Y6422549D01*
Y6419458D01*
Y6416366D01*
Y6413275D01*
Y6410184D01*
Y6407093D01*
Y6404001D01*
Y6400910D01*
Y6397819D01*
Y6394728D01*
Y6391637D01*
Y6388546D01*
Y6385454D01*
Y6382363D01*
Y6379272D01*
Y6376181D01*
Y6373090D01*
Y6369998D01*
Y6366907D01*
Y6363816D01*
Y6360725D01*
Y6357633D01*
Y6354542D01*
Y6351451D01*
Y6348360D01*
Y6345269D01*
Y6342178D01*
Y6339086D01*
Y6335995D01*
Y6332904D01*
Y6329813D01*
Y6326721D01*
Y6323630D01*
Y6320539D01*
Y6317448D01*
Y6314357D01*
Y6311266D01*
Y6308174D01*
Y6305083D01*
Y6301992D01*
Y6298901D01*
Y6295810D01*
Y6292718D01*
Y6289627D01*
Y6286536D01*
Y6283445D01*
Y6280353D01*
Y6277263D01*
Y6274171D01*
Y6271080D01*
Y6267989D01*
Y6264898D01*
Y6261806D01*
Y6258715D01*
Y6255624D01*
Y6252533D01*
Y6249442D01*
Y6246351D01*
Y6243259D01*
Y6240168D01*
Y6237077D01*
Y6233986D01*
Y6230894D01*
Y6227804D01*
Y6224712D01*
Y6221621D01*
Y6218529D01*
Y6215438D01*
Y6212347D01*
Y6209256D01*
Y6206165D01*
Y6203074D01*
Y6199983D01*
Y6196892D01*
Y6193800D01*
Y6190709D01*
Y6187618D01*
Y6184527D01*
Y6181435D01*
Y6178344D01*
Y6175253D01*
Y6172162D01*
Y6169070D01*
Y6165979D01*
Y6162888D01*
Y6159797D01*
Y6156706D01*
Y6153615D01*
Y6150523D01*
Y6147432D01*
Y6144341D01*
Y6141250D01*
Y6138158D01*
Y6135067D01*
Y6131976D01*
Y6128885D01*
Y6125793D01*
Y6122703D01*
Y6119611D01*
Y6116520D01*
Y6113429D01*
Y6110338D01*
Y6107247D01*
Y6104155D01*
Y6101064D01*
Y6097973D01*
Y6094882D01*
Y6091791D01*
Y6088699D01*
Y6085608D01*
Y6082517D01*
Y6079426D01*
Y6076334D01*
Y6073244D01*
Y6070152D01*
Y6067061D01*
Y6063970D01*
Y6060879D01*
Y6057787D01*
Y6054696D01*
Y6051605D01*
Y6048514D01*
Y6045423D01*
X1781971D01*
Y6042332D01*
Y6039240D01*
Y6036149D01*
X1778880D01*
Y6033058D01*
Y6029967D01*
X1775789D01*
Y6026876D01*
X1772697D01*
Y6023784D01*
Y6020693D01*
X1769607D01*
Y6017602D01*
X1766515D01*
Y6014511D01*
X1763424D01*
Y6011420D01*
X1760333D01*
Y6008328D01*
X1754150D01*
Y6005237D01*
X1751059D01*
Y6002146D01*
X1744877D01*
Y5999055D01*
X1735603D01*
Y5995964D01*
X857704D01*
Y5999055D01*
X848430D01*
Y6002146D01*
X842247D01*
Y6005237D01*
X839157D01*
Y6008328D01*
X832974D01*
Y6011420D01*
X829883D01*
Y6014511D01*
X826792D01*
Y6017602D01*
X823701D01*
Y6020693D01*
X820609D01*
Y6023784D01*
Y6026876D01*
X817518D01*
Y6029967D01*
Y6033058D01*
X814427D01*
Y6036149D01*
Y6039240D01*
X811335D01*
Y6042332D01*
Y6045423D01*
Y6048514D01*
X808245D01*
Y6051605D01*
Y6054696D01*
Y6057787D01*
Y6060879D01*
Y6063970D01*
Y6067061D01*
Y6070152D01*
Y6073244D01*
Y6076334D01*
Y6079426D01*
Y6082517D01*
Y6085608D01*
Y6088699D01*
Y6091791D01*
Y6094882D01*
Y6097973D01*
Y6101064D01*
Y6104155D01*
Y6107247D01*
Y6110338D01*
Y6113429D01*
Y6116520D01*
Y6119611D01*
Y6122703D01*
Y6125793D01*
Y6128885D01*
Y6131976D01*
Y6135067D01*
Y6138158D01*
Y6141250D01*
Y6144341D01*
Y6147432D01*
Y6150523D01*
Y6153615D01*
Y6156706D01*
Y6159797D01*
Y6162888D01*
Y6165979D01*
Y6169070D01*
Y6172162D01*
Y6175253D01*
Y6178344D01*
Y6181435D01*
Y6184527D01*
Y6187618D01*
Y6190709D01*
Y6193800D01*
Y6196892D01*
Y6199983D01*
Y6203074D01*
Y6206165D01*
Y6209256D01*
Y6212347D01*
Y6215438D01*
Y6218529D01*
Y6221621D01*
Y6224712D01*
Y6227804D01*
Y6230894D01*
Y6233986D01*
Y6237077D01*
Y6240168D01*
Y6243259D01*
Y6246351D01*
Y6249442D01*
Y6252533D01*
Y6255624D01*
Y6258715D01*
Y6261806D01*
Y6264898D01*
Y6267989D01*
Y6271080D01*
Y6274171D01*
Y6277263D01*
Y6280353D01*
Y6283445D01*
Y6286536D01*
Y6289627D01*
Y6292718D01*
Y6295810D01*
Y6298901D01*
Y6301992D01*
Y6305083D01*
Y6308174D01*
Y6311266D01*
Y6314357D01*
Y6317448D01*
Y6320539D01*
Y6323630D01*
Y6326721D01*
Y6329813D01*
Y6332904D01*
Y6335995D01*
Y6339086D01*
Y6342178D01*
Y6345269D01*
Y6348360D01*
Y6351451D01*
Y6354542D01*
Y6357633D01*
Y6360725D01*
Y6363816D01*
Y6366907D01*
Y6369998D01*
Y6373090D01*
Y6376181D01*
Y6379272D01*
Y6382363D01*
Y6385454D01*
Y6388546D01*
Y6391637D01*
Y6394728D01*
Y6397819D01*
Y6400910D01*
Y6404001D01*
Y6407093D01*
Y6410184D01*
Y6413275D01*
Y6416366D01*
Y6419458D01*
Y6422549D01*
Y6425640D01*
Y6428731D01*
Y6431822D01*
Y6434913D01*
Y6438005D01*
Y6441096D01*
Y6444187D01*
Y6447278D01*
Y6450370D01*
Y6453461D01*
Y6456552D01*
Y6459643D01*
Y6462734D01*
Y6465825D01*
Y6468917D01*
Y6472008D01*
Y6475099D01*
Y6478190D01*
Y6481281D01*
Y6484372D01*
Y6487464D01*
Y6490555D01*
Y6493646D01*
Y6496737D01*
Y6499829D01*
Y6502919D01*
Y6506011D01*
Y6509102D01*
Y6512193D01*
Y6515284D01*
Y6518376D01*
Y6521467D01*
Y6524558D01*
Y6527649D01*
Y6530741D01*
Y6533831D01*
Y6536923D01*
Y6540014D01*
Y6543105D01*
Y6546196D01*
Y6549287D01*
Y6552379D01*
Y6555470D01*
Y6558561D01*
Y6561653D01*
Y6564744D01*
Y6567835D01*
Y6570926D01*
Y6574017D01*
Y6577109D01*
Y6580200D01*
Y6583291D01*
Y6586382D01*
Y6589473D01*
Y6592564D01*
Y6595655D01*
Y6598747D01*
Y6601838D01*
Y6604929D01*
Y6608021D01*
Y6611112D01*
Y6614203D01*
Y6617294D01*
Y6620385D01*
Y6623476D01*
Y6626568D01*
Y6629659D01*
Y6632750D01*
Y6635841D01*
Y6638932D01*
Y6642023D01*
Y6645115D01*
Y6648206D01*
Y6651297D01*
Y6654388D01*
Y6657479D01*
Y6660570D01*
Y6663662D01*
Y6666753D01*
Y6669844D01*
Y6672936D01*
Y6676027D01*
Y6679118D01*
Y6682209D01*
Y6685300D01*
Y6688392D01*
Y6691482D01*
Y6694574D01*
Y6697665D01*
Y6700756D01*
Y6703847D01*
Y6706939D01*
Y6710030D01*
Y6713121D01*
Y6716212D01*
Y6719304D01*
Y6722395D01*
Y6725486D01*
Y6728577D01*
Y6731668D01*
Y6734759D01*
Y6737851D01*
Y6740942D01*
Y6744033D01*
Y6747124D01*
Y6750216D01*
Y6753307D01*
Y6756398D01*
Y6759489D01*
Y6762581D01*
Y6765671D01*
Y6768763D01*
Y6771854D01*
Y6774945D01*
Y6778036D01*
Y6781127D01*
Y6784219D01*
Y6787310D01*
Y6790401D01*
Y6793492D01*
Y6796583D01*
Y6799675D01*
Y6802766D01*
Y6805857D01*
Y6808948D01*
Y6812039D01*
Y6815130D01*
Y6818221D01*
Y6821313D01*
Y6824404D01*
Y6827495D01*
Y6830587D01*
Y6833678D01*
Y6836769D01*
Y6839860D01*
Y6842952D01*
Y6846042D01*
Y6849134D01*
Y6852225D01*
Y6855316D01*
Y6858407D01*
Y6861498D01*
Y6864590D01*
Y6867681D01*
Y6870772D01*
Y6873863D01*
Y6876954D01*
Y6880046D01*
Y6883137D01*
Y6886228D01*
Y6889319D01*
Y6892410D01*
Y6895502D01*
Y6898593D01*
Y6901684D01*
Y6904775D01*
Y6907866D01*
Y6910957D01*
Y6914049D01*
Y6917140D01*
X811335D01*
Y6920231D01*
Y6923322D01*
Y6926413D01*
X814427D01*
Y6929505D01*
Y6932596D01*
Y6935687D01*
X817518D01*
Y6938779D01*
X820609D01*
Y6941870D01*
Y6944961D01*
X823701D01*
Y6948052D01*
X826792D01*
Y6951143D01*
X829883D01*
Y6954234D01*
X832974D01*
Y6957326D01*
X836065D01*
Y6960417D01*
X842247D01*
Y6963508D01*
X848430D01*
Y6966599D01*
X854612D01*
Y6969690D01*
X873160D01*
Y6972782D01*
X1723239D01*
Y6969690D01*
D02*
G37*
G36*
X7359949Y5618073D02*
Y5608268D01*
Y5598464D01*
Y5588659D01*
Y5578854D01*
Y5569050D01*
Y5559245D01*
Y5549441D01*
Y5539636D01*
Y5529831D01*
Y5520027D01*
Y5510222D01*
Y5500418D01*
X7350145D01*
Y5490613D01*
X7320731D01*
Y5480809D01*
X7232490D01*
Y5471004D01*
X7134445D01*
Y5461200D01*
X7026595D01*
Y5451395D01*
X6938353D01*
Y5441590D01*
X6889331D01*
Y5431786D01*
X6869721D01*
Y5421981D01*
X6859917D01*
Y5412177D01*
Y5402372D01*
Y5392568D01*
Y5382763D01*
Y5372959D01*
Y5363154D01*
Y5353349D01*
X6869721D01*
Y5343545D01*
X6889331D01*
Y5333740D01*
X7340340D01*
Y5323936D01*
Y5314131D01*
X7350145D01*
Y5304326D01*
Y5294522D01*
Y5284717D01*
Y5274913D01*
Y5265108D01*
Y5255304D01*
Y5245499D01*
Y5235695D01*
Y5225890D01*
Y5216086D01*
X7340340D01*
Y5206281D01*
Y5196476D01*
X7320731D01*
Y5186672D01*
X7301122D01*
Y5196476D01*
X7212881D01*
Y5206281D01*
X7124640D01*
Y5216086D01*
X7036399D01*
Y5225890D01*
X6938353D01*
Y5235695D01*
X6869721D01*
Y5225890D01*
X6859917D01*
Y5216086D01*
Y5206281D01*
X6850112D01*
Y5196476D01*
Y5186672D01*
Y5176867D01*
Y5167063D01*
X6859917D01*
Y5157258D01*
Y5147454D01*
X6869721D01*
Y5137649D01*
X6899135D01*
Y5127844D01*
X6948158D01*
Y5118040D01*
X6987376D01*
Y5108235D01*
X7036399D01*
Y5098431D01*
X7075617D01*
Y5088626D01*
X7124640D01*
Y5078822D01*
X7173663D01*
Y5069017D01*
X7212881D01*
Y5059212D01*
X7261904D01*
Y5049408D01*
X7301122D01*
Y5039603D01*
X7340340D01*
Y5029799D01*
X7350145D01*
Y5019994D01*
Y5010190D01*
Y5000385D01*
Y4990581D01*
Y4980776D01*
X7359949D01*
Y4970972D01*
Y4961167D01*
Y4951362D01*
Y4941558D01*
Y4931753D01*
Y4921949D01*
X7350145D01*
Y4912144D01*
Y4902339D01*
Y4892535D01*
X7340340D01*
Y4882730D01*
X7310927D01*
Y4892535D01*
X7271708D01*
Y4902339D01*
X7242295D01*
Y4912144D01*
X7212881D01*
Y4921949D01*
X7183467D01*
Y4931753D01*
X7154054D01*
Y4941558D01*
X7124640D01*
Y4951362D01*
X7095226D01*
Y4961167D01*
X7065813D01*
Y4970972D01*
X7036399D01*
Y4980776D01*
X7006985D01*
Y4990581D01*
X6977572D01*
Y5000385D01*
X6948158D01*
Y5010190D01*
X6908940D01*
Y5019994D01*
X6889331D01*
Y5029799D01*
X6859917D01*
Y5039603D01*
X6830503D01*
Y5049408D01*
X6801090D01*
Y5059212D01*
X6781480D01*
Y5069017D01*
X6771676D01*
Y5078822D01*
X6761871D01*
Y5088626D01*
Y5098431D01*
Y5108235D01*
X6752067D01*
Y5118040D01*
Y5127844D01*
Y5137649D01*
X6742262D01*
Y5147454D01*
Y5157258D01*
Y5167063D01*
Y5176867D01*
Y5186672D01*
Y5196476D01*
X6732457D01*
Y5206281D01*
Y5216086D01*
Y5225890D01*
Y5235695D01*
Y5245499D01*
Y5255304D01*
X6742262D01*
Y5265108D01*
Y5274913D01*
Y5284717D01*
Y5294522D01*
Y5304326D01*
Y5314131D01*
Y5323936D01*
Y5333740D01*
Y5343545D01*
Y5353349D01*
Y5363154D01*
Y5372959D01*
Y5382763D01*
Y5392568D01*
Y5402372D01*
X6752067D01*
Y5412177D01*
Y5421981D01*
Y5431786D01*
Y5441590D01*
Y5451395D01*
X6761871D01*
Y5461200D01*
Y5471004D01*
Y5480809D01*
X6771676D01*
Y5490613D01*
X6781480D01*
Y5500418D01*
X6791285D01*
Y5510222D01*
X6820699D01*
Y5520027D01*
X6859917D01*
Y5529831D01*
X6869721D01*
Y5539636D01*
X6879526D01*
Y5529831D01*
X6899135D01*
Y5539636D01*
X6938353D01*
Y5549441D01*
X6987376D01*
Y5559245D01*
X7036399D01*
Y5569050D01*
X7075617D01*
Y5578854D01*
X7124640D01*
Y5588659D01*
X7173663D01*
Y5598464D01*
X7212881D01*
Y5608268D01*
X7261904D01*
Y5618073D01*
X7310927D01*
Y5627877D01*
X7359949D01*
Y5618073D01*
D02*
G37*
G36*
X7958028Y6186737D02*
X7967832D01*
Y6176933D01*
X7977637D01*
Y6167128D01*
Y6157323D01*
Y6147519D01*
Y6137714D01*
X7987441D01*
Y6127910D01*
Y6118105D01*
Y6108301D01*
Y6098496D01*
Y6088691D01*
Y6078887D01*
Y6069082D01*
Y6059278D01*
X7977637D01*
Y6049473D01*
Y6039669D01*
Y6029864D01*
Y6020060D01*
Y6010255D01*
X7967832D01*
Y6000451D01*
Y5990646D01*
X7948223D01*
Y5980841D01*
X7918810D01*
Y5971037D01*
X7889396D01*
Y5961232D01*
X7859982D01*
Y5951428D01*
X7830569D01*
Y5941623D01*
X7801155D01*
Y5931818D01*
X7771741D01*
Y5922014D01*
X7742327D01*
Y5912209D01*
X7722718D01*
Y5902405D01*
X7712914D01*
Y5892600D01*
X7703109D01*
Y5882796D01*
X7693305D01*
Y5872991D01*
Y5863187D01*
X7683500D01*
Y5853382D01*
Y5843577D01*
Y5833773D01*
Y5823968D01*
Y5814164D01*
Y5804359D01*
Y5794555D01*
Y5784750D01*
Y5774946D01*
Y5765141D01*
Y5755336D01*
Y5745532D01*
Y5735727D01*
Y5725923D01*
X7693305D01*
Y5716118D01*
Y5706314D01*
X7683500D01*
Y5696509D01*
Y5686704D01*
Y5676900D01*
X7693305D01*
Y5667095D01*
Y5657291D01*
Y5647486D01*
Y5637682D01*
Y5627877D01*
Y5618073D01*
Y5608268D01*
Y5598464D01*
Y5588659D01*
Y5578854D01*
Y5569050D01*
Y5559245D01*
Y5549441D01*
Y5539636D01*
Y5529831D01*
Y5520027D01*
Y5510222D01*
Y5500418D01*
Y5490613D01*
Y5480809D01*
Y5471004D01*
Y5461200D01*
Y5451395D01*
Y5441590D01*
Y5431786D01*
Y5421981D01*
Y5412177D01*
Y5402372D01*
Y5392568D01*
Y5382763D01*
Y5372959D01*
Y5363154D01*
Y5353349D01*
Y5343545D01*
Y5333740D01*
Y5323936D01*
Y5314131D01*
Y5304326D01*
Y5294522D01*
Y5284717D01*
Y5274913D01*
Y5265108D01*
X7683500D01*
Y5255304D01*
Y5245499D01*
Y5235695D01*
Y5225890D01*
X7673696D01*
Y5216086D01*
Y5206281D01*
Y5196476D01*
X7663891D01*
Y5186672D01*
Y5176867D01*
X7654086D01*
Y5167063D01*
X7644282D01*
Y5157258D01*
X7526627D01*
Y5167063D01*
X7497213D01*
Y5176867D01*
Y5186672D01*
Y5196476D01*
Y5206281D01*
Y5216086D01*
Y5225890D01*
Y5235695D01*
Y5245499D01*
Y5255304D01*
Y5265108D01*
Y5274913D01*
Y5284717D01*
Y5294522D01*
Y5304326D01*
Y5314131D01*
X7507018D01*
Y5323936D01*
Y5333740D01*
Y5343545D01*
Y5353349D01*
Y5363154D01*
Y5372959D01*
Y5382763D01*
Y5392568D01*
Y5402372D01*
Y5412177D01*
Y5421981D01*
Y5431786D01*
Y5441590D01*
X7497213D01*
Y5451395D01*
Y5461200D01*
Y5471004D01*
Y5480809D01*
Y5490613D01*
Y5500418D01*
Y5510222D01*
Y5520027D01*
Y5529831D01*
Y5539636D01*
Y5549441D01*
Y5559245D01*
Y5569050D01*
Y5578854D01*
Y5588659D01*
Y5598464D01*
Y5608268D01*
Y5618073D01*
Y5627877D01*
Y5637682D01*
Y5647486D01*
Y5657291D01*
Y5667095D01*
Y5676900D01*
Y5686704D01*
Y5696509D01*
X7487409D01*
Y5706314D01*
Y5716118D01*
Y5725923D01*
Y5735727D01*
Y5745532D01*
X7477604D01*
Y5755336D01*
Y5765141D01*
Y5774946D01*
X7467800D01*
Y5784750D01*
Y5794555D01*
X7457995D01*
Y5804359D01*
Y5814164D01*
X7408972D01*
Y5804359D01*
X7379559D01*
Y5794555D01*
X7350145D01*
Y5784750D01*
X7320731D01*
Y5774946D01*
X7291318D01*
Y5765141D01*
X7261904D01*
Y5755336D01*
X7232490D01*
Y5745532D01*
X7203077D01*
Y5735727D01*
X7173663D01*
Y5725923D01*
X7163858D01*
Y5735727D01*
Y5745532D01*
X7134445D01*
Y5755336D01*
X7124640D01*
Y5765141D01*
Y5774946D01*
X7114835D01*
Y5784750D01*
Y5794555D01*
Y5804359D01*
Y5814164D01*
Y5823968D01*
X7124640D01*
Y5833773D01*
X7134445D01*
Y5843577D01*
X7154054D01*
Y5853382D01*
X7183467D01*
Y5863187D01*
X7203077D01*
Y5872991D01*
X7222686D01*
Y5882796D01*
X7242295D01*
Y5892600D01*
X7261904D01*
Y5902405D01*
X7291318D01*
Y5912209D01*
X7310927D01*
Y5922014D01*
X7330536D01*
Y5931818D01*
X7350145D01*
Y5941623D01*
X7379559D01*
Y5951428D01*
X7399168D01*
Y5961232D01*
X7418777D01*
Y5971037D01*
X7438386D01*
Y5980841D01*
X7467800D01*
Y5990646D01*
X7487409D01*
Y6000451D01*
X7507018D01*
Y6010255D01*
X7526627D01*
Y6020060D01*
X7556041D01*
Y6029864D01*
X7575650D01*
Y6039669D01*
X7595259D01*
Y6049473D01*
X7614868D01*
Y6059278D01*
X7634477D01*
Y6069082D01*
X7663891D01*
Y6078887D01*
X7683500D01*
Y6088691D01*
X7703109D01*
Y6098496D01*
X7722718D01*
Y6108301D01*
X7752132D01*
Y6118105D01*
X7771741D01*
Y6127910D01*
X7791350D01*
Y6137714D01*
X7810959D01*
Y6147519D01*
X7830569D01*
Y6157323D01*
X7859982D01*
Y6167128D01*
X7879591D01*
Y6176933D01*
X7899200D01*
Y6186737D01*
X7928614D01*
Y6196542D01*
X7958028D01*
Y6186737D01*
D02*
G37*
G36*
X7497213Y5157258D02*
Y5147454D01*
X7487409D01*
Y5157258D01*
Y5167063D01*
X7497213D01*
Y5157258D01*
D02*
G37*
G36*
X1735603Y5946504D02*
X1744877D01*
Y5943413D01*
X1751059D01*
Y5940322D01*
X1754150D01*
Y5937231D01*
X1760333D01*
Y5934140D01*
X1763424D01*
Y5931048D01*
X1766515D01*
Y5927957D01*
X1769607D01*
Y5924866D01*
X1772697D01*
Y5921775D01*
X1775789D01*
Y5918684D01*
Y5915593D01*
X1778880D01*
Y5912501D01*
Y5909410D01*
X1781971D01*
Y5906319D01*
Y5903228D01*
Y5900137D01*
X1785062D01*
Y5897045D01*
Y5893954D01*
Y5890863D01*
Y5887772D01*
Y5884680D01*
Y5881589D01*
Y5878498D01*
Y5875407D01*
Y5872316D01*
Y5869225D01*
Y5866134D01*
Y5863042D01*
Y5859951D01*
Y5856860D01*
Y5853769D01*
Y5850677D01*
Y5847586D01*
Y5844495D01*
Y5841404D01*
Y5838313D01*
Y5835221D01*
Y5832130D01*
Y5829039D01*
Y5825948D01*
Y5822857D01*
Y5819766D01*
Y5816674D01*
Y5813583D01*
Y5810492D01*
Y5807401D01*
Y5804309D01*
Y5801218D01*
Y5798127D01*
Y5795036D01*
Y5791944D01*
Y5788854D01*
Y5785762D01*
Y5782671D01*
Y5779580D01*
Y5776489D01*
Y5773397D01*
Y5770306D01*
Y5767215D01*
Y5764124D01*
Y5761033D01*
Y5757941D01*
Y5754850D01*
Y5751759D01*
Y5748668D01*
Y5745577D01*
Y5742485D01*
Y5739394D01*
Y5736303D01*
Y5733212D01*
Y5730121D01*
Y5727029D01*
Y5723939D01*
Y5720847D01*
Y5717756D01*
Y5714665D01*
Y5711574D01*
Y5708482D01*
Y5705391D01*
Y5702300D01*
Y5699208D01*
Y5696117D01*
Y5693027D01*
Y5689935D01*
Y5686844D01*
Y5683753D01*
Y5680662D01*
Y5677570D01*
Y5674479D01*
Y5671388D01*
Y5668297D01*
Y5665206D01*
Y5662114D01*
Y5659023D01*
Y5655932D01*
Y5652841D01*
Y5649750D01*
Y5646659D01*
Y5643568D01*
Y5640476D01*
Y5637385D01*
Y5634294D01*
Y5631203D01*
Y5628111D01*
Y5625020D01*
Y5621929D01*
Y5618838D01*
Y5615746D01*
Y5612655D01*
Y5609564D01*
Y5606473D01*
Y5603382D01*
Y5600291D01*
Y5597199D01*
Y5594108D01*
Y5591017D01*
Y5587926D01*
Y5584834D01*
Y5581743D01*
Y5578652D01*
Y5575561D01*
Y5572469D01*
Y5569378D01*
Y5566287D01*
Y5563196D01*
Y5560105D01*
Y5557014D01*
Y5553923D01*
Y5550831D01*
Y5547740D01*
Y5544649D01*
Y5541557D01*
Y5538467D01*
Y5535375D01*
Y5532284D01*
Y5529193D01*
Y5526102D01*
Y5523010D01*
Y5519919D01*
Y5516828D01*
Y5513737D01*
Y5510646D01*
Y5507555D01*
Y5504463D01*
Y5501372D01*
Y5498281D01*
Y5495190D01*
Y5492099D01*
Y5489008D01*
Y5485916D01*
Y5482825D01*
Y5479734D01*
Y5476643D01*
Y5473551D01*
Y5470460D01*
Y5467369D01*
Y5464278D01*
Y5461187D01*
Y5458096D01*
Y5455005D01*
Y5451913D01*
Y5448822D01*
Y5445731D01*
Y5442640D01*
Y5439548D01*
Y5436457D01*
Y5433366D01*
Y5430275D01*
Y5427183D01*
Y5424092D01*
Y5421001D01*
Y5417910D01*
Y5414818D01*
Y5411728D01*
Y5408636D01*
Y5405545D01*
Y5402454D01*
Y5399363D01*
Y5396271D01*
Y5393180D01*
Y5390089D01*
Y5386998D01*
Y5383907D01*
Y5380816D01*
Y5377724D01*
Y5374633D01*
Y5371542D01*
Y5368451D01*
Y5365359D01*
Y5362268D01*
Y5359177D01*
Y5356086D01*
Y5352995D01*
Y5349904D01*
Y5346812D01*
Y5343721D01*
Y5340630D01*
Y5337539D01*
Y5334448D01*
Y5331357D01*
Y5328265D01*
Y5325174D01*
Y5322083D01*
Y5318992D01*
Y5315900D01*
Y5312809D01*
Y5309718D01*
Y5306627D01*
Y5303536D01*
Y5300445D01*
Y5297353D01*
Y5294262D01*
Y5291171D01*
Y5288080D01*
Y5284988D01*
Y5281897D01*
Y5278806D01*
Y5275715D01*
Y5272624D01*
Y5269533D01*
Y5266442D01*
Y5263350D01*
Y5260259D01*
Y5257168D01*
Y5254077D01*
Y5250985D01*
Y5247894D01*
Y5244803D01*
Y5241712D01*
Y5238620D01*
Y5235529D01*
Y5232438D01*
Y5229347D01*
Y5226256D01*
Y5223165D01*
Y5220074D01*
Y5216982D01*
Y5213891D01*
Y5210800D01*
Y5207708D01*
Y5204617D01*
Y5201526D01*
Y5198435D01*
Y5195344D01*
Y5192253D01*
Y5189161D01*
Y5186070D01*
Y5182979D01*
Y5179888D01*
Y5176797D01*
Y5173705D01*
Y5170614D01*
Y5167523D01*
Y5164432D01*
Y5161340D01*
Y5158250D01*
Y5155158D01*
Y5152067D01*
Y5148976D01*
Y5145885D01*
Y5142793D01*
Y5139702D01*
Y5136611D01*
Y5133520D01*
Y5130429D01*
Y5127338D01*
Y5124246D01*
Y5121155D01*
Y5118064D01*
Y5114973D01*
Y5111882D01*
Y5108791D01*
Y5105699D01*
Y5102608D01*
Y5099517D01*
Y5096425D01*
Y5093334D01*
Y5090243D01*
Y5087152D01*
Y5084061D01*
Y5080970D01*
Y5077879D01*
Y5074787D01*
Y5071696D01*
Y5068605D01*
Y5065514D01*
Y5062422D01*
Y5059331D01*
Y5056240D01*
Y5053149D01*
Y5050057D01*
Y5046966D01*
Y5043875D01*
Y5040784D01*
Y5037693D01*
Y5034602D01*
Y5031510D01*
Y5028419D01*
Y5025328D01*
Y5022237D01*
X1781971D01*
Y5019145D01*
Y5016054D01*
Y5012963D01*
X1778880D01*
Y5009872D01*
Y5006780D01*
X1775789D01*
Y5003690D01*
X1772697D01*
Y5000598D01*
Y4997507D01*
X1769607D01*
Y4994416D01*
X1766515D01*
Y4991325D01*
X1763424D01*
Y4988234D01*
X1760333D01*
Y4985142D01*
X1754150D01*
Y4982051D01*
X1747968D01*
Y4978960D01*
X1741785D01*
Y4975869D01*
X1732512D01*
Y4972778D01*
X863886D01*
Y4975869D01*
X851521D01*
Y4978960D01*
X845339D01*
Y4982051D01*
X839157D01*
Y4985142D01*
X836065D01*
Y4988234D01*
X829883D01*
Y4991325D01*
X826792D01*
Y4994416D01*
X823701D01*
Y4997507D01*
Y5000598D01*
X820609D01*
Y5003690D01*
X817518D01*
Y5006780D01*
Y5009872D01*
X814427D01*
Y5012963D01*
Y5016054D01*
X811335D01*
Y5019145D01*
Y5022237D01*
Y5025328D01*
X808245D01*
Y5028419D01*
Y5031510D01*
Y5034602D01*
Y5037693D01*
Y5040784D01*
Y5043875D01*
Y5046966D01*
Y5050057D01*
Y5053149D01*
Y5056240D01*
Y5059331D01*
Y5062422D01*
Y5065514D01*
Y5068605D01*
Y5071696D01*
Y5074787D01*
Y5077879D01*
Y5080970D01*
Y5084061D01*
Y5087152D01*
Y5090243D01*
Y5093334D01*
Y5096425D01*
Y5099517D01*
Y5102608D01*
Y5105699D01*
Y5108791D01*
Y5111882D01*
Y5114973D01*
Y5118064D01*
Y5121155D01*
Y5124246D01*
Y5127338D01*
Y5130429D01*
Y5133520D01*
Y5136611D01*
Y5139702D01*
Y5142793D01*
Y5145885D01*
Y5148976D01*
Y5152067D01*
Y5155158D01*
Y5158250D01*
Y5161340D01*
Y5164432D01*
Y5167523D01*
Y5170614D01*
Y5173705D01*
Y5176797D01*
Y5179888D01*
Y5182979D01*
Y5186070D01*
Y5189161D01*
Y5192253D01*
Y5195344D01*
Y5198435D01*
Y5201526D01*
Y5204617D01*
Y5207708D01*
Y5210800D01*
Y5213891D01*
Y5216982D01*
Y5220074D01*
Y5223165D01*
Y5226256D01*
Y5229347D01*
Y5232438D01*
Y5235529D01*
Y5238620D01*
Y5241712D01*
Y5244803D01*
Y5247894D01*
Y5250985D01*
Y5254077D01*
Y5257168D01*
Y5260259D01*
Y5263350D01*
Y5266442D01*
Y5269533D01*
Y5272624D01*
Y5275715D01*
Y5278806D01*
Y5281897D01*
Y5284988D01*
Y5288080D01*
Y5291171D01*
Y5294262D01*
Y5297353D01*
Y5300445D01*
Y5303536D01*
Y5306627D01*
Y5309718D01*
Y5312809D01*
Y5315900D01*
Y5318992D01*
Y5322083D01*
Y5325174D01*
Y5328265D01*
Y5331357D01*
Y5334448D01*
Y5337539D01*
Y5340630D01*
Y5343721D01*
Y5346812D01*
Y5349904D01*
Y5352995D01*
Y5356086D01*
Y5359177D01*
Y5362268D01*
Y5365359D01*
Y5368451D01*
Y5371542D01*
Y5374633D01*
Y5377724D01*
Y5380816D01*
Y5383907D01*
Y5386998D01*
Y5390089D01*
Y5393180D01*
Y5396271D01*
Y5399363D01*
Y5402454D01*
Y5405545D01*
Y5408636D01*
Y5411728D01*
Y5414818D01*
Y5417910D01*
Y5421001D01*
Y5424092D01*
Y5427183D01*
Y5430275D01*
Y5433366D01*
Y5436457D01*
Y5439548D01*
Y5442640D01*
Y5445731D01*
Y5448822D01*
Y5451913D01*
Y5455005D01*
Y5458096D01*
Y5461187D01*
Y5464278D01*
Y5467369D01*
Y5470460D01*
Y5473551D01*
Y5476643D01*
Y5479734D01*
Y5482825D01*
Y5485916D01*
Y5489008D01*
Y5492099D01*
Y5495190D01*
Y5498281D01*
Y5501372D01*
Y5504463D01*
Y5507555D01*
Y5510646D01*
Y5513737D01*
Y5516828D01*
Y5519919D01*
Y5523010D01*
Y5526102D01*
Y5529193D01*
Y5532284D01*
Y5535375D01*
Y5538467D01*
Y5541557D01*
Y5544649D01*
Y5547740D01*
Y5550831D01*
Y5553923D01*
Y5557014D01*
Y5560105D01*
Y5563196D01*
Y5566287D01*
Y5569378D01*
Y5572469D01*
Y5575561D01*
Y5578652D01*
Y5581743D01*
Y5584834D01*
Y5587926D01*
Y5591017D01*
Y5594108D01*
Y5597199D01*
Y5600291D01*
Y5603382D01*
Y5606473D01*
Y5609564D01*
Y5612655D01*
Y5615746D01*
Y5618838D01*
Y5621929D01*
Y5625020D01*
Y5628111D01*
Y5631203D01*
Y5634294D01*
Y5637385D01*
Y5640476D01*
Y5643568D01*
Y5646659D01*
Y5649750D01*
Y5652841D01*
Y5655932D01*
Y5659023D01*
Y5662114D01*
Y5665206D01*
Y5668297D01*
Y5671388D01*
Y5674479D01*
Y5677570D01*
Y5680662D01*
Y5683753D01*
Y5686844D01*
Y5689935D01*
Y5693027D01*
Y5696117D01*
Y5699208D01*
Y5702300D01*
Y5705391D01*
Y5708482D01*
Y5711574D01*
Y5714665D01*
Y5717756D01*
Y5720847D01*
Y5723939D01*
Y5727029D01*
Y5730121D01*
Y5733212D01*
Y5736303D01*
Y5739394D01*
Y5742485D01*
Y5745577D01*
Y5748668D01*
Y5751759D01*
Y5754850D01*
Y5757941D01*
Y5761033D01*
Y5764124D01*
Y5767215D01*
Y5770306D01*
Y5773397D01*
Y5776489D01*
Y5779580D01*
Y5782671D01*
Y5785762D01*
Y5788854D01*
Y5791944D01*
Y5795036D01*
Y5798127D01*
Y5801218D01*
Y5804309D01*
Y5807401D01*
Y5810492D01*
Y5813583D01*
Y5816674D01*
Y5819766D01*
Y5822857D01*
Y5825948D01*
Y5829039D01*
Y5832130D01*
Y5835221D01*
Y5838313D01*
Y5841404D01*
Y5844495D01*
Y5847586D01*
Y5850677D01*
Y5853769D01*
Y5856860D01*
Y5859951D01*
Y5863042D01*
Y5866134D01*
Y5869225D01*
Y5872316D01*
Y5875407D01*
Y5878498D01*
Y5881589D01*
Y5884680D01*
Y5887772D01*
Y5890863D01*
Y5893954D01*
Y5897045D01*
X811335D01*
Y5900137D01*
Y5903228D01*
Y5906319D01*
X814427D01*
Y5909410D01*
Y5912501D01*
X817518D01*
Y5915593D01*
Y5918684D01*
X820609D01*
Y5921775D01*
Y5924866D01*
X823701D01*
Y5927957D01*
X826792D01*
Y5931048D01*
X829883D01*
Y5934140D01*
X832974D01*
Y5937231D01*
X839157D01*
Y5940322D01*
X842247D01*
Y5943413D01*
X851521D01*
Y5946504D01*
X860795D01*
Y5949595D01*
X1735603D01*
Y5946504D01*
D02*
G37*
%LPC*%
G36*
X1732512Y6951143D02*
X860795D01*
Y6948052D01*
X854612D01*
Y6944961D01*
X848430D01*
Y6941870D01*
X845339D01*
Y6938779D01*
X842247D01*
Y6935687D01*
X839157D01*
Y6932596D01*
X836065D01*
Y6929505D01*
X832974D01*
Y6926413D01*
Y6923322D01*
Y6920231D01*
X829883D01*
Y6917140D01*
Y6914049D01*
Y6910957D01*
Y6907866D01*
Y6904775D01*
Y6901684D01*
Y6898593D01*
Y6895502D01*
Y6892410D01*
Y6889319D01*
Y6886228D01*
Y6883137D01*
Y6880046D01*
Y6876954D01*
Y6873863D01*
Y6870772D01*
Y6867681D01*
Y6864590D01*
Y6861498D01*
Y6858407D01*
Y6855316D01*
Y6852225D01*
Y6849134D01*
Y6846042D01*
Y6842952D01*
Y6839860D01*
Y6836769D01*
Y6833678D01*
Y6830587D01*
Y6827495D01*
Y6824404D01*
Y6821313D01*
Y6818221D01*
Y6815130D01*
Y6812039D01*
Y6808948D01*
Y6805857D01*
Y6802766D01*
Y6799675D01*
Y6796583D01*
Y6793492D01*
Y6790401D01*
Y6787310D01*
Y6784219D01*
Y6781127D01*
Y6778036D01*
Y6774945D01*
Y6771854D01*
Y6768763D01*
Y6765671D01*
Y6762581D01*
Y6759489D01*
Y6756398D01*
Y6753307D01*
Y6750216D01*
Y6747124D01*
Y6744033D01*
Y6740942D01*
Y6737851D01*
Y6734759D01*
Y6731668D01*
Y6728577D01*
Y6725486D01*
Y6722395D01*
Y6719304D01*
Y6716212D01*
Y6713121D01*
Y6710030D01*
Y6706939D01*
Y6703847D01*
Y6700756D01*
Y6697665D01*
Y6694574D01*
Y6691482D01*
Y6688392D01*
Y6685300D01*
Y6682209D01*
Y6679118D01*
Y6676027D01*
Y6672936D01*
Y6669844D01*
Y6666753D01*
Y6663662D01*
Y6660570D01*
Y6657479D01*
Y6654388D01*
Y6651297D01*
Y6648206D01*
Y6645115D01*
Y6642023D01*
Y6638932D01*
Y6635841D01*
Y6632750D01*
Y6629659D01*
Y6626568D01*
Y6623476D01*
Y6620385D01*
Y6617294D01*
Y6614203D01*
Y6611112D01*
Y6608021D01*
Y6604929D01*
Y6601838D01*
Y6598747D01*
Y6595655D01*
Y6592564D01*
Y6589473D01*
Y6586382D01*
Y6583291D01*
Y6580200D01*
Y6577109D01*
Y6574017D01*
Y6570926D01*
Y6567835D01*
Y6564744D01*
Y6561653D01*
Y6558561D01*
Y6555470D01*
Y6552379D01*
Y6549287D01*
Y6546196D01*
Y6543105D01*
Y6540014D01*
Y6536923D01*
Y6533831D01*
Y6530741D01*
Y6527649D01*
Y6524558D01*
Y6521467D01*
Y6518376D01*
Y6515284D01*
Y6512193D01*
Y6509102D01*
Y6506011D01*
Y6502919D01*
Y6499829D01*
Y6496737D01*
Y6493646D01*
Y6490555D01*
Y6487464D01*
Y6484372D01*
Y6481281D01*
Y6478190D01*
Y6475099D01*
Y6472008D01*
Y6468917D01*
Y6465825D01*
Y6462734D01*
Y6459643D01*
Y6456552D01*
Y6453461D01*
Y6450370D01*
Y6447278D01*
Y6444187D01*
Y6441096D01*
Y6438005D01*
Y6434913D01*
Y6431822D01*
Y6428731D01*
Y6425640D01*
Y6422549D01*
Y6419458D01*
Y6416366D01*
Y6413275D01*
Y6410184D01*
Y6407093D01*
Y6404001D01*
Y6400910D01*
Y6397819D01*
Y6394728D01*
Y6391637D01*
Y6388546D01*
Y6385454D01*
Y6382363D01*
Y6379272D01*
Y6376181D01*
Y6373090D01*
Y6369998D01*
Y6366907D01*
Y6363816D01*
Y6360725D01*
Y6357633D01*
Y6354542D01*
Y6351451D01*
Y6348360D01*
Y6345269D01*
Y6342178D01*
Y6339086D01*
Y6335995D01*
Y6332904D01*
Y6329813D01*
Y6326721D01*
Y6323630D01*
Y6320539D01*
Y6317448D01*
Y6314357D01*
Y6311266D01*
Y6308174D01*
Y6305083D01*
Y6301992D01*
Y6298901D01*
Y6295810D01*
Y6292718D01*
Y6289627D01*
Y6286536D01*
Y6283445D01*
Y6280353D01*
Y6277263D01*
Y6274171D01*
Y6271080D01*
Y6267989D01*
Y6264898D01*
Y6261806D01*
Y6258715D01*
Y6255624D01*
Y6252533D01*
Y6249442D01*
Y6246351D01*
Y6243259D01*
Y6240168D01*
Y6237077D01*
Y6233986D01*
Y6230894D01*
Y6227804D01*
Y6224712D01*
Y6221621D01*
Y6218529D01*
Y6215438D01*
Y6212347D01*
Y6209256D01*
Y6206165D01*
Y6203074D01*
Y6199983D01*
Y6196892D01*
Y6193800D01*
Y6190709D01*
Y6187618D01*
Y6184527D01*
Y6181435D01*
Y6178344D01*
Y6175253D01*
Y6172162D01*
Y6169070D01*
Y6165979D01*
Y6162888D01*
Y6159797D01*
Y6156706D01*
Y6153615D01*
Y6150523D01*
Y6147432D01*
Y6144341D01*
Y6141250D01*
Y6138158D01*
Y6135067D01*
Y6131976D01*
Y6128885D01*
Y6125793D01*
Y6122703D01*
Y6119611D01*
Y6116520D01*
Y6113429D01*
Y6110338D01*
Y6107247D01*
Y6104155D01*
Y6101064D01*
Y6097973D01*
Y6094882D01*
Y6091791D01*
Y6088699D01*
Y6085608D01*
Y6082517D01*
Y6079426D01*
Y6076334D01*
Y6073244D01*
Y6070152D01*
Y6067061D01*
Y6063970D01*
Y6060879D01*
Y6057787D01*
Y6054696D01*
Y6051605D01*
Y6048514D01*
Y6045423D01*
X832974D01*
Y6042332D01*
Y6039240D01*
X836065D01*
Y6036149D01*
Y6033058D01*
X839157D01*
Y6029967D01*
X842247D01*
Y6026876D01*
X845339D01*
Y6023784D01*
X848430D01*
Y6020693D01*
X854612D01*
Y6017602D01*
X863886D01*
Y6014511D01*
X1729421D01*
Y6017602D01*
X1738695D01*
Y6020693D01*
X1744877D01*
Y6023784D01*
X1747968D01*
Y6026876D01*
X1751059D01*
Y6029967D01*
X1754150D01*
Y6033058D01*
X1757242D01*
Y6036149D01*
X1760333D01*
Y6039240D01*
Y6042332D01*
X1763424D01*
Y6045423D01*
Y6048514D01*
Y6051605D01*
Y6054696D01*
X1766515D01*
Y6057787D01*
Y6060879D01*
Y6063970D01*
Y6067061D01*
Y6070152D01*
Y6073244D01*
Y6076334D01*
Y6079426D01*
Y6082517D01*
Y6085608D01*
Y6088699D01*
Y6091791D01*
Y6094882D01*
Y6097973D01*
Y6101064D01*
Y6104155D01*
Y6107247D01*
Y6110338D01*
Y6113429D01*
Y6116520D01*
Y6119611D01*
Y6122703D01*
Y6125793D01*
Y6128885D01*
Y6131976D01*
Y6135067D01*
Y6138158D01*
Y6141250D01*
Y6144341D01*
Y6147432D01*
Y6150523D01*
Y6153615D01*
Y6156706D01*
Y6159797D01*
Y6162888D01*
Y6165979D01*
Y6169070D01*
Y6172162D01*
Y6175253D01*
Y6178344D01*
Y6181435D01*
Y6184527D01*
Y6187618D01*
Y6190709D01*
Y6193800D01*
Y6196892D01*
Y6199983D01*
Y6203074D01*
Y6206165D01*
Y6209256D01*
Y6212347D01*
Y6215438D01*
Y6218529D01*
Y6221621D01*
Y6224712D01*
Y6227804D01*
Y6230894D01*
Y6233986D01*
Y6237077D01*
Y6240168D01*
Y6243259D01*
Y6246351D01*
Y6249442D01*
Y6252533D01*
Y6255624D01*
Y6258715D01*
Y6261806D01*
Y6264898D01*
Y6267989D01*
Y6271080D01*
Y6274171D01*
Y6277263D01*
Y6280353D01*
Y6283445D01*
Y6286536D01*
Y6289627D01*
Y6292718D01*
Y6295810D01*
Y6298901D01*
Y6301992D01*
Y6305083D01*
Y6308174D01*
Y6311266D01*
Y6314357D01*
Y6317448D01*
Y6320539D01*
Y6323630D01*
Y6326721D01*
Y6329813D01*
Y6332904D01*
Y6335995D01*
Y6339086D01*
Y6342178D01*
Y6345269D01*
Y6348360D01*
Y6351451D01*
Y6354542D01*
Y6357633D01*
Y6360725D01*
Y6363816D01*
Y6366907D01*
Y6369998D01*
Y6373090D01*
Y6376181D01*
Y6379272D01*
Y6382363D01*
Y6385454D01*
Y6388546D01*
Y6391637D01*
Y6394728D01*
Y6397819D01*
Y6400910D01*
Y6404001D01*
Y6407093D01*
Y6410184D01*
Y6413275D01*
Y6416366D01*
Y6419458D01*
Y6422549D01*
Y6425640D01*
Y6428731D01*
Y6431822D01*
Y6434913D01*
Y6438005D01*
Y6441096D01*
Y6444187D01*
Y6447278D01*
Y6450370D01*
Y6453461D01*
Y6456552D01*
Y6459643D01*
Y6462734D01*
Y6465825D01*
Y6468917D01*
Y6472008D01*
Y6475099D01*
Y6478190D01*
Y6481281D01*
Y6484372D01*
Y6487464D01*
Y6490555D01*
Y6493646D01*
Y6496737D01*
Y6499829D01*
Y6502919D01*
Y6506011D01*
Y6509102D01*
Y6512193D01*
Y6515284D01*
Y6518376D01*
Y6521467D01*
Y6524558D01*
Y6527649D01*
Y6530741D01*
Y6533831D01*
Y6536923D01*
Y6540014D01*
Y6543105D01*
Y6546196D01*
Y6549287D01*
Y6552379D01*
Y6555470D01*
Y6558561D01*
Y6561653D01*
Y6564744D01*
Y6567835D01*
Y6570926D01*
Y6574017D01*
Y6577109D01*
Y6580200D01*
Y6583291D01*
Y6586382D01*
Y6589473D01*
Y6592564D01*
Y6595655D01*
Y6598747D01*
Y6601838D01*
Y6604929D01*
Y6608021D01*
Y6611112D01*
Y6614203D01*
Y6617294D01*
Y6620385D01*
Y6623476D01*
Y6626568D01*
Y6629659D01*
Y6632750D01*
Y6635841D01*
Y6638932D01*
Y6642023D01*
Y6645115D01*
Y6648206D01*
Y6651297D01*
Y6654388D01*
Y6657479D01*
Y6660570D01*
Y6663662D01*
Y6666753D01*
Y6669844D01*
Y6672936D01*
Y6676027D01*
Y6679118D01*
Y6682209D01*
Y6685300D01*
Y6688392D01*
Y6691482D01*
Y6694574D01*
Y6697665D01*
Y6700756D01*
Y6703847D01*
Y6706939D01*
Y6710030D01*
Y6713121D01*
Y6716212D01*
Y6719304D01*
Y6722395D01*
Y6725486D01*
Y6728577D01*
Y6731668D01*
Y6734759D01*
Y6737851D01*
Y6740942D01*
Y6744033D01*
Y6747124D01*
Y6750216D01*
Y6753307D01*
Y6756398D01*
Y6759489D01*
Y6762581D01*
Y6765671D01*
Y6768763D01*
Y6771854D01*
Y6774945D01*
Y6778036D01*
Y6781127D01*
Y6784219D01*
Y6787310D01*
Y6790401D01*
Y6793492D01*
Y6796583D01*
Y6799675D01*
Y6802766D01*
Y6805857D01*
Y6808948D01*
Y6812039D01*
Y6815130D01*
Y6818221D01*
Y6821313D01*
Y6824404D01*
Y6827495D01*
Y6830587D01*
Y6833678D01*
Y6836769D01*
Y6839860D01*
Y6842952D01*
Y6846042D01*
Y6849134D01*
Y6852225D01*
Y6855316D01*
Y6858407D01*
Y6861498D01*
Y6864590D01*
Y6867681D01*
Y6870772D01*
Y6873863D01*
Y6876954D01*
Y6880046D01*
Y6883137D01*
Y6886228D01*
Y6889319D01*
Y6892410D01*
Y6895502D01*
Y6898593D01*
Y6901684D01*
Y6904775D01*
Y6907866D01*
Y6910957D01*
Y6914049D01*
X1763424D01*
Y6917140D01*
Y6920231D01*
Y6923322D01*
X1760333D01*
Y6926413D01*
Y6929505D01*
X1757242D01*
Y6932596D01*
X1754150D01*
Y6935687D01*
X1751059D01*
Y6938779D01*
X1747968D01*
Y6941870D01*
X1744877D01*
Y6944961D01*
X1738695D01*
Y6948052D01*
X1732512D01*
Y6951143D01*
D02*
G37*
%LPD*%
G36*
X1364659Y6808948D02*
X1377024D01*
Y6805857D01*
X1386298D01*
Y6802766D01*
X1395572D01*
Y6799675D01*
X1404845D01*
Y6796583D01*
X1414119D01*
Y6793492D01*
X1420301D01*
Y6790401D01*
X1429575D01*
Y6787310D01*
X1435757D01*
Y6784219D01*
X1441940D01*
Y6781127D01*
X1448122D01*
Y6778036D01*
X1454304D01*
Y6774945D01*
X1460487D01*
Y6771854D01*
X1466669D01*
Y6768763D01*
X1469760D01*
Y6765671D01*
X1475943D01*
Y6762581D01*
X1479034D01*
Y6759489D01*
X1485216D01*
Y6756398D01*
X1488308D01*
Y6753307D01*
X1491399D01*
Y6750216D01*
X1497581D01*
Y6747124D01*
X1500672D01*
Y6744033D01*
X1506855D01*
Y6740942D01*
X1509946D01*
Y6737851D01*
X1513037D01*
Y6734759D01*
X1516129D01*
Y6731668D01*
X1519219D01*
Y6728577D01*
X1522311D01*
Y6725486D01*
X1525402D01*
Y6722395D01*
X1528494D01*
Y6719304D01*
X1531584D01*
Y6716212D01*
Y6713121D01*
Y6710030D01*
Y6706939D01*
Y6703847D01*
Y6700756D01*
Y6697665D01*
Y6694574D01*
Y6691482D01*
Y6688392D01*
Y6685300D01*
Y6682209D01*
Y6679118D01*
Y6676027D01*
Y6672936D01*
Y6669844D01*
Y6666753D01*
Y6663662D01*
Y6660570D01*
Y6657479D01*
Y6654388D01*
Y6651297D01*
Y6648206D01*
Y6645115D01*
Y6642023D01*
Y6638932D01*
Y6635841D01*
Y6632750D01*
Y6629659D01*
Y6626568D01*
Y6623476D01*
Y6620385D01*
Y6617294D01*
Y6614203D01*
Y6611112D01*
Y6608021D01*
Y6604929D01*
Y6601838D01*
Y6598747D01*
Y6595655D01*
Y6592564D01*
Y6589473D01*
Y6586382D01*
Y6583291D01*
Y6580200D01*
Y6577109D01*
Y6574017D01*
Y6570926D01*
Y6567835D01*
Y6564744D01*
Y6561653D01*
Y6558561D01*
Y6555470D01*
Y6552379D01*
Y6549287D01*
Y6546196D01*
Y6543105D01*
X1454304D01*
Y6546196D01*
Y6549287D01*
Y6552379D01*
Y6555470D01*
Y6558561D01*
Y6561653D01*
Y6564744D01*
Y6567835D01*
Y6570926D01*
Y6574017D01*
Y6577109D01*
Y6580200D01*
Y6583291D01*
Y6586382D01*
Y6589473D01*
Y6592564D01*
Y6595655D01*
Y6598747D01*
Y6601838D01*
Y6604929D01*
Y6608021D01*
Y6611112D01*
Y6614203D01*
Y6617294D01*
Y6620385D01*
Y6623476D01*
Y6626568D01*
Y6629659D01*
Y6632750D01*
Y6635841D01*
Y6638932D01*
Y6642023D01*
Y6645115D01*
Y6648206D01*
Y6651297D01*
Y6654388D01*
Y6657479D01*
Y6660570D01*
Y6663662D01*
Y6666753D01*
Y6669844D01*
Y6672936D01*
Y6676027D01*
Y6679118D01*
Y6682209D01*
Y6685300D01*
Y6688392D01*
Y6691482D01*
Y6694574D01*
Y6697665D01*
X1448122D01*
Y6700756D01*
X1445031D01*
Y6703847D01*
X1438849D01*
Y6706939D01*
X1435757D01*
Y6710030D01*
X1429575D01*
Y6706939D01*
Y6703847D01*
Y6700756D01*
Y6697665D01*
Y6694574D01*
Y6691482D01*
Y6688392D01*
Y6685300D01*
Y6682209D01*
Y6679118D01*
Y6676027D01*
Y6672936D01*
Y6669844D01*
Y6666753D01*
Y6663662D01*
Y6660570D01*
Y6657479D01*
Y6654388D01*
Y6651297D01*
Y6648206D01*
Y6645115D01*
Y6642023D01*
Y6638932D01*
Y6635841D01*
Y6632750D01*
Y6629659D01*
Y6626568D01*
Y6623476D01*
Y6620385D01*
Y6617294D01*
Y6614203D01*
Y6611112D01*
Y6608021D01*
Y6604929D01*
Y6601838D01*
Y6598747D01*
Y6595655D01*
Y6592564D01*
Y6589473D01*
Y6586382D01*
Y6583291D01*
Y6580200D01*
Y6577109D01*
Y6574017D01*
Y6570926D01*
Y6567835D01*
Y6564744D01*
Y6561653D01*
Y6558561D01*
Y6555470D01*
Y6552379D01*
Y6549287D01*
Y6546196D01*
Y6543105D01*
Y6540014D01*
Y6536923D01*
Y6533831D01*
Y6530741D01*
Y6527649D01*
Y6524558D01*
Y6521467D01*
X1531584D01*
Y6518376D01*
Y6515284D01*
Y6512193D01*
Y6509102D01*
Y6506011D01*
Y6502919D01*
Y6499829D01*
Y6496737D01*
Y6493646D01*
Y6490555D01*
Y6487464D01*
Y6484372D01*
Y6481281D01*
Y6478190D01*
Y6475099D01*
Y6472008D01*
Y6468917D01*
Y6465825D01*
Y6462734D01*
Y6459643D01*
Y6456552D01*
Y6453461D01*
Y6450370D01*
Y6447278D01*
Y6444187D01*
Y6441096D01*
Y6438005D01*
Y6434913D01*
Y6431822D01*
Y6428731D01*
Y6425640D01*
Y6422549D01*
Y6419458D01*
Y6416366D01*
Y6413275D01*
Y6410184D01*
Y6407093D01*
Y6404001D01*
Y6400910D01*
Y6397819D01*
Y6394728D01*
Y6391637D01*
Y6388546D01*
Y6385454D01*
Y6382363D01*
Y6379272D01*
Y6376181D01*
Y6373090D01*
Y6369998D01*
Y6366907D01*
Y6363816D01*
Y6360725D01*
Y6357633D01*
Y6354542D01*
Y6351451D01*
Y6348360D01*
Y6345269D01*
Y6342178D01*
Y6339086D01*
Y6335995D01*
Y6332904D01*
Y6329813D01*
Y6326721D01*
Y6323630D01*
Y6320539D01*
Y6317448D01*
Y6314357D01*
Y6311266D01*
Y6308174D01*
Y6305083D01*
Y6301992D01*
Y6298901D01*
Y6295810D01*
Y6292718D01*
Y6289627D01*
Y6286536D01*
Y6283445D01*
Y6280353D01*
Y6277263D01*
Y6274171D01*
Y6271080D01*
Y6267989D01*
Y6264898D01*
Y6261806D01*
Y6258715D01*
Y6255624D01*
Y6252533D01*
Y6249442D01*
Y6246351D01*
X1528494D01*
Y6243259D01*
X1525402D01*
Y6240168D01*
X1522311D01*
Y6237077D01*
X1519219D01*
Y6233986D01*
X1516129D01*
Y6230894D01*
X1509946D01*
Y6227804D01*
X1506855D01*
Y6224712D01*
X1503764D01*
Y6221621D01*
X1500672D01*
Y6218529D01*
X1497581D01*
Y6215438D01*
X1491399D01*
Y6212347D01*
X1488308D01*
Y6209256D01*
X1482125D01*
Y6206165D01*
X1479034D01*
Y6203074D01*
X1472852D01*
Y6199983D01*
X1469760D01*
Y6196892D01*
X1463578D01*
Y6193800D01*
X1457395D01*
Y6190709D01*
X1451213D01*
Y6187618D01*
X1445031D01*
Y6184527D01*
X1441940D01*
Y6181435D01*
X1435757D01*
Y6178344D01*
X1426484D01*
Y6175253D01*
X1420301D01*
Y6172162D01*
X1411028D01*
Y6169070D01*
X1401754D01*
Y6165979D01*
X1392481D01*
Y6162888D01*
X1383207D01*
Y6159797D01*
X1370842D01*
Y6156706D01*
X1355386D01*
Y6159797D01*
Y6162888D01*
Y6165979D01*
Y6169070D01*
Y6172162D01*
Y6175253D01*
Y6178344D01*
Y6181435D01*
Y6184527D01*
Y6187618D01*
Y6190709D01*
Y6193800D01*
Y6196892D01*
Y6199983D01*
Y6203074D01*
Y6206165D01*
Y6209256D01*
Y6212347D01*
Y6215438D01*
Y6218529D01*
Y6221621D01*
Y6224712D01*
Y6227804D01*
Y6230894D01*
Y6233986D01*
Y6237077D01*
Y6240168D01*
Y6243259D01*
Y6246351D01*
Y6249442D01*
Y6252533D01*
Y6255624D01*
Y6258715D01*
Y6261806D01*
Y6264898D01*
Y6267989D01*
Y6271080D01*
Y6274171D01*
Y6277263D01*
Y6280353D01*
Y6283445D01*
Y6286536D01*
Y6289627D01*
Y6292718D01*
Y6295810D01*
Y6298901D01*
Y6301992D01*
Y6305083D01*
Y6308174D01*
Y6311266D01*
Y6314357D01*
Y6317448D01*
Y6320539D01*
Y6323630D01*
Y6326721D01*
Y6329813D01*
Y6332904D01*
Y6335995D01*
Y6339086D01*
Y6342178D01*
Y6345269D01*
Y6348360D01*
Y6351451D01*
Y6354542D01*
Y6357633D01*
Y6360725D01*
Y6363816D01*
Y6366907D01*
Y6369998D01*
Y6373090D01*
Y6376181D01*
Y6379272D01*
Y6382363D01*
Y6385454D01*
Y6388546D01*
Y6391637D01*
Y6394728D01*
Y6397819D01*
Y6400910D01*
Y6404001D01*
Y6407093D01*
Y6410184D01*
Y6413275D01*
Y6416366D01*
Y6419458D01*
Y6422549D01*
X1429575D01*
Y6419458D01*
Y6416366D01*
Y6413275D01*
Y6410184D01*
Y6407093D01*
Y6404001D01*
Y6400910D01*
Y6397819D01*
Y6394728D01*
Y6391637D01*
Y6388546D01*
Y6385454D01*
Y6382363D01*
Y6379272D01*
Y6376181D01*
Y6373090D01*
Y6369998D01*
Y6366907D01*
Y6363816D01*
Y6360725D01*
Y6357633D01*
Y6354542D01*
Y6351451D01*
Y6348360D01*
Y6345269D01*
Y6342178D01*
Y6339086D01*
Y6335995D01*
Y6332904D01*
Y6329813D01*
Y6326721D01*
Y6323630D01*
Y6320539D01*
Y6317448D01*
Y6314357D01*
Y6311266D01*
Y6308174D01*
Y6305083D01*
Y6301992D01*
Y6298901D01*
Y6295810D01*
Y6292718D01*
Y6289627D01*
Y6286536D01*
Y6283445D01*
Y6280353D01*
Y6277263D01*
Y6274171D01*
Y6271080D01*
Y6267989D01*
Y6264898D01*
Y6261806D01*
Y6258715D01*
Y6255624D01*
X1432666D01*
Y6258715D01*
X1438849D01*
Y6261806D01*
X1441940D01*
Y6264898D01*
X1448122D01*
Y6267989D01*
X1451213D01*
Y6271080D01*
Y6274171D01*
Y6277263D01*
Y6280353D01*
Y6283445D01*
Y6286536D01*
Y6289627D01*
Y6292718D01*
Y6295810D01*
Y6298901D01*
Y6301992D01*
Y6305083D01*
Y6308174D01*
Y6311266D01*
Y6314357D01*
Y6317448D01*
Y6320539D01*
Y6323630D01*
Y6326721D01*
Y6329813D01*
Y6332904D01*
Y6335995D01*
Y6339086D01*
Y6342178D01*
Y6345269D01*
Y6348360D01*
Y6351451D01*
Y6354542D01*
Y6357633D01*
Y6360725D01*
Y6363816D01*
Y6366907D01*
Y6369998D01*
Y6373090D01*
Y6376181D01*
Y6379272D01*
Y6382363D01*
Y6385454D01*
Y6388546D01*
Y6391637D01*
Y6394728D01*
Y6397819D01*
Y6400910D01*
Y6404001D01*
Y6407093D01*
Y6410184D01*
Y6413275D01*
Y6416366D01*
Y6419458D01*
Y6422549D01*
Y6425640D01*
Y6428731D01*
Y6431822D01*
Y6434913D01*
Y6438005D01*
Y6441096D01*
Y6444187D01*
Y6447278D01*
X1355386D01*
Y6450370D01*
Y6453461D01*
Y6456552D01*
Y6459643D01*
Y6462734D01*
Y6465825D01*
Y6468917D01*
Y6472008D01*
Y6475099D01*
Y6478190D01*
Y6481281D01*
Y6484372D01*
Y6487464D01*
Y6490555D01*
Y6493646D01*
Y6496737D01*
Y6499829D01*
Y6502919D01*
Y6506011D01*
Y6509102D01*
Y6512193D01*
Y6515284D01*
Y6518376D01*
Y6521467D01*
Y6524558D01*
Y6527649D01*
Y6530741D01*
Y6533831D01*
Y6536923D01*
Y6540014D01*
Y6543105D01*
Y6546196D01*
Y6549287D01*
Y6552379D01*
Y6555470D01*
Y6558561D01*
Y6561653D01*
Y6564744D01*
Y6567835D01*
Y6570926D01*
Y6574017D01*
Y6577109D01*
Y6580200D01*
Y6583291D01*
Y6586382D01*
Y6589473D01*
Y6592564D01*
Y6595655D01*
Y6598747D01*
Y6601838D01*
Y6604929D01*
Y6608021D01*
Y6611112D01*
Y6614203D01*
Y6617294D01*
Y6620385D01*
Y6623476D01*
Y6626568D01*
Y6629659D01*
Y6632750D01*
Y6635841D01*
Y6638932D01*
Y6642023D01*
Y6645115D01*
Y6648206D01*
Y6651297D01*
Y6654388D01*
Y6657479D01*
Y6660570D01*
Y6663662D01*
Y6666753D01*
Y6669844D01*
Y6672936D01*
Y6676027D01*
Y6679118D01*
Y6682209D01*
Y6685300D01*
Y6688392D01*
Y6691482D01*
Y6694574D01*
Y6697665D01*
Y6700756D01*
Y6703847D01*
Y6706939D01*
Y6710030D01*
Y6713121D01*
Y6716212D01*
Y6719304D01*
Y6722395D01*
Y6725486D01*
Y6728577D01*
Y6731668D01*
Y6734759D01*
Y6737851D01*
Y6740942D01*
Y6744033D01*
Y6747124D01*
Y6750216D01*
Y6753307D01*
Y6756398D01*
Y6759489D01*
Y6762581D01*
Y6765671D01*
Y6768763D01*
Y6771854D01*
Y6774945D01*
Y6778036D01*
Y6781127D01*
Y6784219D01*
Y6787310D01*
Y6790401D01*
Y6793492D01*
Y6796583D01*
Y6799675D01*
Y6802766D01*
Y6805857D01*
Y6808948D01*
Y6812039D01*
X1364659D01*
Y6808948D01*
D02*
G37*
G36*
X1234830D02*
Y6805857D01*
Y6802766D01*
Y6799675D01*
Y6796583D01*
Y6793492D01*
Y6790401D01*
Y6787310D01*
Y6784219D01*
Y6781127D01*
Y6778036D01*
Y6774945D01*
Y6771854D01*
Y6768763D01*
Y6765671D01*
Y6762581D01*
Y6759489D01*
Y6756398D01*
Y6753307D01*
Y6750216D01*
Y6747124D01*
Y6744033D01*
Y6740942D01*
Y6737851D01*
Y6734759D01*
Y6731668D01*
Y6728577D01*
Y6725486D01*
Y6722395D01*
Y6719304D01*
Y6716212D01*
Y6713121D01*
Y6710030D01*
Y6706939D01*
Y6703847D01*
Y6700756D01*
Y6697665D01*
Y6694574D01*
Y6691482D01*
Y6688392D01*
Y6685300D01*
Y6682209D01*
Y6679118D01*
Y6676027D01*
Y6672936D01*
Y6669844D01*
Y6666753D01*
Y6663662D01*
Y6660570D01*
Y6657479D01*
Y6654388D01*
Y6651297D01*
Y6648206D01*
Y6645115D01*
Y6642023D01*
Y6638932D01*
Y6635841D01*
Y6632750D01*
Y6629659D01*
Y6626568D01*
Y6623476D01*
Y6620385D01*
Y6617294D01*
Y6614203D01*
Y6611112D01*
Y6608021D01*
Y6604929D01*
Y6601838D01*
Y6598747D01*
Y6595655D01*
Y6592564D01*
Y6589473D01*
Y6586382D01*
Y6583291D01*
Y6580200D01*
Y6577109D01*
Y6574017D01*
Y6570926D01*
Y6567835D01*
Y6564744D01*
Y6561653D01*
Y6558561D01*
Y6555470D01*
Y6552379D01*
Y6549287D01*
Y6546196D01*
Y6543105D01*
Y6540014D01*
Y6536923D01*
Y6533831D01*
Y6530741D01*
Y6527649D01*
Y6524558D01*
Y6521467D01*
Y6518376D01*
Y6515284D01*
Y6512193D01*
Y6509102D01*
Y6506011D01*
Y6502919D01*
Y6499829D01*
Y6496737D01*
Y6493646D01*
Y6490555D01*
Y6487464D01*
Y6484372D01*
Y6481281D01*
Y6478190D01*
Y6475099D01*
Y6472008D01*
Y6468917D01*
Y6465825D01*
Y6462734D01*
Y6459643D01*
Y6456552D01*
Y6453461D01*
Y6450370D01*
Y6447278D01*
Y6444187D01*
Y6441096D01*
Y6438005D01*
Y6434913D01*
Y6431822D01*
Y6428731D01*
Y6425640D01*
Y6422549D01*
Y6419458D01*
Y6416366D01*
Y6413275D01*
Y6410184D01*
Y6407093D01*
Y6404001D01*
Y6400910D01*
Y6397819D01*
Y6394728D01*
Y6391637D01*
Y6388546D01*
Y6385454D01*
Y6382363D01*
Y6379272D01*
Y6376181D01*
Y6373090D01*
Y6369998D01*
Y6366907D01*
Y6363816D01*
Y6360725D01*
Y6357633D01*
Y6354542D01*
Y6351451D01*
Y6348360D01*
Y6345269D01*
Y6342178D01*
Y6339086D01*
Y6335995D01*
Y6332904D01*
Y6329813D01*
Y6326721D01*
Y6323630D01*
Y6320539D01*
Y6317448D01*
Y6314357D01*
Y6311266D01*
Y6308174D01*
Y6305083D01*
Y6301992D01*
Y6298901D01*
Y6295810D01*
Y6292718D01*
Y6289627D01*
Y6286536D01*
Y6283445D01*
Y6280353D01*
Y6277263D01*
Y6274171D01*
Y6271080D01*
Y6267989D01*
Y6264898D01*
Y6261806D01*
Y6258715D01*
Y6255624D01*
Y6252533D01*
Y6249442D01*
Y6246351D01*
Y6243259D01*
Y6240168D01*
Y6237077D01*
Y6233986D01*
Y6230894D01*
Y6227804D01*
Y6224712D01*
Y6221621D01*
Y6218529D01*
Y6215438D01*
Y6212347D01*
Y6209256D01*
Y6206165D01*
Y6203074D01*
Y6199983D01*
Y6196892D01*
Y6193800D01*
Y6190709D01*
Y6187618D01*
Y6184527D01*
Y6181435D01*
Y6178344D01*
Y6175253D01*
Y6172162D01*
Y6169070D01*
Y6165979D01*
Y6162888D01*
Y6159797D01*
Y6156706D01*
X1222465D01*
Y6159797D01*
X1210100D01*
Y6162888D01*
X1197735D01*
Y6165979D01*
X1188461D01*
Y6169070D01*
X1182279D01*
Y6172162D01*
X1173006D01*
Y6175253D01*
X1166823D01*
Y6178344D01*
X1160641D01*
Y6181435D01*
X1151367D01*
Y6184527D01*
X1145185D01*
Y6187618D01*
X1142094D01*
Y6190709D01*
X1135911D01*
Y6193800D01*
X1129729D01*
Y6196892D01*
X1123546D01*
Y6199983D01*
X1120455D01*
Y6203074D01*
X1114273D01*
Y6206165D01*
X1111182D01*
Y6209256D01*
X1105000D01*
Y6212347D01*
X1101908D01*
Y6215438D01*
X1098817D01*
Y6218529D01*
X1092635D01*
Y6221621D01*
X1089543D01*
Y6224712D01*
X1086452D01*
Y6227804D01*
X1083361D01*
Y6230894D01*
X1077178D01*
Y6233986D01*
X1074087D01*
Y6237077D01*
X1070996D01*
Y6240168D01*
X1067905D01*
Y6243259D01*
X1064814D01*
Y6246351D01*
X1061723D01*
Y6249442D01*
Y6252533D01*
Y6255624D01*
Y6258715D01*
Y6261806D01*
Y6264898D01*
Y6267989D01*
Y6271080D01*
Y6274171D01*
Y6277263D01*
Y6280353D01*
Y6283445D01*
Y6286536D01*
Y6289627D01*
Y6292718D01*
Y6295810D01*
Y6298901D01*
Y6301992D01*
Y6305083D01*
Y6308174D01*
Y6311266D01*
Y6314357D01*
Y6317448D01*
Y6320539D01*
Y6323630D01*
Y6326721D01*
Y6329813D01*
Y6332904D01*
Y6335995D01*
Y6339086D01*
Y6342178D01*
Y6345269D01*
Y6348360D01*
Y6351451D01*
Y6354542D01*
Y6357633D01*
Y6360725D01*
Y6363816D01*
Y6366907D01*
Y6369998D01*
Y6373090D01*
Y6376181D01*
Y6379272D01*
Y6382363D01*
Y6385454D01*
Y6388546D01*
Y6391637D01*
Y6394728D01*
Y6397819D01*
Y6400910D01*
Y6404001D01*
Y6407093D01*
Y6410184D01*
Y6413275D01*
Y6416366D01*
Y6419458D01*
Y6422549D01*
Y6425640D01*
Y6428731D01*
Y6431822D01*
Y6434913D01*
Y6438005D01*
Y6441096D01*
Y6444187D01*
Y6447278D01*
Y6450370D01*
Y6453461D01*
Y6456552D01*
Y6459643D01*
Y6462734D01*
Y6465825D01*
Y6468917D01*
Y6472008D01*
Y6475099D01*
Y6478190D01*
Y6481281D01*
Y6484372D01*
Y6487464D01*
Y6490555D01*
Y6493646D01*
Y6496737D01*
Y6499829D01*
Y6502919D01*
Y6506011D01*
Y6509102D01*
Y6512193D01*
Y6515284D01*
Y6518376D01*
Y6521467D01*
Y6524558D01*
Y6527649D01*
Y6530741D01*
Y6533831D01*
Y6536923D01*
Y6540014D01*
Y6543105D01*
Y6546196D01*
Y6549287D01*
Y6552379D01*
Y6555470D01*
Y6558561D01*
Y6561653D01*
Y6564744D01*
Y6567835D01*
Y6570926D01*
Y6574017D01*
Y6577109D01*
Y6580200D01*
Y6583291D01*
Y6586382D01*
Y6589473D01*
Y6592564D01*
Y6595655D01*
Y6598747D01*
Y6601838D01*
Y6604929D01*
Y6608021D01*
Y6611112D01*
Y6614203D01*
Y6617294D01*
Y6620385D01*
Y6623476D01*
Y6626568D01*
Y6629659D01*
Y6632750D01*
Y6635841D01*
Y6638932D01*
Y6642023D01*
Y6645115D01*
Y6648206D01*
Y6651297D01*
Y6654388D01*
Y6657479D01*
Y6660570D01*
Y6663662D01*
Y6666753D01*
Y6669844D01*
Y6672936D01*
Y6676027D01*
Y6679118D01*
Y6682209D01*
Y6685300D01*
Y6688392D01*
Y6691482D01*
Y6694574D01*
Y6697665D01*
Y6700756D01*
Y6703847D01*
Y6706939D01*
Y6710030D01*
Y6713121D01*
Y6716212D01*
Y6719304D01*
X1064814D01*
Y6722395D01*
X1067905D01*
Y6725486D01*
X1070996D01*
Y6728577D01*
X1074087D01*
Y6731668D01*
X1077178D01*
Y6734759D01*
X1080270D01*
Y6737851D01*
X1083361D01*
Y6740942D01*
X1089543D01*
Y6744033D01*
X1092635D01*
Y6747124D01*
X1095726D01*
Y6750216D01*
X1101908D01*
Y6753307D01*
X1105000D01*
Y6756398D01*
X1108091D01*
Y6759489D01*
X1114273D01*
Y6762581D01*
X1117364D01*
Y6765671D01*
X1123546D01*
Y6768763D01*
X1129729D01*
Y6771854D01*
X1132820D01*
Y6774945D01*
X1139003D01*
Y6771854D01*
Y6768763D01*
Y6765671D01*
Y6762581D01*
Y6759489D01*
Y6756398D01*
Y6753307D01*
Y6750216D01*
Y6747124D01*
Y6744033D01*
Y6740942D01*
Y6737851D01*
Y6734759D01*
Y6731668D01*
Y6728577D01*
Y6725486D01*
Y6722395D01*
Y6719304D01*
Y6716212D01*
Y6713121D01*
Y6710030D01*
Y6706939D01*
Y6703847D01*
Y6700756D01*
Y6697665D01*
Y6694574D01*
Y6691482D01*
Y6688392D01*
Y6685300D01*
Y6682209D01*
Y6679118D01*
Y6676027D01*
Y6672936D01*
Y6669844D01*
Y6666753D01*
Y6663662D01*
Y6660570D01*
Y6657479D01*
Y6654388D01*
Y6651297D01*
Y6648206D01*
Y6645115D01*
Y6642023D01*
Y6638932D01*
Y6635841D01*
Y6632750D01*
Y6629659D01*
Y6626568D01*
Y6623476D01*
Y6620385D01*
Y6617294D01*
Y6614203D01*
Y6611112D01*
Y6608021D01*
Y6604929D01*
Y6601838D01*
Y6598747D01*
Y6595655D01*
Y6592564D01*
Y6589473D01*
Y6586382D01*
Y6583291D01*
Y6580200D01*
Y6577109D01*
Y6574017D01*
Y6570926D01*
Y6567835D01*
Y6564744D01*
Y6561653D01*
Y6558561D01*
Y6555470D01*
Y6552379D01*
Y6549287D01*
Y6546196D01*
Y6543105D01*
Y6540014D01*
Y6536923D01*
Y6533831D01*
Y6530741D01*
Y6527649D01*
Y6524558D01*
Y6521467D01*
Y6518376D01*
Y6515284D01*
Y6512193D01*
Y6509102D01*
Y6506011D01*
Y6502919D01*
Y6499829D01*
Y6496737D01*
Y6493646D01*
Y6490555D01*
Y6487464D01*
Y6484372D01*
Y6481281D01*
Y6478190D01*
Y6475099D01*
Y6472008D01*
Y6468917D01*
Y6465825D01*
Y6462734D01*
Y6459643D01*
Y6456552D01*
Y6453461D01*
Y6450370D01*
Y6447278D01*
Y6444187D01*
Y6441096D01*
Y6438005D01*
Y6434913D01*
Y6431822D01*
Y6428731D01*
Y6425640D01*
Y6422549D01*
Y6419458D01*
Y6416366D01*
Y6413275D01*
Y6410184D01*
Y6407093D01*
Y6404001D01*
Y6400910D01*
Y6397819D01*
Y6394728D01*
Y6391637D01*
Y6388546D01*
Y6385454D01*
Y6382363D01*
Y6379272D01*
Y6376181D01*
Y6373090D01*
Y6369998D01*
Y6366907D01*
Y6363816D01*
Y6360725D01*
Y6357633D01*
Y6354542D01*
Y6351451D01*
Y6348360D01*
Y6345269D01*
Y6342178D01*
Y6339086D01*
Y6335995D01*
Y6332904D01*
Y6329813D01*
Y6326721D01*
Y6323630D01*
Y6320539D01*
Y6317448D01*
Y6314357D01*
Y6311266D01*
Y6308174D01*
Y6305083D01*
Y6301992D01*
Y6298901D01*
Y6295810D01*
Y6292718D01*
Y6289627D01*
Y6286536D01*
Y6283445D01*
Y6280353D01*
Y6277263D01*
Y6274171D01*
Y6271080D01*
X1142094D01*
Y6267989D01*
X1145185D01*
Y6264898D01*
X1151367D01*
Y6261806D01*
X1154459D01*
Y6258715D01*
X1160641D01*
Y6261806D01*
Y6264898D01*
Y6267989D01*
Y6271080D01*
Y6274171D01*
Y6277263D01*
Y6280353D01*
Y6283445D01*
Y6286536D01*
Y6289627D01*
Y6292718D01*
Y6295810D01*
Y6298901D01*
Y6301992D01*
Y6305083D01*
Y6308174D01*
Y6311266D01*
Y6314357D01*
Y6317448D01*
Y6320539D01*
Y6323630D01*
Y6326721D01*
Y6329813D01*
Y6332904D01*
Y6335995D01*
Y6339086D01*
Y6342178D01*
Y6345269D01*
Y6348360D01*
Y6351451D01*
Y6354542D01*
Y6357633D01*
Y6360725D01*
Y6363816D01*
Y6366907D01*
Y6369998D01*
Y6373090D01*
Y6376181D01*
Y6379272D01*
Y6382363D01*
Y6385454D01*
Y6388546D01*
Y6391637D01*
Y6394728D01*
Y6397819D01*
Y6400910D01*
Y6404001D01*
Y6407093D01*
Y6410184D01*
Y6413275D01*
Y6416366D01*
Y6419458D01*
Y6422549D01*
Y6425640D01*
Y6428731D01*
Y6431822D01*
Y6434913D01*
Y6438005D01*
Y6441096D01*
Y6444187D01*
Y6447278D01*
Y6450370D01*
Y6453461D01*
Y6456552D01*
Y6459643D01*
Y6462734D01*
Y6465825D01*
Y6468917D01*
Y6472008D01*
Y6475099D01*
Y6478190D01*
Y6481281D01*
Y6484372D01*
Y6487464D01*
Y6490555D01*
Y6493646D01*
Y6496737D01*
Y6499829D01*
Y6502919D01*
Y6506011D01*
Y6509102D01*
Y6512193D01*
Y6515284D01*
Y6518376D01*
Y6521467D01*
Y6524558D01*
Y6527649D01*
Y6530741D01*
Y6533831D01*
Y6536923D01*
Y6540014D01*
Y6543105D01*
Y6546196D01*
Y6549287D01*
Y6552379D01*
Y6555470D01*
Y6558561D01*
Y6561653D01*
Y6564744D01*
Y6567835D01*
Y6570926D01*
Y6574017D01*
Y6577109D01*
Y6580200D01*
Y6583291D01*
Y6586382D01*
Y6589473D01*
Y6592564D01*
Y6595655D01*
Y6598747D01*
Y6601838D01*
Y6604929D01*
Y6608021D01*
Y6611112D01*
Y6614203D01*
Y6617294D01*
Y6620385D01*
Y6623476D01*
Y6626568D01*
Y6629659D01*
Y6632750D01*
Y6635841D01*
Y6638932D01*
Y6642023D01*
Y6645115D01*
Y6648206D01*
Y6651297D01*
Y6654388D01*
Y6657479D01*
Y6660570D01*
Y6663662D01*
Y6666753D01*
Y6669844D01*
Y6672936D01*
Y6676027D01*
Y6679118D01*
Y6682209D01*
Y6685300D01*
Y6688392D01*
Y6691482D01*
Y6694574D01*
Y6697665D01*
Y6700756D01*
Y6703847D01*
Y6706939D01*
Y6710030D01*
Y6713121D01*
Y6716212D01*
Y6719304D01*
Y6722395D01*
Y6725486D01*
Y6728577D01*
Y6731668D01*
Y6734759D01*
Y6737851D01*
Y6740942D01*
Y6744033D01*
Y6747124D01*
Y6750216D01*
Y6753307D01*
Y6756398D01*
Y6759489D01*
Y6762581D01*
Y6765671D01*
Y6768763D01*
Y6771854D01*
Y6774945D01*
Y6778036D01*
Y6781127D01*
Y6784219D01*
Y6787310D01*
X1163732D01*
Y6790401D01*
X1173006D01*
Y6793492D01*
X1179188D01*
Y6796583D01*
X1188461D01*
Y6799675D01*
X1194644D01*
Y6802766D01*
X1203918D01*
Y6805857D01*
X1216283D01*
Y6808948D01*
X1231738D01*
Y6812039D01*
X1234830D01*
Y6808948D01*
D02*
G37*
G36*
X1309018Y6815130D02*
X1333748D01*
Y6812039D01*
Y6808948D01*
Y6805857D01*
Y6802766D01*
Y6799675D01*
Y6796583D01*
Y6793492D01*
Y6790401D01*
Y6787310D01*
Y6784219D01*
Y6781127D01*
Y6778036D01*
Y6774945D01*
Y6771854D01*
Y6768763D01*
Y6765671D01*
Y6762581D01*
Y6759489D01*
Y6756398D01*
Y6753307D01*
Y6750216D01*
Y6747124D01*
Y6744033D01*
Y6740942D01*
Y6737851D01*
Y6734759D01*
Y6731668D01*
Y6728577D01*
Y6725486D01*
Y6722395D01*
Y6719304D01*
Y6716212D01*
Y6713121D01*
Y6710030D01*
Y6706939D01*
Y6703847D01*
Y6700756D01*
Y6697665D01*
Y6694574D01*
Y6691482D01*
Y6688392D01*
Y6685300D01*
Y6682209D01*
Y6679118D01*
Y6676027D01*
Y6672936D01*
Y6669844D01*
Y6666753D01*
Y6663662D01*
Y6660570D01*
Y6657479D01*
Y6654388D01*
Y6651297D01*
Y6648206D01*
Y6645115D01*
Y6642023D01*
Y6638932D01*
Y6635841D01*
Y6632750D01*
Y6629659D01*
Y6626568D01*
Y6623476D01*
Y6620385D01*
Y6617294D01*
Y6614203D01*
Y6611112D01*
Y6608021D01*
Y6604929D01*
Y6601838D01*
Y6598747D01*
Y6595655D01*
Y6592564D01*
Y6589473D01*
Y6586382D01*
Y6583291D01*
Y6580200D01*
Y6577109D01*
Y6574017D01*
Y6570926D01*
Y6567835D01*
Y6564744D01*
Y6561653D01*
Y6558561D01*
Y6555470D01*
Y6552379D01*
Y6549287D01*
Y6546196D01*
Y6543105D01*
Y6540014D01*
Y6536923D01*
Y6533831D01*
Y6530741D01*
Y6527649D01*
Y6524558D01*
Y6521467D01*
Y6518376D01*
Y6515284D01*
Y6512193D01*
Y6509102D01*
Y6506011D01*
Y6502919D01*
Y6499829D01*
Y6496737D01*
Y6493646D01*
Y6490555D01*
Y6487464D01*
Y6484372D01*
Y6481281D01*
Y6478190D01*
Y6475099D01*
Y6472008D01*
Y6468917D01*
Y6465825D01*
Y6462734D01*
Y6459643D01*
Y6456552D01*
Y6453461D01*
Y6450370D01*
Y6447278D01*
Y6444187D01*
Y6441096D01*
Y6438005D01*
Y6434913D01*
Y6431822D01*
Y6428731D01*
Y6425640D01*
Y6422549D01*
Y6419458D01*
Y6416366D01*
Y6413275D01*
Y6410184D01*
Y6407093D01*
Y6404001D01*
Y6400910D01*
Y6397819D01*
Y6394728D01*
Y6391637D01*
Y6388546D01*
Y6385454D01*
Y6382363D01*
Y6379272D01*
Y6376181D01*
Y6373090D01*
Y6369998D01*
Y6366907D01*
Y6363816D01*
Y6360725D01*
Y6357633D01*
Y6354542D01*
Y6351451D01*
Y6348360D01*
Y6345269D01*
Y6342178D01*
Y6339086D01*
Y6335995D01*
Y6332904D01*
Y6329813D01*
Y6326721D01*
Y6323630D01*
Y6320539D01*
Y6317448D01*
Y6314357D01*
Y6311266D01*
Y6308174D01*
Y6305083D01*
Y6301992D01*
Y6298901D01*
Y6295810D01*
Y6292718D01*
Y6289627D01*
Y6286536D01*
Y6283445D01*
Y6280353D01*
Y6277263D01*
Y6274171D01*
Y6271080D01*
Y6267989D01*
Y6264898D01*
Y6261806D01*
Y6258715D01*
Y6255624D01*
Y6252533D01*
Y6249442D01*
Y6246351D01*
Y6243259D01*
Y6240168D01*
Y6237077D01*
Y6233986D01*
Y6230894D01*
Y6227804D01*
Y6224712D01*
Y6221621D01*
Y6218529D01*
Y6215438D01*
Y6212347D01*
Y6209256D01*
Y6206165D01*
Y6203074D01*
Y6199983D01*
Y6196892D01*
Y6193800D01*
Y6190709D01*
Y6187618D01*
Y6184527D01*
Y6181435D01*
Y6178344D01*
Y6175253D01*
Y6172162D01*
Y6169070D01*
Y6165979D01*
Y6162888D01*
Y6159797D01*
Y6156706D01*
Y6153615D01*
Y6150523D01*
X1259559D01*
Y6153615D01*
Y6156706D01*
Y6159797D01*
Y6162888D01*
Y6165979D01*
Y6169070D01*
Y6172162D01*
Y6175253D01*
Y6178344D01*
Y6181435D01*
Y6184527D01*
Y6187618D01*
Y6190709D01*
Y6193800D01*
Y6196892D01*
Y6199983D01*
Y6203074D01*
Y6206165D01*
Y6209256D01*
Y6212347D01*
Y6215438D01*
Y6218529D01*
Y6221621D01*
Y6224712D01*
Y6227804D01*
Y6230894D01*
Y6233986D01*
Y6237077D01*
Y6240168D01*
Y6243259D01*
Y6246351D01*
Y6249442D01*
Y6252533D01*
Y6255624D01*
Y6258715D01*
Y6261806D01*
Y6264898D01*
Y6267989D01*
Y6271080D01*
Y6274171D01*
Y6277263D01*
Y6280353D01*
Y6283445D01*
Y6286536D01*
Y6289627D01*
Y6292718D01*
Y6295810D01*
Y6298901D01*
Y6301992D01*
Y6305083D01*
Y6308174D01*
Y6311266D01*
Y6314357D01*
Y6317448D01*
Y6320539D01*
Y6323630D01*
Y6326721D01*
Y6329813D01*
Y6332904D01*
Y6335995D01*
Y6339086D01*
Y6342178D01*
Y6345269D01*
Y6348360D01*
Y6351451D01*
Y6354542D01*
Y6357633D01*
Y6360725D01*
Y6363816D01*
Y6366907D01*
Y6369998D01*
Y6373090D01*
Y6376181D01*
Y6379272D01*
Y6382363D01*
Y6385454D01*
Y6388546D01*
Y6391637D01*
Y6394728D01*
Y6397819D01*
Y6400910D01*
Y6404001D01*
Y6407093D01*
Y6410184D01*
Y6413275D01*
Y6416366D01*
Y6419458D01*
Y6422549D01*
Y6425640D01*
Y6428731D01*
Y6431822D01*
Y6434913D01*
Y6438005D01*
Y6441096D01*
Y6444187D01*
Y6447278D01*
Y6450370D01*
Y6453461D01*
Y6456552D01*
Y6459643D01*
Y6462734D01*
Y6465825D01*
Y6468917D01*
Y6472008D01*
Y6475099D01*
Y6478190D01*
Y6481281D01*
Y6484372D01*
Y6487464D01*
Y6490555D01*
Y6493646D01*
Y6496737D01*
Y6499829D01*
Y6502919D01*
Y6506011D01*
Y6509102D01*
Y6512193D01*
Y6515284D01*
Y6518376D01*
Y6521467D01*
Y6524558D01*
Y6527649D01*
Y6530741D01*
Y6533831D01*
Y6536923D01*
Y6540014D01*
Y6543105D01*
Y6546196D01*
Y6549287D01*
Y6552379D01*
Y6555470D01*
Y6558561D01*
Y6561653D01*
Y6564744D01*
Y6567835D01*
Y6570926D01*
Y6574017D01*
Y6577109D01*
Y6580200D01*
Y6583291D01*
Y6586382D01*
Y6589473D01*
Y6592564D01*
Y6595655D01*
Y6598747D01*
Y6601838D01*
Y6604929D01*
Y6608021D01*
Y6611112D01*
Y6614203D01*
Y6617294D01*
Y6620385D01*
Y6623476D01*
Y6626568D01*
Y6629659D01*
Y6632750D01*
Y6635841D01*
Y6638932D01*
Y6642023D01*
Y6645115D01*
Y6648206D01*
Y6651297D01*
Y6654388D01*
Y6657479D01*
Y6660570D01*
Y6663662D01*
Y6666753D01*
Y6669844D01*
Y6672936D01*
Y6676027D01*
Y6679118D01*
Y6682209D01*
Y6685300D01*
Y6688392D01*
Y6691482D01*
Y6694574D01*
Y6697665D01*
Y6700756D01*
Y6703847D01*
Y6706939D01*
Y6710030D01*
Y6713121D01*
Y6716212D01*
Y6719304D01*
Y6722395D01*
Y6725486D01*
Y6728577D01*
Y6731668D01*
Y6734759D01*
Y6737851D01*
Y6740942D01*
Y6744033D01*
Y6747124D01*
Y6750216D01*
Y6753307D01*
Y6756398D01*
Y6759489D01*
Y6762581D01*
Y6765671D01*
Y6768763D01*
Y6771854D01*
Y6774945D01*
Y6778036D01*
Y6781127D01*
Y6784219D01*
Y6787310D01*
Y6790401D01*
Y6793492D01*
Y6796583D01*
Y6799675D01*
Y6802766D01*
Y6805857D01*
Y6808948D01*
Y6812039D01*
Y6815130D01*
X1281198D01*
Y6818221D01*
X1309018D01*
Y6815130D01*
D02*
G37*
%LPC*%
G36*
X1429575Y5696117D02*
X1420301D01*
Y5693027D01*
X1417210D01*
Y5689935D01*
X1414119D01*
Y5686844D01*
Y5683753D01*
Y5680662D01*
X1417210D01*
Y5677570D01*
X1432666D01*
Y5680662D01*
Y5683753D01*
Y5686844D01*
Y5689935D01*
Y5693027D01*
X1429575D01*
Y5696117D01*
D02*
G37*
G36*
X1135911D02*
X1126638D01*
Y5693027D01*
X1123546D01*
Y5689935D01*
Y5686844D01*
Y5683753D01*
Y5680662D01*
Y5677570D01*
X1139003D01*
Y5680662D01*
X1142094D01*
Y5683753D01*
Y5686844D01*
Y5689935D01*
X1139003D01*
Y5693027D01*
X1135911D01*
Y5696117D01*
D02*
G37*
G36*
X1661415Y5702300D02*
X1642867D01*
Y5699208D01*
Y5696117D01*
Y5693027D01*
Y5689935D01*
Y5686844D01*
Y5683753D01*
Y5680662D01*
Y5677570D01*
Y5674479D01*
Y5671388D01*
Y5668297D01*
Y5665206D01*
X1636685D01*
Y5668297D01*
X1615047D01*
Y5665206D01*
X1605773D01*
Y5662114D01*
X1602682D01*
Y5659023D01*
X1599591D01*
Y5655932D01*
X1596499D01*
Y5652841D01*
Y5649750D01*
X1593408D01*
Y5646659D01*
Y5643568D01*
Y5640476D01*
X1590317D01*
Y5637385D01*
Y5634294D01*
Y5631203D01*
Y5628111D01*
Y5625020D01*
Y5621929D01*
Y5618838D01*
X1593408D01*
Y5615746D01*
Y5612655D01*
Y5609564D01*
X1596499D01*
Y5606473D01*
X1599591D01*
Y5603382D01*
Y5600291D01*
X1602682D01*
Y5597199D01*
X1608864D01*
Y5594108D01*
X1618138D01*
Y5591017D01*
X1636685D01*
Y5594108D01*
X1661415D01*
Y5597199D01*
Y5600291D01*
Y5603382D01*
Y5606473D01*
Y5609564D01*
Y5612655D01*
Y5615746D01*
Y5618838D01*
Y5621929D01*
Y5625020D01*
Y5628111D01*
Y5631203D01*
Y5634294D01*
Y5637385D01*
Y5640476D01*
Y5643568D01*
Y5646659D01*
Y5649750D01*
Y5652841D01*
Y5655932D01*
Y5659023D01*
Y5662114D01*
Y5665206D01*
Y5668297D01*
Y5671388D01*
Y5674479D01*
Y5677570D01*
Y5680662D01*
Y5683753D01*
Y5686844D01*
Y5689935D01*
Y5693027D01*
Y5696117D01*
Y5699208D01*
Y5702300D01*
D02*
G37*
G36*
X1513037D02*
X1494490D01*
Y5699208D01*
Y5696117D01*
Y5693027D01*
Y5689935D01*
Y5686844D01*
Y5683753D01*
Y5680662D01*
Y5677570D01*
Y5674479D01*
Y5671388D01*
Y5668297D01*
Y5665206D01*
X1488308D01*
Y5668297D01*
X1469760D01*
Y5665206D01*
X1460487D01*
Y5662114D01*
X1457395D01*
Y5659023D01*
X1454304D01*
Y5655932D01*
X1451213D01*
Y5652841D01*
X1448122D01*
Y5649750D01*
Y5646659D01*
X1445031D01*
Y5643568D01*
Y5640476D01*
Y5637385D01*
Y5634294D01*
Y5631203D01*
Y5628111D01*
Y5625020D01*
Y5621929D01*
Y5618838D01*
Y5615746D01*
Y5612655D01*
X1448122D01*
Y5609564D01*
Y5606473D01*
X1451213D01*
Y5603382D01*
X1454304D01*
Y5600291D01*
X1457395D01*
Y5597199D01*
X1463578D01*
Y5594108D01*
X1472852D01*
Y5591017D01*
X1488308D01*
Y5594108D01*
X1513037D01*
Y5597199D01*
Y5600291D01*
Y5603382D01*
Y5606473D01*
Y5609564D01*
Y5612655D01*
Y5615746D01*
Y5618838D01*
Y5621929D01*
Y5625020D01*
Y5628111D01*
Y5631203D01*
Y5634294D01*
Y5637385D01*
Y5640476D01*
Y5643568D01*
Y5646659D01*
Y5649750D01*
Y5652841D01*
Y5655932D01*
Y5659023D01*
Y5662114D01*
Y5665206D01*
Y5668297D01*
Y5671388D01*
Y5674479D01*
Y5677570D01*
Y5680662D01*
Y5683753D01*
Y5686844D01*
Y5689935D01*
Y5693027D01*
Y5696117D01*
Y5699208D01*
Y5702300D01*
D02*
G37*
G36*
X1089543Y5668297D02*
X1074087D01*
Y5665206D01*
X1064814D01*
Y5662114D01*
X1061723D01*
Y5665206D01*
X1046266D01*
Y5662114D01*
Y5659023D01*
Y5655932D01*
Y5652841D01*
Y5649750D01*
Y5646659D01*
Y5643568D01*
Y5640476D01*
Y5637385D01*
Y5634294D01*
Y5631203D01*
Y5628111D01*
Y5625020D01*
Y5621929D01*
Y5618838D01*
Y5615746D01*
Y5612655D01*
Y5609564D01*
Y5606473D01*
Y5603382D01*
Y5600291D01*
Y5597199D01*
Y5594108D01*
X1061723D01*
Y5597199D01*
Y5600291D01*
Y5603382D01*
Y5606473D01*
Y5609564D01*
Y5612655D01*
Y5615746D01*
Y5618838D01*
Y5621929D01*
Y5625020D01*
Y5628111D01*
Y5631203D01*
Y5634294D01*
Y5637385D01*
Y5640476D01*
Y5643568D01*
Y5646659D01*
X1064814D01*
Y5649750D01*
X1070996D01*
Y5652841D01*
X1083361D01*
Y5649750D01*
X1086452D01*
Y5646659D01*
X1089543D01*
Y5643568D01*
Y5640476D01*
Y5637385D01*
Y5634294D01*
Y5631203D01*
Y5628111D01*
Y5625020D01*
Y5621929D01*
Y5618838D01*
Y5615746D01*
Y5612655D01*
Y5609564D01*
Y5606473D01*
Y5603382D01*
Y5600291D01*
Y5597199D01*
Y5594108D01*
X1108091D01*
Y5597199D01*
Y5600291D01*
Y5603382D01*
Y5606473D01*
Y5609564D01*
Y5612655D01*
Y5615746D01*
Y5618838D01*
Y5621929D01*
Y5625020D01*
Y5628111D01*
Y5631203D01*
Y5634294D01*
Y5637385D01*
Y5640476D01*
Y5643568D01*
Y5646659D01*
Y5649750D01*
Y5652841D01*
X1105000D01*
Y5655932D01*
Y5659023D01*
X1101908D01*
Y5662114D01*
X1098817D01*
Y5665206D01*
X1089543D01*
Y5668297D01*
D02*
G37*
G36*
X1389389D02*
X1367751D01*
Y5665206D01*
X1361569D01*
Y5662114D01*
X1358477D01*
Y5659023D01*
X1355386D01*
Y5655932D01*
Y5652841D01*
X1352295D01*
Y5655932D01*
Y5659023D01*
Y5662114D01*
X1349204D01*
Y5665206D01*
X1343021D01*
Y5668297D01*
X1330657D01*
Y5665206D01*
X1324474D01*
Y5662114D01*
X1321383D01*
Y5659023D01*
X1318292D01*
Y5662114D01*
Y5665206D01*
X1299745D01*
Y5662114D01*
Y5659023D01*
Y5655932D01*
Y5652841D01*
Y5649750D01*
Y5646659D01*
Y5643568D01*
Y5640476D01*
Y5637385D01*
Y5634294D01*
Y5631203D01*
Y5628111D01*
Y5625020D01*
Y5621929D01*
Y5618838D01*
Y5615746D01*
Y5612655D01*
Y5609564D01*
Y5606473D01*
Y5603382D01*
Y5600291D01*
Y5597199D01*
Y5594108D01*
X1318292D01*
Y5597199D01*
Y5600291D01*
Y5603382D01*
Y5606473D01*
Y5609564D01*
Y5612655D01*
Y5615746D01*
Y5618838D01*
Y5621929D01*
Y5625020D01*
Y5628111D01*
Y5631203D01*
Y5634294D01*
Y5637385D01*
Y5640476D01*
Y5643568D01*
X1321383D01*
Y5646659D01*
X1324474D01*
Y5649750D01*
X1339930D01*
Y5646659D01*
X1346113D01*
Y5649750D01*
X1349204D01*
Y5652841D01*
X1352295D01*
Y5649750D01*
Y5646659D01*
Y5643568D01*
X1355386D01*
Y5640476D01*
Y5637385D01*
Y5634294D01*
X1358477D01*
Y5631203D01*
X1361569D01*
Y5628111D01*
X1367751D01*
Y5625020D01*
X1373933D01*
Y5621929D01*
X1380116D01*
Y5618838D01*
X1383207D01*
Y5615746D01*
X1386298D01*
Y5612655D01*
Y5609564D01*
X1380116D01*
Y5606473D01*
X1373933D01*
Y5609564D01*
X1364659D01*
Y5612655D01*
X1358477D01*
Y5615746D01*
X1352295D01*
Y5612655D01*
Y5609564D01*
Y5606473D01*
Y5603382D01*
Y5600291D01*
Y5597199D01*
X1358477D01*
Y5594108D01*
X1367751D01*
Y5591017D01*
X1386298D01*
Y5594108D01*
X1395572D01*
Y5597199D01*
X1398663D01*
Y5600291D01*
X1401754D01*
Y5603382D01*
X1404845D01*
Y5606473D01*
Y5609564D01*
Y5612655D01*
Y5615746D01*
Y5618838D01*
Y5621929D01*
Y5625020D01*
X1401754D01*
Y5628111D01*
X1398663D01*
Y5631203D01*
X1392481D01*
Y5634294D01*
X1386298D01*
Y5637385D01*
X1383207D01*
Y5640476D01*
X1377024D01*
Y5643568D01*
X1373933D01*
Y5646659D01*
X1370842D01*
Y5649750D01*
X1373933D01*
Y5652841D01*
X1386298D01*
Y5649750D01*
X1395572D01*
Y5646659D01*
X1401754D01*
Y5649750D01*
Y5652841D01*
Y5655932D01*
Y5659023D01*
Y5662114D01*
X1398663D01*
Y5665206D01*
X1389389D01*
Y5668297D01*
D02*
G37*
G36*
X1219373Y5665206D02*
X1200826D01*
Y5662114D01*
X1197735D01*
Y5659023D01*
Y5655932D01*
X1194644D01*
Y5652841D01*
Y5649750D01*
X1191553D01*
Y5646659D01*
Y5643568D01*
Y5640476D01*
X1188461D01*
Y5637385D01*
Y5634294D01*
X1185371D01*
Y5631203D01*
Y5628111D01*
X1179188D01*
Y5631203D01*
Y5634294D01*
X1176097D01*
Y5637385D01*
Y5640476D01*
X1173006D01*
Y5643568D01*
Y5646659D01*
X1169915D01*
Y5649750D01*
Y5652841D01*
X1166823D01*
Y5655932D01*
Y5659023D01*
Y5662114D01*
X1163732D01*
Y5665206D01*
X1145185D01*
Y5662114D01*
Y5659023D01*
Y5655932D01*
X1148276D01*
Y5652841D01*
Y5649750D01*
X1151367D01*
Y5646659D01*
Y5643568D01*
X1154459D01*
Y5640476D01*
Y5637385D01*
X1157550D01*
Y5634294D01*
Y5631203D01*
X1160641D01*
Y5628111D01*
Y5625020D01*
X1163732D01*
Y5621929D01*
Y5618838D01*
X1166823D01*
Y5615746D01*
Y5612655D01*
X1169915D01*
Y5609564D01*
Y5606473D01*
Y5603382D01*
X1173006D01*
Y5600291D01*
Y5597199D01*
X1176097D01*
Y5594108D01*
Y5591017D01*
X1185371D01*
Y5594108D01*
X1188461D01*
Y5597199D01*
Y5600291D01*
X1191553D01*
Y5603382D01*
Y5606473D01*
X1194644D01*
Y5609564D01*
Y5612655D01*
X1197735D01*
Y5615746D01*
Y5618838D01*
X1200826D01*
Y5621929D01*
Y5625020D01*
X1203918D01*
Y5628111D01*
Y5631203D01*
Y5634294D01*
X1207009D01*
Y5637385D01*
Y5640476D01*
X1210100D01*
Y5643568D01*
Y5646659D01*
X1213191D01*
Y5649750D01*
Y5652841D01*
X1216283D01*
Y5655932D01*
Y5659023D01*
X1219373D01*
Y5662114D01*
Y5665206D01*
D02*
G37*
G36*
X1027719Y5702300D02*
X1009172D01*
Y5699208D01*
Y5696117D01*
Y5693027D01*
Y5689935D01*
Y5686844D01*
Y5683753D01*
Y5680662D01*
Y5677570D01*
Y5674479D01*
Y5671388D01*
Y5668297D01*
Y5665206D01*
Y5662114D01*
Y5659023D01*
Y5655932D01*
Y5652841D01*
Y5649750D01*
Y5646659D01*
Y5643568D01*
Y5640476D01*
Y5637385D01*
Y5634294D01*
Y5631203D01*
Y5628111D01*
Y5625020D01*
X1006081D01*
Y5621929D01*
Y5618838D01*
X1002990D01*
Y5615746D01*
X999899D01*
Y5612655D01*
X993717D01*
Y5609564D01*
X968987D01*
Y5612655D01*
X962805D01*
Y5615746D01*
X959713D01*
Y5618838D01*
X956622D01*
Y5621929D01*
X953531D01*
Y5625020D01*
Y5628111D01*
Y5631203D01*
Y5634294D01*
X950440D01*
Y5637385D01*
Y5640476D01*
Y5643568D01*
Y5646659D01*
Y5649750D01*
Y5652841D01*
Y5655932D01*
Y5659023D01*
Y5662114D01*
Y5665206D01*
Y5668297D01*
Y5671388D01*
Y5674479D01*
Y5677570D01*
Y5680662D01*
Y5683753D01*
Y5686844D01*
Y5689935D01*
Y5693027D01*
Y5696117D01*
Y5699208D01*
Y5702300D01*
X934983D01*
Y5699208D01*
Y5696117D01*
Y5693027D01*
Y5689935D01*
Y5686844D01*
Y5683753D01*
Y5680662D01*
Y5677570D01*
Y5674479D01*
Y5671388D01*
Y5668297D01*
Y5665206D01*
Y5662114D01*
Y5659023D01*
Y5655932D01*
Y5652841D01*
Y5649750D01*
Y5646659D01*
Y5643568D01*
Y5640476D01*
Y5637385D01*
Y5634294D01*
Y5631203D01*
Y5628111D01*
Y5625020D01*
Y5621929D01*
Y5618838D01*
Y5615746D01*
X938075D01*
Y5612655D01*
Y5609564D01*
X941166D01*
Y5606473D01*
X944257D01*
Y5603382D01*
X947348D01*
Y5600291D01*
X953531D01*
Y5597199D01*
X959713D01*
Y5594108D01*
X972078D01*
Y5591017D01*
X990625D01*
Y5594108D01*
X1002990D01*
Y5597199D01*
X1009172D01*
Y5600291D01*
X1015355D01*
Y5603382D01*
X1018446D01*
Y5606473D01*
X1021537D01*
Y5609564D01*
Y5612655D01*
X1024628D01*
Y5615746D01*
Y5618838D01*
X1027719D01*
Y5621929D01*
Y5625020D01*
Y5628111D01*
Y5631203D01*
Y5634294D01*
Y5637385D01*
Y5640476D01*
Y5643568D01*
Y5646659D01*
Y5649750D01*
Y5652841D01*
Y5655932D01*
Y5659023D01*
Y5662114D01*
Y5665206D01*
Y5668297D01*
Y5671388D01*
Y5674479D01*
Y5677570D01*
Y5680662D01*
Y5683753D01*
Y5686844D01*
Y5689935D01*
Y5693027D01*
Y5696117D01*
Y5699208D01*
Y5702300D01*
D02*
G37*
G36*
X1432666Y5665206D02*
X1417210D01*
Y5662114D01*
Y5659023D01*
Y5655932D01*
Y5652841D01*
Y5649750D01*
Y5646659D01*
Y5643568D01*
Y5640476D01*
Y5637385D01*
Y5634294D01*
Y5631203D01*
Y5628111D01*
Y5625020D01*
Y5621929D01*
Y5618838D01*
Y5615746D01*
Y5612655D01*
Y5609564D01*
Y5606473D01*
Y5603382D01*
Y5600291D01*
Y5597199D01*
Y5594108D01*
X1432666D01*
Y5597199D01*
Y5600291D01*
Y5603382D01*
Y5606473D01*
Y5609564D01*
Y5612655D01*
Y5615746D01*
Y5618838D01*
Y5621929D01*
Y5625020D01*
Y5628111D01*
Y5631203D01*
Y5634294D01*
Y5637385D01*
Y5640476D01*
Y5643568D01*
Y5646659D01*
Y5649750D01*
Y5652841D01*
Y5655932D01*
Y5659023D01*
Y5662114D01*
Y5665206D01*
D02*
G37*
G36*
X1139003D02*
X1123546D01*
Y5662114D01*
Y5659023D01*
Y5655932D01*
Y5652841D01*
Y5649750D01*
Y5646659D01*
Y5643568D01*
Y5640476D01*
Y5637385D01*
Y5634294D01*
Y5631203D01*
Y5628111D01*
Y5625020D01*
Y5621929D01*
Y5618838D01*
Y5615746D01*
Y5612655D01*
Y5609564D01*
Y5606473D01*
Y5603382D01*
Y5600291D01*
Y5597199D01*
Y5594108D01*
X1139003D01*
Y5597199D01*
Y5600291D01*
Y5603382D01*
Y5606473D01*
Y5609564D01*
Y5612655D01*
Y5615746D01*
Y5618838D01*
Y5621929D01*
Y5625020D01*
Y5628111D01*
Y5631203D01*
Y5634294D01*
Y5637385D01*
Y5640476D01*
Y5643568D01*
Y5646659D01*
Y5649750D01*
Y5652841D01*
Y5655932D01*
Y5659023D01*
Y5662114D01*
Y5665206D01*
D02*
G37*
G36*
X1562496Y5668297D02*
X1540858D01*
Y5665206D01*
X1531584D01*
Y5662114D01*
X1528494D01*
Y5659023D01*
X1525402D01*
Y5655932D01*
Y5652841D01*
Y5649750D01*
Y5646659D01*
Y5643568D01*
X1531584D01*
Y5646659D01*
X1537767D01*
Y5649750D01*
X1543949D01*
Y5652841D01*
X1556314D01*
Y5649750D01*
X1559405D01*
Y5646659D01*
X1562496D01*
Y5643568D01*
Y5640476D01*
X1559405D01*
Y5637385D01*
X1547041D01*
Y5634294D01*
X1540858D01*
Y5631203D01*
X1534675D01*
Y5628111D01*
X1528494D01*
Y5625020D01*
X1525402D01*
Y5621929D01*
Y5618838D01*
Y5615746D01*
X1522311D01*
Y5612655D01*
Y5609564D01*
Y5606473D01*
Y5603382D01*
X1525402D01*
Y5600291D01*
Y5597199D01*
X1528494D01*
Y5594108D01*
X1537767D01*
Y5591017D01*
X1550132D01*
Y5594108D01*
X1559405D01*
Y5597199D01*
X1565587D01*
Y5594108D01*
X1568679D01*
Y5591017D01*
X1577952D01*
Y5594108D01*
X1587226D01*
Y5597199D01*
X1590317D01*
Y5600291D01*
Y5603382D01*
Y5606473D01*
Y5609564D01*
X1584134D01*
Y5606473D01*
X1581043D01*
Y5609564D01*
Y5612655D01*
Y5615746D01*
Y5618838D01*
Y5621929D01*
Y5625020D01*
Y5628111D01*
Y5631203D01*
Y5634294D01*
Y5637385D01*
Y5640476D01*
Y5643568D01*
Y5646659D01*
Y5649750D01*
X1577952D01*
Y5652841D01*
Y5655932D01*
Y5659023D01*
X1574861D01*
Y5662114D01*
X1571770D01*
Y5665206D01*
X1562496D01*
Y5668297D01*
D02*
G37*
G36*
X1265742D02*
X1244103D01*
Y5665206D01*
X1234830D01*
Y5662114D01*
X1231738D01*
Y5659023D01*
X1228647D01*
Y5655932D01*
X1225556D01*
Y5652841D01*
X1222465D01*
Y5649750D01*
Y5646659D01*
X1219373D01*
Y5643568D01*
Y5640476D01*
Y5637385D01*
Y5634294D01*
Y5631203D01*
Y5628111D01*
Y5625020D01*
Y5621929D01*
Y5618838D01*
Y5615746D01*
X1222465D01*
Y5612655D01*
Y5609564D01*
X1225556D01*
Y5606473D01*
Y5603382D01*
X1228647D01*
Y5600291D01*
X1231738D01*
Y5597199D01*
X1237921D01*
Y5594108D01*
X1247194D01*
Y5591017D01*
X1262650D01*
Y5594108D01*
X1275015D01*
Y5597199D01*
X1284289D01*
Y5600291D01*
X1287380D01*
Y5603382D01*
Y5606473D01*
Y5609564D01*
Y5612655D01*
Y5615746D01*
Y5618838D01*
X1284289D01*
Y5615746D01*
X1278106D01*
Y5612655D01*
X1271924D01*
Y5609564D01*
X1247194D01*
Y5612655D01*
X1244103D01*
Y5615746D01*
X1241012D01*
Y5618838D01*
X1237921D01*
Y5621929D01*
Y5625020D01*
X1290471D01*
Y5628111D01*
Y5631203D01*
Y5634294D01*
X1287380D01*
Y5637385D01*
Y5640476D01*
Y5643568D01*
Y5646659D01*
Y5649750D01*
X1284289D01*
Y5652841D01*
Y5655932D01*
X1281198D01*
Y5659023D01*
X1278106D01*
Y5662114D01*
X1275015D01*
Y5665206D01*
X1265742D01*
Y5668297D01*
D02*
G37*
G36*
X1370842Y5510646D02*
X1358477D01*
Y5507555D01*
Y5504463D01*
X1355386D01*
Y5501372D01*
Y5498281D01*
Y5495190D01*
X1358477D01*
Y5492099D01*
X1373933D01*
Y5495190D01*
Y5498281D01*
Y5501372D01*
Y5504463D01*
Y5507555D01*
X1370842D01*
Y5510646D01*
D02*
G37*
G36*
X1593408Y5516828D02*
X1577952D01*
Y5513737D01*
Y5510646D01*
Y5507555D01*
Y5504463D01*
Y5501372D01*
Y5498281D01*
Y5495190D01*
Y5492099D01*
Y5489008D01*
Y5485916D01*
Y5482825D01*
Y5479734D01*
X1571770D01*
Y5482825D01*
X1547041D01*
Y5479734D01*
X1540858D01*
Y5476643D01*
X1534675D01*
Y5473551D01*
X1531584D01*
Y5470460D01*
Y5467369D01*
X1528494D01*
Y5464278D01*
Y5461187D01*
X1525402D01*
Y5458096D01*
Y5455005D01*
Y5451913D01*
Y5448822D01*
Y5445731D01*
Y5442640D01*
Y5439548D01*
Y5436457D01*
Y5433366D01*
Y5430275D01*
Y5427183D01*
X1528494D01*
Y5424092D01*
Y5421001D01*
X1531584D01*
Y5417910D01*
X1534675D01*
Y5414818D01*
X1537767D01*
Y5411728D01*
X1543949D01*
Y5408636D01*
X1574861D01*
Y5411728D01*
X1577952D01*
Y5408636D01*
X1593408D01*
Y5411728D01*
Y5414818D01*
Y5417910D01*
Y5421001D01*
Y5424092D01*
Y5427183D01*
Y5430275D01*
Y5433366D01*
Y5436457D01*
Y5439548D01*
Y5442640D01*
Y5445731D01*
Y5448822D01*
Y5451913D01*
Y5455005D01*
Y5458096D01*
Y5461187D01*
Y5464278D01*
Y5467369D01*
Y5470460D01*
Y5473551D01*
Y5476643D01*
Y5479734D01*
Y5482825D01*
Y5485916D01*
Y5489008D01*
Y5492099D01*
Y5495190D01*
Y5498281D01*
Y5501372D01*
Y5504463D01*
Y5507555D01*
Y5510646D01*
Y5513737D01*
Y5516828D01*
D02*
G37*
G36*
X1098817D02*
X1080270D01*
Y5513737D01*
Y5510646D01*
Y5507555D01*
Y5504463D01*
Y5501372D01*
Y5498281D01*
Y5495190D01*
Y5492099D01*
Y5489008D01*
Y5485916D01*
Y5482825D01*
Y5479734D01*
X1077178D01*
Y5482825D01*
X1052449D01*
Y5479734D01*
X1046266D01*
Y5476643D01*
X1040084D01*
Y5473551D01*
X1036993D01*
Y5470460D01*
Y5467369D01*
X1033902D01*
Y5464278D01*
X1030810D01*
Y5461187D01*
Y5458096D01*
Y5455005D01*
Y5451913D01*
Y5448822D01*
Y5445731D01*
Y5442640D01*
Y5439548D01*
Y5436457D01*
Y5433366D01*
Y5430275D01*
Y5427183D01*
X1033902D01*
Y5424092D01*
Y5421001D01*
X1036993D01*
Y5417910D01*
X1040084D01*
Y5414818D01*
X1043175D01*
Y5411728D01*
X1049358D01*
Y5408636D01*
X1098817D01*
Y5411728D01*
Y5414818D01*
Y5417910D01*
Y5421001D01*
Y5424092D01*
Y5427183D01*
Y5430275D01*
Y5433366D01*
Y5436457D01*
Y5439548D01*
Y5442640D01*
Y5445731D01*
Y5448822D01*
Y5451913D01*
Y5455005D01*
Y5458096D01*
Y5461187D01*
Y5464278D01*
Y5467369D01*
Y5470460D01*
Y5473551D01*
Y5476643D01*
Y5479734D01*
Y5482825D01*
Y5485916D01*
Y5489008D01*
Y5492099D01*
Y5495190D01*
Y5498281D01*
Y5501372D01*
Y5504463D01*
Y5507555D01*
Y5510646D01*
Y5513737D01*
Y5516828D01*
D02*
G37*
G36*
X1006081Y5482825D02*
X981352D01*
Y5479734D01*
X975169D01*
Y5482825D01*
X956622D01*
Y5479734D01*
Y5476643D01*
Y5473551D01*
Y5470460D01*
Y5467369D01*
Y5464278D01*
Y5461187D01*
Y5458096D01*
Y5455005D01*
Y5451913D01*
Y5448822D01*
Y5445731D01*
Y5442640D01*
Y5439548D01*
Y5436457D01*
Y5433366D01*
Y5430275D01*
Y5427183D01*
Y5424092D01*
Y5421001D01*
Y5417910D01*
Y5414818D01*
Y5411728D01*
Y5408636D01*
X975169D01*
Y5411728D01*
Y5414818D01*
Y5417910D01*
Y5421001D01*
Y5424092D01*
Y5427183D01*
Y5430275D01*
Y5433366D01*
Y5436457D01*
Y5439548D01*
Y5442640D01*
Y5445731D01*
Y5448822D01*
Y5451913D01*
Y5455005D01*
Y5458096D01*
Y5461187D01*
X978260D01*
Y5464278D01*
X981352D01*
Y5467369D01*
X996807D01*
Y5464278D01*
X999899D01*
Y5461187D01*
Y5458096D01*
X1002990D01*
Y5455005D01*
Y5451913D01*
Y5448822D01*
Y5445731D01*
Y5442640D01*
Y5439548D01*
Y5436457D01*
Y5433366D01*
Y5430275D01*
Y5427183D01*
Y5424092D01*
Y5421001D01*
Y5417910D01*
Y5414818D01*
Y5411728D01*
Y5408636D01*
X1018446D01*
Y5411728D01*
Y5414818D01*
Y5417910D01*
Y5421001D01*
Y5424092D01*
Y5427183D01*
Y5430275D01*
Y5433366D01*
Y5436457D01*
Y5439548D01*
Y5442640D01*
Y5445731D01*
Y5448822D01*
Y5451913D01*
Y5455005D01*
Y5458096D01*
Y5461187D01*
Y5464278D01*
Y5467369D01*
Y5470460D01*
X1015355D01*
Y5473551D01*
X1012263D01*
Y5476643D01*
X1009172D01*
Y5479734D01*
X1006081D01*
Y5482825D01*
D02*
G37*
G36*
X1346113D02*
X1324474D01*
Y5479734D01*
X1321383D01*
Y5476643D01*
X1318292D01*
Y5473551D01*
Y5470460D01*
X1315201D01*
Y5473551D01*
Y5476643D01*
Y5479734D01*
Y5482825D01*
X1299745D01*
Y5479734D01*
Y5476643D01*
Y5473551D01*
Y5470460D01*
Y5467369D01*
Y5464278D01*
Y5461187D01*
Y5458096D01*
Y5455005D01*
Y5451913D01*
Y5448822D01*
Y5445731D01*
Y5442640D01*
Y5439548D01*
Y5436457D01*
Y5433366D01*
Y5430275D01*
Y5427183D01*
Y5424092D01*
Y5421001D01*
Y5417910D01*
Y5414818D01*
Y5411728D01*
Y5408636D01*
X1315201D01*
Y5411728D01*
Y5414818D01*
Y5417910D01*
Y5421001D01*
Y5424092D01*
Y5427183D01*
Y5430275D01*
Y5433366D01*
Y5436457D01*
Y5439548D01*
Y5442640D01*
Y5445731D01*
Y5448822D01*
Y5451913D01*
X1318292D01*
Y5455005D01*
Y5458096D01*
X1321383D01*
Y5461187D01*
Y5464278D01*
X1327566D01*
Y5467369D01*
X1333748D01*
Y5464278D01*
X1339930D01*
Y5461187D01*
X1346113D01*
Y5464278D01*
X1349204D01*
Y5467369D01*
Y5470460D01*
X1352295D01*
Y5473551D01*
Y5476643D01*
X1349204D01*
Y5479734D01*
X1346113D01*
Y5482825D01*
D02*
G37*
G36*
X1225556D02*
X1197735D01*
Y5479734D01*
X1194644D01*
Y5476643D01*
X1191553D01*
Y5473551D01*
X1188461D01*
Y5470460D01*
Y5467369D01*
Y5464278D01*
Y5461187D01*
Y5458096D01*
Y5455005D01*
Y5451913D01*
X1191553D01*
Y5448822D01*
X1194644D01*
Y5445731D01*
X1197735D01*
Y5442640D01*
X1203918D01*
Y5439548D01*
X1210100D01*
Y5436457D01*
X1213191D01*
Y5433366D01*
X1219373D01*
Y5430275D01*
Y5427183D01*
Y5424092D01*
X1200826D01*
Y5427183D01*
X1194644D01*
Y5430275D01*
X1185371D01*
Y5427183D01*
Y5424092D01*
Y5421001D01*
Y5417910D01*
Y5414818D01*
X1188461D01*
Y5411728D01*
X1194644D01*
Y5408636D01*
X1228647D01*
Y5411728D01*
X1231738D01*
Y5414818D01*
X1234830D01*
Y5417910D01*
X1237921D01*
Y5421001D01*
Y5424092D01*
Y5427183D01*
Y5430275D01*
Y5433366D01*
Y5436457D01*
Y5439548D01*
X1234830D01*
Y5442640D01*
X1231738D01*
Y5445731D01*
X1228647D01*
Y5448822D01*
X1222465D01*
Y5451913D01*
X1219373D01*
Y5455005D01*
X1213191D01*
Y5458096D01*
X1207009D01*
Y5461187D01*
Y5464278D01*
Y5467369D01*
X1219373D01*
Y5464278D01*
X1228647D01*
Y5461187D01*
X1234830D01*
Y5464278D01*
Y5467369D01*
Y5470460D01*
Y5473551D01*
Y5476643D01*
Y5479734D01*
X1225556D01*
Y5482825D01*
D02*
G37*
G36*
X1176097D02*
X1160641D01*
Y5479734D01*
Y5476643D01*
Y5473551D01*
Y5470460D01*
Y5467369D01*
Y5464278D01*
Y5461187D01*
Y5458096D01*
Y5455005D01*
Y5451913D01*
Y5448822D01*
Y5445731D01*
Y5442640D01*
Y5439548D01*
Y5436457D01*
Y5433366D01*
Y5430275D01*
X1157550D01*
Y5427183D01*
X1154459D01*
Y5424092D01*
X1135911D01*
Y5427183D01*
X1132820D01*
Y5430275D01*
Y5433366D01*
X1129729D01*
Y5436457D01*
Y5439548D01*
Y5442640D01*
Y5445731D01*
Y5448822D01*
Y5451913D01*
Y5455005D01*
Y5458096D01*
Y5461187D01*
Y5464278D01*
Y5467369D01*
Y5470460D01*
Y5473551D01*
Y5476643D01*
Y5479734D01*
Y5482825D01*
X1111182D01*
Y5479734D01*
Y5476643D01*
Y5473551D01*
Y5470460D01*
Y5467369D01*
Y5464278D01*
Y5461187D01*
Y5458096D01*
Y5455005D01*
Y5451913D01*
Y5448822D01*
Y5445731D01*
Y5442640D01*
Y5439548D01*
Y5436457D01*
Y5433366D01*
Y5430275D01*
Y5427183D01*
X1114273D01*
Y5424092D01*
Y5421001D01*
X1117364D01*
Y5417910D01*
Y5414818D01*
X1120455D01*
Y5411728D01*
X1126638D01*
Y5408636D01*
X1151367D01*
Y5411728D01*
X1157550D01*
Y5414818D01*
X1160641D01*
Y5411728D01*
Y5408636D01*
X1176097D01*
Y5411728D01*
Y5414818D01*
Y5417910D01*
Y5421001D01*
Y5424092D01*
Y5427183D01*
Y5430275D01*
Y5433366D01*
Y5436457D01*
Y5439548D01*
Y5442640D01*
Y5445731D01*
Y5448822D01*
Y5451913D01*
Y5455005D01*
Y5458096D01*
Y5461187D01*
Y5464278D01*
Y5467369D01*
Y5470460D01*
Y5473551D01*
Y5476643D01*
Y5479734D01*
Y5482825D01*
D02*
G37*
G36*
X1652141D02*
X1627411D01*
Y5479734D01*
X1618138D01*
Y5476643D01*
X1615047D01*
Y5473551D01*
X1611956D01*
Y5470460D01*
X1608864D01*
Y5467369D01*
Y5464278D01*
X1605773D01*
Y5461187D01*
Y5458096D01*
Y5455005D01*
Y5451913D01*
Y5448822D01*
Y5445731D01*
Y5442640D01*
Y5439548D01*
Y5436457D01*
Y5433366D01*
Y5430275D01*
Y5427183D01*
X1608864D01*
Y5424092D01*
Y5421001D01*
X1611956D01*
Y5417910D01*
X1615047D01*
Y5414818D01*
X1618138D01*
Y5411728D01*
X1624320D01*
Y5408636D01*
X1658324D01*
Y5411728D01*
X1667597D01*
Y5414818D01*
X1673779D01*
Y5417910D01*
Y5421001D01*
Y5424092D01*
Y5427183D01*
Y5430275D01*
Y5433366D01*
X1667597D01*
Y5430275D01*
X1661415D01*
Y5427183D01*
X1655232D01*
Y5424092D01*
X1633594D01*
Y5427183D01*
X1627411D01*
Y5430275D01*
Y5433366D01*
X1624320D01*
Y5436457D01*
Y5439548D01*
X1621229D01*
Y5442640D01*
X1673779D01*
Y5445731D01*
Y5448822D01*
Y5451913D01*
Y5455005D01*
Y5458096D01*
Y5461187D01*
X1670688D01*
Y5464278D01*
Y5467369D01*
X1667597D01*
Y5470460D01*
Y5473551D01*
X1664506D01*
Y5476643D01*
X1661415D01*
Y5479734D01*
X1652141D01*
Y5482825D01*
D02*
G37*
G36*
X1472852Y5516828D02*
X1457395D01*
Y5513737D01*
Y5510646D01*
Y5507555D01*
Y5504463D01*
Y5501372D01*
Y5498281D01*
Y5495190D01*
Y5492099D01*
Y5489008D01*
Y5485916D01*
Y5482825D01*
Y5479734D01*
Y5476643D01*
Y5473551D01*
Y5470460D01*
Y5467369D01*
Y5464278D01*
Y5461187D01*
Y5458096D01*
Y5455005D01*
Y5451913D01*
Y5448822D01*
Y5445731D01*
Y5442640D01*
Y5439548D01*
Y5436457D01*
Y5433366D01*
Y5430275D01*
Y5427183D01*
Y5424092D01*
Y5421001D01*
Y5417910D01*
Y5414818D01*
Y5411728D01*
Y5408636D01*
X1472852D01*
Y5411728D01*
Y5414818D01*
Y5417910D01*
Y5421001D01*
Y5424092D01*
Y5427183D01*
Y5430275D01*
Y5433366D01*
Y5436457D01*
Y5439548D01*
Y5442640D01*
Y5445731D01*
Y5448822D01*
Y5451913D01*
Y5455005D01*
Y5458096D01*
Y5461187D01*
Y5464278D01*
Y5467369D01*
Y5470460D01*
Y5473551D01*
Y5476643D01*
Y5479734D01*
Y5482825D01*
Y5485916D01*
Y5489008D01*
Y5492099D01*
Y5495190D01*
Y5498281D01*
Y5501372D01*
Y5504463D01*
Y5507555D01*
Y5510646D01*
Y5513737D01*
Y5516828D01*
D02*
G37*
G36*
X1426484Y5482825D02*
X1401754D01*
Y5479734D01*
X1392481D01*
Y5476643D01*
X1386298D01*
Y5473551D01*
Y5470460D01*
Y5467369D01*
Y5464278D01*
Y5461187D01*
Y5458096D01*
X1392481D01*
Y5461187D01*
X1398663D01*
Y5464278D01*
X1404845D01*
Y5467369D01*
X1420301D01*
Y5464278D01*
X1423392D01*
Y5461187D01*
Y5458096D01*
Y5455005D01*
X1417210D01*
Y5451913D01*
X1407936D01*
Y5448822D01*
X1398663D01*
Y5445731D01*
X1395572D01*
Y5442640D01*
X1389389D01*
Y5439548D01*
X1386298D01*
Y5436457D01*
Y5433366D01*
X1383207D01*
Y5430275D01*
Y5427183D01*
Y5424092D01*
Y5421001D01*
X1386298D01*
Y5417910D01*
Y5414818D01*
X1389389D01*
Y5411728D01*
X1392481D01*
Y5408636D01*
X1420301D01*
Y5411728D01*
X1426484D01*
Y5408636D01*
X1445031D01*
Y5411728D01*
X1451213D01*
Y5414818D01*
Y5417910D01*
Y5421001D01*
Y5424092D01*
X1445031D01*
Y5421001D01*
X1441940D01*
Y5424092D01*
Y5427183D01*
Y5430275D01*
Y5433366D01*
Y5436457D01*
Y5439548D01*
Y5442640D01*
Y5445731D01*
Y5448822D01*
Y5451913D01*
Y5455005D01*
Y5458096D01*
Y5461187D01*
Y5464278D01*
Y5467369D01*
Y5470460D01*
X1438849D01*
Y5473551D01*
Y5476643D01*
X1432666D01*
Y5479734D01*
X1426484D01*
Y5482825D01*
D02*
G37*
G36*
X1373933D02*
X1358477D01*
Y5479734D01*
Y5476643D01*
Y5473551D01*
Y5470460D01*
Y5467369D01*
Y5464278D01*
Y5461187D01*
Y5458096D01*
Y5455005D01*
Y5451913D01*
Y5448822D01*
Y5445731D01*
Y5442640D01*
Y5439548D01*
Y5436457D01*
Y5433366D01*
Y5430275D01*
Y5427183D01*
Y5424092D01*
Y5421001D01*
Y5417910D01*
Y5414818D01*
Y5411728D01*
Y5408636D01*
X1373933D01*
Y5411728D01*
Y5414818D01*
Y5417910D01*
Y5421001D01*
Y5424092D01*
Y5427183D01*
Y5430275D01*
Y5433366D01*
Y5436457D01*
Y5439548D01*
Y5442640D01*
Y5445731D01*
Y5448822D01*
Y5451913D01*
Y5455005D01*
Y5458096D01*
Y5461187D01*
Y5464278D01*
Y5467369D01*
Y5470460D01*
Y5473551D01*
Y5476643D01*
Y5479734D01*
Y5482825D01*
D02*
G37*
G36*
X1268832Y5498281D02*
X1262650D01*
Y5495190D01*
X1259559D01*
Y5492099D01*
X1256468D01*
Y5489008D01*
X1253377D01*
Y5485916D01*
X1250285D01*
Y5482825D01*
Y5479734D01*
X1247194D01*
Y5476643D01*
X1244103D01*
Y5473551D01*
X1241012D01*
Y5470460D01*
Y5467369D01*
X1250285D01*
Y5464278D01*
Y5461187D01*
Y5458096D01*
Y5455005D01*
Y5451913D01*
Y5448822D01*
Y5445731D01*
Y5442640D01*
Y5439548D01*
Y5436457D01*
Y5433366D01*
Y5430275D01*
X1253377D01*
Y5427183D01*
Y5424092D01*
Y5421001D01*
Y5417910D01*
Y5414818D01*
X1256468D01*
Y5411728D01*
X1259559D01*
Y5408636D01*
X1287380D01*
Y5411728D01*
X1290471D01*
Y5414818D01*
Y5417910D01*
Y5421001D01*
Y5424092D01*
Y5427183D01*
X1284289D01*
Y5424092D01*
X1271924D01*
Y5427183D01*
X1268832D01*
Y5430275D01*
Y5433366D01*
Y5436457D01*
Y5439548D01*
Y5442640D01*
Y5445731D01*
Y5448822D01*
Y5451913D01*
Y5455005D01*
Y5458096D01*
Y5461187D01*
Y5464278D01*
Y5467369D01*
X1290471D01*
Y5470460D01*
Y5473551D01*
Y5476643D01*
Y5479734D01*
Y5482825D01*
X1268832D01*
Y5485916D01*
Y5489008D01*
Y5492099D01*
Y5495190D01*
Y5498281D01*
D02*
G37*
G36*
X938075Y5516828D02*
X919528D01*
Y5513737D01*
Y5510646D01*
Y5507555D01*
Y5504463D01*
Y5501372D01*
Y5498281D01*
Y5495190D01*
Y5492099D01*
Y5489008D01*
Y5485916D01*
Y5482825D01*
Y5479734D01*
Y5476643D01*
Y5473551D01*
Y5470460D01*
Y5467369D01*
Y5464278D01*
Y5461187D01*
Y5458096D01*
Y5455005D01*
Y5451913D01*
Y5448822D01*
Y5445731D01*
Y5442640D01*
Y5439548D01*
Y5436457D01*
Y5433366D01*
Y5430275D01*
Y5427183D01*
Y5424092D01*
Y5421001D01*
Y5417910D01*
Y5414818D01*
Y5411728D01*
Y5408636D01*
X938075D01*
Y5411728D01*
Y5414818D01*
Y5417910D01*
Y5421001D01*
Y5424092D01*
Y5427183D01*
Y5430275D01*
Y5433366D01*
Y5436457D01*
Y5439548D01*
Y5442640D01*
Y5445731D01*
Y5448822D01*
Y5451913D01*
Y5455005D01*
Y5458096D01*
Y5461187D01*
Y5464278D01*
Y5467369D01*
Y5470460D01*
Y5473551D01*
Y5476643D01*
Y5479734D01*
Y5482825D01*
Y5485916D01*
Y5489008D01*
Y5492099D01*
Y5495190D01*
Y5498281D01*
Y5501372D01*
Y5504463D01*
Y5507555D01*
Y5510646D01*
Y5513737D01*
Y5516828D01*
D02*
G37*
G36*
X1033902Y5334448D02*
X1002990D01*
Y5331357D01*
X996807D01*
Y5328265D01*
X993717D01*
Y5325174D01*
X990625D01*
Y5322083D01*
X987534D01*
Y5318992D01*
Y5315900D01*
Y5312809D01*
X984443D01*
Y5309718D01*
Y5306627D01*
Y5303536D01*
Y5300445D01*
Y5297353D01*
X987534D01*
Y5294262D01*
Y5291171D01*
X990625D01*
Y5288080D01*
Y5284988D01*
X996807D01*
Y5281897D01*
X999899D01*
Y5278806D01*
X1002990D01*
Y5275715D01*
X1006081D01*
Y5272624D01*
X1012263D01*
Y5269533D01*
X1015355D01*
Y5266442D01*
X1021537D01*
Y5263350D01*
X1024628D01*
Y5260259D01*
X1027719D01*
Y5257168D01*
X1030810D01*
Y5254077D01*
Y5250985D01*
Y5247894D01*
X1027719D01*
Y5244803D01*
X1024628D01*
Y5241712D01*
X1018446D01*
Y5238620D01*
X1012263D01*
Y5241712D01*
X1002990D01*
Y5244803D01*
X999899D01*
Y5247894D01*
X993717D01*
Y5250985D01*
X990625D01*
Y5254077D01*
X984443D01*
Y5250985D01*
Y5247894D01*
Y5244803D01*
Y5241712D01*
Y5238620D01*
Y5235529D01*
Y5232438D01*
X987534D01*
Y5229347D01*
X993717D01*
Y5226256D01*
X999899D01*
Y5223165D01*
X1030810D01*
Y5226256D01*
X1036993D01*
Y5229347D01*
X1040084D01*
Y5232438D01*
X1043175D01*
Y5235529D01*
X1046266D01*
Y5238620D01*
Y5241712D01*
X1049358D01*
Y5244803D01*
Y5247894D01*
Y5250985D01*
Y5254077D01*
Y5257168D01*
Y5260259D01*
X1046266D01*
Y5263350D01*
Y5266442D01*
Y5269533D01*
X1043175D01*
Y5272624D01*
X1040084D01*
Y5275715D01*
X1036993D01*
Y5278806D01*
X1033902D01*
Y5281897D01*
X1030810D01*
Y5284988D01*
X1024628D01*
Y5288080D01*
X1021537D01*
Y5291171D01*
X1015355D01*
Y5294262D01*
X1012263D01*
Y5297353D01*
X1009172D01*
Y5300445D01*
X1006081D01*
Y5303536D01*
X1002990D01*
Y5306627D01*
Y5309718D01*
Y5312809D01*
X1006081D01*
Y5315900D01*
X1012263D01*
Y5318992D01*
X1024628D01*
Y5315900D01*
X1030810D01*
Y5312809D01*
X1036993D01*
Y5309718D01*
X1040084D01*
Y5306627D01*
X1043175D01*
Y5309718D01*
Y5312809D01*
Y5315900D01*
Y5318992D01*
Y5322083D01*
Y5325174D01*
Y5328265D01*
X1040084D01*
Y5331357D01*
X1033902D01*
Y5334448D01*
D02*
G37*
G36*
X1463578Y5331357D02*
X1448122D01*
Y5328265D01*
Y5325174D01*
Y5322083D01*
Y5318992D01*
Y5315900D01*
Y5312809D01*
Y5309718D01*
Y5306627D01*
Y5303536D01*
Y5300445D01*
Y5297353D01*
Y5294262D01*
X1445031D01*
Y5297353D01*
X1414119D01*
Y5294262D01*
X1407936D01*
Y5291171D01*
X1404845D01*
Y5288080D01*
X1401754D01*
Y5284988D01*
Y5281897D01*
X1398663D01*
Y5278806D01*
X1395572D01*
Y5275715D01*
Y5272624D01*
Y5269533D01*
Y5266442D01*
Y5263350D01*
Y5260259D01*
Y5257168D01*
Y5254077D01*
Y5250985D01*
Y5247894D01*
Y5244803D01*
X1398663D01*
Y5241712D01*
Y5238620D01*
X1401754D01*
Y5235529D01*
Y5232438D01*
X1404845D01*
Y5229347D01*
X1411028D01*
Y5226256D01*
X1417210D01*
Y5223165D01*
X1441940D01*
Y5226256D01*
X1463578D01*
Y5229347D01*
Y5232438D01*
Y5235529D01*
Y5238620D01*
Y5241712D01*
Y5244803D01*
Y5247894D01*
Y5250985D01*
Y5254077D01*
Y5257168D01*
Y5260259D01*
Y5263350D01*
Y5266442D01*
Y5269533D01*
Y5272624D01*
Y5275715D01*
Y5278806D01*
Y5281897D01*
Y5284988D01*
Y5288080D01*
Y5291171D01*
Y5294262D01*
Y5297353D01*
Y5300445D01*
Y5303536D01*
Y5306627D01*
Y5309718D01*
Y5312809D01*
Y5315900D01*
Y5318992D01*
Y5322083D01*
Y5325174D01*
Y5328265D01*
Y5331357D01*
D02*
G37*
G36*
X1179188Y5297353D02*
X1151367D01*
Y5294262D01*
X1145185D01*
Y5297353D01*
X1126638D01*
Y5294262D01*
Y5291171D01*
Y5288080D01*
Y5284988D01*
Y5281897D01*
Y5278806D01*
Y5275715D01*
Y5272624D01*
Y5269533D01*
Y5266442D01*
Y5263350D01*
Y5260259D01*
Y5257168D01*
Y5254077D01*
Y5250985D01*
Y5247894D01*
Y5244803D01*
Y5241712D01*
Y5238620D01*
Y5235529D01*
Y5232438D01*
Y5229347D01*
Y5226256D01*
X1145185D01*
Y5229347D01*
Y5232438D01*
Y5235529D01*
Y5238620D01*
Y5241712D01*
Y5244803D01*
Y5247894D01*
Y5250985D01*
Y5254077D01*
Y5257168D01*
Y5260259D01*
Y5263350D01*
Y5266442D01*
Y5269533D01*
Y5272624D01*
Y5275715D01*
X1148276D01*
Y5278806D01*
X1151367D01*
Y5281897D01*
X1169915D01*
Y5278806D01*
Y5275715D01*
X1173006D01*
Y5272624D01*
Y5269533D01*
Y5266442D01*
Y5263350D01*
Y5260259D01*
Y5257168D01*
Y5254077D01*
Y5250985D01*
Y5247894D01*
Y5244803D01*
Y5241712D01*
Y5238620D01*
Y5235529D01*
Y5232438D01*
Y5229347D01*
Y5226256D01*
X1191553D01*
Y5229347D01*
Y5232438D01*
Y5235529D01*
Y5238620D01*
Y5241712D01*
Y5244803D01*
Y5247894D01*
Y5250985D01*
Y5254077D01*
Y5257168D01*
Y5260259D01*
Y5263350D01*
Y5266442D01*
Y5269533D01*
Y5272624D01*
X1188461D01*
Y5275715D01*
Y5278806D01*
Y5281897D01*
Y5284988D01*
Y5288080D01*
X1185371D01*
Y5291171D01*
X1182279D01*
Y5294262D01*
X1179188D01*
Y5297353D01*
D02*
G37*
G36*
X1373933D02*
X1346113D01*
Y5294262D01*
X1339930D01*
Y5291171D01*
X1336839D01*
Y5294262D01*
Y5297353D01*
X1321383D01*
Y5294262D01*
Y5291171D01*
Y5288080D01*
Y5284988D01*
Y5281897D01*
Y5278806D01*
Y5275715D01*
Y5272624D01*
Y5269533D01*
Y5266442D01*
Y5263350D01*
Y5260259D01*
Y5257168D01*
Y5254077D01*
Y5250985D01*
Y5247894D01*
Y5244803D01*
Y5241712D01*
Y5238620D01*
Y5235529D01*
Y5232438D01*
Y5229347D01*
Y5226256D01*
X1336839D01*
Y5229347D01*
Y5232438D01*
Y5235529D01*
Y5238620D01*
Y5241712D01*
Y5244803D01*
Y5247894D01*
Y5250985D01*
Y5254077D01*
Y5257168D01*
Y5260259D01*
Y5263350D01*
Y5266442D01*
Y5269533D01*
Y5272624D01*
Y5275715D01*
X1339930D01*
Y5278806D01*
X1343021D01*
Y5281897D01*
X1361569D01*
Y5278806D01*
X1364659D01*
Y5275715D01*
X1367751D01*
Y5272624D01*
Y5269533D01*
Y5266442D01*
Y5263350D01*
Y5260259D01*
Y5257168D01*
Y5254077D01*
Y5250985D01*
Y5247894D01*
Y5244803D01*
Y5241712D01*
Y5238620D01*
Y5235529D01*
Y5232438D01*
Y5229347D01*
Y5226256D01*
X1383207D01*
Y5229347D01*
Y5232438D01*
Y5235529D01*
Y5238620D01*
Y5241712D01*
Y5244803D01*
Y5247894D01*
Y5250985D01*
Y5254077D01*
Y5257168D01*
Y5260259D01*
Y5263350D01*
Y5266442D01*
Y5269533D01*
Y5272624D01*
Y5275715D01*
Y5278806D01*
Y5281897D01*
Y5284988D01*
X1380116D01*
Y5288080D01*
Y5291171D01*
X1377024D01*
Y5294262D01*
X1373933D01*
Y5297353D01*
D02*
G37*
G36*
X1599591D02*
X1581043D01*
Y5294262D01*
X1577952D01*
Y5291171D01*
X1574861D01*
Y5288080D01*
X1571770D01*
Y5291171D01*
Y5294262D01*
Y5297353D01*
X1556314D01*
Y5294262D01*
Y5291171D01*
Y5288080D01*
Y5284988D01*
Y5281897D01*
Y5278806D01*
Y5275715D01*
Y5272624D01*
Y5269533D01*
Y5266442D01*
Y5263350D01*
Y5260259D01*
Y5257168D01*
Y5254077D01*
Y5250985D01*
Y5247894D01*
Y5244803D01*
Y5241712D01*
Y5238620D01*
Y5235529D01*
Y5232438D01*
Y5229347D01*
Y5226256D01*
X1571770D01*
Y5229347D01*
Y5232438D01*
Y5235529D01*
Y5238620D01*
Y5241712D01*
Y5244803D01*
Y5247894D01*
Y5250985D01*
Y5254077D01*
Y5257168D01*
Y5260259D01*
Y5263350D01*
Y5266442D01*
Y5269533D01*
X1574861D01*
Y5272624D01*
Y5275715D01*
X1577952D01*
Y5278806D01*
X1584134D01*
Y5281897D01*
X1590317D01*
Y5278806D01*
X1596499D01*
Y5275715D01*
X1602682D01*
Y5278806D01*
Y5281897D01*
X1605773D01*
Y5284988D01*
X1608864D01*
Y5288080D01*
Y5291171D01*
X1605773D01*
Y5294262D01*
X1599591D01*
Y5297353D01*
D02*
G37*
G36*
X1525402D02*
X1494490D01*
Y5294262D01*
X1488308D01*
Y5291171D01*
X1485216D01*
Y5288080D01*
X1482125D01*
Y5284988D01*
X1479034D01*
Y5281897D01*
Y5278806D01*
X1475943D01*
Y5275715D01*
Y5272624D01*
X1472852D01*
Y5269533D01*
Y5266442D01*
Y5263350D01*
Y5260259D01*
Y5257168D01*
Y5254077D01*
Y5250985D01*
X1475943D01*
Y5247894D01*
Y5244803D01*
Y5241712D01*
X1479034D01*
Y5238620D01*
X1482125D01*
Y5235529D01*
Y5232438D01*
X1485216D01*
Y5229347D01*
X1491399D01*
Y5226256D01*
X1494490D01*
Y5223165D01*
X1528494D01*
Y5226256D01*
X1537767D01*
Y5229347D01*
X1543949D01*
Y5232438D01*
Y5235529D01*
Y5238620D01*
Y5241712D01*
Y5244803D01*
Y5247894D01*
X1537767D01*
Y5244803D01*
X1531584D01*
Y5241712D01*
X1522311D01*
Y5238620D01*
X1503764D01*
Y5241712D01*
X1500672D01*
Y5244803D01*
X1497581D01*
Y5247894D01*
X1494490D01*
Y5250985D01*
Y5254077D01*
X1491399D01*
Y5257168D01*
X1543949D01*
Y5260259D01*
Y5263350D01*
Y5266442D01*
Y5269533D01*
Y5272624D01*
Y5275715D01*
Y5278806D01*
X1540858D01*
Y5281897D01*
Y5284988D01*
X1537767D01*
Y5288080D01*
X1534675D01*
Y5291171D01*
X1531584D01*
Y5294262D01*
X1525402D01*
Y5297353D01*
D02*
G37*
G36*
X1296653D02*
X1262650D01*
Y5294262D01*
X1256468D01*
Y5291171D01*
X1250285D01*
Y5288080D01*
Y5284988D01*
Y5281897D01*
Y5278806D01*
Y5275715D01*
Y5272624D01*
X1256468D01*
Y5275715D01*
X1259559D01*
Y5278806D01*
X1268832D01*
Y5281897D01*
X1284289D01*
Y5278806D01*
X1287380D01*
Y5275715D01*
X1290471D01*
Y5272624D01*
X1287380D01*
Y5269533D01*
X1281198D01*
Y5266442D01*
X1271924D01*
Y5263350D01*
X1262650D01*
Y5260259D01*
X1256468D01*
Y5257168D01*
X1253377D01*
Y5254077D01*
Y5250985D01*
X1250285D01*
Y5247894D01*
Y5244803D01*
Y5241712D01*
Y5238620D01*
Y5235529D01*
Y5232438D01*
Y5229347D01*
X1253377D01*
Y5226256D01*
X1259559D01*
Y5223165D01*
X1281198D01*
Y5226256D01*
X1293562D01*
Y5223165D01*
X1309018D01*
Y5226256D01*
X1315201D01*
Y5229347D01*
X1318292D01*
Y5232438D01*
Y5235529D01*
Y5238620D01*
Y5241712D01*
X1312109D01*
Y5238620D01*
X1305927D01*
Y5241712D01*
Y5244803D01*
Y5247894D01*
Y5250985D01*
Y5254077D01*
Y5257168D01*
Y5260259D01*
Y5263350D01*
Y5266442D01*
Y5269533D01*
Y5272624D01*
Y5275715D01*
Y5278806D01*
Y5281897D01*
Y5284988D01*
X1302836D01*
Y5288080D01*
Y5291171D01*
X1299745D01*
Y5294262D01*
X1296653D01*
Y5297353D01*
D02*
G37*
G36*
X1225556Y5312809D02*
X1219373D01*
Y5309718D01*
X1216283D01*
Y5306627D01*
X1213191D01*
Y5303536D01*
X1210100D01*
Y5300445D01*
X1207009D01*
Y5297353D01*
X1203918D01*
Y5294262D01*
X1200826D01*
Y5291171D01*
X1197735D01*
Y5288080D01*
X1194644D01*
Y5284988D01*
Y5281897D01*
X1207009D01*
Y5278806D01*
Y5275715D01*
Y5272624D01*
Y5269533D01*
Y5266442D01*
Y5263350D01*
Y5260259D01*
Y5257168D01*
Y5254077D01*
Y5250985D01*
Y5247894D01*
Y5244803D01*
Y5241712D01*
Y5238620D01*
Y5235529D01*
Y5232438D01*
X1210100D01*
Y5229347D01*
Y5226256D01*
X1216283D01*
Y5223165D01*
X1244103D01*
Y5226256D01*
X1247194D01*
Y5229347D01*
Y5232438D01*
Y5235529D01*
Y5238620D01*
Y5241712D01*
X1237921D01*
Y5238620D01*
X1228647D01*
Y5241712D01*
X1225556D01*
Y5244803D01*
Y5247894D01*
Y5250985D01*
Y5254077D01*
Y5257168D01*
Y5260259D01*
Y5263350D01*
Y5266442D01*
Y5269533D01*
Y5272624D01*
Y5275715D01*
Y5278806D01*
Y5281897D01*
X1244103D01*
Y5284988D01*
Y5288080D01*
Y5291171D01*
Y5294262D01*
Y5297353D01*
X1225556D01*
Y5300445D01*
Y5303536D01*
Y5306627D01*
Y5309718D01*
Y5312809D01*
D02*
G37*
G36*
X1101908Y5297353D02*
X1067905D01*
Y5294262D01*
X1061723D01*
Y5291171D01*
X1055540D01*
Y5288080D01*
Y5284988D01*
Y5281897D01*
Y5278806D01*
Y5275715D01*
Y5272624D01*
X1061723D01*
Y5275715D01*
X1064814D01*
Y5278806D01*
X1074087D01*
Y5281897D01*
X1092635D01*
Y5278806D01*
Y5275715D01*
Y5272624D01*
Y5269533D01*
X1086452D01*
Y5266442D01*
X1080270D01*
Y5263350D01*
X1067905D01*
Y5260259D01*
X1064814D01*
Y5257168D01*
X1061723D01*
Y5254077D01*
X1058632D01*
Y5250985D01*
X1055540D01*
Y5247894D01*
Y5244803D01*
Y5241712D01*
Y5238620D01*
Y5235529D01*
Y5232438D01*
Y5229347D01*
X1058632D01*
Y5226256D01*
X1064814D01*
Y5223165D01*
X1086452D01*
Y5226256D01*
X1098817D01*
Y5223165D01*
X1114273D01*
Y5226256D01*
X1120455D01*
Y5229347D01*
X1123546D01*
Y5232438D01*
Y5235529D01*
Y5238620D01*
Y5241712D01*
X1117364D01*
Y5238620D01*
X1111182D01*
Y5241712D01*
Y5244803D01*
Y5247894D01*
Y5250985D01*
Y5254077D01*
Y5257168D01*
Y5260259D01*
Y5263350D01*
Y5266442D01*
Y5269533D01*
Y5272624D01*
Y5275715D01*
Y5278806D01*
Y5281897D01*
Y5284988D01*
Y5288080D01*
X1108091D01*
Y5291171D01*
X1105000D01*
Y5294262D01*
X1101908D01*
Y5297353D01*
D02*
G37*
%LPD*%
G36*
X1639776Y5649750D02*
X1642867D01*
Y5646659D01*
Y5643568D01*
Y5640476D01*
Y5637385D01*
Y5634294D01*
Y5631203D01*
Y5628111D01*
Y5625020D01*
Y5621929D01*
Y5618838D01*
Y5615746D01*
Y5612655D01*
Y5609564D01*
X1636685D01*
Y5606473D01*
X1627411D01*
Y5609564D01*
X1618138D01*
Y5612655D01*
X1615047D01*
Y5615746D01*
X1611956D01*
Y5618838D01*
Y5621929D01*
X1608864D01*
Y5625020D01*
Y5628111D01*
Y5631203D01*
Y5634294D01*
Y5637385D01*
Y5640476D01*
X1611956D01*
Y5643568D01*
Y5646659D01*
X1615047D01*
Y5649750D01*
X1621229D01*
Y5652841D01*
X1639776D01*
Y5649750D01*
D02*
G37*
G36*
X1491399D02*
X1494490D01*
Y5646659D01*
Y5643568D01*
Y5640476D01*
Y5637385D01*
Y5634294D01*
Y5631203D01*
Y5628111D01*
Y5625020D01*
Y5621929D01*
Y5618838D01*
Y5615746D01*
Y5612655D01*
Y5609564D01*
X1488308D01*
Y5606473D01*
X1479034D01*
Y5609564D01*
X1469760D01*
Y5612655D01*
X1466669D01*
Y5615746D01*
X1463578D01*
Y5618838D01*
Y5621929D01*
Y5625020D01*
Y5628111D01*
X1460487D01*
Y5631203D01*
Y5634294D01*
X1463578D01*
Y5637385D01*
Y5640476D01*
Y5643568D01*
X1466669D01*
Y5646659D01*
X1469760D01*
Y5649750D01*
X1472852D01*
Y5652841D01*
X1491399D01*
Y5649750D01*
D02*
G37*
G36*
X1562496Y5625020D02*
Y5621929D01*
Y5618838D01*
Y5615746D01*
Y5612655D01*
Y5609564D01*
X1556314D01*
Y5606473D01*
X1543949D01*
Y5609564D01*
X1540858D01*
Y5612655D01*
Y5615746D01*
X1543949D01*
Y5618838D01*
X1547041D01*
Y5621929D01*
X1553223D01*
Y5625020D01*
X1559405D01*
Y5628111D01*
X1562496D01*
Y5625020D01*
D02*
G37*
G36*
X1259559Y5649750D02*
X1265742D01*
Y5646659D01*
X1268832D01*
Y5643568D01*
Y5640476D01*
Y5637385D01*
X1237921D01*
Y5640476D01*
Y5643568D01*
X1241012D01*
Y5646659D01*
X1244103D01*
Y5649750D01*
X1247194D01*
Y5652841D01*
X1259559D01*
Y5649750D01*
D02*
G37*
G36*
X1574861Y5464278D02*
X1577952D01*
Y5461187D01*
Y5458096D01*
Y5455005D01*
Y5451913D01*
Y5448822D01*
Y5445731D01*
Y5442640D01*
Y5439548D01*
Y5436457D01*
Y5433366D01*
Y5430275D01*
Y5427183D01*
X1574861D01*
Y5424092D01*
X1553223D01*
Y5427183D01*
X1550132D01*
Y5430275D01*
X1547041D01*
Y5433366D01*
X1543949D01*
Y5436457D01*
Y5439548D01*
Y5442640D01*
Y5445731D01*
Y5448822D01*
Y5451913D01*
Y5455005D01*
Y5458096D01*
X1547041D01*
Y5461187D01*
X1550132D01*
Y5464278D01*
X1553223D01*
Y5467369D01*
X1574861D01*
Y5464278D01*
D02*
G37*
G36*
X1077178D02*
X1080270D01*
Y5461187D01*
Y5458096D01*
Y5455005D01*
Y5451913D01*
Y5448822D01*
Y5445731D01*
Y5442640D01*
Y5439548D01*
Y5436457D01*
Y5433366D01*
Y5430275D01*
Y5427183D01*
Y5424092D01*
X1058632D01*
Y5427183D01*
X1055540D01*
Y5430275D01*
X1052449D01*
Y5433366D01*
X1049358D01*
Y5436457D01*
Y5439548D01*
Y5442640D01*
X1046266D01*
Y5445731D01*
Y5448822D01*
X1049358D01*
Y5451913D01*
Y5455005D01*
Y5458096D01*
X1052449D01*
Y5461187D01*
Y5464278D01*
X1058632D01*
Y5467369D01*
X1077178D01*
Y5464278D01*
D02*
G37*
G36*
X1645959D02*
X1652141D01*
Y5461187D01*
Y5458096D01*
X1655232D01*
Y5455005D01*
X1624320D01*
Y5458096D01*
Y5461187D01*
X1627411D01*
Y5464278D01*
X1630502D01*
Y5467369D01*
X1645959D01*
Y5464278D01*
D02*
G37*
G36*
X1423392Y5439548D02*
Y5436457D01*
Y5433366D01*
Y5430275D01*
Y5427183D01*
Y5424092D01*
X1417210D01*
Y5421001D01*
X1404845D01*
Y5424092D01*
Y5427183D01*
X1401754D01*
Y5430275D01*
X1404845D01*
Y5433366D01*
X1407936D01*
Y5436457D01*
X1411028D01*
Y5439548D01*
X1420301D01*
Y5442640D01*
X1423392D01*
Y5439548D01*
D02*
G37*
G36*
X1435757Y5281897D02*
X1445031D01*
Y5278806D01*
X1448122D01*
Y5275715D01*
Y5272624D01*
Y5269533D01*
Y5266442D01*
Y5263350D01*
Y5260259D01*
Y5257168D01*
Y5254077D01*
Y5250985D01*
Y5247894D01*
Y5244803D01*
Y5241712D01*
X1445031D01*
Y5238620D01*
X1423392D01*
Y5241712D01*
X1420301D01*
Y5244803D01*
X1417210D01*
Y5247894D01*
Y5250985D01*
X1414119D01*
Y5254077D01*
Y5257168D01*
Y5260259D01*
Y5263350D01*
Y5266442D01*
Y5269533D01*
Y5272624D01*
X1417210D01*
Y5275715D01*
X1420301D01*
Y5278806D01*
X1423392D01*
Y5281897D01*
X1432666D01*
Y5284988D01*
X1435757D01*
Y5281897D01*
D02*
G37*
G36*
X1519219Y5278806D02*
X1522311D01*
Y5275715D01*
Y5272624D01*
X1525402D01*
Y5269533D01*
X1494490D01*
Y5272624D01*
Y5275715D01*
X1497581D01*
Y5278806D01*
X1500672D01*
Y5281897D01*
X1519219D01*
Y5278806D01*
D02*
G37*
G36*
X1287380Y5254077D02*
Y5250985D01*
Y5247894D01*
Y5244803D01*
Y5241712D01*
Y5238620D01*
X1281198D01*
Y5235529D01*
X1271924D01*
Y5238620D01*
X1268832D01*
Y5241712D01*
Y5244803D01*
Y5247894D01*
Y5250985D01*
X1275015D01*
Y5254077D01*
X1281198D01*
Y5257168D01*
X1287380D01*
Y5254077D01*
D02*
G37*
G36*
X1092635D02*
Y5250985D01*
Y5247894D01*
Y5244803D01*
Y5241712D01*
Y5238620D01*
X1086452D01*
Y5235529D01*
X1077178D01*
Y5238620D01*
X1074087D01*
Y5241712D01*
Y5244803D01*
Y5247894D01*
X1077178D01*
Y5250985D01*
X1080270D01*
Y5254077D01*
X1086452D01*
Y5257168D01*
X1092635D01*
Y5254077D01*
D02*
G37*
D90*
X4282619Y5726399D02*
G03*
X4262619Y5726399I-10000J0D01*
G01*
D02*
G03*
X4282619Y5726399I10000J0D01*
G01*
X3633203Y3596700D02*
G03*
X3633203Y3596700I-10000J0D01*
G01*
X5742670Y5788500D02*
G03*
X5742670Y5768500I0J-10000D01*
G01*
D02*
G03*
X5742670Y5788500I0J10000D01*
G01*
X2513959Y1675259D02*
G03*
X2513959Y1655259I0J-10000D01*
G01*
D02*
G03*
X2513959Y1675259I0J10000D01*
G01*
X3582294Y4603100D02*
X3627294D01*
X3582294Y4458100D02*
X3627294D01*
X3582294Y4403100D02*
X3627294D01*
X3582294Y4258100D02*
X3627294D01*
X3582294Y4228100D02*
X3627294D01*
X3582294Y4083100D02*
X3627294D01*
X3184345Y4464700D02*
X3229346D01*
X3184345Y4609700D02*
X3229346D01*
X3193346Y4258100D02*
X3238346D01*
X3193346Y4403100D02*
X3238346D01*
X3193346Y4083100D02*
X3238346D01*
X3193346Y4228100D02*
X3238346D01*
X2019000Y4938900D02*
X2046500D01*
X2019000Y5398900D02*
X2046500D01*
X2271500Y4938900D02*
X2299000D01*
X2271500Y5398900D02*
X2299000D01*
X2019000Y4938900D02*
Y5398900D01*
X2299000Y4938900D02*
Y5398900D01*
X3577403Y3596700D02*
X3623203Y3550900D01*
X3211603Y3596700D02*
X3577403D01*
X3211603Y3225100D02*
Y3596700D01*
Y3225100D02*
X3623203D01*
Y3550900D01*
X6213000Y690990D02*
Y1726990D01*
X7249000Y690990D02*
Y1726990D01*
X7112000D02*
X7249000D01*
X2635700Y2914693D02*
Y3155907D01*
X2850700Y2914693D02*
Y3155907D01*
X2191200Y2914693D02*
Y3155907D01*
X2406200Y2914693D02*
Y3155907D01*
X3486193Y4629600D02*
X3727407D01*
X3486193Y4844600D02*
X3727407D01*
X3090458D02*
X3331671D01*
X3090458Y4629600D02*
X3331671D01*
X2845600Y5079999D02*
X2945600D01*
X3574400Y6611120D02*
Y6711120D01*
Y7011120D02*
Y7116120D01*
X2680400D02*
X3574400D01*
X2680400Y7011120D02*
Y7116120D01*
Y6611120D02*
Y6711120D01*
X8748102Y848699D02*
Y6288698D01*
X14188101D01*
Y848699D02*
Y6288698D01*
X8748102Y848699D02*
X14188101D01*
X889082Y4422240D02*
Y4828239D01*
X1153079D01*
Y4270241D02*
Y4828239D01*
X1021080Y4270241D02*
X1153079D01*
X4813701Y4097101D02*
X5219700D01*
X4813701D02*
Y4361099D01*
X5371699D01*
Y4229100D02*
Y4361099D01*
X4783216Y6614118D02*
X5189220D01*
X4783216D02*
Y6878120D01*
X5341219D01*
Y6746122D02*
Y6878120D01*
X801100Y3064598D02*
X926098D01*
X801100Y3234600D02*
X926098D01*
X801101Y3394801D02*
X926099D01*
X801101Y3564798D02*
X926099D01*
X4590471Y5688777D02*
X4737720D01*
X4590471Y5551530D02*
X4737720D01*
X3568578Y3852098D02*
X3695821D01*
X3568578Y3717102D02*
X3695821D01*
X3675257Y2873821D02*
X3802506D01*
X3675257Y3008822D02*
X3802506D01*
X4955733Y3067968D02*
X5035428D01*
X4955733Y3248587D02*
X5035428D01*
X4955733Y2767969D02*
X5035428D01*
X4955733Y2948588D02*
X5035428D01*
X4955733Y2467969D02*
X5035428D01*
X4955733Y2648589D02*
X5035428D01*
X4954534Y2164668D02*
X5034229D01*
X4954534Y2345292D02*
X5034229D01*
X3925403Y6614118D02*
X4331401D01*
X3925403D02*
Y6878120D01*
X4483400D01*
Y6746122D02*
Y6878120D01*
X6360898Y6122798D02*
X6388401D01*
X6360898Y5662799D02*
X6388401D01*
X6108402Y6122798D02*
X6135900D01*
X6108402Y5662799D02*
X6135900D01*
X6388401D02*
Y6122798D01*
X6108402Y5662799D02*
Y6122798D01*
X2561402Y5584698D02*
X2696398D01*
X2010600Y2993267D02*
Y3120515D01*
X1875599Y2993267D02*
Y3120515D01*
X2462996Y2995502D02*
Y3100500D01*
X2587999Y2995502D02*
Y3100500D01*
X2924399Y1873121D02*
X4381399D01*
X2924399Y1599122D02*
Y1873121D01*
Y1599122D02*
X4533402D01*
Y1746121D01*
D91*
X3774300Y5689800D02*
G03*
X3774300Y5689800I-10000J0D01*
G01*
D92*
X3177400Y6351120D02*
G03*
X3177400Y6341120I0J-5000D01*
G01*
D02*
G03*
X3177400Y6351120I0J5000D01*
G01*
X1397000Y812801D02*
X5715000D01*
Y558801D02*
Y812801D01*
X1397000Y558801D02*
X5715000D01*
X1397000D02*
Y812801D01*
X1623959Y2435960D02*
X1973961D01*
Y1394560D02*
Y2435960D01*
X1623959Y1394560D02*
X1973961D01*
D93*
X2019500Y4868900D02*
X2298500D01*
X6108900Y6192801D02*
X6387898D01*
D94*
X3137300Y6108700D02*
X3695300D01*
Y5600700D02*
Y6108700D01*
X3137300Y5600700D02*
X3695300D01*
X3137300D02*
Y6108700D01*
D95*
X9029700Y533351D02*
Y381000D01*
X9105875D01*
X9131267Y406392D01*
Y507959D01*
X9105875Y533351D01*
X9029700D01*
X9258226Y381000D02*
X9207443D01*
X9182051Y406392D01*
Y457175D01*
X9207443Y482567D01*
X9258226D01*
X9283618Y457175D01*
Y431783D01*
X9182051D01*
X9334401Y381000D02*
X9385185D01*
X9359793D01*
Y482567D01*
X9334401D01*
X9461360D02*
X9512144Y381000D01*
X9562928Y482567D01*
X9689886Y381000D02*
X9639103D01*
X9613711Y406392D01*
Y457175D01*
X9639103Y482567D01*
X9689886D01*
X9715278Y457175D01*
Y431783D01*
X9613711D01*
X9766062Y482567D02*
Y381000D01*
Y431783D01*
X9791454Y457175D01*
X9816845Y482567D01*
X9842237D01*
X10070763Y533351D02*
Y507959D01*
X10121547Y457175D01*
X10172330Y507959D01*
Y533351D01*
X10121547Y457175D02*
Y381000D01*
X10248506Y482567D02*
X10299289D01*
X10324681Y457175D01*
Y381000D01*
X10248506D01*
X10223114Y406392D01*
X10248506Y431783D01*
X10324681D01*
X10375465Y381000D02*
X10426248D01*
X10400857D01*
Y482567D01*
X10375465D01*
X10502423D02*
Y381000D01*
Y431783D01*
X10527815Y457175D01*
X10553207Y482567D01*
X10578599D01*
X10908692Y406392D02*
Y507959D01*
X10883300Y533351D01*
X10832517D01*
X10807125Y507959D01*
Y406392D01*
X10832517Y381000D01*
X10883300D01*
X10857908Y431783D02*
X10908692Y381000D01*
X10883300D02*
X10908692Y406392D01*
X10959476Y482567D02*
Y406392D01*
X10984868Y381000D01*
X11061043D01*
Y482567D01*
X11111826Y381000D02*
X11162610D01*
X11137218D01*
Y482567D01*
X11111826D01*
X11238785Y381000D02*
Y482567D01*
X11314961D01*
X11340352Y457175D01*
Y381000D01*
X11416528D02*
X11467311D01*
X11492703Y406392D01*
Y457175D01*
X11467311Y482567D01*
X11416528D01*
X11391136Y457175D01*
Y406392D01*
X11416528Y381000D01*
X11543487D02*
Y482567D01*
X11619662D01*
X11645054Y457175D01*
Y381000D01*
X11772013D02*
X11721229D01*
X11695837Y406392D01*
Y457175D01*
X11721229Y482567D01*
X11772013D01*
X11797405Y457175D01*
Y431783D01*
X11695837D01*
X11848188Y482567D02*
X11949755D01*
X11848188Y381000D01*
X11949755D01*
X12229065Y533351D02*
X12178281D01*
X12152890Y507959D01*
Y406392D01*
X12178281Y381000D01*
X12229065D01*
X12254457Y406392D01*
Y507959D01*
X12229065Y533351D01*
X12305240Y381000D02*
X12381416D01*
X12406808Y406392D01*
X12381416Y431783D01*
X12330632D01*
X12305240Y457175D01*
X12330632Y482567D01*
X12406808D01*
X12482983Y381000D02*
X12533766D01*
X12559158Y406392D01*
Y457175D01*
X12533766Y482567D01*
X12482983D01*
X12457591Y457175D01*
Y406392D01*
X12482983Y381000D01*
X12609942Y482567D02*
Y381000D01*
Y431783D01*
X12635334Y457175D01*
X12660725Y482567D01*
X12686117D01*
X12762292Y381000D02*
X12813075D01*
X12787684D01*
Y482567D01*
X12762292D01*
X12914642Y381000D02*
X12965427D01*
X12990819Y406392D01*
Y457175D01*
X12965427Y482567D01*
X12914642D01*
X12889252Y457175D01*
Y406392D01*
X12914642Y381000D01*
X8928100Y6781751D02*
Y6629400D01*
X9004275D01*
X9029667Y6654792D01*
Y6756359D01*
X9004275Y6781751D01*
X8928100D01*
X9156626Y6629400D02*
X9105843D01*
X9080451Y6654792D01*
Y6705575D01*
X9105843Y6730967D01*
X9156626D01*
X9182018Y6705575D01*
Y6680183D01*
X9080451D01*
X9232801Y6629400D02*
X9283585D01*
X9258193D01*
Y6730967D01*
X9232801D01*
X9359760Y6781751D02*
Y6629400D01*
X9435936D01*
X9461328Y6654792D01*
Y6680183D01*
Y6705575D01*
X9435936Y6730967D01*
X9359760D01*
X9512111D02*
Y6654792D01*
X9537503Y6629400D01*
X9613678D01*
Y6604008D01*
X9588286Y6578617D01*
X9562895D01*
X9613678Y6629400D02*
Y6730967D01*
X9816812Y6629400D02*
Y6730967D01*
X9867596Y6781751D01*
X9918380Y6730967D01*
Y6629400D01*
Y6705575D01*
X9816812D01*
X9969163Y6629400D02*
X10019947D01*
X9994555D01*
Y6781751D01*
X9969163D01*
X10172297Y6629400D02*
X10121514D01*
X10096122Y6654792D01*
Y6705575D01*
X10121514Y6730967D01*
X10172297D01*
X10197689Y6705575D01*
Y6680183D01*
X10096122D01*
X10248473Y6730967D02*
X10350040Y6629400D01*
X10299256Y6680183D01*
X10350040Y6730967D01*
X10248473Y6629400D01*
X10426215Y6730967D02*
X10476999D01*
X10502391Y6705575D01*
Y6629400D01*
X10426215D01*
X10400823Y6654792D01*
X10426215Y6680183D01*
X10502391D01*
X10553174Y6629400D02*
Y6730967D01*
X10629350D01*
X10654741Y6705575D01*
Y6629400D01*
X10807092Y6781751D02*
Y6629400D01*
X10730917D01*
X10705525Y6654792D01*
Y6705575D01*
X10730917Y6730967D01*
X10807092D01*
X10934051Y6629400D02*
X10883268D01*
X10857876Y6654792D01*
Y6705575D01*
X10883268Y6730967D01*
X10934051D01*
X10959443Y6705575D01*
Y6680183D01*
X10857876D01*
X11010226Y6730967D02*
Y6629400D01*
Y6680183D01*
X11035618Y6705575D01*
X11061010Y6730967D01*
X11086402D01*
X11416495Y6781751D02*
X11314928D01*
Y6705575D01*
X11365711D01*
X11314928D01*
Y6629400D01*
X11492670D02*
X11543454D01*
X11568846Y6654792D01*
Y6705575D01*
X11543454Y6730967D01*
X11492670D01*
X11467279Y6705575D01*
Y6654792D01*
X11492670Y6629400D01*
X11619629Y6730967D02*
Y6629400D01*
Y6680183D01*
X11645021Y6705575D01*
X11670413Y6730967D01*
X11695805D01*
X11848155Y6629400D02*
X11797372D01*
X11771980Y6654792D01*
Y6705575D01*
X11797372Y6730967D01*
X11848155D01*
X11873547Y6705575D01*
Y6680183D01*
X11771980D01*
X11924331Y6730967D02*
Y6629400D01*
Y6680183D01*
X11949723Y6705575D01*
X11975114Y6730967D01*
X12000506D01*
X12102073Y6629400D02*
X12152857D01*
X12178249Y6654792D01*
Y6705575D01*
X12152857Y6730967D01*
X12102073D01*
X12076681Y6705575D01*
Y6654792D01*
X12102073Y6629400D01*
X12482950Y6756359D02*
X12457558Y6781751D01*
X12406775D01*
X12381383Y6756359D01*
Y6654792D01*
X12406775Y6629400D01*
X12457558D01*
X12482950Y6654792D01*
X12559126Y6730967D02*
X12609909D01*
X12635301Y6705575D01*
Y6629400D01*
X12559126D01*
X12533734Y6654792D01*
X12559126Y6680183D01*
X12635301D01*
X12686084Y6629400D02*
X12736868D01*
X12711476D01*
Y6781751D01*
X12686084D01*
X12914610D02*
Y6629400D01*
X12838435D01*
X12813043Y6654792D01*
Y6705575D01*
X12838435Y6730967D01*
X12914610D01*
X13041570Y6629400D02*
X12990787D01*
X12965395Y6654792D01*
Y6705575D01*
X12990787Y6730967D01*
X13041570D01*
X13066962Y6705575D01*
Y6680183D01*
X12965395D01*
X13117744Y6730967D02*
Y6629400D01*
Y6680183D01*
X13143137Y6705575D01*
X13168529Y6730967D01*
X13193919D01*
X13295486Y6629400D02*
X13346271D01*
X13371663Y6654792D01*
Y6705575D01*
X13346271Y6730967D01*
X13295486D01*
X13270094Y6705575D01*
Y6654792D01*
X13295486Y6629400D01*
X13422446D02*
Y6730967D01*
X13498621D01*
X13524013Y6705575D01*
Y6629400D01*
X4648200Y1231901D02*
X4748168D01*
Y1181917D01*
X4731506Y1165256D01*
X4698184D01*
X4681522Y1181917D01*
Y1231901D01*
Y1198579D02*
X4648200Y1165256D01*
X4731506Y1065288D02*
X4748168Y1081949D01*
Y1115272D01*
X4731506Y1131933D01*
X4714845D01*
X4698184Y1115272D01*
Y1081949D01*
X4681522Y1065288D01*
X4664861D01*
X4648200Y1081949D01*
Y1115272D01*
X4664861Y1131933D01*
X4748168Y1031965D02*
Y965320D01*
Y998643D01*
X4648200D01*
X4748168Y931998D02*
X4648200D01*
Y882014D01*
X4664861Y865353D01*
X4681522D01*
X4698184Y882014D01*
Y931998D01*
Y882014D01*
X4714845Y865353D01*
X4731506D01*
X4748168Y882014D01*
Y931998D01*
X4481468Y1231901D02*
X4414822D01*
X4381500Y1198579D01*
X4414822Y1165256D01*
X4481468D01*
Y1065288D02*
Y1131933D01*
X4431484D01*
X4448145Y1098611D01*
Y1081949D01*
X4431484Y1065288D01*
X4398161D01*
X4381500Y1081949D01*
Y1115272D01*
X4398161Y1131933D01*
X4481468Y1031965D02*
X4414822D01*
X4381500Y998643D01*
X4414822Y965320D01*
X4481468D01*
X4464806Y931998D02*
X4481468Y915336D01*
Y882014D01*
X4464806Y865353D01*
X4398161D01*
X4381500Y882014D01*
Y915336D01*
X4398161Y931998D01*
X4464806D01*
X4152900Y1054101D02*
X4252868D01*
X4152900Y987456D01*
X4252868D01*
X4236206Y887488D02*
X4252868Y904149D01*
Y937472D01*
X4236206Y954133D01*
X4169561D01*
X4152900Y937472D01*
Y904149D01*
X4169561Y887488D01*
X3998868Y1130301D02*
Y1096979D01*
Y1113640D01*
X3898900D01*
Y1130301D01*
Y1096979D01*
Y1046995D02*
X3998868D01*
X3898900Y980350D01*
X3998868D01*
Y947027D02*
Y880382D01*
Y913704D01*
X3898900D01*
X3728206Y1089056D02*
X3744868Y1105717D01*
Y1139040D01*
X3728206Y1155701D01*
X3711545D01*
X3694884Y1139040D01*
Y1105717D01*
X3678222Y1089056D01*
X3661561D01*
X3644900Y1105717D01*
Y1139040D01*
X3661561Y1155701D01*
X3744868Y1055733D02*
X3644900D01*
Y1005749D01*
X3661561Y989088D01*
X3728206D01*
X3744868Y1005749D01*
Y1055733D01*
X3644900Y955765D02*
X3711545D01*
X3744868Y922443D01*
X3711545Y889120D01*
X3644900D01*
X3694884D01*
Y955765D01*
X3474206Y1076356D02*
X3490868Y1093017D01*
Y1126340D01*
X3474206Y1143001D01*
X3457545D01*
X3440884Y1126340D01*
Y1093017D01*
X3424222Y1076356D01*
X3407561D01*
X3390900Y1093017D01*
Y1126340D01*
X3407561Y1143001D01*
X3474206Y976388D02*
X3490868Y993049D01*
Y1026372D01*
X3474206Y1043033D01*
X3407561D01*
X3390900Y1026372D01*
Y993049D01*
X3407561Y976388D01*
X3490868Y943065D02*
X3390900D01*
Y876420D01*
X3224168Y898556D02*
X3207506Y931879D01*
X3174184Y965201D01*
X3140861D01*
X3124200Y948540D01*
Y915217D01*
X3140861Y898556D01*
X3157522D01*
X3174184Y915217D01*
Y965201D01*
X2995568Y885856D02*
Y952501D01*
X2945584D01*
X2962245Y919179D01*
Y902517D01*
X2945584Y885856D01*
X2912261D01*
X2895600Y902517D01*
Y935840D01*
X2912261Y952501D01*
X2641600Y915217D02*
X2741568D01*
X2691584Y965201D01*
Y898556D01*
X2458206Y952501D02*
X2474868Y935840D01*
Y902517D01*
X2458206Y885856D01*
X2441545D01*
X2424884Y902517D01*
Y919179D01*
Y902517D01*
X2408222Y885856D01*
X2391561D01*
X2374900Y902517D01*
Y935840D01*
X2391561Y952501D01*
X2133600Y885856D02*
Y952501D01*
X2200245Y885856D01*
X2216906D01*
X2233568Y902517D01*
Y935840D01*
X2216906Y952501D01*
X1892300Y939801D02*
Y906479D01*
Y923140D01*
X1992268D01*
X1975606Y939801D01*
X1696206Y952501D02*
X1712868Y935840D01*
Y902517D01*
X1696206Y885856D01*
X1629561D01*
X1612900Y902517D01*
Y935840D01*
X1629561Y952501D01*
X1696206D01*
X5146645Y1099307D02*
X5129984Y1115969D01*
X5096661D01*
X5080000Y1099307D01*
Y1032662D01*
X5096661Y1016001D01*
X5129984D01*
X5146645Y1032662D01*
Y1065985D01*
X5113322D01*
X5179968Y1016001D02*
Y1115969D01*
X5246613Y1016001D01*
Y1115969D01*
X5279935D02*
Y1016001D01*
X5329919D01*
X5346580Y1032662D01*
Y1099307D01*
X5329919Y1115969D01*
X5279935D01*
X669955Y4699076D02*
X656626Y4685747D01*
Y4659089D01*
X669955Y4645760D01*
X723271D01*
X736600Y4659089D01*
Y4685747D01*
X723271Y4699076D01*
X696613D01*
Y4672418D01*
X736600Y4725734D02*
X656626D01*
X736600Y4779050D01*
X656626D01*
Y4805708D02*
X736600D01*
Y4845696D01*
X723271Y4859025D01*
X669955D01*
X656626Y4845696D01*
Y4805708D01*
X5196816Y4486245D02*
X5183487Y4499574D01*
X5156829D01*
X5143500Y4486245D01*
Y4432929D01*
X5156829Y4419600D01*
X5183487D01*
X5196816Y4432929D01*
Y4459587D01*
X5170158D01*
X5223474Y4419600D02*
Y4499574D01*
X5276790Y4419600D01*
Y4499574D01*
X5303448D02*
Y4419600D01*
X5343436D01*
X5356764Y4432929D01*
Y4486245D01*
X5343436Y4499574D01*
X5303448D01*
X708599Y1016000D02*
Y1069316D01*
X735257Y1095974D01*
X761915Y1069316D01*
Y1016000D01*
Y1055987D01*
X708599D01*
X841890Y1082645D02*
X828561Y1095974D01*
X801903D01*
X788573Y1082645D01*
Y1029329D01*
X801903Y1016000D01*
X828561D01*
X841890Y1029329D01*
Y1055987D01*
X815232D01*
X868548Y1016000D02*
Y1095974D01*
X921864Y1016000D01*
Y1095974D01*
X948522D02*
Y1016000D01*
X988509D01*
X1001838Y1029329D01*
Y1082645D01*
X988509Y1095974D01*
X948522D01*
X3154503Y3905191D02*
Y3778232D01*
X3179895Y3752840D01*
X3230678D01*
X3256070Y3778232D01*
Y3905191D01*
X3408421Y3752840D02*
X3306853D01*
X3408421Y3854407D01*
Y3879799D01*
X3383029Y3905191D01*
X3332245D01*
X3306853Y3879799D01*
X4089400Y5599068D02*
Y5532423D01*
X4122723Y5499100D01*
X4156045Y5532423D01*
Y5599068D01*
X4256013Y5582406D02*
X4239352Y5599068D01*
X4206029D01*
X4189368Y5582406D01*
Y5565745D01*
X4206029Y5549084D01*
X4239352D01*
X4256013Y5532423D01*
Y5515761D01*
X4239352Y5499100D01*
X4206029D01*
X4189368Y5515761D01*
X4213860Y3490868D02*
Y3424223D01*
X4247183Y3390900D01*
X4280505Y3424223D01*
Y3490868D01*
X4313828D02*
X4347150D01*
X4330489D01*
Y3390900D01*
X4313828D01*
X4347150D01*
X4397134D02*
Y3490868D01*
X4463779Y3390900D01*
Y3490868D01*
X4497102D02*
Y3424223D01*
X4530425Y3390900D01*
X4563747Y3424223D01*
Y3490868D01*
X4597070Y3374239D02*
X4663715D01*
X1793240Y4178251D02*
Y4076683D01*
X1844023Y4025900D01*
X1894807Y4076683D01*
Y4178251D01*
X1945590D02*
X1996374D01*
X1970982D01*
Y4025900D01*
X1945590D01*
X1996374D01*
X2072549D02*
Y4178251D01*
X2174117Y4025900D01*
Y4178251D01*
X2628900Y1408068D02*
Y1341423D01*
X2662223Y1308100D01*
X2695545Y1341423D01*
Y1408068D01*
X2728868Y1308100D02*
X2762190D01*
X2745529D01*
Y1408068D01*
X2728868Y1391406D01*
X2812174Y1408068D02*
Y1341423D01*
X2845497Y1308100D01*
X2878819Y1341423D01*
Y1408068D01*
X2912142Y1391406D02*
X2928803Y1408068D01*
X2962126D01*
X2978787Y1391406D01*
Y1374745D01*
X2962126Y1358084D01*
X2978787Y1341423D01*
Y1324761D01*
X2962126Y1308100D01*
X2928803D01*
X2912142Y1324761D01*
Y1341423D01*
X2928803Y1358084D01*
X2912142Y1374745D01*
Y1391406D01*
X2928803Y1358084D02*
X2962126D01*
X6223000Y5499100D02*
X6272984D01*
Y5474108D01*
X6264653Y5465777D01*
X6247992D01*
X6239661Y5474108D01*
Y5499100D01*
Y5482439D02*
X6223000Y5465777D01*
X6272984Y5449116D02*
Y5432455D01*
Y5440786D01*
X6223000D01*
Y5449116D01*
Y5432455D01*
Y5407463D02*
X6272984D01*
X6223000Y5374141D01*
X6272984D01*
X6264653Y5324157D02*
X6272984Y5332488D01*
Y5349149D01*
X6264653Y5357480D01*
X6231331D01*
X6223000Y5349149D01*
Y5332488D01*
X6231331Y5324157D01*
X6247992D01*
Y5340818D01*
X6214669Y5307496D02*
Y5274173D01*
X6223000Y5257512D02*
X6272984D01*
X6223000Y5224190D01*
X6272984D01*
Y5182537D02*
Y5199198D01*
X6264653Y5207529D01*
X6231331D01*
X6223000Y5199198D01*
Y5182537D01*
X6231331Y5174206D01*
X6264653D01*
X6272984Y5182537D01*
Y5157545D02*
X6223000D01*
Y5132553D01*
X6231331Y5124222D01*
X6264653D01*
X6272984Y5132553D01*
Y5157545D01*
Y5074239D02*
Y5107561D01*
X6223000D01*
Y5074239D01*
X6247992Y5107561D02*
Y5090900D01*
X3386425Y2684266D02*
X3369764Y2700928D01*
X3336441D01*
X3319780Y2684266D01*
Y2617621D01*
X3336441Y2600960D01*
X3369764D01*
X3386425Y2617621D01*
Y2650944D01*
X3353103D01*
X3419748Y2600960D02*
Y2700928D01*
X3486393Y2600960D01*
Y2700928D01*
X3519716D02*
Y2600960D01*
X3569699D01*
X3586361Y2617621D01*
Y2684266D01*
X3569699Y2700928D01*
X3519716D01*
X4351020Y2783840D02*
Y2850485D01*
X4384343Y2883808D01*
X4417665Y2850485D01*
Y2783840D01*
Y2833824D01*
X4351020D01*
X4517633Y2867146D02*
X4500972Y2883808D01*
X4467649D01*
X4450988Y2867146D01*
Y2800501D01*
X4467649Y2783840D01*
X4500972D01*
X4517633Y2800501D01*
X4550956Y2783840D02*
X4584278D01*
X4567617D01*
Y2883808D01*
X4550956Y2867146D01*
X5949950Y4575810D02*
Y4677377D01*
X6000733Y4728161D01*
X6051517Y4677377D01*
Y4575810D01*
Y4651985D01*
X5949950D01*
X6203868Y4702769D02*
X6178476Y4728161D01*
X6127693D01*
X6102301Y4702769D01*
Y4601202D01*
X6127693Y4575810D01*
X6178476D01*
X6203868Y4601202D01*
X6356219Y4575810D02*
X6254651D01*
X6356219Y4677377D01*
Y4702769D01*
X6330827Y4728161D01*
X6280043D01*
X6254651Y4702769D01*
X3882525Y6197551D02*
X3831741D01*
X3857133D01*
Y6070592D01*
X3831741Y6045200D01*
X3806350D01*
X3780958Y6070592D01*
X3933308Y6197551D02*
Y6095983D01*
X3984092Y6045200D01*
X4034876Y6095983D01*
Y6197551D01*
X4085659D02*
X4136443D01*
X4111051D01*
Y6045200D01*
X4085659D01*
X4136443D01*
X4212618D02*
Y6197551D01*
X4314185Y6045200D01*
Y6197551D01*
X4610100Y4673600D02*
Y4733581D01*
X4640090D01*
X4650087Y4723584D01*
Y4703590D01*
X4640090Y4693594D01*
X4610100D01*
X4670081Y4673600D02*
X4690074D01*
X4680077D01*
Y4733581D01*
X4670081Y4723584D01*
X4720064D02*
X4730061Y4733581D01*
X4750055D01*
X4760051Y4723584D01*
Y4683597D01*
X4750055Y4673600D01*
X4730061D01*
X4720064Y4683597D01*
Y4723584D01*
X2678967Y6248471D02*
X2628184D01*
X2653576D01*
Y6121512D01*
X2628184Y6096120D01*
X2602792D01*
X2577400Y6121512D01*
X2831318Y6096120D02*
X2729751D01*
X2831318Y6197687D01*
Y6223079D01*
X2805926Y6248471D01*
X2755143D01*
X2729751Y6223079D01*
X4775200Y4499574D02*
Y4446258D01*
X4801858Y4419600D01*
X4828516Y4446258D01*
Y4499574D01*
X4855174D02*
X4881832D01*
X4868503D01*
Y4419600D01*
X4855174D01*
X4881832D01*
X4921819D02*
Y4499574D01*
X4975136Y4419600D01*
Y4499574D01*
X5001794D02*
Y4446258D01*
X5028452Y4419600D01*
X5055110Y4446258D01*
Y4499574D01*
X746080Y4301241D02*
X666106D01*
X746080Y4354557D01*
X666106D01*
Y4381215D02*
Y4434531D01*
Y4407873D01*
X746080D01*
X679435Y4514506D02*
X666106Y4501177D01*
Y4474519D01*
X679435Y4461189D01*
X732751D01*
X746080Y4474519D01*
Y4501177D01*
X732751Y4514506D01*
X4883905Y7109519D02*
X4858513Y7134911D01*
X4807729D01*
X4782337Y7109519D01*
Y7007952D01*
X4807729Y6982560D01*
X4858513D01*
X4883905Y7007952D01*
Y7058735D01*
X4833121D01*
X4934688Y6982560D02*
Y7134911D01*
X5036255Y6982560D01*
Y7134911D01*
X5087039D02*
Y6982560D01*
X5163214D01*
X5188606Y7007952D01*
Y7109519D01*
X5163214Y7134911D01*
X5087039D01*
X5239390Y6982560D02*
X5290173D01*
X5264781D01*
Y7134911D01*
X5239390Y7109519D01*
X1384300Y177800D02*
Y330151D01*
X1460475D01*
X1485867Y304759D01*
Y253975D01*
X1460475Y228583D01*
X1384300D01*
X1536651Y177800D02*
X1587434D01*
X1562043D01*
Y330151D01*
X1536651Y304759D01*
X1739785Y177800D02*
Y330151D01*
X1663610Y253975D01*
X1765177D01*
X4937353Y4727545D02*
X4924024Y4740874D01*
X4897366D01*
X4884037Y4727545D01*
Y4674229D01*
X4897366Y4660900D01*
X4924024D01*
X4937353Y4674229D01*
X4964011Y4660900D02*
X4990669D01*
X4977340D01*
Y4740874D01*
X4964011Y4727545D01*
X5030656Y4740874D02*
X5083973D01*
Y4727545D01*
X5030656Y4674229D01*
Y4660900D01*
X5311116Y4752945D02*
X5297787Y4766274D01*
X5271129D01*
X5257800Y4752945D01*
Y4699629D01*
X5271129Y4686300D01*
X5297787D01*
X5311116Y4699629D01*
X5337774Y4686300D02*
X5364432D01*
X5351103D01*
Y4766274D01*
X5337774Y4752945D01*
X5457736Y4766274D02*
X5431078Y4752945D01*
X5404419Y4726287D01*
Y4699629D01*
X5417749Y4686300D01*
X5444407D01*
X5457736Y4699629D01*
Y4712958D01*
X5444407Y4726287D01*
X5404419D01*
X8193100Y6426051D02*
Y6299092D01*
X8218492Y6273700D01*
X8269275D01*
X8294667Y6299092D01*
Y6426051D01*
X8345451Y6273700D02*
X8396234D01*
X8370843D01*
Y6426051D01*
X8345451Y6400659D01*
X342900Y3467100D02*
Y3567068D01*
X392884D01*
X409545Y3550406D01*
Y3517084D01*
X392884Y3500423D01*
X342900D01*
X376223D02*
X409545Y3467100D01*
X442868D02*
Y3533745D01*
X476190Y3567068D01*
X509513Y3533745D01*
Y3467100D01*
Y3517084D01*
X442868D01*
X304800Y3094745D02*
Y3194712D01*
X354784D01*
X371445Y3178051D01*
Y3144729D01*
X354784Y3128067D01*
X304800D01*
X338123D02*
X371445Y3094745D01*
X404768D02*
Y3161390D01*
X438090Y3194712D01*
X471413Y3161390D01*
Y3094745D01*
Y3144729D01*
X404768D01*
X571381Y3094745D02*
X504736D01*
X571381Y3161390D01*
Y3178051D01*
X554719Y3194712D01*
X521397D01*
X504736Y3178051D01*
X4661700Y5039500D02*
Y5119474D01*
X4701687D01*
X4715016Y5106145D01*
Y5079487D01*
X4701687Y5066158D01*
X4661700D01*
X4688358D02*
X4715016Y5039500D01*
X4794990D02*
X4741674D01*
X4794990Y5092816D01*
Y5106145D01*
X4781661Y5119474D01*
X4755003D01*
X4741674Y5106145D01*
X4821648Y5039500D02*
X4848306D01*
X4834977D01*
Y5119474D01*
X4821648Y5106145D01*
X4991100Y5041900D02*
Y5121874D01*
X5031087D01*
X5044416Y5108545D01*
Y5081887D01*
X5031087Y5068558D01*
X4991100D01*
X5017758D02*
X5044416Y5041900D01*
X5124390D02*
X5071074D01*
X5124390Y5095216D01*
Y5108545D01*
X5111061Y5121874D01*
X5084403D01*
X5071074Y5108545D01*
X5151048D02*
X5164378Y5121874D01*
X5191036D01*
X5204364Y5108545D01*
Y5055229D01*
X5191036Y5041900D01*
X5164378D01*
X5151048Y5055229D01*
Y5108545D01*
X2070100Y6527800D02*
Y6607774D01*
X2110087D01*
X2123416Y6594445D01*
Y6567787D01*
X2110087Y6554458D01*
X2070100D01*
X2096758D02*
X2123416Y6527800D01*
X2150074D02*
X2176732D01*
X2163403D01*
Y6607774D01*
X2150074Y6594445D01*
X2216719Y6541129D02*
X2230049Y6527800D01*
X2256707D01*
X2270036Y6541129D01*
Y6594445D01*
X2256707Y6607774D01*
X2230049D01*
X2216719Y6594445D01*
Y6581116D01*
X2230049Y6567787D01*
X2270036D01*
X4614100Y6388200D02*
Y6488168D01*
X4664084D01*
X4680745Y6471506D01*
Y6438184D01*
X4664084Y6421522D01*
X4614100D01*
X4647423D02*
X4680745Y6388200D01*
X4714068D02*
X4747390D01*
X4730729D01*
Y6488168D01*
X4714068Y6471506D01*
X4797374D02*
X4814036Y6488168D01*
X4847358D01*
X4864019Y6471506D01*
Y6454845D01*
X4847358Y6438184D01*
X4864019Y6421522D01*
Y6404861D01*
X4847358Y6388200D01*
X4814036D01*
X4797374Y6404861D01*
Y6421522D01*
X4814036Y6438184D01*
X4797374Y6454845D01*
Y6471506D01*
X4814036Y6438184D02*
X4847358D01*
X4283900Y6390700D02*
Y6490667D01*
X4333884D01*
X4350545Y6474006D01*
Y6440684D01*
X4333884Y6424022D01*
X4283900D01*
X4317223D02*
X4350545Y6390700D01*
X4383868D02*
X4417190D01*
X4400529D01*
Y6490667D01*
X4383868Y6474006D01*
X4467174Y6490667D02*
X4533819D01*
Y6474006D01*
X4467174Y6407361D01*
Y6390700D01*
X5354821Y5040102D02*
Y5120076D01*
X5394808D01*
X5408137Y5106747D01*
Y5080089D01*
X5394808Y5066760D01*
X5354821D01*
X5381479D02*
X5408137Y5040102D01*
X5434795D02*
X5461453D01*
X5448124D01*
Y5120076D01*
X5434795Y5106747D01*
X5501441D02*
X5514770Y5120076D01*
X5541428D01*
X5554757Y5106747D01*
Y5093418D01*
X5541428Y5080089D01*
X5528099D01*
X5541428D01*
X5554757Y5066760D01*
Y5053431D01*
X5541428Y5040102D01*
X5514770D01*
X5501441Y5053431D01*
X2946102Y2950518D02*
Y3030492D01*
X2986090D01*
X2999418Y3017163D01*
Y2990505D01*
X2986090Y2977176D01*
X2946102D01*
X2972760D02*
X2999418Y2950518D01*
X3026076D02*
X3052735D01*
X3039406D01*
Y3030492D01*
X3026076Y3017163D01*
X3146038Y2950518D02*
X3092722D01*
X3146038Y3003834D01*
Y3017163D01*
X3132709Y3030492D01*
X3106051D01*
X3092722Y3017163D01*
X5701818Y4968518D02*
Y5048492D01*
X5741805D01*
X5755134Y5035163D01*
Y5008505D01*
X5741805Y4995176D01*
X5701818D01*
X5728476D02*
X5755134Y4968518D01*
X5781792D02*
X5808450D01*
X5795121D01*
Y5048492D01*
X5781792Y5035163D01*
X5848437D02*
X5861767Y5048492D01*
X5888425D01*
X5901753Y5035163D01*
Y4981847D01*
X5888425Y4968518D01*
X5861767D01*
X5848437Y4981847D01*
Y5035163D01*
X1130057Y1054099D02*
Y1134074D01*
X1170044D01*
X1183373Y1120745D01*
Y1094087D01*
X1170044Y1080758D01*
X1130057D01*
X1156715D02*
X1183373Y1054099D01*
X1263347Y1134074D02*
X1210031D01*
Y1094087D01*
X1236689Y1107416D01*
X1250018D01*
X1263347Y1094087D01*
Y1067429D01*
X1250018Y1054099D01*
X1223360D01*
X1210031Y1067429D01*
X1889760Y3216910D02*
Y3296884D01*
X1929747D01*
X1943076Y3283555D01*
Y3256897D01*
X1929747Y3243568D01*
X1889760D01*
X1916418D02*
X1943076Y3216910D01*
X2009721D02*
Y3296884D01*
X1969734Y3256897D01*
X2023050D01*
X5041900Y5905500D02*
Y6005468D01*
X5091884D01*
X5108545Y5988806D01*
Y5955484D01*
X5091884Y5938823D01*
X5041900D01*
X5075223D02*
X5108545Y5905500D01*
X5141868Y5988806D02*
X5158529Y6005468D01*
X5191852D01*
X5208513Y5988806D01*
Y5972145D01*
X5191852Y5955484D01*
X5175190D01*
X5191852D01*
X5208513Y5938823D01*
Y5922161D01*
X5191852Y5905500D01*
X5158529D01*
X5141868Y5922161D01*
X5003800Y5384800D02*
Y5484768D01*
X5053784D01*
X5070445Y5468106D01*
Y5434784D01*
X5053784Y5418123D01*
X5003800D01*
X5037123D02*
X5070445Y5384800D01*
X5170413D02*
X5103768D01*
X5170413Y5451445D01*
Y5468106D01*
X5153752Y5484768D01*
X5120429D01*
X5103768Y5468106D01*
X5410200Y5880100D02*
Y5980068D01*
X5460184D01*
X5476845Y5963406D01*
Y5930084D01*
X5460184Y5913423D01*
X5410200D01*
X5443523D02*
X5476845Y5880100D01*
X5510168D02*
X5543490D01*
X5526829D01*
Y5980068D01*
X5510168Y5963406D01*
X716826Y2693971D02*
Y2795538D01*
X691434Y2820930D01*
X640650D01*
X615259Y2795538D01*
Y2693971D01*
X640650Y2668579D01*
X691434D01*
X666042Y2719363D02*
X716826Y2668579D01*
X691434D02*
X716826Y2693971D01*
X767609Y2795538D02*
X793001Y2820930D01*
X843785D01*
X869177Y2795538D01*
Y2770147D01*
X843785Y2744755D01*
X818393D01*
X843785D01*
X869177Y2719363D01*
Y2693971D01*
X843785Y2668579D01*
X793001D01*
X767609Y2693971D01*
X3023927Y2127951D02*
X2973144D01*
X2998536D01*
Y2000992D01*
X2973144Y1975600D01*
X2947752D01*
X2922360Y2000992D01*
X3074711Y1975600D02*
Y2127951D01*
X3176278Y1975600D01*
Y2127951D01*
X3328629D02*
X3227062D01*
Y2051775D01*
X3277845D01*
X3227062D01*
Y1975600D01*
X3480980Y2102559D02*
X3455588Y2127951D01*
X3404804D01*
X3379412Y2102559D01*
Y2000992D01*
X3404804Y1975600D01*
X3455588D01*
X3480980Y2000992D01*
X4024568Y7134291D02*
X3973784D01*
X3999176D01*
Y7007332D01*
X3973784Y6981940D01*
X3948392D01*
X3923000Y7007332D01*
X4075351Y7134291D02*
X4126134D01*
X4100743D01*
Y6981940D01*
X4075351D01*
X4126134D01*
X4202310D02*
Y7134291D01*
X4303877Y6981940D01*
Y7134291D01*
X5905549Y1602690D02*
Y1653473D01*
Y1628082D01*
X6057900D01*
Y1602690D01*
Y1653473D01*
X5930941Y1831216D02*
X5905549Y1805824D01*
Y1755040D01*
X5930941Y1729649D01*
X6032508D01*
X6057900Y1755040D01*
Y1805824D01*
X6032508Y1831216D01*
X3022600Y5383168D02*
Y5283200D01*
X3089245D01*
X2644107Y6036771D02*
X2542540D01*
Y5960596D01*
X2593323D01*
X2542540D01*
Y5884420D01*
X2694890D02*
X2745674D01*
X2720282D01*
Y6036771D01*
X2694890Y6011379D01*
X6115050Y6440121D02*
Y6287770D01*
X6191225D01*
X6216617Y6313162D01*
Y6414729D01*
X6191225Y6440121D01*
X6115050D01*
X6267401Y6414729D02*
X6292793Y6440121D01*
X6343576D01*
X6368968Y6414729D01*
Y6389337D01*
X6343576Y6363945D01*
X6368968Y6338553D01*
Y6313162D01*
X6343576Y6287770D01*
X6292793D01*
X6267401Y6313162D01*
Y6338553D01*
X6292793Y6363945D01*
X6267401Y6389337D01*
Y6414729D01*
X6292793Y6363945D02*
X6343576D01*
X2024380Y5659071D02*
Y5506720D01*
X2100555D01*
X2125947Y5532112D01*
Y5633679D01*
X2100555Y5659071D01*
X2024380D01*
X2176731D02*
X2278298D01*
Y5633679D01*
X2176731Y5532112D01*
Y5506720D01*
X1249401Y3596088D02*
Y3496120D01*
X1299384D01*
X1316046Y3512781D01*
Y3579426D01*
X1299384Y3596088D01*
X1249401D01*
X1399352Y3496120D02*
Y3596088D01*
X1349368Y3546104D01*
X1416013D01*
X965200Y507967D02*
Y406400D01*
X1015983D01*
X1032911Y423328D01*
Y491039D01*
X1015983Y507967D01*
X965200D01*
X1066767Y491039D02*
X1083695Y507967D01*
X1117551D01*
X1134479Y491039D01*
Y474111D01*
X1117551Y457183D01*
X1100623D01*
X1117551D01*
X1134479Y440256D01*
Y423328D01*
X1117551Y406400D01*
X1083695D01*
X1066767Y423328D01*
X4368800Y5985474D02*
Y5905500D01*
X4408787D01*
X4422116Y5918829D01*
Y5972145D01*
X4408787Y5985474D01*
X4368800D01*
X4502090Y5905500D02*
X4448774D01*
X4502090Y5958816D01*
Y5972145D01*
X4488761Y5985474D01*
X4462103D01*
X4448774Y5972145D01*
X5816600Y5992768D02*
Y5892800D01*
X5866584D01*
X5883245Y5909461D01*
Y5976106D01*
X5866584Y5992768D01*
X5816600D01*
X5916568Y5892800D02*
X5949890D01*
X5933229D01*
Y5992768D01*
X5916568Y5976106D01*
X5397148Y3185238D02*
X5371756Y3210630D01*
X5320973D01*
X5295581Y3185238D01*
Y3083672D01*
X5320973Y3058280D01*
X5371756D01*
X5397148Y3083672D01*
X5549499Y3185238D02*
X5524107Y3210630D01*
X5473324D01*
X5447932Y3185238D01*
Y3159847D01*
X5473324Y3134455D01*
X5524107D01*
X5549499Y3109063D01*
Y3083672D01*
X5524107Y3058280D01*
X5473324D01*
X5447932Y3083672D01*
X5676458Y3058280D02*
Y3210630D01*
X5600282Y3134455D01*
X5701850D01*
X5397148Y2885239D02*
X5371756Y2910630D01*
X5320973D01*
X5295581Y2885239D01*
Y2783672D01*
X5320973Y2758280D01*
X5371756D01*
X5397148Y2783672D01*
X5549499Y2885239D02*
X5524107Y2910630D01*
X5473324D01*
X5447932Y2885239D01*
Y2859847D01*
X5473324Y2834455D01*
X5524107D01*
X5549499Y2809063D01*
Y2783672D01*
X5524107Y2758280D01*
X5473324D01*
X5447932Y2783672D01*
X5600282Y2885239D02*
X5625674Y2910630D01*
X5676458D01*
X5701850Y2885239D01*
Y2859847D01*
X5676458Y2834455D01*
X5651066D01*
X5676458D01*
X5701850Y2809063D01*
Y2783672D01*
X5676458Y2758280D01*
X5625674D01*
X5600282Y2783672D01*
X5384726Y2585239D02*
X5359334Y2610631D01*
X5308551D01*
X5283159Y2585239D01*
Y2483672D01*
X5308551Y2458280D01*
X5359334D01*
X5384726Y2483672D01*
X5537077Y2585239D02*
X5511685Y2610631D01*
X5460902D01*
X5435510Y2585239D01*
Y2559847D01*
X5460902Y2534455D01*
X5511685D01*
X5537077Y2509063D01*
Y2483672D01*
X5511685Y2458280D01*
X5460902D01*
X5435510Y2483672D01*
X5689428Y2458280D02*
X5587861D01*
X5689428Y2559847D01*
Y2585239D01*
X5664036Y2610631D01*
X5613252D01*
X5587861Y2585239D01*
X5397148Y2285239D02*
X5371756Y2310630D01*
X5320973D01*
X5295581Y2285239D01*
Y2183672D01*
X5320973Y2158280D01*
X5371756D01*
X5397148Y2183672D01*
X5549499Y2285239D02*
X5524107Y2310630D01*
X5473324D01*
X5447932Y2285239D01*
Y2259847D01*
X5473324Y2234455D01*
X5524107D01*
X5549499Y2209063D01*
Y2183672D01*
X5524107Y2158280D01*
X5473324D01*
X5447932Y2183672D01*
X5600282Y2158280D02*
X5651066D01*
X5625674D01*
Y2310630D01*
X5600282Y2285239D01*
X2809216Y4765645D02*
X2795887Y4778974D01*
X2769229D01*
X2755900Y4765645D01*
Y4712329D01*
X2769229Y4699000D01*
X2795887D01*
X2809216Y4712329D01*
X2835874Y4699000D02*
Y4778974D01*
X2875861D01*
X2889190Y4765645D01*
Y4738987D01*
X2875861Y4725658D01*
X2835874D01*
X2862532D02*
X2889190Y4699000D01*
X2955836D02*
Y4778974D01*
X2915848Y4738987D01*
X2969164D01*
X2809216Y4613245D02*
X2795887Y4626574D01*
X2769229D01*
X2755900Y4613245D01*
Y4559929D01*
X2769229Y4546600D01*
X2795887D01*
X2809216Y4559929D01*
X2835874Y4546600D02*
Y4626574D01*
X2875861D01*
X2889190Y4613245D01*
Y4586587D01*
X2875861Y4573258D01*
X2835874D01*
X2862532D02*
X2889190Y4546600D01*
X2915848Y4613245D02*
X2929178Y4626574D01*
X2955836D01*
X2969164Y4613245D01*
Y4599916D01*
X2955836Y4586587D01*
X2942506D01*
X2955836D01*
X2969164Y4573258D01*
Y4559929D01*
X2955836Y4546600D01*
X2929178D01*
X2915848Y4559929D01*
X2809216Y4460845D02*
X2795887Y4474174D01*
X2769229D01*
X2755900Y4460845D01*
Y4407529D01*
X2769229Y4394200D01*
X2795887D01*
X2809216Y4407529D01*
X2835874Y4394200D02*
Y4474174D01*
X2875861D01*
X2889190Y4460845D01*
Y4434187D01*
X2875861Y4420858D01*
X2835874D01*
X2862532D02*
X2889190Y4394200D01*
X2969164D02*
X2915848D01*
X2969164Y4447516D01*
Y4460845D01*
X2955836Y4474174D01*
X2929178D01*
X2915848Y4460845D01*
X2809216Y4308445D02*
X2795887Y4321774D01*
X2769229D01*
X2755900Y4308445D01*
Y4255129D01*
X2769229Y4241800D01*
X2795887D01*
X2809216Y4255129D01*
X2835874Y4241800D02*
Y4321774D01*
X2875861D01*
X2889190Y4308445D01*
Y4281787D01*
X2875861Y4268458D01*
X2835874D01*
X2862532D02*
X2889190Y4241800D01*
X2915848D02*
X2942506D01*
X2929178D01*
Y4321774D01*
X2915848Y4308445D01*
X2516312Y4765645D02*
X2502983Y4778974D01*
X2476325D01*
X2462996Y4765645D01*
Y4712329D01*
X2476325Y4699000D01*
X2502983D01*
X2516312Y4712329D01*
X2582957Y4778974D02*
X2556299D01*
X2542970Y4765645D01*
Y4712329D01*
X2556299Y4699000D01*
X2582957D01*
X2596286Y4712329D01*
Y4765645D01*
X2582957Y4778974D01*
X2662931Y4699000D02*
Y4778974D01*
X2622944Y4738987D01*
X2676260D01*
X2516312Y4613245D02*
X2502983Y4626574D01*
X2476325D01*
X2462996Y4613245D01*
Y4559929D01*
X2476325Y4546600D01*
X2502983D01*
X2516312Y4559929D01*
X2582957Y4626574D02*
X2556299D01*
X2542970Y4613245D01*
Y4559929D01*
X2556299Y4546600D01*
X2582957D01*
X2596286Y4559929D01*
Y4613245D01*
X2582957Y4626574D01*
X2622944Y4613245D02*
X2636273Y4626574D01*
X2662931D01*
X2676260Y4613245D01*
Y4599916D01*
X2662931Y4586587D01*
X2649602D01*
X2662931D01*
X2676260Y4573258D01*
Y4559929D01*
X2662931Y4546600D01*
X2636273D01*
X2622944Y4559929D01*
X2516312Y4460845D02*
X2502983Y4474174D01*
X2476325D01*
X2462996Y4460845D01*
Y4407529D01*
X2476325Y4394200D01*
X2502983D01*
X2516312Y4407529D01*
X2582957Y4474174D02*
X2556299D01*
X2542970Y4460845D01*
Y4407529D01*
X2556299Y4394200D01*
X2582957D01*
X2596286Y4407529D01*
Y4460845D01*
X2582957Y4474174D01*
X2676260Y4394200D02*
X2622944D01*
X2676260Y4447516D01*
Y4460845D01*
X2662931Y4474174D01*
X2636273D01*
X2622944Y4460845D01*
X2516312Y4308445D02*
X2502983Y4321774D01*
X2476325D01*
X2462996Y4308445D01*
Y4255129D01*
X2476325Y4241800D01*
X2502983D01*
X2516312Y4255129D01*
X2582957Y4321774D02*
X2556299D01*
X2542970Y4308445D01*
Y4255129D01*
X2556299Y4241800D01*
X2582957D01*
X2596286Y4255129D01*
Y4308445D01*
X2582957Y4321774D01*
X2622944Y4241800D02*
X2649602D01*
X2636273D01*
Y4321774D01*
X2622944Y4308445D01*
X3682810Y2809845D02*
X3669481Y2823174D01*
X3642823D01*
X3629494Y2809845D01*
Y2756529D01*
X3642823Y2743200D01*
X3669481D01*
X3682810Y2756529D01*
X3709468Y2823174D02*
Y2743200D01*
X3749456D01*
X3762784Y2756529D01*
Y2769858D01*
X3749456Y2783187D01*
X3709468D01*
X3749456D01*
X3762784Y2796516D01*
Y2809845D01*
X3749456Y2823174D01*
X3709468D01*
X3789443D02*
X3842759D01*
X3816101D01*
Y2743200D01*
X3922733D02*
X3869417D01*
X3922733Y2796516D01*
Y2809845D01*
X3909404Y2823174D01*
X3882746D01*
X3869417Y2809845D01*
X3847660Y3826245D02*
X3834331Y3839574D01*
X3807673D01*
X3794343Y3826245D01*
Y3772929D01*
X3807673Y3759600D01*
X3834331D01*
X3847660Y3772929D01*
X3874318Y3839574D02*
Y3759600D01*
X3914305D01*
X3927634Y3772929D01*
Y3786258D01*
X3914305Y3799587D01*
X3874318D01*
X3914305D01*
X3927634Y3812916D01*
Y3826245D01*
X3914305Y3839574D01*
X3874318D01*
X3954292D02*
X4007608D01*
X3980950D01*
Y3759600D01*
X4034266D02*
X4060924D01*
X4047595D01*
Y3839574D01*
X4034266Y3826245D01*
X4523716Y5299045D02*
X4510387Y5312374D01*
X4483729D01*
X4470400Y5299045D01*
Y5245729D01*
X4483729Y5232400D01*
X4510387D01*
X4523716Y5245729D01*
X4550374Y5232400D02*
X4577032D01*
X4563703D01*
Y5312374D01*
X4550374Y5299045D01*
X4617019Y5245729D02*
X4630349Y5232400D01*
X4657007D01*
X4670336Y5245729D01*
Y5299045D01*
X4657007Y5312374D01*
X4630349D01*
X4617019Y5299045D01*
Y5285716D01*
X4630349Y5272387D01*
X4670336D01*
X2275816Y7102445D02*
X2262487Y7115774D01*
X2235829D01*
X2222500Y7102445D01*
Y7049129D01*
X2235829Y7035800D01*
X2262487D01*
X2275816Y7049129D01*
X2302474Y7035800D02*
X2329132D01*
X2315803D01*
Y7115774D01*
X2302474Y7102445D01*
X2422436Y7115774D02*
X2369119D01*
Y7075787D01*
X2395778Y7089116D01*
X2409107D01*
X2422436Y7075787D01*
Y7049129D01*
X2409107Y7035800D01*
X2382449D01*
X2369119Y7049129D01*
X2325016Y3279745D02*
X2311687Y3293074D01*
X2285029D01*
X2271700Y3279745D01*
Y3226429D01*
X2285029Y3213100D01*
X2311687D01*
X2325016Y3226429D01*
X2351674Y3279745D02*
X2365003Y3293074D01*
X2391661D01*
X2404990Y3279745D01*
Y3266416D01*
X2391661Y3253087D01*
X2404990Y3239758D01*
Y3226429D01*
X2391661Y3213100D01*
X2365003D01*
X2351674Y3226429D01*
Y3239758D01*
X2365003Y3253087D01*
X2351674Y3266416D01*
Y3279745D01*
X2365003Y3253087D02*
X2391661D01*
X2136116Y3279745D02*
X2122787Y3293074D01*
X2096129D01*
X2082800Y3279745D01*
Y3226429D01*
X2096129Y3213100D01*
X2122787D01*
X2136116Y3226429D01*
X2162774Y3293074D02*
X2216090D01*
Y3279745D01*
X2162774Y3226429D01*
Y3213100D01*
X2771116Y3273764D02*
X2757787Y3287092D01*
X2731129D01*
X2717800Y3273764D01*
Y3220447D01*
X2731129Y3207118D01*
X2757787D01*
X2771116Y3220447D01*
X2851090Y3287092D02*
X2824432Y3273764D01*
X2797774Y3247106D01*
Y3220447D01*
X2811103Y3207118D01*
X2837761D01*
X2851090Y3220447D01*
Y3233776D01*
X2837761Y3247106D01*
X2797774D01*
X2530553Y3284825D02*
X2517224Y3298154D01*
X2490566D01*
X2477237Y3284825D01*
Y3231509D01*
X2490566Y3218180D01*
X2517224D01*
X2530553Y3231509D01*
X2610527Y3298154D02*
X2557211D01*
Y3258167D01*
X2583869Y3271496D01*
X2597199D01*
X2610527Y3258167D01*
Y3231509D01*
X2597199Y3218180D01*
X2570540D01*
X2557211Y3231509D01*
X4702145Y5963406D02*
X4685484Y5980068D01*
X4652161D01*
X4635500Y5963406D01*
Y5896761D01*
X4652161Y5880100D01*
X4685484D01*
X4702145Y5896761D01*
X4785452Y5880100D02*
Y5980068D01*
X4735468Y5930084D01*
X4802113D01*
X5819745Y5468106D02*
X5803084Y5484768D01*
X5769761D01*
X5753100Y5468106D01*
Y5401461D01*
X5769761Y5384800D01*
X5803084D01*
X5819745Y5401461D01*
X5853068Y5468106D02*
X5869729Y5484768D01*
X5903052D01*
X5919713Y5468106D01*
Y5451445D01*
X5903052Y5434784D01*
X5886390D01*
X5903052D01*
X5919713Y5418123D01*
Y5401461D01*
X5903052Y5384800D01*
X5869729D01*
X5853068Y5401461D01*
X4460845Y5480806D02*
X4444184Y5497468D01*
X4410861D01*
X4394200Y5480806D01*
Y5414161D01*
X4410861Y5397500D01*
X4444184D01*
X4460845Y5414161D01*
X4560813Y5397500D02*
X4494168D01*
X4560813Y5464145D01*
Y5480806D01*
X4544152Y5497468D01*
X4510829D01*
X4494168Y5480806D01*
X5438745Y5455406D02*
X5422084Y5472068D01*
X5388761D01*
X5372100Y5455406D01*
Y5388761D01*
X5388761Y5372100D01*
X5422084D01*
X5438745Y5388761D01*
X5472068Y5372100D02*
X5505390D01*
X5488729D01*
Y5472068D01*
X5472068Y5455406D01*
D96*
X1117603Y652598D02*
D03*
X1249440Y3173622D02*
D03*
%TF.MD5,0e626ca1257c3ea50c4eaa5f3d70b728*%
M02*
