%TF.GenerationSoftware,Altium Limited,Altium Designer,19.0.15 (446)*%
G04 Layer_Physical_Order=2*
G04 Layer_Color=36540*
%FSLAX45Y45*%
%MOMM*%
%TF.FileFunction,Copper,L2,Inr,Signal*%
%TF.Part,Single*%
G01*
G75*
%TA.AperFunction,Conductor*%
%ADD40C,0.20320*%
%ADD41C,0.38100*%
%ADD42C,0.50800*%
%ADD44C,1.52400*%
%ADD45C,0.25400*%
%TA.AperFunction,ComponentPad*%
%ADD49C,1.65000*%
%TA.AperFunction,TestPad*%
%ADD50C,1.10000*%
%TA.AperFunction,ViaPad*%
%ADD51C,4.50000*%
%TA.AperFunction,ComponentPad*%
%ADD52R,1.50000X1.50000*%
%ADD53C,1.50000*%
%ADD54C,1.53000*%
%ADD55R,1.53000X1.53000*%
%ADD56C,1.90000*%
%ADD57C,2.25000*%
%ADD58C,6.00000*%
%ADD59C,1.72500*%
%ADD60R,1.72500X1.72500*%
%ADD61R,1.72500X1.72500*%
%ADD62R,2.02500X2.02500*%
%ADD63C,2.02500*%
%TA.AperFunction,ViaPad*%
%ADD64C,0.43180*%
%ADD65C,0.25000*%
%ADD66C,0.55880*%
%ADD67C,1.06680*%
%ADD68C,0.45720*%
G36*
X8102600Y6210299D02*
X8102599Y990600D01*
X7264400Y152400D01*
X1206500Y152400D01*
X368300Y990600D01*
X368300Y6210300D01*
X1320800Y7162800D01*
X7150100Y7162800D01*
X8102600Y6210299D01*
D02*
G37*
%LPC*%
G36*
X3559400Y6979838D02*
X3527379Y6975623D01*
X3497541Y6963263D01*
X3471918Y6943602D01*
X3452257Y6917979D01*
X3439897Y6888141D01*
X3435682Y6856120D01*
X3439897Y6824099D01*
X3452257Y6794261D01*
X3471918Y6768638D01*
X3497541Y6748977D01*
X3527379Y6736617D01*
X3559400Y6732402D01*
X3591421Y6736617D01*
X3621259Y6748977D01*
X3646882Y6768638D01*
X3666543Y6794261D01*
X3678903Y6824099D01*
X3683118Y6856120D01*
X3678903Y6888141D01*
X3666543Y6917979D01*
X3646882Y6943602D01*
X3621259Y6963263D01*
X3591421Y6975623D01*
X3559400Y6979838D01*
D02*
G37*
G36*
X2695400D02*
X2663379Y6975623D01*
X2633541Y6963263D01*
X2607918Y6943602D01*
X2588257Y6917979D01*
X2575898Y6888141D01*
X2571682Y6856120D01*
X2575898Y6824099D01*
X2588257Y6794261D01*
X2607918Y6768638D01*
X2633541Y6748977D01*
X2663379Y6736617D01*
X2695400Y6732402D01*
X2727421Y6736617D01*
X2757259Y6748977D01*
X2782882Y6768638D01*
X2802544Y6794261D01*
X2814903Y6824099D01*
X2819119Y6856120D01*
X2814903Y6888141D01*
X2802544Y6917979D01*
X2782882Y6943602D01*
X2757259Y6963263D01*
X2727421Y6975623D01*
X2695400Y6979838D01*
D02*
G37*
G36*
X4427811Y6842532D02*
X4234991D01*
Y6649712D01*
X4427811D01*
Y6842532D01*
D02*
G37*
G36*
X4077401Y6843364D02*
X4052233Y6840050D01*
X4028780Y6830336D01*
X4008641Y6814882D01*
X3993187Y6794743D01*
X3983473Y6771290D01*
X3980159Y6746122D01*
X3983473Y6720954D01*
X3993187Y6697501D01*
X4008641Y6677361D01*
X4028780Y6661908D01*
X4052233Y6652193D01*
X4077401Y6648880D01*
X4102569Y6652193D01*
X4126022Y6661908D01*
X4146162Y6677361D01*
X4161615Y6697501D01*
X4171330Y6720954D01*
X4174643Y6746122D01*
X4171330Y6771290D01*
X4161615Y6794743D01*
X4146162Y6814882D01*
X4126022Y6830336D01*
X4102569Y6840050D01*
X4077401Y6843364D01*
D02*
G37*
G36*
X3175000Y6699872D02*
X3162612Y6697408D01*
X3152110Y6690390D01*
X3145092Y6679888D01*
X3142628Y6667500D01*
X3145092Y6655112D01*
X3152110Y6644610D01*
X3162612Y6637592D01*
X3175000Y6635128D01*
X3187388Y6637592D01*
X3197890Y6644610D01*
X3204908Y6655112D01*
X3207372Y6667500D01*
X3204908Y6679888D01*
X3197890Y6690390D01*
X3187388Y6697408D01*
X3175000Y6699872D01*
D02*
G37*
G36*
X3075400Y6699167D02*
X3062516Y6696604D01*
X3051594Y6689306D01*
X3044296Y6678384D01*
X3041733Y6665500D01*
X3044296Y6652616D01*
X3051594Y6641694D01*
X3062516Y6634396D01*
X3075400Y6631833D01*
X3088284Y6634396D01*
X3099206Y6641694D01*
X3106504Y6652616D01*
X3109067Y6665500D01*
X3106504Y6678384D01*
X3099206Y6689306D01*
X3088284Y6696604D01*
X3075400Y6699167D01*
D02*
G37*
G36*
X3559400Y6582187D02*
X3531948Y6578573D01*
X3506366Y6567977D01*
X3484399Y6551121D01*
X3467543Y6529154D01*
X3456947Y6503572D01*
X3453333Y6476120D01*
X3456947Y6448668D01*
X3467543Y6423086D01*
X3484399Y6401119D01*
X3506366Y6384263D01*
X3531948Y6373667D01*
X3559400Y6370053D01*
X3586852Y6373667D01*
X3612434Y6384263D01*
X3634401Y6401119D01*
X3651257Y6423086D01*
X3661853Y6448668D01*
X3665467Y6476120D01*
X3661853Y6503572D01*
X3651257Y6529154D01*
X3634401Y6551121D01*
X3612434Y6567977D01*
X3586852Y6578573D01*
X3559400Y6582187D01*
D02*
G37*
G36*
X2695400D02*
X2667948Y6578573D01*
X2642367Y6567977D01*
X2620399Y6551121D01*
X2603543Y6529154D01*
X2592947Y6503572D01*
X2589333Y6476120D01*
X2592947Y6448668D01*
X2603543Y6423086D01*
X2620399Y6401119D01*
X2642367Y6384263D01*
X2667948Y6373667D01*
X2695400Y6370053D01*
X2722853Y6373667D01*
X2748434Y6384263D01*
X2770401Y6401119D01*
X2787257Y6423086D01*
X2797853Y6448668D01*
X2801468Y6476120D01*
X2797853Y6503572D01*
X2787257Y6529154D01*
X2770401Y6551121D01*
X2748434Y6567977D01*
X2722853Y6578573D01*
X2695400Y6582187D01*
D02*
G37*
G36*
X4749800Y6318872D02*
X4737412Y6316408D01*
X4726910Y6309390D01*
X4719892Y6298888D01*
X4717428Y6286500D01*
X4719892Y6274112D01*
X4726910Y6263610D01*
X4737412Y6256592D01*
X4749800Y6254128D01*
X4762188Y6256592D01*
X4772690Y6263610D01*
X4779708Y6274112D01*
X4782172Y6286500D01*
X4779708Y6298888D01*
X4772690Y6309390D01*
X4762188Y6316408D01*
X4749800Y6318872D01*
D02*
G37*
G36*
X4660900D02*
X4648512Y6316408D01*
X4638010Y6309390D01*
X4630992Y6298888D01*
X4628528Y6286500D01*
X4630992Y6274112D01*
X4638010Y6263610D01*
X4648512Y6256592D01*
X4660900Y6254128D01*
X4673288Y6256592D01*
X4683790Y6263610D01*
X4690808Y6274112D01*
X4693272Y6286500D01*
X4690808Y6298888D01*
X4683790Y6309390D01*
X4673288Y6316408D01*
X4660900Y6318872D01*
D02*
G37*
G36*
X3543300Y6069108D02*
X3520677Y6066129D01*
X3499596Y6057397D01*
X3481493Y6043507D01*
X3467603Y6025404D01*
X3458871Y6004323D01*
X3455892Y5981700D01*
X3458871Y5959077D01*
X3467603Y5937996D01*
X3481493Y5919893D01*
X3499596Y5906003D01*
X3520677Y5897271D01*
X3543300Y5894292D01*
X3565923Y5897271D01*
X3587004Y5906003D01*
X3605107Y5919893D01*
X3618997Y5937996D01*
X3627729Y5959077D01*
X3630708Y5981700D01*
X3627729Y6004323D01*
X3618997Y6025404D01*
X3605107Y6043507D01*
X3587004Y6057397D01*
X3565923Y6066129D01*
X3543300Y6069108D01*
D02*
G37*
G36*
X3289300D02*
X3266677Y6066129D01*
X3245596Y6057397D01*
X3227493Y6043507D01*
X3213603Y6025404D01*
X3204871Y6004323D01*
X3201892Y5981700D01*
X3204871Y5959077D01*
X3213603Y5937996D01*
X3227493Y5919893D01*
X3245596Y5906003D01*
X3266677Y5897271D01*
X3289300Y5894292D01*
X3311923Y5897271D01*
X3333004Y5906003D01*
X3351107Y5919893D01*
X3364997Y5937996D01*
X3373729Y5959077D01*
X3376708Y5981700D01*
X3373729Y6004323D01*
X3364997Y6025404D01*
X3351107Y6043507D01*
X3333004Y6057397D01*
X3311923Y6066129D01*
X3289300Y6069108D01*
D02*
G37*
G36*
X6007100Y5760072D02*
X5994712Y5757608D01*
X5984210Y5750590D01*
X5977192Y5740088D01*
X5974728Y5727700D01*
X5977192Y5715312D01*
X5984210Y5704810D01*
X5994712Y5697792D01*
X6007100Y5695328D01*
X6019488Y5697792D01*
X6029990Y5704810D01*
X6037008Y5715312D01*
X6039472Y5727700D01*
X6037008Y5740088D01*
X6029990Y5750590D01*
X6019488Y5757608D01*
X6007100Y5760072D01*
D02*
G37*
G36*
X4109720Y5797354D02*
X4092710Y5795115D01*
X4076859Y5788549D01*
X4063247Y5778105D01*
X4052803Y5764493D01*
X4046237Y5748642D01*
X4043998Y5731632D01*
X4046237Y5714622D01*
X4052803Y5698771D01*
X4063247Y5685160D01*
X4076859Y5674715D01*
X4092710Y5668149D01*
X4109720Y5665910D01*
X4126730Y5668149D01*
X4142581Y5674715D01*
X4156193Y5685160D01*
X4166637Y5698771D01*
X4173203Y5714622D01*
X4175442Y5731632D01*
X4173203Y5748642D01*
X4166637Y5764493D01*
X4156193Y5778105D01*
X4142581Y5788549D01*
X4126730Y5795115D01*
X4109720Y5797354D01*
D02*
G37*
G36*
X3629960Y5814360D02*
X3456640D01*
Y5641040D01*
X3629960D01*
Y5814360D01*
D02*
G37*
G36*
X3375960D02*
X3202640D01*
Y5641040D01*
X3375960D01*
Y5814360D01*
D02*
G37*
G36*
X4711700Y5442572D02*
X4699312Y5440108D01*
X4688810Y5433090D01*
X4681792Y5422588D01*
X4679328Y5410200D01*
X4681792Y5397812D01*
X4688810Y5387310D01*
X4699312Y5380292D01*
X4711700Y5377828D01*
X4724088Y5380292D01*
X4734590Y5387310D01*
X4741608Y5397812D01*
X4744072Y5410200D01*
X4741608Y5422588D01*
X4734590Y5433090D01*
X4724088Y5440108D01*
X4711700Y5442572D01*
D02*
G37*
G36*
X6096000Y5361622D02*
X6078990Y5359383D01*
X6063139Y5352817D01*
X6049527Y5342373D01*
X6039083Y5328761D01*
X6032517Y5312910D01*
X6030278Y5295900D01*
X6032517Y5278890D01*
X6039083Y5263039D01*
X6049527Y5249427D01*
X6063139Y5238983D01*
X6078990Y5232417D01*
X6096000Y5230178D01*
X6113010Y5232417D01*
X6128861Y5238983D01*
X6142473Y5249427D01*
X6152917Y5263039D01*
X6159483Y5278890D01*
X6161722Y5295900D01*
X6159483Y5312910D01*
X6152917Y5328761D01*
X6142473Y5342373D01*
X6128861Y5352817D01*
X6113010Y5359383D01*
X6096000Y5361622D01*
D02*
G37*
G36*
X4500548Y4820272D02*
X4488159Y4817808D01*
X4477657Y4810790D01*
X4470640Y4800288D01*
X4468176Y4787900D01*
X4470640Y4775512D01*
X4477657Y4765010D01*
X4488159Y4757992D01*
X4500548Y4755528D01*
X4512936Y4757992D01*
X4523438Y4765010D01*
X4530456Y4775512D01*
X4532920Y4787900D01*
X4530456Y4800288D01*
X4523438Y4810790D01*
X4512936Y4817808D01*
X4500548Y4820272D01*
D02*
G37*
G36*
X4368800D02*
X4356412Y4817808D01*
X4345910Y4810790D01*
X4338892Y4800288D01*
X4336428Y4787900D01*
X4338892Y4775512D01*
X4345910Y4765010D01*
X4356412Y4757992D01*
X4368800Y4755528D01*
X4381188Y4757992D01*
X4391690Y4765010D01*
X4398708Y4775512D01*
X4401172Y4787900D01*
X4398708Y4800288D01*
X4391690Y4810790D01*
X4381188Y4817808D01*
X4368800Y4820272D01*
D02*
G37*
G36*
X1021080Y4773482D02*
X995912Y4770169D01*
X972459Y4760454D01*
X952320Y4745000D01*
X936866Y4724861D01*
X927152Y4701408D01*
X923838Y4676240D01*
X927152Y4651072D01*
X936866Y4627619D01*
X952320Y4607480D01*
X972459Y4592026D01*
X995912Y4582312D01*
X1021080Y4578998D01*
X1046248Y4582312D01*
X1069701Y4592026D01*
X1089841Y4607480D01*
X1105294Y4627619D01*
X1115009Y4651072D01*
X1118322Y4676240D01*
X1115009Y4701408D01*
X1105294Y4724861D01*
X1089841Y4745000D01*
X1069701Y4760454D01*
X1046248Y4770169D01*
X1021080Y4773482D01*
D02*
G37*
G36*
X5989320Y4477702D02*
X5972310Y4475463D01*
X5956459Y4468897D01*
X5942847Y4458453D01*
X5932403Y4444841D01*
X5925837Y4428990D01*
X5923598Y4411980D01*
X5925837Y4394970D01*
X5932403Y4379119D01*
X5942847Y4365507D01*
X5956459Y4355063D01*
X5972310Y4348497D01*
X5989320Y4346258D01*
X6006330Y4348497D01*
X6022181Y4355063D01*
X6035793Y4365507D01*
X6046237Y4379119D01*
X6052803Y4394970D01*
X6055042Y4411980D01*
X6052803Y4428990D01*
X6046237Y4444841D01*
X6035793Y4458453D01*
X6022181Y4468897D01*
X6006330Y4475463D01*
X5989320Y4477702D01*
D02*
G37*
G36*
X1117490Y4518650D02*
X924670D01*
Y4325830D01*
X1117490D01*
Y4518650D01*
D02*
G37*
G36*
X6814299Y4392517D02*
X6765629Y4388686D01*
X6718158Y4377289D01*
X6673053Y4358607D01*
X6631427Y4333098D01*
X6594304Y4301392D01*
X6562598Y4264269D01*
X6537090Y4222643D01*
X6518407Y4177539D01*
X6507010Y4130067D01*
X6503180Y4081398D01*
X6507010Y4032728D01*
X6518407Y3985257D01*
X6537090Y3940153D01*
X6562598Y3898527D01*
X6594304Y3861403D01*
X6631427Y3829697D01*
X6673053Y3804189D01*
X6718158Y3785506D01*
X6765629Y3774109D01*
X6814299Y3770279D01*
X6862968Y3774109D01*
X6910440Y3785506D01*
X6955544Y3804189D01*
X6997170Y3829697D01*
X7034293Y3861403D01*
X7065999Y3898527D01*
X7091508Y3940153D01*
X7110190Y3985257D01*
X7121587Y4032728D01*
X7125418Y4081398D01*
X7121587Y4130067D01*
X7110190Y4177539D01*
X7091508Y4222643D01*
X7065999Y4264269D01*
X7034293Y4301392D01*
X6997170Y4333098D01*
X6955544Y4358607D01*
X6910440Y4377289D01*
X6862968Y4388686D01*
X6814299Y4392517D01*
D02*
G37*
G36*
X2641600Y3689972D02*
X2629212Y3687508D01*
X2618710Y3680490D01*
X2611692Y3669988D01*
X2609228Y3657600D01*
X2611692Y3645212D01*
X2618710Y3634710D01*
X2629212Y3627692D01*
X2641600Y3625228D01*
X2653988Y3627692D01*
X2664490Y3634710D01*
X2671508Y3645212D01*
X2673972Y3657600D01*
X2671508Y3669988D01*
X2664490Y3680490D01*
X2653988Y3687508D01*
X2641600Y3689972D01*
D02*
G37*
G36*
X2870200Y3664572D02*
X2857812Y3662108D01*
X2847310Y3655090D01*
X2840292Y3644588D01*
X2837828Y3632200D01*
X2840292Y3619812D01*
X2847310Y3609310D01*
X2857812Y3602292D01*
X2870200Y3599828D01*
X2882588Y3602292D01*
X2893090Y3609310D01*
X2900108Y3619812D01*
X2902572Y3632200D01*
X2900108Y3644588D01*
X2893090Y3655090D01*
X2882588Y3662108D01*
X2870200Y3664572D01*
D02*
G37*
G36*
X3111500Y5090997D02*
X2667000D01*
X2659224Y5087776D01*
X2557623Y4986176D01*
X2554402Y4978399D01*
X2554403Y4524530D01*
X2403906Y4298784D01*
X2238858Y4060382D01*
X2238162Y4057163D01*
X2236903Y4054122D01*
X2236902Y3911600D01*
X2240123Y3903824D01*
X2303624Y3840324D01*
X2311401Y3837103D01*
X2517350D01*
X2524138Y3824403D01*
X2522792Y3822388D01*
X2520328Y3810000D01*
X2522792Y3797612D01*
X2529810Y3787110D01*
X2540312Y3780092D01*
X2552700Y3777628D01*
X2565088Y3780092D01*
X2575590Y3787110D01*
X2582608Y3797612D01*
X2585072Y3810000D01*
X2582608Y3822388D01*
X2581262Y3824403D01*
X2588050Y3837103D01*
X3233945D01*
X3341803Y3729245D01*
Y3586077D01*
X3337684Y3574778D01*
X3330069Y3572545D01*
X3328561Y3572245D01*
X3321066Y3567237D01*
X3316057Y3559741D01*
X3314299Y3550900D01*
X3316057Y3542058D01*
X3317381Y3540078D01*
X3308225Y3530922D01*
X3306244Y3532245D01*
X3297403Y3534004D01*
X3288561Y3532245D01*
X3287623Y3531618D01*
X3165080D01*
X3126049Y3570650D01*
X3119327Y3575141D01*
X3111399Y3576718D01*
X3111397Y3576718D01*
X2826762D01*
X2818834Y3575141D01*
X2812112Y3570650D01*
X2812112Y3570649D01*
X2809291Y3567828D01*
X2588605D01*
X2581817Y3580528D01*
X2582608Y3581712D01*
X2585072Y3594100D01*
X2582608Y3606488D01*
X2575590Y3616990D01*
X2565088Y3624008D01*
X2552700Y3626472D01*
X2540312Y3624008D01*
X2529810Y3616990D01*
X2522792Y3606488D01*
X2520328Y3594100D01*
X2521896Y3586219D01*
X2510191Y3579963D01*
X2463341Y3626813D01*
X2456619Y3631304D01*
X2448691Y3632881D01*
X2448690Y3632881D01*
X1827742D01*
X1826290Y3635053D01*
X1815788Y3642071D01*
X1803400Y3644535D01*
X1791012Y3642071D01*
X1780510Y3635053D01*
X1773492Y3624551D01*
X1771028Y3612163D01*
X1773492Y3599775D01*
X1780510Y3589272D01*
X1791012Y3582255D01*
X1803400Y3579791D01*
X1815788Y3582255D01*
X1826290Y3589272D01*
X1827742Y3591445D01*
X2440109D01*
X2482388Y3549166D01*
X2478208Y3535386D01*
X2476812Y3535108D01*
X2466310Y3528090D01*
X2459292Y3517588D01*
X2456828Y3505200D01*
X2459292Y3492812D01*
X2466310Y3482310D01*
X2476812Y3475292D01*
X2489200Y3472828D01*
X2501588Y3475292D01*
X2512090Y3482310D01*
X2519108Y3492812D01*
X2521572Y3505200D01*
X2519883Y3513692D01*
X2525915Y3523969D01*
X2528500Y3526392D01*
X2817871D01*
X2817872Y3526392D01*
X2825801Y3527969D01*
X2832522Y3532460D01*
X2835344Y3535282D01*
X3102817D01*
X3141848Y3496251D01*
X3141849Y3496250D01*
X3148570Y3491759D01*
X3156499Y3490182D01*
X3287623D01*
X3288561Y3489555D01*
X3297403Y3487796D01*
X3306244Y3489555D01*
X3313739Y3494563D01*
X3318748Y3502059D01*
X3320506Y3510900D01*
X3318748Y3519741D01*
X3317424Y3521722D01*
X3326581Y3530878D01*
X3328561Y3529555D01*
X3335371Y3528200D01*
X3337808Y3527244D01*
X3345704Y3516498D01*
X3345589Y3515597D01*
X3345783Y3514884D01*
X3345500Y3514203D01*
X3346863Y3510912D01*
X3347798Y3507475D01*
X3348439Y3507108D01*
X3348721Y3506426D01*
X3354401Y3500746D01*
Y3492500D01*
X3357622Y3484724D01*
X3365399Y3481503D01*
X3386345D01*
X3392603Y3475245D01*
Y3452651D01*
X3395824Y3444875D01*
X3403600Y3441654D01*
X3427251D01*
X3435028Y3444875D01*
X3449476Y3459324D01*
X3452697Y3467100D01*
X3454571Y3468974D01*
X3458762Y3472427D01*
X3472690Y3470275D01*
X3475283Y3465954D01*
X3476058Y3462058D01*
X3481066Y3454563D01*
X3477845Y3442417D01*
X3476058Y3439741D01*
X3474299Y3430900D01*
X3476058Y3422058D01*
X3477394Y3420058D01*
X3480017Y3410900D01*
X3477394Y3401742D01*
X3476058Y3399741D01*
X3474299Y3390900D01*
X3476058Y3382059D01*
X3481066Y3374563D01*
X3488561Y3369555D01*
X3497403Y3367796D01*
X3506244Y3369555D01*
X3518260Y3362309D01*
X3529097Y3324379D01*
X3530829Y3322197D01*
X3531895Y3319624D01*
X3533351Y3319021D01*
X3534331Y3317786D01*
X3537098Y3317468D01*
X3539671Y3316403D01*
X4953000Y3316403D01*
X4960776Y3319624D01*
X5113176Y3472024D01*
X5116397Y3479800D01*
Y4122845D01*
X5123290Y4132690D01*
X5129097Y4132690D01*
X5316110D01*
Y4325510D01*
X5129097D01*
X5123290Y4325510D01*
X5116397Y4335355D01*
Y4419600D01*
X5113176Y4427376D01*
X4998876Y4541676D01*
X4991100Y4544897D01*
X4724400D01*
X4716624Y4541676D01*
X4567445Y4392497D01*
X4068555D01*
X3995576Y4465476D01*
X3987800Y4468697D01*
X3848100D01*
X3840324Y4465476D01*
X3784671Y4409824D01*
X3781450Y4402048D01*
Y4157752D01*
X3784671Y4149976D01*
X3878424Y4056224D01*
X3886200Y4053003D01*
X3937000D01*
X3937023Y4053012D01*
X3937046Y4053003D01*
X4454833Y4055193D01*
X4459718Y4043470D01*
X3919745Y3503497D01*
X3504973D01*
X3498845Y3516197D01*
X3513689Y3534868D01*
X3521066Y3534563D01*
X3528561Y3529555D01*
X3537403Y3527796D01*
X3546244Y3529555D01*
X3548245Y3530892D01*
X3557403Y3533514D01*
X3566561Y3530892D01*
X3568561Y3529555D01*
X3577403Y3527796D01*
X3586244Y3529555D01*
X3593739Y3534563D01*
X3598748Y3542058D01*
X3600506Y3550900D01*
X3598748Y3559741D01*
X3593739Y3567237D01*
X3586244Y3572245D01*
X3577403Y3574004D01*
X3568561Y3572245D01*
X3566561Y3570908D01*
X3557403Y3568286D01*
X3548245Y3570908D01*
X3546244Y3572245D01*
X3537403Y3574004D01*
X3536319Y3574893D01*
X3536319Y3777018D01*
X3533098Y3784794D01*
X3224097Y4093795D01*
X3224097Y4978400D01*
X3220876Y4986176D01*
X3119276Y5087776D01*
X3111500Y5090997D01*
D02*
G37*
G36*
X3337403Y3414004D02*
X3328561Y3412245D01*
X3321066Y3407237D01*
X3316057Y3399741D01*
X3314299Y3390900D01*
X3316057Y3382059D01*
X3321066Y3374563D01*
X3328561Y3369555D01*
X3337403Y3367796D01*
X3346244Y3369555D01*
X3353739Y3374563D01*
X3358748Y3382059D01*
X3360506Y3390900D01*
X3358748Y3399741D01*
X3353739Y3407237D01*
X3346244Y3412245D01*
X3337403Y3414004D01*
D02*
G37*
G36*
X2971800Y3410572D02*
X2959412Y3408108D01*
X2948910Y3401090D01*
X2941892Y3390588D01*
X2939428Y3378200D01*
X2941892Y3365812D01*
X2948910Y3355310D01*
X2959412Y3348292D01*
X2971800Y3345828D01*
X2984188Y3348292D01*
X2994690Y3355310D01*
X3001708Y3365812D01*
X3004172Y3378200D01*
X3001708Y3390588D01*
X2994690Y3401090D01*
X2984188Y3408108D01*
X2971800Y3410572D01*
D02*
G37*
G36*
X1651000D02*
X1638612Y3408108D01*
X1628110Y3401090D01*
X1621092Y3390588D01*
X1618628Y3378200D01*
X1621092Y3365812D01*
X1628110Y3355310D01*
X1638612Y3348292D01*
X1651000Y3345828D01*
X1663388Y3348292D01*
X1673890Y3355310D01*
X1680908Y3365812D01*
X1683372Y3378200D01*
X1680908Y3390588D01*
X1673890Y3401090D01*
X1663388Y3408108D01*
X1651000Y3410572D01*
D02*
G37*
G36*
X3417403Y3374004D02*
X3408561Y3372245D01*
X3401066Y3367237D01*
X3396057Y3359742D01*
X3394299Y3350900D01*
X3396057Y3342059D01*
X3397381Y3340078D01*
X3388225Y3330921D01*
X3386244Y3332245D01*
X3377403Y3334004D01*
X3368561Y3332245D01*
X3361066Y3327237D01*
X3356058Y3319741D01*
X3354299Y3310900D01*
X3356058Y3302058D01*
X3357381Y3300078D01*
X3348225Y3290922D01*
X3346244Y3292245D01*
X3337403Y3294004D01*
X3328561Y3292245D01*
X3321066Y3287237D01*
X3316057Y3279741D01*
X3314299Y3270900D01*
X3316057Y3262058D01*
X3321066Y3254563D01*
X3328561Y3249555D01*
X3337403Y3247796D01*
X3346244Y3249555D01*
X3353739Y3254563D01*
X3358748Y3262058D01*
X3360506Y3270900D01*
X3358748Y3279741D01*
X3357424Y3281722D01*
X3366580Y3290878D01*
X3368561Y3289555D01*
X3377403Y3287796D01*
X3386244Y3289555D01*
X3388245Y3290892D01*
X3397403Y3293514D01*
X3406561Y3290892D01*
X3408561Y3289555D01*
X3417403Y3287796D01*
X3426244Y3289555D01*
X3433739Y3294563D01*
X3438748Y3302058D01*
X3440506Y3310900D01*
X3438748Y3319741D01*
X3433739Y3327236D01*
Y3334564D01*
X3438748Y3342059D01*
X3440506Y3350900D01*
X3438748Y3359742D01*
X3433739Y3367237D01*
X3426244Y3372245D01*
X3417403Y3374004D01*
D02*
G37*
G36*
X3073400Y3308972D02*
X3061012Y3306508D01*
X3050510Y3299490D01*
X3043492Y3288988D01*
X3041028Y3276600D01*
X3043104Y3266160D01*
X3038390Y3260438D01*
X3033270Y3256651D01*
X3022600Y3258773D01*
X3010212Y3256309D01*
X2999710Y3249291D01*
X2992692Y3238789D01*
X2990228Y3226401D01*
X2992692Y3214013D01*
X2999710Y3203510D01*
X3010212Y3196493D01*
X3022600Y3194029D01*
X3034988Y3196493D01*
X3045490Y3203510D01*
X3052508Y3214013D01*
X3054972Y3226401D01*
X3052896Y3236841D01*
X3057610Y3242563D01*
X3062730Y3246350D01*
X3073400Y3244228D01*
X3085788Y3246692D01*
X3096290Y3253710D01*
X3103308Y3264212D01*
X3105772Y3276600D01*
X3103308Y3288988D01*
X3096290Y3299490D01*
X3085788Y3306508D01*
X3073400Y3308972D01*
D02*
G37*
G36*
X3537403Y3294004D02*
X3528561Y3292245D01*
X3521066Y3287237D01*
X3516057Y3279741D01*
X3514299Y3270900D01*
X3516057Y3262058D01*
X3521066Y3254563D01*
X3528561Y3249555D01*
X3537403Y3247796D01*
X3546244Y3249555D01*
X3553739Y3254563D01*
X3558748Y3262058D01*
X3560506Y3270900D01*
X3558748Y3279741D01*
X3553739Y3287237D01*
X3546244Y3292245D01*
X3537403Y3294004D01*
D02*
G37*
G36*
X2171700Y3033004D02*
X2162859Y3031245D01*
X2155363Y3026237D01*
X2150355Y3018741D01*
X2148596Y3009900D01*
X2150355Y3001059D01*
X2155363Y2993563D01*
X2162859Y2988555D01*
X2171700Y2986796D01*
X2180541Y2988555D01*
X2188037Y2993563D01*
X2193045Y3001059D01*
X2194804Y3009900D01*
X2193045Y3018741D01*
X2188037Y3026237D01*
X2180541Y3031245D01*
X2171700Y3033004D01*
D02*
G37*
G36*
X1511300Y3042272D02*
X1498912Y3039808D01*
X1488410Y3032790D01*
X1481392Y3022288D01*
X1478928Y3009900D01*
X1481392Y2997512D01*
X1488410Y2987010D01*
X1498912Y2979992D01*
X1511300Y2977528D01*
X1523688Y2979992D01*
X1534190Y2987010D01*
X1541208Y2997512D01*
X1543672Y3009900D01*
X1541208Y3022288D01*
X1534190Y3032790D01*
X1523688Y3039808D01*
X1511300Y3042272D01*
D02*
G37*
G36*
X3600920Y2997453D02*
X3588532Y2994989D01*
X3578029Y2987972D01*
X3571012Y2977470D01*
X3568548Y2965081D01*
X3571012Y2952693D01*
X3578029Y2942191D01*
X3588532Y2935173D01*
X3600920Y2932709D01*
X3613308Y2935173D01*
X3623810Y2942191D01*
X3630828Y2952693D01*
X3633292Y2965081D01*
X3630828Y2977470D01*
X3623810Y2987972D01*
X3613308Y2994989D01*
X3600920Y2997453D01*
D02*
G37*
G36*
X6814299Y3392519D02*
X6765629Y3388688D01*
X6718158Y3377291D01*
X6673053Y3358609D01*
X6631427Y3333100D01*
X6594304Y3301394D01*
X6562598Y3264271D01*
X6537090Y3222645D01*
X6518407Y3177541D01*
X6507010Y3130069D01*
X6503180Y3081400D01*
X6507010Y3032730D01*
X6518407Y2985259D01*
X6537090Y2940155D01*
X6562598Y2898529D01*
X6594304Y2861405D01*
X6631427Y2829699D01*
X6673053Y2804191D01*
X6718158Y2785508D01*
X6765629Y2774111D01*
X6814299Y2770281D01*
X6862968Y2774111D01*
X6910440Y2785508D01*
X6955544Y2804191D01*
X6997170Y2829699D01*
X7034293Y2861405D01*
X7065999Y2898529D01*
X7091508Y2940155D01*
X7110190Y2985259D01*
X7121587Y3032730D01*
X7125418Y3081400D01*
X7121587Y3130069D01*
X7110190Y3177541D01*
X7091508Y3222645D01*
X7065999Y3264271D01*
X7034293Y3301394D01*
X6997170Y3333100D01*
X6955544Y3358609D01*
X6910440Y3377291D01*
X6862968Y3388688D01*
X6814299Y3392519D01*
D02*
G37*
G36*
X2108200Y2727312D02*
X2095812Y2724848D01*
X2085310Y2717830D01*
X2078292Y2707328D01*
X2075828Y2694940D01*
X2078292Y2682552D01*
X2085310Y2672050D01*
X2095812Y2665032D01*
X2108200Y2662568D01*
X2120588Y2665032D01*
X2131090Y2672050D01*
X2138108Y2682552D01*
X2140572Y2694940D01*
X2138108Y2707328D01*
X2131090Y2717830D01*
X2120588Y2724848D01*
X2108200Y2727312D01*
D02*
G37*
G36*
X4391660Y2684462D02*
X4374650Y2682223D01*
X4358799Y2675657D01*
X4345187Y2665213D01*
X4334743Y2651601D01*
X4328177Y2635750D01*
X4325938Y2618740D01*
X4328177Y2601730D01*
X4334743Y2585879D01*
X4345187Y2572267D01*
X4358799Y2561823D01*
X4374650Y2555257D01*
X4391660Y2553018D01*
X4408670Y2555257D01*
X4424521Y2561823D01*
X4438133Y2572267D01*
X4448577Y2585879D01*
X4455143Y2601730D01*
X4457382Y2618740D01*
X4455143Y2635750D01*
X4448577Y2651601D01*
X4438133Y2665213D01*
X4424521Y2675657D01*
X4408670Y2682223D01*
X4391660Y2684462D01*
D02*
G37*
G36*
X1308100Y3909757D02*
X1294225Y3906997D01*
X1282463Y3899137D01*
X1274603Y3887375D01*
X1271843Y3873500D01*
X1274603Y3859625D01*
X1282463Y3847863D01*
X1908729Y3221596D01*
X1908730Y3221595D01*
X1913293Y3218546D01*
X1914537Y3216630D01*
X1916135Y3210926D01*
X1916622Y3202720D01*
X1916477Y3202307D01*
X1913192Y3197391D01*
X1910728Y3185003D01*
X1913192Y3172614D01*
X1920210Y3162112D01*
X1930712Y3155095D01*
X1943100Y3152630D01*
X1955488Y3155095D01*
X1965990Y3162112D01*
X1973008Y3172614D01*
X1975472Y3185003D01*
X1973008Y3197391D01*
X1972417Y3198276D01*
X1979205Y3210976D01*
X2109849D01*
X2170790Y3150035D01*
X2166090Y3136775D01*
X2159312Y3135426D01*
X2148810Y3128409D01*
X2141792Y3117907D01*
X2139328Y3105518D01*
X2141792Y3093130D01*
X2148810Y3082628D01*
X2159312Y3075610D01*
X2171700Y3073146D01*
X2184088Y3075610D01*
X2194590Y3082628D01*
X2201608Y3093130D01*
X2202956Y3099908D01*
X2216216Y3104609D01*
X2768362Y2552463D01*
X2768363Y2552463D01*
X2780125Y2544603D01*
X2794000Y2541843D01*
X2794001Y2541843D01*
X2997199D01*
X2997200Y2541843D01*
X3011075Y2544603D01*
X3022837Y2552463D01*
X3187937Y2717563D01*
X3195797Y2729325D01*
X3198557Y2743200D01*
X3195797Y2757075D01*
X3187937Y2768837D01*
X3176175Y2776697D01*
X3162300Y2779457D01*
X3148425Y2776697D01*
X3136663Y2768837D01*
X2982182Y2614357D01*
X2809018D01*
X2150505Y3272870D01*
X2138742Y3280729D01*
X2124867Y3283489D01*
X2124866Y3283489D01*
X1949385D01*
X1860653Y3372222D01*
X1866900Y3383928D01*
X1879288Y3386392D01*
X1889790Y3393410D01*
X1896808Y3403912D01*
X1899272Y3416300D01*
X1896808Y3428688D01*
X1889790Y3439190D01*
X1879288Y3446208D01*
X1866900Y3448672D01*
X1854512Y3446208D01*
X1844010Y3439190D01*
X1836992Y3428688D01*
X1834528Y3416300D01*
X1822822Y3410053D01*
X1333737Y3899137D01*
X1321975Y3906997D01*
X1308100Y3909757D01*
D02*
G37*
G36*
X3606800Y2331072D02*
X3594412Y2328608D01*
X3583910Y2321590D01*
X3576892Y2311088D01*
X3574428Y2298700D01*
X3576892Y2286312D01*
X3583910Y2275810D01*
X3594412Y2268792D01*
X3606800Y2266328D01*
X3619188Y2268792D01*
X3629690Y2275810D01*
X3636708Y2286312D01*
X3639172Y2298700D01*
X3636708Y2311088D01*
X3629690Y2321590D01*
X3619188Y2328608D01*
X3606800Y2331072D01*
D02*
G37*
G36*
X1905000Y1899272D02*
X1892612Y1896808D01*
X1882110Y1889790D01*
X1875092Y1879288D01*
X1872628Y1866900D01*
X1875092Y1854512D01*
X1882110Y1844010D01*
X1892612Y1836992D01*
X1905000Y1834528D01*
X1917388Y1836992D01*
X1927890Y1844010D01*
X1934908Y1854512D01*
X1937372Y1866900D01*
X1934908Y1879288D01*
X1927890Y1889790D01*
X1917388Y1896808D01*
X1905000Y1899272D01*
D02*
G37*
G36*
X3073400Y3191688D02*
X3061012Y3189224D01*
X3050510Y3182207D01*
X3043492Y3171705D01*
X3041028Y3159316D01*
X3043492Y3146928D01*
X3050510Y3136426D01*
X3061012Y3129408D01*
X3072663Y3127091D01*
X3168235Y3031519D01*
X3175797Y3026466D01*
X3184716Y3024692D01*
X3592389D01*
X3593781Y3024969D01*
X3595174Y3024692D01*
X3851146D01*
X3862892Y3012946D01*
Y2838759D01*
X3775967Y2751833D01*
X3704619Y2680486D01*
X3699566Y2672925D01*
X3697792Y2664005D01*
Y2206590D01*
X3476268Y1985066D01*
X3471215Y1977504D01*
X3469441Y1968585D01*
Y1814404D01*
X3456741Y1810093D01*
X3444857Y1825580D01*
X3421584Y1843438D01*
X3394482Y1854664D01*
X3365399Y1858493D01*
X3336315Y1854664D01*
X3316386Y1846409D01*
X2254258Y2908537D01*
X2242495Y2916397D01*
X2228620Y2919157D01*
X2228619Y2919157D01*
X1460500D01*
X1446625Y2916397D01*
X1434863Y2908537D01*
X1427003Y2896775D01*
X1424243Y2882900D01*
X1427003Y2869025D01*
X1434863Y2857263D01*
X1446625Y2849403D01*
X1460500Y2846643D01*
X2213602D01*
X3265111Y1795134D01*
X3256856Y1775205D01*
X3253027Y1746121D01*
X3256856Y1717038D01*
X3268082Y1689936D01*
X3285940Y1666663D01*
X3309213Y1648805D01*
X3336315Y1637579D01*
X3365399Y1633750D01*
X3394482Y1637579D01*
X3400448Y1633872D01*
X3405692Y1628476D01*
Y776192D01*
X3404811Y776076D01*
X3382270Y766739D01*
X3362914Y751887D01*
X3348061Y732531D01*
X3338725Y709990D01*
X3335540Y685801D01*
X3338725Y661612D01*
X3348061Y639071D01*
X3362914Y619715D01*
X3382270Y604863D01*
X3404811Y595526D01*
X3429000Y592341D01*
X3453189Y595526D01*
X3475729Y604863D01*
X3495086Y619715D01*
X3509938Y639071D01*
X3519275Y661612D01*
X3522459Y685801D01*
X3519275Y709990D01*
X3509938Y732531D01*
X3495086Y751887D01*
X3475729Y766739D01*
X3453189Y776076D01*
X3452308Y776192D01*
Y1620959D01*
X3509230Y1677881D01*
X3512066Y1682126D01*
X3523281Y1684185D01*
X3526881Y1683682D01*
X3539940Y1666663D01*
X3563213Y1648805D01*
X3590315Y1637579D01*
X3619399Y1633750D01*
X3648482Y1637579D01*
X3675584Y1648805D01*
X3698857Y1666663D01*
X3716715Y1689936D01*
X3727941Y1717038D01*
X3731770Y1746121D01*
X3727941Y1775205D01*
X3716715Y1802307D01*
X3698857Y1825580D01*
X3675584Y1843438D01*
X3648482Y1854664D01*
X3619399Y1858493D01*
X3590315Y1854664D01*
X3563213Y1843438D01*
X3539940Y1825580D01*
X3528756Y1811006D01*
X3516056Y1815317D01*
Y1958930D01*
X3737581Y2180455D01*
X3742634Y2188016D01*
X3744408Y2196936D01*
Y2654351D01*
X3808929Y2718871D01*
X3808929Y2718872D01*
X3902681Y2812624D01*
X3907734Y2820185D01*
X3909508Y2829105D01*
Y3022600D01*
X3907734Y3031520D01*
X3902681Y3039081D01*
X3877281Y3064481D01*
X3869719Y3069534D01*
X3860800Y3071308D01*
X3653490D01*
X3647268Y3080019D01*
X3645926Y3084008D01*
X3648062Y3094745D01*
X3645598Y3107133D01*
X3638580Y3117635D01*
X3628078Y3124653D01*
X3615690Y3127117D01*
X3603302Y3124653D01*
X3592800Y3117635D01*
X3585782Y3107133D01*
X3583318Y3094745D01*
X3585454Y3084008D01*
X3584112Y3080019D01*
X3577890Y3071308D01*
X3194371D01*
X3105625Y3160053D01*
X3103308Y3171705D01*
X3096290Y3182207D01*
X3085788Y3189224D01*
X3073400Y3191688D01*
D02*
G37*
G36*
X4492809Y1857531D02*
X4269989D01*
Y1634711D01*
X4492809D01*
Y1857531D01*
D02*
G37*
G36*
X4127399Y1858493D02*
X4098315Y1854664D01*
X4071213Y1843438D01*
X4047940Y1825580D01*
X4030082Y1802307D01*
X4018856Y1775205D01*
X4015027Y1746121D01*
X4018856Y1717038D01*
X4030082Y1689936D01*
X4047940Y1666663D01*
X4071213Y1648805D01*
X4098315Y1637579D01*
X4127399Y1633750D01*
X4156482Y1637579D01*
X4183584Y1648805D01*
X4206857Y1666663D01*
X4224715Y1689936D01*
X4235941Y1717038D01*
X4239770Y1746121D01*
X4235941Y1775205D01*
X4224715Y1802307D01*
X4206857Y1825580D01*
X4183584Y1843438D01*
X4156482Y1854664D01*
X4127399Y1858493D01*
D02*
G37*
G36*
X3873399D02*
X3844315Y1854664D01*
X3817213Y1843438D01*
X3793940Y1825580D01*
X3776082Y1802307D01*
X3764856Y1775205D01*
X3761027Y1746121D01*
X3764856Y1717038D01*
X3776082Y1689936D01*
X3793940Y1666663D01*
X3817213Y1648805D01*
X3844315Y1637579D01*
X3873399Y1633750D01*
X3902482Y1637579D01*
X3929584Y1648805D01*
X3952857Y1666663D01*
X3970715Y1689936D01*
X3981941Y1717038D01*
X3985770Y1746121D01*
X3981941Y1775205D01*
X3970715Y1802307D01*
X3952857Y1825580D01*
X3929584Y1843438D01*
X3902482Y1854664D01*
X3873399Y1858493D01*
D02*
G37*
G36*
X7197160Y1675150D02*
X7026840D01*
Y1504830D01*
X7197160D01*
Y1675150D01*
D02*
G37*
G36*
X6858000Y1675884D02*
X6835769Y1672958D01*
X6815053Y1664377D01*
X6797263Y1650726D01*
X6783613Y1632937D01*
X6775032Y1612221D01*
X6772105Y1589990D01*
X6775032Y1567759D01*
X6783613Y1547042D01*
X6797263Y1529253D01*
X6815053Y1515603D01*
X6835769Y1507022D01*
X6858000Y1504095D01*
X6880231Y1507022D01*
X6900947Y1515603D01*
X6918737Y1529253D01*
X6932387Y1547042D01*
X6940968Y1567759D01*
X6943895Y1589990D01*
X6940968Y1612221D01*
X6932387Y1632937D01*
X6918737Y1650726D01*
X6900947Y1664377D01*
X6880231Y1672958D01*
X6858000Y1675884D01*
D02*
G37*
G36*
X6604000D02*
X6581769Y1672958D01*
X6561053Y1664377D01*
X6543263Y1650726D01*
X6529613Y1632937D01*
X6521032Y1612221D01*
X6518105Y1589990D01*
X6521032Y1567759D01*
X6529613Y1547042D01*
X6543263Y1529253D01*
X6561053Y1515603D01*
X6581769Y1507022D01*
X6604000Y1504095D01*
X6626231Y1507022D01*
X6646947Y1515603D01*
X6664737Y1529253D01*
X6678387Y1547042D01*
X6686968Y1567759D01*
X6689895Y1589990D01*
X6686968Y1612221D01*
X6678387Y1632937D01*
X6664737Y1650726D01*
X6646947Y1664377D01*
X6626231Y1672958D01*
X6604000Y1675884D01*
D02*
G37*
G36*
X4622800Y1403972D02*
X4610412Y1401508D01*
X4599910Y1394490D01*
X4592892Y1383988D01*
X4590428Y1371600D01*
X4592892Y1359212D01*
X4599910Y1348710D01*
X4610412Y1341692D01*
X4622800Y1339228D01*
X4635188Y1341692D01*
X4645690Y1348710D01*
X4652708Y1359212D01*
X4655172Y1371600D01*
X4652708Y1383988D01*
X4645690Y1394490D01*
X4635188Y1401508D01*
X4622800Y1403972D01*
D02*
G37*
G36*
X1930400Y1353172D02*
X1918012Y1350708D01*
X1907510Y1343690D01*
X1900492Y1333188D01*
X1898028Y1320800D01*
X1900492Y1308412D01*
X1907510Y1297910D01*
X1918012Y1290892D01*
X1930400Y1288428D01*
X1942788Y1290892D01*
X1953290Y1297910D01*
X1960308Y1308412D01*
X1962772Y1320800D01*
X1960308Y1333188D01*
X1953290Y1343690D01*
X1942788Y1350708D01*
X1930400Y1353172D01*
D02*
G37*
G36*
X2222500Y1340472D02*
X2210112Y1338008D01*
X2199610Y1330990D01*
X2192592Y1320488D01*
X2190128Y1308100D01*
X2192592Y1295712D01*
X2199610Y1285210D01*
X2210112Y1278192D01*
X2222500Y1275728D01*
X2234888Y1278192D01*
X2245390Y1285210D01*
X2252408Y1295712D01*
X2254872Y1308100D01*
X2252408Y1320488D01*
X2245390Y1330990D01*
X2234888Y1338008D01*
X2222500Y1340472D01*
D02*
G37*
G36*
X609600Y1236525D02*
X592590Y1234286D01*
X576739Y1227720D01*
X563127Y1217275D01*
X552683Y1203664D01*
X546117Y1187813D01*
X543878Y1170803D01*
X546117Y1153793D01*
X552683Y1137942D01*
X563127Y1124330D01*
X576739Y1113886D01*
X592590Y1107320D01*
X609600Y1105081D01*
X626610Y1107320D01*
X642461Y1113886D01*
X656073Y1124330D01*
X666517Y1137942D01*
X673083Y1153793D01*
X675322Y1170803D01*
X673083Y1187813D01*
X666517Y1203664D01*
X656073Y1217275D01*
X642461Y1227720D01*
X626610Y1234286D01*
X609600Y1236525D01*
D02*
G37*
G36*
X1879600Y2760282D02*
X1868203Y2758015D01*
X1858541Y2751559D01*
X1820441Y2713459D01*
X1813985Y2703797D01*
X1811718Y2692400D01*
Y1990818D01*
X1813985Y1979421D01*
X1820441Y1969759D01*
X1842759Y1947441D01*
X1852421Y1940985D01*
X1863818Y1938718D01*
X2387964D01*
X2949638Y1377044D01*
Y1193572D01*
X2946559Y1192297D01*
X2932947Y1181853D01*
X2922503Y1168241D01*
X2915937Y1152390D01*
X2913698Y1135380D01*
X2915937Y1118370D01*
X2922503Y1102519D01*
X2932947Y1088907D01*
X2946559Y1078463D01*
X2962410Y1071897D01*
X2979420Y1069658D01*
X2996430Y1071897D01*
X3012281Y1078463D01*
X3025893Y1088907D01*
X3036337Y1102519D01*
X3042903Y1118370D01*
X3045142Y1135380D01*
X3042903Y1152390D01*
X3036337Y1168241D01*
X3025893Y1181853D01*
X3012281Y1192297D01*
X3009202Y1193572D01*
Y1389380D01*
X3006935Y1400777D01*
X3000479Y1410439D01*
X2421359Y1989559D01*
X2411697Y1996015D01*
X2400300Y1998282D01*
X1876154D01*
X1871282Y2003154D01*
Y2680064D01*
X1900659Y2709441D01*
X1907115Y2719103D01*
X1909382Y2730500D01*
X1907115Y2741897D01*
X1900659Y2751559D01*
X1890997Y2758015D01*
X1879600Y2760282D01*
D02*
G37*
G36*
X7112000Y913884D02*
X7089769Y910958D01*
X7069053Y902377D01*
X7051263Y888726D01*
X7037613Y870937D01*
X7029032Y850221D01*
X7026105Y827990D01*
X7029032Y805759D01*
X7037613Y785042D01*
X7051263Y767253D01*
X7069053Y753603D01*
X7089769Y745022D01*
X7112000Y742095D01*
X7134231Y745022D01*
X7154947Y753603D01*
X7172737Y767253D01*
X7186387Y785042D01*
X7194968Y805759D01*
X7197895Y827990D01*
X7194968Y850221D01*
X7186387Y870937D01*
X7172737Y888726D01*
X7154947Y902377D01*
X7134231Y910958D01*
X7112000Y913884D01*
D02*
G37*
G36*
X6858000D02*
X6835769Y910958D01*
X6815053Y902377D01*
X6797263Y888726D01*
X6783613Y870937D01*
X6775032Y850221D01*
X6772105Y827990D01*
X6775032Y805759D01*
X6783613Y785042D01*
X6797263Y767253D01*
X6815053Y753603D01*
X6835769Y745022D01*
X6858000Y742095D01*
X6880231Y745022D01*
X6900947Y753603D01*
X6918737Y767253D01*
X6932387Y785042D01*
X6940968Y805759D01*
X6943895Y827990D01*
X6940968Y850221D01*
X6932387Y870937D01*
X6918737Y888726D01*
X6900947Y902377D01*
X6880231Y910958D01*
X6858000Y913884D01*
D02*
G37*
G36*
X6604000D02*
X6581769Y910958D01*
X6561053Y902377D01*
X6543263Y888726D01*
X6529613Y870937D01*
X6521032Y850221D01*
X6518105Y827990D01*
X6521032Y805759D01*
X6529613Y785042D01*
X6543263Y767253D01*
X6561053Y753603D01*
X6581769Y745022D01*
X6604000Y742095D01*
X6626231Y745022D01*
X6646947Y753603D01*
X6664737Y767253D01*
X6678387Y785042D01*
X6686968Y805759D01*
X6689895Y827990D01*
X6686968Y850221D01*
X6678387Y870937D01*
X6664737Y888726D01*
X6646947Y902377D01*
X6626231Y910958D01*
X6604000Y913884D01*
D02*
G37*
G36*
X6350000D02*
X6327769Y910958D01*
X6307053Y902377D01*
X6289263Y888726D01*
X6275613Y870937D01*
X6267032Y850221D01*
X6264105Y827990D01*
X6267032Y805759D01*
X6275613Y785042D01*
X6289263Y767253D01*
X6307053Y753603D01*
X6327769Y745022D01*
X6350000Y742095D01*
X6372231Y745022D01*
X6392947Y753603D01*
X6410737Y767253D01*
X6424387Y785042D01*
X6432968Y805759D01*
X6435895Y827990D01*
X6432968Y850221D01*
X6424387Y870937D01*
X6410737Y888726D01*
X6392947Y902377D01*
X6372231Y910958D01*
X6350000Y913884D01*
D02*
G37*
G36*
X4699000Y779261D02*
X4674811Y776076D01*
X4652270Y766739D01*
X4632914Y751887D01*
X4618061Y732531D01*
X4608725Y709990D01*
X4605540Y685801D01*
X4608725Y661612D01*
X4618061Y639071D01*
X4632914Y619715D01*
X4652270Y604863D01*
X4674811Y595526D01*
X4699000Y592341D01*
X4723189Y595526D01*
X4745729Y604863D01*
X4765086Y619715D01*
X4779938Y639071D01*
X4789275Y661612D01*
X4792459Y685801D01*
X4789275Y709990D01*
X4779938Y732531D01*
X4765086Y751887D01*
X4745729Y766739D01*
X4723189Y776076D01*
X4699000Y779261D01*
D02*
G37*
G36*
X4445000D02*
X4420811Y776076D01*
X4398270Y766739D01*
X4378914Y751887D01*
X4364061Y732531D01*
X4354725Y709990D01*
X4351540Y685801D01*
X4354725Y661612D01*
X4364061Y639071D01*
X4378914Y619715D01*
X4398270Y604863D01*
X4420811Y595526D01*
X4445000Y592341D01*
X4469189Y595526D01*
X4491729Y604863D01*
X4511086Y619715D01*
X4525938Y639071D01*
X4535275Y661612D01*
X4538459Y685801D01*
X4535275Y709990D01*
X4525938Y732531D01*
X4511086Y751887D01*
X4491729Y766739D01*
X4469189Y776076D01*
X4445000Y779261D01*
D02*
G37*
G36*
X4191000D02*
X4166811Y776076D01*
X4144270Y766739D01*
X4124914Y751887D01*
X4110061Y732531D01*
X4100725Y709990D01*
X4097540Y685801D01*
X4100725Y661612D01*
X4110061Y639071D01*
X4124914Y619715D01*
X4144270Y604863D01*
X4166811Y595526D01*
X4191000Y592341D01*
X4215189Y595526D01*
X4237729Y604863D01*
X4257086Y619715D01*
X4271938Y639071D01*
X4281275Y661612D01*
X4284459Y685801D01*
X4281275Y709990D01*
X4271938Y732531D01*
X4257086Y751887D01*
X4237729Y766739D01*
X4215189Y776076D01*
X4191000Y779261D01*
D02*
G37*
G36*
X3937000D02*
X3912811Y776076D01*
X3890270Y766739D01*
X3870914Y751887D01*
X3856061Y732531D01*
X3846725Y709990D01*
X3843540Y685801D01*
X3846725Y661612D01*
X3856061Y639071D01*
X3870914Y619715D01*
X3890270Y604863D01*
X3912811Y595526D01*
X3937000Y592341D01*
X3961189Y595526D01*
X3983729Y604863D01*
X4003086Y619715D01*
X4017938Y639071D01*
X4027275Y661612D01*
X4030459Y685801D01*
X4027275Y709990D01*
X4017938Y732531D01*
X4003086Y751887D01*
X3983729Y766739D01*
X3961189Y776076D01*
X3937000Y779261D01*
D02*
G37*
G36*
X3683000D02*
X3658811Y776076D01*
X3636270Y766739D01*
X3616914Y751887D01*
X3602061Y732531D01*
X3592725Y709990D01*
X3589540Y685801D01*
X3592725Y661612D01*
X3602061Y639071D01*
X3616914Y619715D01*
X3636270Y604863D01*
X3658811Y595526D01*
X3683000Y592341D01*
X3707189Y595526D01*
X3729729Y604863D01*
X3749086Y619715D01*
X3763938Y639071D01*
X3773275Y661612D01*
X3776459Y685801D01*
X3773275Y709990D01*
X3763938Y732531D01*
X3749086Y751887D01*
X3729729Y766739D01*
X3707189Y776076D01*
X3683000Y779261D01*
D02*
G37*
G36*
X3175000D02*
X3150811Y776076D01*
X3128270Y766739D01*
X3108914Y751887D01*
X3094061Y732531D01*
X3084725Y709990D01*
X3081540Y685801D01*
X3084725Y661612D01*
X3094061Y639071D01*
X3108914Y619715D01*
X3128270Y604863D01*
X3150811Y595526D01*
X3175000Y592341D01*
X3199189Y595526D01*
X3221729Y604863D01*
X3241086Y619715D01*
X3255938Y639071D01*
X3265275Y661612D01*
X3268459Y685801D01*
X3265275Y709990D01*
X3255938Y732531D01*
X3241086Y751887D01*
X3221729Y766739D01*
X3199189Y776076D01*
X3175000Y779261D01*
D02*
G37*
G36*
X2921000D02*
X2896811Y776076D01*
X2874270Y766739D01*
X2854914Y751887D01*
X2840061Y732531D01*
X2830725Y709990D01*
X2827540Y685801D01*
X2830725Y661612D01*
X2840061Y639071D01*
X2854914Y619715D01*
X2874270Y604863D01*
X2896811Y595526D01*
X2921000Y592341D01*
X2945189Y595526D01*
X2967729Y604863D01*
X2987086Y619715D01*
X3001938Y639071D01*
X3011275Y661612D01*
X3014459Y685801D01*
X3011275Y709990D01*
X3001938Y732531D01*
X2987086Y751887D01*
X2967729Y766739D01*
X2945189Y776076D01*
X2921000Y779261D01*
D02*
G37*
G36*
X2667000D02*
X2642811Y776076D01*
X2620270Y766739D01*
X2600914Y751887D01*
X2586061Y732531D01*
X2576725Y709990D01*
X2573540Y685801D01*
X2576725Y661612D01*
X2586061Y639071D01*
X2600914Y619715D01*
X2620270Y604863D01*
X2642811Y595526D01*
X2667000Y592341D01*
X2691189Y595526D01*
X2713729Y604863D01*
X2733086Y619715D01*
X2747938Y639071D01*
X2757275Y661612D01*
X2760459Y685801D01*
X2757275Y709990D01*
X2747938Y732531D01*
X2733086Y751887D01*
X2713729Y766739D01*
X2691189Y776076D01*
X2667000Y779261D01*
D02*
G37*
G36*
X2413000D02*
X2388811Y776076D01*
X2366270Y766739D01*
X2346914Y751887D01*
X2332061Y732531D01*
X2322725Y709990D01*
X2319540Y685801D01*
X2322725Y661612D01*
X2332061Y639071D01*
X2346914Y619715D01*
X2366270Y604863D01*
X2388811Y595526D01*
X2413000Y592341D01*
X2437189Y595526D01*
X2459729Y604863D01*
X2479086Y619715D01*
X2493938Y639071D01*
X2503275Y661612D01*
X2506459Y685801D01*
X2503275Y709990D01*
X2493938Y732531D01*
X2479086Y751887D01*
X2459729Y766739D01*
X2437189Y776076D01*
X2413000Y779261D01*
D02*
G37*
G36*
X2159000D02*
X2134811Y776076D01*
X2112270Y766739D01*
X2092914Y751887D01*
X2078061Y732531D01*
X2068725Y709990D01*
X2065540Y685801D01*
X2068725Y661612D01*
X2078061Y639071D01*
X2092914Y619715D01*
X2112270Y604863D01*
X2134811Y595526D01*
X2159000Y592341D01*
X2183189Y595526D01*
X2205729Y604863D01*
X2225086Y619715D01*
X2239938Y639071D01*
X2249275Y661612D01*
X2252459Y685801D01*
X2249275Y709990D01*
X2239938Y732531D01*
X2225086Y751887D01*
X2205729Y766739D01*
X2183189Y776076D01*
X2159000Y779261D01*
D02*
G37*
G36*
X1905000D02*
X1880811Y776076D01*
X1858270Y766739D01*
X1838914Y751887D01*
X1824061Y732531D01*
X1814725Y709990D01*
X1811540Y685801D01*
X1814725Y661612D01*
X1824061Y639071D01*
X1838914Y619715D01*
X1858270Y604863D01*
X1880811Y595526D01*
X1905000Y592341D01*
X1929189Y595526D01*
X1951729Y604863D01*
X1971086Y619715D01*
X1985938Y639071D01*
X1995275Y661612D01*
X1998459Y685801D01*
X1995275Y709990D01*
X1985938Y732531D01*
X1971086Y751887D01*
X1951729Y766739D01*
X1929189Y776076D01*
X1905000Y779261D01*
D02*
G37*
G36*
X1651000D02*
X1626811Y776076D01*
X1604270Y766739D01*
X1584914Y751887D01*
X1570061Y732531D01*
X1560725Y709990D01*
X1557540Y685801D01*
X1560725Y661612D01*
X1570061Y639071D01*
X1584914Y619715D01*
X1604270Y604863D01*
X1626811Y595526D01*
X1651000Y592341D01*
X1675189Y595526D01*
X1697729Y604863D01*
X1717086Y619715D01*
X1731938Y639071D01*
X1741275Y661612D01*
X1744459Y685801D01*
X1741275Y709990D01*
X1731938Y732531D01*
X1717086Y751887D01*
X1697729Y766739D01*
X1675189Y776076D01*
X1651000Y779261D01*
D02*
G37*
%LPD*%
G36*
X5105400Y4419600D02*
Y3479800D01*
X4953000Y3327400D01*
X3539671Y3327400D01*
X3514460Y3415641D01*
X3518748Y3422058D01*
X3520507Y3430900D01*
X3518748Y3439741D01*
X3513739Y3447237D01*
X3506244Y3452245D01*
X3497403Y3454004D01*
X3495504Y3453626D01*
X3479800Y3479800D01*
X3492500Y3492500D01*
X3924300D01*
X4498174Y4066374D01*
X3937000Y4064000D01*
X3886200D01*
X3792448Y4157752D01*
Y4402048D01*
X3848100Y4457700D01*
X3987800D01*
X4064000Y4381500D01*
X4572000D01*
X4724400Y4533900D01*
X4991100D01*
X5105400Y4419600D01*
D02*
G37*
G36*
X3213100Y4978400D02*
X3213100Y4089240D01*
X3525322Y3777018D01*
X3525322Y3570080D01*
X3521066Y3567237D01*
X3516057Y3559741D01*
X3514937Y3554109D01*
X3460908Y3486150D01*
X3441700Y3486150D01*
Y3467100D01*
X3427251Y3452651D01*
X3403600D01*
Y3479800D01*
X3390900Y3492500D01*
X3365399D01*
Y3505301D01*
X3356497Y3514203D01*
X3357544Y3522388D01*
X3363840Y3526484D01*
X3370216Y3529226D01*
X3377403Y3527796D01*
X3386244Y3529555D01*
X3393739Y3534563D01*
X3398748Y3542058D01*
X3400507Y3550900D01*
X3398748Y3559741D01*
X3393739Y3567237D01*
X3386244Y3572245D01*
X3377403Y3574004D01*
X3368561Y3572245D01*
X3365500Y3570200D01*
X3352800Y3575985D01*
Y3733800D01*
X3238500Y3848100D01*
X2311401D01*
X2247899Y3911600D01*
X2247900Y4054122D01*
X2413000Y4292600D01*
X2565400Y4521200D01*
X2565399Y4978399D01*
X2667000Y5080000D01*
X3111500D01*
X3213100Y4978400D01*
D02*
G37*
D40*
X1803400Y3612163D02*
X2448691D01*
X2513744Y3547110D01*
X2817872D01*
X2826762Y3556000D01*
X3111399D01*
X3156499Y3510900D01*
X3297403D01*
D41*
X1841500Y1990818D02*
X1863818Y1968500D01*
X1841500Y1990818D02*
Y2692400D01*
X1879600Y2730500D01*
X1863818Y1968500D02*
X2400300D01*
X2979420Y1389380D01*
Y1135380D02*
Y1389380D01*
D42*
X2228620Y2882900D02*
X3365399Y1746121D01*
X1460500Y2882900D02*
X2228620D01*
X1308100Y3873500D02*
X1934367Y3247233D01*
X2124867D01*
X2794000Y2578100D01*
X2997200D02*
X3162300Y2743200D01*
X2794000Y2578100D02*
X2997200D01*
D44*
X5458589Y683390D02*
X5461000Y685801D01*
D45*
X3073400Y3159316D02*
X3184716Y3048000D01*
X3592389D01*
X3492749Y1694362D02*
Y1968585D01*
X3429000Y1630613D02*
X3492749Y1694362D01*
X3429000Y685800D02*
Y1630613D01*
X3595174Y3048000D02*
X3860800D01*
X3886200Y3022600D01*
Y2829105D02*
Y3022600D01*
X3792448Y2735352D02*
X3886200Y2829105D01*
X3721100Y2664005D02*
X3792448Y2735352D01*
X3492749Y1968585D02*
X3721100Y2196936D01*
Y2664005D01*
D49*
X1651000Y685801D02*
D03*
X1905000D02*
D03*
X2159000D02*
D03*
X2413000D02*
D03*
X2667000D02*
D03*
X2921000D02*
D03*
X3175000D02*
D03*
X3429000D02*
D03*
X3683000D02*
D03*
X3937000D02*
D03*
X4191000D02*
D03*
X4445000D02*
D03*
X4699000D02*
D03*
X4953000D02*
D03*
X5207000D02*
D03*
X5461000D02*
D03*
D50*
X609600Y1170803D02*
D03*
X2324100Y3949700D02*
D03*
X2979420Y1135380D02*
D03*
X4109720Y5731632D02*
D03*
X3429000Y2844800D02*
D03*
X4109720Y3517900D02*
D03*
X6096000Y5295900D02*
D03*
X4391660Y2618740D02*
D03*
X5989320Y4411980D02*
D03*
D51*
X8572500Y475080D02*
D03*
Y6756500D02*
D03*
X13876019D02*
D03*
Y475080D02*
D03*
X454660D02*
D03*
Y6756500D02*
D03*
D52*
X7112000Y1589990D02*
D03*
D53*
X6858000D02*
D03*
X6604000D02*
D03*
X6350000D02*
D03*
Y827990D02*
D03*
X6604000D02*
D03*
X6858000D02*
D03*
X7112000D02*
D03*
D54*
X3543300Y5981700D02*
D03*
X3289300D02*
D03*
D55*
X3543300Y5727700D02*
D03*
X3289300D02*
D03*
D56*
X3559400Y6476120D02*
D03*
X2695400D02*
D03*
D57*
X3559400Y6856120D02*
D03*
X2695400D02*
D03*
D58*
X6814299Y3081400D02*
D03*
Y4081398D02*
D03*
D59*
X1021080Y4676240D02*
D03*
X4965700Y4229100D02*
D03*
X4935220Y6746122D02*
D03*
X4077401D02*
D03*
D60*
X1021080Y4422240D02*
D03*
D61*
X5219700Y4229100D02*
D03*
X5189220Y6746122D02*
D03*
X4331401D02*
D03*
D62*
X4381399Y1746121D02*
D03*
D63*
X4127399D02*
D03*
X3873399D02*
D03*
X3619399D02*
D03*
X3365399D02*
D03*
X3111399D02*
D03*
D64*
X3073400Y3159316D02*
D03*
X2171700Y3105518D02*
D03*
X4368800Y6235700D02*
D03*
X5016500Y6261100D02*
D03*
X1511300Y3009900D02*
D03*
X2159000Y4655437D02*
D03*
X2743200Y6261100D02*
D03*
X3441700D02*
D03*
X2171700Y6502400D02*
D03*
Y6896100D02*
D03*
X800100Y3733800D02*
D03*
X708599Y2908300D02*
D03*
X1651000Y3378200D02*
D03*
X1803400Y3612163D02*
D03*
X4368800Y4787900D02*
D03*
X1930400Y1320800D02*
D03*
X3162300Y2743200D02*
D03*
X1905000Y1866900D02*
D03*
X1866900Y3416300D02*
D03*
X3615690Y3094745D02*
D03*
X3600920Y2965081D02*
D03*
X2222500Y1308100D02*
D03*
X3073400Y3276600D02*
D03*
X4711700Y5410200D02*
D03*
X3022600Y3226401D02*
D03*
X2971800Y3378200D02*
D03*
X1308100Y3873500D02*
D03*
X6007100Y5727700D02*
D03*
X4622800Y1371600D02*
D03*
X4500548Y4787900D02*
D03*
X3606800Y2298700D02*
D03*
X2108200Y2694940D02*
D03*
X1943100Y3185003D02*
D03*
X2489200Y3505200D02*
D03*
X2552700Y3594100D02*
D03*
X2641600Y3657600D02*
D03*
X2870200Y3632200D02*
D03*
X2552700Y3810000D02*
D03*
X4749800Y6286500D02*
D03*
X3175000Y6667500D02*
D03*
X4660900Y6286500D02*
D03*
D65*
X3377403Y3310900D02*
D03*
X1879600Y2730500D02*
D03*
X3577403Y3550900D02*
D03*
X1460500Y2882900D02*
D03*
X3417403Y3470900D02*
D03*
X3457403Y3511761D02*
D03*
X3417403Y3510900D02*
D03*
X3377403D02*
D03*
X3417403Y3550900D02*
D03*
X3577403Y3390900D02*
D03*
X3537403D02*
D03*
X3577403Y3430900D02*
D03*
X3537403D02*
D03*
X3497403Y3470900D02*
D03*
Y3430900D02*
D03*
X3537403Y3550900D02*
D03*
Y3270900D02*
D03*
X3497403Y3390900D02*
D03*
X2171700Y3009900D02*
D03*
X3337403Y3270900D02*
D03*
Y3390900D02*
D03*
X3297403Y3510900D02*
D03*
X3417403Y3310900D02*
D03*
Y3350900D02*
D03*
X3337403Y3550900D02*
D03*
X3377403D02*
D03*
D66*
X3886200Y4419600D02*
D03*
D67*
X2679700Y2171700D02*
D03*
D68*
X3075400Y6665500D02*
D03*
%TF.MD5,7ab0106635c76ecb9eff74f23142a299*%
M02*
