%TF.GenerationSoftware,Altium Limited,Altium Designer,19.0.15 (446)*%
G04 Layer_Color=0*
%FSLAX45Y45*%
%MOMM*%
%TF.FileFunction,Other,Top_Component_Center*%
%TF.Part,Single*%
G01*
G75*
%TA.AperFunction,NonConductor*%
%ADD92C,0.10000*%
%ADD122C,0.05000*%
D92*
X3604794Y4480600D02*
Y4580600D01*
X3554794Y4530600D02*
X3654794D01*
X3604794Y4280600D02*
Y4380600D01*
X3554794Y4330600D02*
X3654794D01*
X3604794Y4105600D02*
Y4205600D01*
X3554794Y4155600D02*
X3654794D01*
X3206846Y4487200D02*
Y4587200D01*
X3156846Y4537200D02*
X3256845D01*
X3215846Y4280600D02*
Y4380600D01*
X3165846Y4330600D02*
X3265846D01*
X3215846Y4105600D02*
Y4205600D01*
X3165846Y4155600D02*
X3265846D01*
X2743200Y2985300D02*
Y3085300D01*
X2693200Y3035300D02*
X2793200D01*
X2298700Y2985300D02*
Y3085300D01*
X2248700Y3035300D02*
X2348700D01*
X3606800Y4687100D02*
Y4787100D01*
X3556800Y4737100D02*
X3656800D01*
X3211065Y4687100D02*
Y4787100D01*
X3161065Y4737100D02*
X3261065D01*
X813602Y3149601D02*
X913601D01*
X863599Y3099599D02*
Y3199599D01*
X813598Y3479799D02*
X913598D01*
X863600Y3429802D02*
Y3529802D01*
X4614093Y5620156D02*
X4714093D01*
X4664096Y5570154D02*
Y5670154D01*
X3582202Y3784600D02*
X3682202D01*
X3632199Y3734598D02*
Y3834598D01*
X3688882Y2941318D02*
X3788881D01*
X3738879Y2891321D02*
Y2991321D01*
X4945583Y3158280D02*
X5045583D01*
X4995581Y3108278D02*
Y3208278D01*
X4945583Y2858281D02*
X5045583D01*
X4995581Y2808278D02*
Y2908278D01*
X4945583Y2558281D02*
X5045583D01*
X4995581Y2508279D02*
Y2608279D01*
X4944379Y2254980D02*
X5044379D01*
X4994382Y2204983D02*
Y2304982D01*
X1893099Y3056888D02*
X1993099D01*
X1943102Y3006891D02*
Y3106891D01*
X2475498Y3047998D02*
X2575498D01*
X2525495Y2998001D02*
Y3098001D01*
D122*
X1117599Y750098D02*
Y850098D01*
X1067602Y800100D02*
X1167602D01*
X11418099Y3568699D02*
X11518099D01*
X11468102Y3518701D02*
Y3618701D01*
X1249401Y3271122D02*
Y3371122D01*
X1199398Y3321120D02*
X1299398D01*
%TF.MD5,5ef5163c631eb5e277a51b97b2cf5751*%
M02*
