%TF.GenerationSoftware,Altium Limited,Altium Designer,19.0.15 (446)*%
G04 Layer_Color=8388736*
%FSLAX45Y45*%
%MOMM*%
%TF.FileFunction,Soldermask,Top*%
%TF.Part,Single*%
G01*
G75*
%TA.AperFunction,SMDPad,CuDef*%
%ADD10R,0.70000X1.30000*%
%ADD12R,0.50000X0.50000*%
%ADD21R,1.26213X1.00776*%
%ADD23R,1.00776X1.26213*%
%ADD31R,1.10000X1.60000*%
%ADD32R,0.61535X0.57247*%
%ADD33R,0.51535X0.47247*%
%ADD34R,1.35464X1.80620*%
%ADD36R,0.47247X0.51535*%
%TA.AperFunction,ComponentPad*%
%ADD72C,1.85320*%
%TA.AperFunction,TestPad*%
%ADD73C,1.30320*%
%TA.AperFunction,ViaPad*%
%ADD74C,4.70320*%
%TA.AperFunction,ComponentPad*%
%ADD75R,1.70320X1.70320*%
%ADD76C,1.70320*%
%ADD77C,1.73320*%
%ADD78R,1.73320X1.73320*%
%ADD79C,2.10320*%
%ADD80C,2.45320*%
%ADD81C,6.20320*%
%ADD82C,1.92820*%
%ADD83R,1.92820X1.92820*%
%ADD84R,1.92820X1.92820*%
%ADD85R,2.22820X2.22820*%
%ADD86C,2.22820*%
%TA.AperFunction,ViaPad*%
%ADD87C,0.45320*%
%ADD88C,0.63500*%
%ADD89C,0.66040*%
%TA.AperFunction,SMDPad,CuDef*%
%ADD97R,0.70320X0.65320*%
%ADD98R,0.70320X0.70320*%
%ADD99R,0.90320X0.60320*%
%ADD100R,0.82320X0.76320*%
%ADD101R,0.80320X0.75320*%
%ADD102R,1.65320X2.30320*%
%ADD103R,1.00320X1.00320*%
%TA.AperFunction,BGAPad,CuDef*%
%ADD104C,0.41920*%
%TA.AperFunction,SMDPad,CuDef*%
%ADD105R,0.60320X0.90320*%
%ADD106R,0.70320X0.70320*%
%ADD107R,0.80320X0.95320*%
%ADD108R,1.60320X1.40320*%
%ADD109R,0.90320X1.35320*%
%ADD110R,1.00320X1.35320*%
%ADD111R,1.10320X1.35320*%
%ADD112R,0.95320X0.80320*%
%ADD113R,0.75320X0.80320*%
%ADD114R,0.85320X0.90320*%
%ADD115R,1.88320X1.27320*%
%ADD116R,4.01320X2.28320*%
%ADD117R,9.09320X11.63320*%
%ADD118R,1.20320X1.00320*%
%TA.AperFunction,ViaPad*%
%ADD119C,0.76200*%
%ADD120C,1.27000*%
D10*
X3509794Y4530600D02*
D03*
X3699794D02*
D03*
X3509794Y4330600D02*
D03*
X3699794D02*
D03*
X3509794Y4155600D02*
D03*
X3699794D02*
D03*
X3301846Y4537200D02*
D03*
X3111845D02*
D03*
X3310846Y4330600D02*
D03*
X3120846D02*
D03*
X3310846Y4155600D02*
D03*
X3120846D02*
D03*
D12*
X2525495Y2998001D02*
D03*
Y3098001D02*
D03*
D21*
X2743200Y3105518D02*
D03*
Y2965081D02*
D03*
X2298700Y3105518D02*
D03*
Y2965081D02*
D03*
D23*
X3536581Y4737100D02*
D03*
X3677018D02*
D03*
X3281283D02*
D03*
X3140846D02*
D03*
D31*
X1018600Y3149601D02*
D03*
X708598D02*
D03*
X1018601Y3479799D02*
D03*
X708599D02*
D03*
D32*
X4706951Y5620156D02*
D03*
X4621241D02*
D03*
D33*
X3670056Y3784600D02*
D03*
X3594343D02*
D03*
X3701023Y2941318D02*
D03*
X3776735D02*
D03*
D34*
X4858004Y3158280D02*
D03*
X5133157D02*
D03*
X4858004Y2858281D02*
D03*
X5133157D02*
D03*
X4858004Y2558281D02*
D03*
X5133157D02*
D03*
X4856805Y2254980D02*
D03*
X5131958D02*
D03*
D36*
X1943102Y3019032D02*
D03*
Y3094745D02*
D03*
D72*
X1651000Y685801D02*
D03*
X1905000D02*
D03*
X2159000D02*
D03*
X2413000D02*
D03*
X2667000D02*
D03*
X2921000D02*
D03*
X3175000D02*
D03*
X3429000D02*
D03*
X3683000D02*
D03*
X3937000D02*
D03*
X4191000D02*
D03*
X4445000D02*
D03*
X4699000D02*
D03*
X4953000D02*
D03*
X5207000D02*
D03*
X5461000D02*
D03*
D73*
X609600Y1170803D02*
D03*
X2324100Y3949700D02*
D03*
X2979420Y1135380D02*
D03*
X4109720Y5731632D02*
D03*
X3429000Y2844800D02*
D03*
X4109720Y3517900D02*
D03*
X6096000Y5295900D02*
D03*
X4391660Y2618740D02*
D03*
X5989320Y4411980D02*
D03*
D74*
X8572500Y475080D02*
D03*
Y6756500D02*
D03*
X13876019D02*
D03*
Y475080D02*
D03*
X454660D02*
D03*
Y6756500D02*
D03*
D75*
X7112000Y1589990D02*
D03*
D76*
X6858000D02*
D03*
X6604000D02*
D03*
X6350000D02*
D03*
Y827990D02*
D03*
X6604000D02*
D03*
X6858000D02*
D03*
X7112000D02*
D03*
D77*
X3543300Y5981700D02*
D03*
X3289300D02*
D03*
D78*
X3543300Y5727700D02*
D03*
X3289300D02*
D03*
D79*
X3559400Y6476120D02*
D03*
X2695400D02*
D03*
D80*
X3559400Y6856120D02*
D03*
X2695400D02*
D03*
D81*
X6814299Y3081400D02*
D03*
Y4081398D02*
D03*
D82*
X1021080Y4676240D02*
D03*
X4965700Y4229100D02*
D03*
X4935220Y6746122D02*
D03*
X4077401D02*
D03*
D83*
X1021080Y4422240D02*
D03*
D84*
X5219700Y4229100D02*
D03*
X5189220Y6746122D02*
D03*
X4331401D02*
D03*
D85*
X4381399Y1746121D02*
D03*
D86*
X4127399D02*
D03*
X3873399D02*
D03*
X3619399D02*
D03*
X3365399D02*
D03*
X3111399D02*
D03*
D87*
X3377403Y3310900D02*
D03*
X1879600Y2730500D02*
D03*
X3577403Y3550900D02*
D03*
X1460500Y2882900D02*
D03*
X3417403Y3470900D02*
D03*
X3457403Y3511761D02*
D03*
X3417403Y3510900D02*
D03*
X3377403D02*
D03*
X3417403Y3550900D02*
D03*
X3577403Y3390900D02*
D03*
X3537403D02*
D03*
X3577403Y3430900D02*
D03*
X3537403D02*
D03*
X3497403Y3470900D02*
D03*
Y3430900D02*
D03*
X3537403Y3550900D02*
D03*
Y3270900D02*
D03*
X3497403Y3390900D02*
D03*
X2171700Y3009900D02*
D03*
X3337403Y3270900D02*
D03*
Y3390900D02*
D03*
X3297403Y3510900D02*
D03*
X3417403Y3310900D02*
D03*
Y3350900D02*
D03*
X3337403Y3550900D02*
D03*
X3377403D02*
D03*
D88*
X3073400Y3159316D02*
D03*
X2171700Y3105518D02*
D03*
X4368800Y6235700D02*
D03*
X5016500Y6261100D02*
D03*
X1511300Y3009900D02*
D03*
X2159000Y4655437D02*
D03*
X2743200Y6261100D02*
D03*
X3441700D02*
D03*
X2171700Y6502400D02*
D03*
Y6896100D02*
D03*
X800100Y3733800D02*
D03*
X708599Y2908300D02*
D03*
X1651000Y3378200D02*
D03*
X1803400Y3612163D02*
D03*
X4368800Y4787900D02*
D03*
X1930400Y1320800D02*
D03*
X3162300Y2743200D02*
D03*
X1905000Y1866900D02*
D03*
X1866900Y3416300D02*
D03*
X3615690Y3094745D02*
D03*
X3600920Y2965081D02*
D03*
X2222500Y1308100D02*
D03*
X3073400Y3276600D02*
D03*
X4711700Y5410200D02*
D03*
X3022600Y3226401D02*
D03*
X2971800Y3378200D02*
D03*
X1308100Y3873500D02*
D03*
X6007100Y5727700D02*
D03*
X4622800Y1371600D02*
D03*
X4500548Y4787900D02*
D03*
X3606800Y2298700D02*
D03*
X2108200Y2694940D02*
D03*
X1943100Y3185003D02*
D03*
X2489200Y3505200D02*
D03*
X2552700Y3594100D02*
D03*
X2641600Y3657600D02*
D03*
X2870200Y3632200D02*
D03*
X2552700Y3810000D02*
D03*
X4749800Y6286500D02*
D03*
X3175000Y6667500D02*
D03*
X4660900Y6286500D02*
D03*
D89*
X3075400Y6665500D02*
D03*
D97*
X4902800Y4914900D02*
D03*
X4977800D02*
D03*
X5049859Y5778500D02*
D03*
X4974863D02*
D03*
X5049859Y5610818D02*
D03*
X4974858D02*
D03*
D98*
X2082792Y3098006D02*
D03*
Y2998006D02*
D03*
X2349500Y6834200D02*
D03*
Y6934200D02*
D03*
D99*
X4272619Y5791199D02*
D03*
Y5871399D02*
D03*
D100*
X5562589Y4729204D02*
D03*
Y4825204D02*
D03*
X5137251Y4914899D02*
D03*
Y4818900D02*
D03*
D101*
X1451957Y1092199D02*
D03*
X1366957D02*
D03*
X5431699Y5778500D02*
D03*
X5346700D02*
D03*
D102*
X2159000Y5023900D02*
D03*
Y5313900D02*
D03*
X6248402Y6037800D02*
D03*
Y5747798D02*
D03*
D103*
X1117599Y880100D02*
D03*
Y720100D02*
D03*
X1249401Y3401119D02*
D03*
Y3241120D02*
D03*
X4495799Y5091501D02*
D03*
Y4941499D02*
D03*
D104*
X3257403Y3270900D02*
D03*
Y3310900D02*
D03*
Y3350900D02*
D03*
Y3390900D02*
D03*
Y3430900D02*
D03*
Y3470900D02*
D03*
Y3510900D02*
D03*
Y3550900D02*
D03*
X3297403Y3270900D02*
D03*
Y3310900D02*
D03*
Y3350900D02*
D03*
Y3390900D02*
D03*
Y3430900D02*
D03*
Y3470900D02*
D03*
Y3510900D02*
D03*
Y3550900D02*
D03*
X3337403Y3270900D02*
D03*
Y3310900D02*
D03*
Y3350900D02*
D03*
Y3430900D02*
D03*
Y3470900D02*
D03*
Y3510900D02*
D03*
Y3550900D02*
D03*
X3377403Y3270900D02*
D03*
Y3310900D02*
D03*
Y3350900D02*
D03*
Y3390900D02*
D03*
Y3430900D02*
D03*
Y3470900D02*
D03*
Y3510900D02*
D03*
Y3550900D02*
D03*
X3417403Y3270900D02*
D03*
Y3310900D02*
D03*
Y3350900D02*
D03*
Y3390900D02*
D03*
Y3430900D02*
D03*
Y3470900D02*
D03*
Y3510900D02*
D03*
Y3550900D02*
D03*
X3457403Y3270900D02*
D03*
Y3310900D02*
D03*
Y3350900D02*
D03*
Y3390900D02*
D03*
Y3430900D02*
D03*
Y3470900D02*
D03*
Y3510900D02*
D03*
Y3550900D02*
D03*
X3497403Y3270900D02*
D03*
Y3310900D02*
D03*
Y3350900D02*
D03*
Y3390900D02*
D03*
Y3430900D02*
D03*
Y3470900D02*
D03*
Y3510900D02*
D03*
Y3550900D02*
D03*
X3537403Y3270900D02*
D03*
Y3310900D02*
D03*
Y3350900D02*
D03*
Y3390900D02*
D03*
Y3430900D02*
D03*
Y3470900D02*
D03*
Y3510900D02*
D03*
Y3550900D02*
D03*
X3577403Y3270900D02*
D03*
Y3310900D02*
D03*
Y3350900D02*
D03*
Y3390900D02*
D03*
Y3430900D02*
D03*
Y3470900D02*
D03*
Y3510900D02*
D03*
Y3550900D02*
D03*
X3337403Y3390900D02*
D03*
D105*
X5887670Y5778498D02*
D03*
X5817668D02*
D03*
D106*
X4567499Y5778500D02*
D03*
X4667499D02*
D03*
X5862359Y5610818D02*
D03*
X5762360D02*
D03*
X5437361D02*
D03*
X5337362D02*
D03*
D107*
X2362198Y6460101D02*
D03*
Y6570098D02*
D03*
D108*
X2895598Y5164998D02*
D03*
Y4995001D02*
D03*
D109*
X3177400Y6475620D02*
D03*
X3077400D02*
D03*
D110*
X2975400D02*
D03*
X3279400D02*
D03*
D111*
X2852400D02*
D03*
X3402400D02*
D03*
D112*
X5401702Y4914901D02*
D03*
X5291700D02*
D03*
X5740798Y4833896D02*
D03*
X5850800D02*
D03*
D113*
X4711699Y4932002D02*
D03*
Y4846999D02*
D03*
D114*
X4533898Y6283199D02*
D03*
Y6188198D02*
D03*
X4864101Y6283199D02*
D03*
Y6188198D02*
D03*
D115*
X2628900Y5441701D02*
D03*
Y5727700D02*
D03*
D116*
X2283460Y2169260D02*
D03*
Y1661260D02*
D03*
D117*
X1140460Y1915260D02*
D03*
D118*
X3022600Y2631298D02*
D03*
Y2781300D02*
D03*
D119*
X3886200Y4419600D02*
D03*
D120*
X2679700Y2171700D02*
D03*
%TF.MD5,f67b922827e2ffc040753805a473e44f*%
M02*
