%TF.GenerationSoftware,Altium Limited,Altium Designer,19.0.15 (446)*%
G04 Layer_Color=16711935*
%FSLAX45Y45*%
%MOMM*%
%TF.FileFunction,Other,Top_3D_Body*%
%TF.Part,Single*%
G01*
G75*
%TA.AperFunction,NonConductor*%
%ADD90C,0.20000*%
%ADD91C,0.30000*%
%ADD92C,0.10000*%
%ADD94C,0.12700*%
%ADD122C,0.05000*%
%ADD125R,2.79000X0.61870*%
%ADD126R,2.78999X0.61869*%
D90*
X3714794Y4458100D02*
Y4603100D01*
X3494794D02*
X3714794D01*
X3494794Y4458100D02*
Y4603100D01*
Y4458100D02*
X3714794D01*
Y4258100D02*
Y4403100D01*
X3494794D02*
X3714794D01*
X3494794Y4258100D02*
Y4403100D01*
Y4258100D02*
X3714794D01*
Y4083100D02*
Y4228100D01*
X3494794D02*
X3714794D01*
X3494794Y4083100D02*
Y4228100D01*
Y4083100D02*
X3714794D01*
X3096845Y4464700D02*
Y4609700D01*
Y4464700D02*
X3316846D01*
Y4609700D01*
X3096845D02*
X3316846D01*
X3105846Y4258100D02*
Y4403100D01*
Y4258100D02*
X3325846D01*
Y4403100D01*
X3105846D02*
X3325846D01*
X3105846Y4083100D02*
Y4228100D01*
Y4083100D02*
X3325846D01*
Y4228100D01*
X3105846D02*
X3325846D01*
X1397000Y812801D02*
X5715000D01*
Y558801D02*
Y812801D01*
X1397000Y558801D02*
X5715000D01*
X1397000D02*
Y812801D01*
X4242619Y5786399D02*
Y5886399D01*
X4302619D01*
Y5786399D02*
Y5886399D01*
X4242619Y5786399D02*
X4302619D01*
X5802672Y5748501D02*
Y5808501D01*
Y5748501D02*
X5902672D01*
Y5808501D01*
X5802672D02*
X5902672D01*
X2805700Y2935300D02*
Y3135300D01*
X2680700Y2935300D02*
X2805700D01*
X2680700D02*
Y3135300D01*
X2805700D01*
X2361200Y2935300D02*
Y3135300D01*
X2236200Y2935300D02*
X2361200D01*
X2236200D02*
Y3135300D01*
X2361200D01*
X3706800Y4674600D02*
Y4799600D01*
X3506800D02*
X3706800D01*
X3506800Y4674600D02*
Y4799600D01*
Y4674600D02*
X3706800D01*
X3111065D02*
Y4799600D01*
Y4674600D02*
X3311065D01*
Y4799600D01*
X3111065D02*
X3311065D01*
X698601Y3064598D02*
X1028597D01*
X698601D02*
Y3234600D01*
X1028597D01*
Y3064598D02*
Y3234600D01*
X698602Y3394801D02*
X1028599D01*
X698602D02*
Y3564798D01*
X1028599D01*
Y3394801D02*
Y3564798D01*
X4614093Y5595152D02*
X4714093D01*
X4614093D02*
Y5645155D01*
X4714093D01*
Y5595152D02*
Y5645155D01*
X3582202Y3759602D02*
X3682202D01*
X3582202D02*
Y3809599D01*
X3682202D01*
Y3759602D02*
Y3809599D01*
X3688882Y2966322D02*
X3788881D01*
Y2916320D02*
Y2966322D01*
X3688882Y2916320D02*
X3788881D01*
X3688882D02*
Y2966322D01*
X4835581Y3238280D02*
X5155580D01*
Y3078280D02*
Y3238280D01*
X4835581Y3078280D02*
X5155580D01*
X4835581D02*
Y3238280D01*
Y2938281D02*
X5155580D01*
Y2778281D02*
Y2938281D01*
X4835581Y2778281D02*
X5155580D01*
X4835581D02*
Y2938281D01*
Y2638281D02*
X5155580D01*
Y2478282D02*
Y2638281D01*
X4835581Y2478282D02*
X5155580D01*
X4835581D02*
Y2638281D01*
X4834382Y2334980D02*
X5154382D01*
Y2174980D02*
Y2334980D01*
X4834382Y2174980D02*
X5154382D01*
X4834382D02*
Y2334980D01*
X1918098Y3106891D02*
X1968100D01*
X1918098Y3006891D02*
Y3106891D01*
Y3006891D02*
X1968100D01*
Y3106891D01*
X2497997Y3100500D02*
X2552998D01*
X2497997Y2995502D02*
Y3100500D01*
Y2995502D02*
X2552998D01*
Y3100500D01*
X1092957Y2435960D02*
X1973961D01*
Y1394560D02*
Y2435960D01*
X1092957Y1394560D02*
X1973961D01*
X1092957D02*
Y2435960D01*
D91*
X3774300Y5689800D02*
G03*
X3774300Y5689800I-10000J0D01*
G01*
D92*
X4887800Y4887400D02*
Y4942400D01*
X4992800Y4887400D02*
Y4942400D01*
X4887800D02*
X4992800D01*
X4887800Y4887400D02*
X4992800D01*
X1461957Y1064699D02*
Y1119699D01*
X1356957Y1064699D02*
Y1119699D01*
Y1064699D02*
X1461957D01*
X1356957Y1119699D02*
X1461957D01*
X2019500Y4938900D02*
Y5398900D01*
X2298500Y4938900D02*
Y5398900D01*
X2019500Y4938900D02*
X2298500D01*
X2019500Y5398900D02*
X2298500D01*
X3508703Y3574100D02*
X3601003Y3481800D01*
X3233703Y3574100D02*
X3601003D01*
X3233703Y3247700D02*
Y3574100D01*
Y3247700D02*
X3601003D01*
Y3574100D01*
X5336703Y5751002D02*
X5441701D01*
X5336703Y5806003D02*
X5441701D01*
Y5751002D02*
Y5806003D01*
X5336703Y5751002D02*
Y5806003D01*
X4959862Y5751002D02*
X5064860D01*
X4959862Y5806003D02*
X5064860D01*
Y5751002D02*
Y5806003D01*
X4959862Y5751002D02*
Y5806003D01*
X7249000Y690990D02*
Y1726990D01*
X6213000Y690990D02*
X7249000D01*
X6213000D02*
Y1726990D01*
X7249000D01*
X7122000D02*
X7249000Y1599990D01*
X2337199Y6465099D02*
Y6565099D01*
X2387201D01*
Y6465099D02*
Y6565099D01*
X2337199Y6465099D02*
X2387201D01*
X2955598Y4980000D02*
Y5179999D01*
X2835598Y4980000D02*
X2955598D01*
X2835598D02*
Y5179999D01*
X2955598D01*
X2680400Y7116120D02*
X3574400D01*
X2680400Y6426120D02*
Y7116120D01*
Y6426120D02*
X3574400D01*
Y7116120D01*
X8803098Y903700D02*
X14133099D01*
Y6233702D01*
X8803098D02*
X14133099D01*
X8803098Y903700D02*
Y6233702D01*
X1153079Y4270241D02*
Y4828239D01*
X889082D02*
X1153079D01*
X889082Y4270241D02*
Y4828239D01*
Y4270241D02*
X1153079D01*
X4813701Y4361099D02*
X5371699D01*
X4813701Y4097101D02*
Y4361099D01*
Y4097101D02*
X5371699D01*
Y4361099D01*
X4783216Y6878120D02*
X5341219D01*
X4783216Y6614118D02*
Y6878120D01*
Y6614118D02*
X5341219D01*
Y6878120D01*
X5296698Y4889903D02*
X5396698D01*
X5296698D02*
Y4939900D01*
X5396698D01*
Y4889903D02*
Y4939900D01*
X4739202Y4837001D02*
Y4942000D01*
X4684201Y4837001D02*
Y4942000D01*
X4739202D01*
X4684201Y4837001D02*
X4739202D01*
X4561401Y6183199D02*
Y6288198D01*
X4506400Y6183199D02*
Y6288198D01*
X4561401D01*
X4506400Y6183199D02*
X4561401D01*
X4891599Y6183199D02*
Y6288203D01*
X4836598Y6183199D02*
Y6288203D01*
X4891599D01*
X4836598Y6183199D02*
X4891599D01*
X4959862Y5583320D02*
X5064860D01*
X4959862Y5638321D02*
X5064860D01*
Y5583320D02*
Y5638321D01*
X4959862Y5583320D02*
Y5638321D01*
X4455800Y4936500D02*
Y5096500D01*
X4535799Y4936500D02*
Y5096500D01*
X4455800Y4936500D02*
X4535799D01*
X4455800Y5096500D02*
X4535799D01*
X5845796Y4808897D02*
Y4858900D01*
X5745796D02*
X5845796D01*
X5745796Y4808897D02*
Y4858900D01*
Y4808897D02*
X5845796D01*
X3925403Y6878120D02*
X4483400D01*
X3925403Y6614118D02*
Y6878120D01*
Y6614118D02*
X4483400D01*
Y6878120D01*
X6387898Y5662799D02*
Y6122798D01*
X6108900Y5662799D02*
Y6122798D01*
X6387898D01*
X6108900Y5662799D02*
X6387898D01*
X2551400Y5739699D02*
X2706400D01*
X2551400Y5429702D02*
Y5739699D01*
Y5429702D02*
X2706400D01*
Y5739699D01*
X4533402Y1599122D02*
Y1873121D01*
X2924399Y1599122D02*
X4533402D01*
X2924399D02*
Y1873121D01*
X4533402D01*
X2977601Y2621295D02*
X3067604D01*
X2977601Y2791297D02*
X3067604D01*
X2977601Y2621295D02*
Y2791297D01*
X3067604Y2621295D02*
Y2791297D01*
D94*
X3137300Y5600700D02*
X3695300D01*
Y6108700D01*
X3137300D02*
X3695300D01*
X3137300Y5600700D02*
Y6108700D01*
D122*
X2057789Y2998006D02*
X2107791D01*
X2057789Y3098006D02*
X2107791D01*
X2057789Y2998006D02*
Y3098006D01*
X2107791Y2998006D02*
Y3098006D01*
X4667499Y5753501D02*
Y5803504D01*
X4567499Y5753501D02*
Y5803504D01*
Y5753501D02*
X4667499D01*
X4567499Y5803504D02*
X4667499D01*
X2324501Y6934200D02*
X2374499D01*
X2324501Y6834200D02*
X2374499D01*
Y6934200D01*
X2324501Y6834200D02*
Y6934200D01*
X5762360Y5635822D02*
X5862359D01*
X5762360Y5585819D02*
X5862359D01*
X5762360D02*
Y5635822D01*
X5862359Y5585819D02*
Y5635822D01*
X5337362D02*
X5437361D01*
X5337362Y5585819D02*
X5437361D01*
X5337362D02*
Y5635822D01*
X5437361Y5585819D02*
Y5635822D01*
D125*
X2159000Y4969837D02*
D03*
D126*
X6248434Y6091863D02*
D03*
%TF.MD5,556d426f059f41aaacfe05f62dcac563*%
M02*
