%TF.GenerationSoftware,Altium Limited,Altium Designer,19.0.15 (446)*%
G04 Layer_Color=32768*
%FSLAX45Y45*%
%MOMM*%
%TF.FileFunction,Other,Top_Component_Outline*%
%TF.Part,Single*%
G01*
G75*
%TA.AperFunction,NonConductor*%
%ADD92C,0.10000*%
%ADD122C,0.05000*%
%ADD127R,0.80000X0.30002*%
D92*
X1077600Y720100D02*
Y880100D01*
X1157599D01*
Y720100D02*
Y880100D01*
X1077600Y720100D02*
X1157599D01*
X8803098Y903700D02*
Y6233702D01*
X14133099D01*
Y903700D02*
Y6233702D01*
X8803098Y903700D02*
X14133099D01*
X1209401Y3241120D02*
Y3401119D01*
X1289401D01*
Y3241120D02*
Y3401119D01*
X1209401Y3241120D02*
X1289401D01*
X4455800Y5096500D02*
X4535799D01*
X4455800Y4936500D02*
X4535799D01*
Y5096500D01*
X4455800Y4936500D02*
Y5096500D01*
D122*
X2057789Y3098006D02*
X2107791D01*
X2057789Y2998006D02*
Y3098006D01*
X2107791Y2998006D02*
Y3098006D01*
X2057789Y2998006D02*
X2107791D01*
X4567499Y5753501D02*
Y5803504D01*
Y5753501D02*
X4667499D01*
X4567499Y5803504D02*
X4667499D01*
Y5753501D02*
Y5803504D01*
X2324501Y6834200D02*
X2374499D01*
Y6934200D01*
X2324501Y6834200D02*
Y6934200D01*
X2374499D01*
X5862359Y5585819D02*
Y5635822D01*
X5762360D02*
X5862359D01*
X5762360Y5585819D02*
X5862359D01*
X5762360D02*
Y5635822D01*
X5437361Y5585819D02*
Y5635822D01*
X5337362D02*
X5437361D01*
X5337362Y5585819D02*
X5437361D01*
X5337362D02*
Y5635822D01*
D127*
X1117598Y735100D02*
D03*
X1249437Y3256126D02*
D03*
%TF.MD5,e281389d845fc7b1a0ef06732f837535*%
M02*
